<svg version="1.1"  xmlns="http://www.w3.org/2000/svg" width="24" height="24" viewBox="0 0 24 24">
<polygon id="svg-ico" class="announc0" fill="#f8b3b5" points="21.6,19.4 6.7,14.3 6.7,10.4 21.5,4.5 21.5,19.4 "/>
<g>
	<path class="announc1" fill="#5C65AD" d="M22.8,2.9c-0.2-0.1-0.4-0.2-0.7-0.1L6,9H1.5l0,0C1.1,9,0.7,9.3,0.7,9.7V15c0,0.4,0.3,0.8,0.8,0.8l0,0h4.6
		l1.5,0.5v0.1v2.2c0,0.9,0.8,1.7,1.7,1.7h3.1c0.9,0,1.7-0.8,1.7-1.7v-0.2l8.1,2.7c0.1,0,0.1,0,0.2,0c0.2,0,0.3-0.1,0.5-0.2
		s0.3-0.4,0.3-0.6V3.5C23.1,3.2,23,3,22.8,2.9z M5.2,14.2H2.3v-3.7h2.9V14.2z M12.5,18.6c0,0.1-0.1,0.2-0.2,0.2H9.2
		c-0.1,0-0.2-0.1-0.2-0.2v-1.3l3.5,0.7V18.6z M21.6,19.4L6.7,14.3v-3.9l14.8-5.9v14.9H21.6z"/>
	<path class="announc1" fill="#5C65AD" d="M14.1,10.9l4.8-2.1c0.4-0.2,0.6-0.6,0.4-1c-0.2-0.4-0.6-0.6-1-0.4l-4.8,2.1c-0.4,0.2-0.6,0.6-0.4,1
		C13.3,10.9,13.7,11.1,14.1,10.9z"/>
</g>
</svg>
