<svg version="1.1"  xmlns="http://www.w3.org/2000/svg" width="24" height="24" viewBox="0 0 24 24">
<circle id="svg-ico" class="check-circle0" fill="#f8b3b5" cx="12" cy="12" r="7"/>
<path class="check-circle1" fill="#5C65AD" d="M12,23L12,23C5.9,23,1,18.1,1,12S5.9,1,12,1l0,0c1.6,0,3.1,0.3,4.5,1C17,2.2,17.2,2.8,17,3.3S16.2,4,15.7,3.8
	C14.5,3.3,13.3,3,12,3l0,0c-5,0-9,4-9,9s4,9,9,9l0,0c5,0,9-4,9-9v-0.9c0-0.6,0.4-1,1-1s1,0.4,1,1V12C23,18.1,18.1,23,12,23z"/>
<path class="check-circle1" fill="#5C65AD" d="M12,15c-0.3,0-0.5-0.1-0.7-0.3l-3-3c-0.4-0.4-0.4-1,0-1.4c0.4-0.4,1-0.4,1.4,0l2.3,2.3l9.3-9.3
	c0.4-0.4,1-0.4,1.4,0s0.4,1,0,1.4l-10,10C12.5,14.9,12.3,15,12,15z"/>
</svg>
