<svg version="1.1"  xmlns="http://www.w3.org/2000/svg" width="24" height="24" viewBox="0 0 24 24">
<g>
	<g>
		<path class="coffee0" fill="#5C65AD" d="M18.5,8h-1h-16c-0.6,0-1,0.4-1,1v9c0,2.8,2.2,5,5,5h8c2.8,0,5-2.2,5-5c2.8,0,5-2.2,5-5S21.3,8,18.5,8z
			 M16.5,18c0,1.7-1.3,3-3,3h-8c-1.7,0-3-1.3-3-3v-8h14V18z M18.5,16v-6c1.7,0,3,1.3,3,3S20.2,16,18.5,16z"/>
		<path class="coffee0" fill="#5C65AD" d="M5.5,6c0.6,0,1-0.4,1-1V2c0-0.6-0.4-1-1-1s-1,0.4-1,1v3C4.5,5.6,4.9,6,5.5,6z"/>
		<path class="coffee0" fill="#5C65AD" d="M9.5,6c0.6,0,1-0.4,1-1V2c0-0.6-0.4-1-1-1s-1,0.4-1,1v3C8.5,5.6,8.9,6,9.5,6z"/>
		<path class="coffee0" fill="#5C65AD" d="M13.5,6c0.6,0,1-0.4,1-1V2c0-0.6-0.4-1-1-1s-1,0.4-1,1v3C12.5,5.6,12.9,6,13.5,6z"/>
	</g>
	<path id="svg-ico" class="coffee1" fill="#f8b3b5" d="M16.5,18c0,1.7-1.3,3-3,3h-8c-1.7,0-3-1.3-3-3v-8h14V18z"/>
</g>
</svg>
