<svg version="1.1"  xmlns="http://www.w3.org/2000/svg" width="24" height="24" viewBox="0 0 24 24">
<path id="svg-ico" class="database0" fill="#f8b3b5" d="M20,12c0,0.5-2.5,2-8,2s-8-1.5-8-2V7.5C6,8.5,9,9,12,9s6-0.5,8-1.5V12z"/>
<path class="database1" fill="#5C65AD" d="M12,1C7.2,1,2,2.3,2,5v14c0,2.7,5.2,4,10,4s10-1.3,10-4V5C22,2.3,16.8,1,12,1z M20,12c0,0.5-2.5,2-8,2
	s-8-1.5-8-2V7.5C6,8.5,9,9,12,9s6-0.5,8-1.5V12z M12,3c5.2,0,8,1.5,8,2s-2.8,2-8,2S4,5.5,4,5S6.8,3,12,3z M12,21c-5.5,0-8-1.5-8-2
	v-4.5c2,1,5,1.5,8,1.5s6-0.5,8-1.5V19C20,19.5,17.5,21,12,21z"/>
<ellipse id="svg-ico" class="database0" fill="#f8b3b5" cx="12" cy="5" rx="8" ry="2"/>
</svg>
