<svg version="1.1"  xmlns="http://www.w3.org/2000/svg" width="24" height="24" viewBox="0 0 24 24">
<path id="svg-ico" class="down-cloud0" fill="#f8b3b5" d="M18.6,17c0.7-0.5,1.2-1.2,1.3-2.1c0.1-0.9-0.1-1.7-0.6-2.5c-0.6-0.9-1.7-1.4-2.7-1.4l0,0h-1.1
	c-0.4,0-0.7-0.2-0.8-0.7c-0.8-3.1-4-5-7-4.1C6.2,6.6,5,7.5,4.3,8.8c-0.8,1.3-1.1,2.9-0.7,4.4C3.9,14.1,5,16.1,7.2,17H18.6z"/>
<path class="down-cloud1" fill="#5C65AD" d="M16.5,16.2c-0.4-0.4-1-0.4-1.4,0L13,18.4V12c0-0.6-0.4-1-1-1s-1,0.4-1,1v6.4l-2.2-2.2c-0.4-0.4-1-0.4-1.4,0
	c-0.4,0.4-0.4,1,0,1.4l3.8,3.8c0.2,0.2,0.4,0.4,0.8,0.4s0.6-0.2,0.8-0.4l3.8-3.8C16.9,17.1,16.9,16.5,16.5,16.2z"/>
<path class="down-cloud1" fill="#5C65AD" d="M20.6,18.9c-0.3,0-0.6-0.1-0.8-0.4c-0.3-0.5-0.2-1.1,0.2-1.4c0.9-0.6,1.4-1.4,1.5-2.5c0.1-1.1-0.1-2-0.7-2.9
	c-0.7-1.1-1.9-1.6-3.2-1.6l0,0h-1.3c-0.5,0-0.9-0.3-1-0.8c-1-3.6-4.6-5.8-8.2-4.8C5.6,5,4.2,6,3.3,7.6c-1,1.5-1.3,3.4-0.8,5.1
	c0.3,1.1,0.8,2,1.4,2.8c0.4,0.4,0.3,1-0.1,1.4s-1,0.3-1.4-0.1c-0.9-1.1-1.5-2.3-1.9-3.6c-0.6-2.2-0.3-4.5,1-6.6c1.2-2,3.1-3.4,5.3-4
	c4.4-1.2,9,1.3,10.4,5.5h0.5l0,0c1.9,0,3.7,1,4.7,2.4c0.9,1.3,1.3,2.8,1,4.3c-0.3,1.5-1.1,2.9-2.4,3.8C21,18.8,20.8,18.9,20.6,18.9z
	"/>
</svg>
