<svg version="1.1"  xmlns="http://www.w3.org/2000/svg" width="24" height="24" viewBox="0 0 24 24">
<path id="svg-ico" class="file-text0" fill="#f8b3b5" d="M5,11.1V20c0,0.6,0.4,1,1,1h12c0.6,0,1-0.4,1-1v-8.9H5z"/>
<g>
	<path class="file-text1" fill="#5C65AD" d="M20.6,7.2l-5.8-5.8C14.6,1.2,14.4,1,14,1H6C4.3,1,3,2.3,3,4v16c0,1.7,1.3,3,3,3h12c1.7,0,3-1.3,3-3V8
		C21,7.6,20.8,7.4,20.6,7.2z M15,4.4L17.6,7H15V4.4z M18,21H6c-0.6,0-1-0.4-1-1V4c0-0.6,0.4-1,1-1h7v5c0,0.6,0.4,1,1,1h5v11
		C19,20.6,18.6,21,18,21z"/>
	<path class="file-text1" fill="#5C65AD" d="M16,12H8c-0.6,0-1,0.4-1,1s0.4,1,1,1h8c0.6,0,1-0.4,1-1S16.6,12,16,12z"/>
	<path class="file-text1" fill="#5C65AD" d="M16,16H8c-0.6,0-1,0.4-1,1s0.4,1,1,1h8c0.6,0,1-0.4,1-1S16.6,16,16,16z"/>
	<path class="file-text1" fill="#5C65AD" d="M8,10h2c0.6,0,1-0.4,1-1s-0.4-1-1-1H8C7.4,8,7,8.4,7,9S7.4,10,8,10z"/>
</g>
</svg>
