<svg version="1.1"  xmlns="http://www.w3.org/2000/svg" width="24" height="24" viewBox="0 0 24 24">
<circle id="svg-ico" class="git-pull0" fill="#f8b3b5" cx="18" cy="18" r="2"/>
<circle id="svg-ico" class="git-pull0" fill="#f8b3b5" cx="6" cy="6" r="2"/>
<g>
	<path class="git-pull1" fill="#5C65AD" d="M19,14.1V8c0-1.7-1.3-3-3-3h-3c-0.6,0-1,0.4-1,1s0.4,1,1,1h3c0.6,0,1,0.4,1,1v6.1c-1.7,0.4-3,2-3,3.9
		c0,2.2,1.8,4,4,4s4-1.8,4-4C22,16.1,20.7,14.6,19,14.1z M18,20c-1.1,0-2-0.9-2-2s0.9-2,2-2s2,0.9,2,2S19.1,20,18,20z"/>
	<path class="git-pull1" fill="#5C65AD" d="M6,2C3.8,2,2,3.8,2,6c0,1.9,1.3,3.4,3,3.9V21c0,0.6,0.4,1,1,1s1-0.4,1-1V9.9c1.7-0.4,3-2,3-3.9
		C10,3.8,8.2,2,6,2z M6,8C4.9,8,4,7.1,4,6s0.9-2,2-2s2,0.9,2,2S7.1,8,6,8z"/>
</g>
</svg>
