<svg version="1.1"  xmlns="http://www.w3.org/2000/svg" width="24" height="24" viewBox="0 0 24 24">
<path id="svg-ico" class="hard-drive0" fill="#f8b3b5" d="M20,19H4c-0.6,0-1-0.4-1-1v-5h18v5C21,18.6,20.6,19,20,19z"/>
<g>
	<path class="hard-drive1" fill="#5C65AD" d="M23,11.7c-0.1-0.2-0.2-0.4-0.4-0.5l-3.2-6.5C18.9,3.6,17.8,3,16.7,3H7.2C6.1,3,5.1,3.6,4.5,4.7l-3.3,6.7
		c-0.1,0.1-0.1,0.2-0.2,0.3c0,0.1,0,0.2,0,0.3v6c0,1.7,1.3,3,3,3h16c1.7,0,3-1.3,3-3v-6C23,11.9,23,11.8,23,11.7z M6.3,5.6
		C6.5,5.2,6.9,5,7.2,5h9.6c0.3,0,0.7,0.2,0.9,0.5l2.7,5.5H3.6L6.3,5.6z M20,19H4c-0.6,0-1-0.4-1-1v-5h18v5C21,18.6,20.6,19,20,19z"
		/>
	<circle class="hard-drive1" fill="#5C65AD" cx="6" cy="16" r="1"/>
	<circle class="hard-drive1" fill="#5C65AD" cx="10" cy="16" r="1"/>
</g>
</svg>
