<svg version="1.1"  xmlns="http://www.w3.org/2000/svg" width="24" height="24" viewBox="0 0 24 24">
<path class="lock0" fill="#5C65AD" d="M19,10h-1V7c0-3.3-2.7-6-6-6S6,3.7,6,7v3H5c-1.7,0-3,1.3-3,3v7c0,1.7,1.3,3,3,3h14c1.7,0,3-1.3,3-3v-7
	C22,11.3,20.7,10,19,10z M8,7c0-2.2,1.8-4,4-4s4,1.8,4,4v3H8V7z M20,20c0,0.6-0.4,1-1,1H5c-0.6,0-1-0.4-1-1v-7c0-0.6,0.4-1,1-1h14
	c0.6,0,1,0.4,1,1V20z"/>
<path id="svg-ico" class="lock1" fill="#f8b3b5" d="M5,12c-0.6,0-1,0.4-1,1v7c0,0.6,0.4,1,1,1h14c0.6,0,1-0.4,1-1v-7c0-0.6-0.4-1-1-1H5z"/>
</svg>
