<svg version="1.1"  xmlns="http://www.w3.org/2000/svg" width="24" height="24" viewBox="0 0 24 24">
<path id="svg-ico" class="msg-content0" fill="#f8b3b5" d="M20.8,16.4c0,0.6-0.5,1.1-1.1,1.1H8.2c-0.6,0-1.2,0.2-1.7,0.5l-3.3,2V5.3c0-0.6,0.5-1.1,1.1-1.1h15.5
	c0.6,0,1.1,0.5,1.1,1.1v11.1H20.8z"/>
<circle class="msg-content1" fill="#5C65AD" cx="12" cy="10.8" r="1.1"/>
<circle class="msg-content1" fill="#5C65AD" cx="16.4" cy="10.8" r="1.1"/>
<circle class="msg-content1" fill="#5C65AD" cx="7.6" cy="10.8" r="1.1"/>
<path class="msg-content1" fill="#5C65AD" d="M19.7,2H4.3C2.4,2,1,3.5,1,5.3v16.6c0,0.4,0.2,0.8,0.6,1c0.1,0,0.3,0.1,0.5,0.1s0.4-0.1,0.6-0.2l5-3
	c0.2-0.1,0.4-0.2,0.6-0.2h11.5c1.8,0,3.3-1.5,3.3-3.3v-11C23,3.5,21.6,2,19.7,2z M20.8,16.4c0,0.6-0.5,1.1-1.1,1.1H8.2
	c-0.6,0-1.2,0.2-1.7,0.5l-3.3,2V5.3c0-0.6,0.5-1.1,1.1-1.1h15.5c0.6,0,1.1,0.5,1.1,1.1v11.1H20.8z"/>
</svg>
