<svg version="1.1"  xmlns="http://www.w3.org/2000/svg" width="24" height="24" viewBox="0 0 24 24">
<path class="options0" fill="#5C65AD" d="M1.7,6.3H3c0.6,1.8,2.6,2.7,4.4,2c1-0.3,1.7-1.1,2-2h12.7c0.6,0,1.1-0.5,1.1-1.1S22.9,4,22.3,4H9.5
	C8.9,2.2,6.9,1.3,5.1,2c-1,0.3-1.7,1.1-2,2H1.7C1.1,4,0.6,4.5,0.6,5.2S1.1,6.3,1.7,6.3z M6.3,4c0.6,0,1.1,0.5,1.1,1.1
	S6.9,6.3,6.3,6.3S5.2,5.8,5.2,5.2S5.7,4,6.3,4z"/>
<path class="options0" fill="#5C65AD" d="M22.3,17.7h-8.2c-0.6-1.8-2.6-2.7-4.4-2c-1,0.3-1.7,1.1-2,2h-6c-0.6,0-1.1,0.5-1.1,1.1s0.5,1.1,1.1,1.1h5.9
	c0.6,1.8,2.6,2.7,4.4,2c1-0.3,1.7-1.1,2-2h8.2c0.6,0,1.1-0.5,1.1-1.1C23.4,18.2,22.9,17.7,22.3,17.7z M10.9,20
	c-0.6,0-1.1-0.5-1.1-1.1s0.5-1.1,1.1-1.1s1.1,0.5,1.1,1.1S11.5,20,10.9,20z"/>
<path class="options0" fill="#5C65AD" d="M23.3,10.8c-0.6-1.3-1.9-2.2-3.3-2.2s-2.7,0.9-3.2,2.3h-15c-0.6,0-1.1,0.5-1.1,1.1s0.5,1.1,1.1,1.1h15
	c0.6,1.8,2.6,2.7,4.4,2.1C23,14.6,23.9,12.6,23.3,10.8z M20,13.1c-0.6,0-1.1-0.5-1.1-1.1s0.5-1.1,1.1-1.1s1.1,0.5,1.1,1.1
	S20.6,13.1,20,13.1z"/>
<circle id="svg-ico" class="options1" fill="#f8b3b5" cx="20" cy="12" r="1.1"/>
<path id="svg-ico" class="options1" fill="#f8b3b5" d="M6.3,4c0.6,0,1.1,0.5,1.1,1.1S6.9,6.3,6.3,6.3S5.2,5.8,5.2,5.2S5.7,4,6.3,4z"/>
<circle id="svg-ico" class="options1" fill="#f8b3b5" cx="10.9" cy="18.9" r="1.1"/>
</svg>
