<svg version="1.1"  xmlns="http://www.w3.org/2000/svg" width="24" height="24" viewBox="0 0 24 24">
<circle id="svg-ico" class="plus-circle0" fill="#f8b3b5" cx="12" cy="12" r="9"/>
<g>
	<path class="plus-circle1" fill="#5C65AD" d="M12,1C5.9,1,1,5.9,1,12s4.9,11,11,11s11-4.9,11-11S18.1,1,12,1z M12,21c-5,0-9-4-9-9s4-9,9-9s9,4,9,9
		S17,21,12,21z"/>
	<path class="plus-circle1" fill="#5C65AD" d="M16,11h-3V8c0-0.6-0.4-1-1-1s-1,0.4-1,1v3H8c-0.6,0-1,0.4-1,1s0.4,1,1,1h3v3c0,0.6,0.4,1,1,1s1-0.4,1-1v-3h3
		c0.6,0,1-0.4,1-1S16.6,11,16,11z"/>
</g>
</svg>
