<svg version="1.1"  xmlns="http://www.w3.org/2000/svg" width="24" height="24" viewBox="0 0 24 24">
<path class="unlock0" fill="#5C65AD" d="M19,10H8V7c0-1.1,0.4-2.1,1.2-2.8C9.9,3.4,10.9,3,12,3c1.9,0,3.5,1.3,3.9,3.2C16,6.8,16.6,7.1,17.1,7
	s0.9-0.7,0.8-1.2C17.3,3,14.8,1,12,1c-1.6,0-3.1,0.6-4.2,1.8C6.6,3.9,6,5.4,6,7v3H5c-1.7,0-3,1.3-3,3v7c0,1.7,1.3,3,3,3h14
	c1.7,0,3-1.3,3-3v-7C22,11.3,20.7,10,19,10z M20,20c0,0.6-0.4,1-1,1H5c-0.6,0-1-0.4-1-1v-7c0-0.6,0.4-1,1-1h14c0.6,0,1,0.4,1,1V20z"
	/>
<path id="svg-ico" class="unlock1" fill="#f8b3b5" d="M5,12c-0.6,0-1,0.4-1,1v7c0,0.6,0.4,1,1,1h14c0.6,0,1-0.4,1-1v-7c0-0.6-0.4-1-1-1H5z"/>
</svg>
