<svg version="1.1"  xmlns="http://www.w3.org/2000/svg" width="24" height="24" viewBox="0 0 24 24">
<g>
	<path class="users0" fill="#5C65AD" d="M16.7,21.6c-0.6,0-1-0.4-1-1v-1.9c0-1.6-1.2-2.9-2.9-2.9H5.2c-1.6,0-2.9,1.2-2.9,2.9v1.9c0,0.6-0.4,1-1,1
		s-1-0.4-1-1v-1.9c0-2.7,2.1-4.8,4.8-4.8h7.7c2.7,0,4.8,2.1,4.8,4.8v1.9C17.7,21.2,17.3,21.6,16.7,21.6z"/>
	<path class="users0" fill="#5C65AD" d="M9.1,12c-2.7,0-4.8-2.1-4.8-4.8s2.1-4.8,4.8-4.8s4.8,2.1,4.8,4.8S11.8,12,9.1,12z M9.1,4.3
		c-1.6,0-2.9,1.2-2.9,2.9s1.2,2.9,2.9,2.9S12,8.8,12,7.2S10.7,4.3,9.1,4.3z"/>
	<path class="users0" fill="#5C65AD" d="M22.5,21.6c-0.6,0-1-0.4-1-1v-1.9c0-1.3-0.9-2.5-2.1-2.8c-0.5-0.1-0.9-0.7-0.7-1.2c0.1-0.5,0.7-0.9,1.2-0.7
		c2.1,0.6,3.6,2.5,3.6,4.6v1.9C23.5,21.2,23.1,21.6,22.5,21.6z"/>
	<path class="users0" fill="#5C65AD" d="M15.8,11.9c-0.4,0-0.9-0.3-1-0.8c-0.1-0.5,0.2-1.1,0.7-1.2c1.1-0.3,1.8-1.1,2.1-2.1C18,6.3,17,4.8,15.5,4.3
		c-0.5,0-0.8-0.6-0.7-1.1s0.7-0.9,1.2-0.7c2.6,0.7,4.1,3.3,3.5,5.9c-0.5,1.7-1.7,3.1-3.5,3.5C16,11.9,15.9,11.9,15.8,11.9z"/>
	<circle id="svg-ico" class="users1" fill="#f8b3b5" cx="9.1" cy="7.2" r="2.9"/>
</g>
</svg>
