<svg version="1.1"  xmlns="http://www.w3.org/2000/svg" width="24" height="24" viewBox="0 0 24 24">
<path class="user0" fill="#5C65AD" d="M20,22c-0.6,0-1-0.4-1-1v-2c0-1.7-1.3-3-3-3H8c-1.7,0-3,1.3-3,3v2c0,0.6-0.4,1-1,1s-1-0.4-1-1v-2
	c0-2.8,2.2-5,5-5h8c2.8,0,5,2.2,5,5v2C21,21.6,20.6,22,20,22z"/>
<path class="user0" fill="#5C65AD" d="M12,12c-2.8,0-5-2.2-5-5s2.2-5,5-5s5,2.2,5,5S14.8,12,12,12z M12,4c-1.7,0-3,1.3-3,3s1.3,3,3,3s3-1.3,3-3
	S13.7,4,12,4z"/>
<circle id="svg-ico" class="user1" fill="#f8b3b5" cx="12" cy="7" r="3"/>
</svg>
