<?xml version="1.0" encoding="utf-8"?>
<!-- Generator: Adobe Illustrator 22.0.0, SVG Export Plug-In . SVG Version: 6.00 Build 0)  -->
<svg version="1.1" id="Capa_1" xmlns="http://www.w3.org/2000/svg" xmlns:xlink="http://www.w3.org/1999/xlink" x="0px" y="0px"
	 viewBox="0 0 512 512" style="enable-background:new 0 0 512 512;" xml:space="preserve">
<style type="text/css">
	.st0{fill:#EA0020;}
	.st1{fill:#2A680B;}
	.st2{fill:#FCFF2C;}
	.st3{fill:none;}
	.st4{fill:#FFFFFF;}
	.st5{fill:#1A0095;}
</style>
<g>
	<rect x="256" y="0" class="st0" width="256" height="511.9"/>
	<rect x="0" y="0.1" class="st1" width="255.9" height="511.9"/>
</g>
<g>
	<path class="st2" d="M339.5,322c-32.2-0.9-179.9-93.2-181-107.9l8.2-13.6c14.7,21.3,165.7,111.1,180.5,107.9L339.5,322L339.5,322z"
		/>
	<path class="st2" d="M165,198.6c-2.9,7.8,38.6,33.4,88.4,63.8c49.9,30.3,92.9,49.1,96,46.4c0.2-0.4,1.6-2.7,1.4-2.7
		c-0.6,0.9-2.1,1.2-4.3,0.5c-13.5-3.9-48.6-20-92.1-46.4c-43.5-26.4-81.4-50.7-87.2-61.1c-0.4-0.7-0.7-2-0.7-3h-0.1l-1.2,2.2
		L165,198.6L165,198.6z M340.3,322.4c-0.6,1-1.6,1-3.5,0.8c-12.1-1.3-48.6-19.1-91.9-45c-50.3-30.2-91.9-57.7-87.4-64.8l1.2-2.2
		l0.2,0.1c-4.1,12.2,82.1,61.4,87.1,64.6c49.8,30.9,91.8,48.9,95.5,44.2L340.3,322.4L340.3,322.4z"/>
	<path d="M338.3,323.7c-0.4,0-0.9,0-1.5-0.1c-12.3-1.4-49.3-19.5-92-45.1c-57.1-34.2-85.8-54.8-87.8-63c-0.2-0.9-0.1-1.7,0.3-2.3
		l1.2-2.2c0,0.2,0,0.5,0,0.7l-0.7,1.8c-0.3,0.5-0.4,1.1-0.2,1.8c1.9,8,30.5,28.5,87.5,62.6c42.7,25.6,79.6,43.6,91.8,45
		c1.8,0.2,2.7,0.1,3.2-0.7l0.8-1.4c-0.4,0.2-0.9,0.3-1.6,0.3c-10.2,0-47.8-16.8-93.3-45c-0.5-0.3-1.7-1-3.4-2
		c-55.7-32.8-83.9-53.6-84-61.9c1.1,5.4,14.2,20,84.3,61.3c1.8,1,3,1.7,3.4,2.1c45.4,28.1,82.9,44.9,93,44.9c1.1,0,1.9-0.2,2.2-0.6
		l0,0c0,0.3,0,0.5-0.2,0.7l-0.6,2C340,323.5,339.1,323.7,338.3,323.7L338.3,323.7z M348.4,309.3c-7.5,0-48.3-18.2-95.1-46.7
		c-53.7-32.7-91.4-56.4-88.5-64.2l1.4-2.6c0,0,0.1,0.1,0.1,0.2l-0.8,2.3c-3.1,8.2,45.4,37.7,88.1,63.7
		c46.8,28.5,87.4,46.6,94.8,46.6c0.6,0,0.8-0.1,0.9-0.2c0.3-0.5,0.6-1.1,0.8-1.5c-0.7,0.3-2,0.3-3.6-0.1
		c-14.8-4.2-51.2-21.6-92.2-46.4c-39.7-24.1-81.1-50.2-87.3-61.2c-0.4-0.8-0.7-2.1-0.7-3.2c0.6,1.1,0.9,2.2,1.2,2.9
		c6.2,10.9,49.8,38.3,87.1,61c41,24.9,77.3,42.2,92,46.4c2,0.6,3.4,0.4,4-0.4c0.7,0.2,0.7,0.2-0.6,2.4
		C349.4,309.2,349,309.3,348.4,309.3L348.4,309.3z"/>
	<path class="st2" d="M256.3,223c32.2-0.2,72-4.4,94.9-13.5l-4.9-8c-13.5,7.5-53.5,12.4-90.3,13.2c-43.4-0.4-74.1-4.5-89.5-14.8
		l-4.7,8.5C190.1,220.3,219.1,222.8,256.3,223L256.3,223z"/>
	<path class="st2" d="M352.5,209.6c-0.8,1.3-15.7,6.4-37.7,10.2c-14.9,2.3-34.4,4.2-58.7,4.2c-23.1,0-41.9-1.6-56.2-3.6
		c-23.1-3.6-35-8.7-39.4-10.5c0.4-0.8,0.7-1.4,1.1-2.2c12.7,5,24.7,8.1,38.7,10.3c14.2,1.9,32.8,3.6,55.8,3.6
		c24.1,0,43.4-2.1,58.2-4.3c22.6-3.6,34.9-8.3,36.6-10.5L352.5,209.6L352.5,209.6z M348.2,201.5c-2.4,2-14.6,6.3-36.1,9.7
		c-14.3,2-32.5,3.9-55.7,3.9c-22.1,0-40.1-1.5-53.8-3.5c-21.8-2.8-33.3-8-37.5-9.5c0.4-0.7,0.8-1.4,1.3-2.1
		c3.3,1.6,14.4,6.2,36.5,9.3c13.6,1.9,31.6,3.3,53.6,3.3c23.1,0,41.1-1.9,55.3-3.9c21.5-3,33.1-8.5,34.9-9.9L348.2,201.5
		L348.2,201.5z"/>
	<path d="M255.5,224.4c-19.5,0-38.2-1.2-55.5-3.6c-22.4-3.5-34.5-8.4-39.1-10.3l-0.2-1.4l0.7-1.4c12.5,4.7,24.4,7.8,39,10.1
		c17.5,2.4,36.1,3.6,55.3,3.6c20.1,0,39.1-1.4,58.5-4.3c22.3-3.6,34.7-8.2,36.4-10.4l2.1,2.8c-0.9,1.8-16.4,6.9-37.9,10.6
		c-18.3,2.8-38.1,4.2-58.7,4.2H255.5L255.5,224.4z M161.6,208.1l-0.7,2.1c4.8,1.6,16.8,6.5,39.2,10c17.3,2.4,36,3.6,55.4,3.6v0.3
		l0.7-0.3c20.6,0,40.3-1.5,58.6-4.2c22.6-3.9,36.9-9,37.5-10.1l-1.6-2.4c-1.1,2.1-12.6,6.8-36.3,10.6c-19.5,2.9-38.5,4.3-58.3,4.3
		c-19.7,0-38.3-1.2-55.8-3.6C185.7,216.2,173.7,213,161.6,208.1L161.6,208.1z M256,215.4c-19.5,0-38-1.2-53.5-3.5
		c-19.3-2.5-30.4-6.8-35.8-8.8l-1.8-0.7l0.8-2c0.1-0.1,0.6-0.7,0.8-0.7c1.9,0.9,12.6,5.9,36.4,9.3c10.7,1.5,28.6,3.3,53.1,3.3
		c19.6,0,37.1-1.3,55.7-4c20.6-2.8,32.7-8.2,34.8-9.8l2,2.7c-2.4,2.3-14.4,6.7-36.3,10.2c-18.5,2.7-36.3,3.9-55.8,3.9
		C256.4,215.4,256,215.4,256,215.4L256,215.4z M166.2,200.3l-0.9,2l1.6,0.2c5.3,2,16.5,6.3,35.7,8.8c15.5,2.3,33.9,3.5,53.4,3.5v0.3
		l0.4-0.3c19.5,0,37.2-1.3,55.7-3.9c21.8-3.5,33.6-7.8,35.9-9.7l-1.6-2.2c-1.1,1.3-12.3,6.9-34.6,10c-18.6,2.7-36.2,3.9-55.4,4
		c-25,0-42.9-1.8-53.6-3.3C178.9,206.3,168.1,201.3,166.2,200.3L166.2,200.3z"/>
	<path class="st2" d="M150.4,261.8c19.8,10.7,63.9,16.1,105.6,16.4c38,0,87.4-5.9,105.9-15.7l-0.5-10.7
		c-5.8,9.1-58.8,17.7-105.8,17.4c-47-0.3-90.7-7.6-105.2-17L150.4,261.8L150.4,261.8z"/>
	<path class="st2" d="M362.9,260.3v2.5c-2.8,3.3-20.2,8.3-42.1,11.9c-16.6,2.5-38.3,4.5-65.3,4.5c-25.7,0-46.1-1.8-62-4.3
		c-25.1-3.7-41.1-10.1-44.3-12v-3c9.7,6.4,35.9,11.1,44.7,12.6c15.8,2.4,36.1,4.2,61.7,4.2c26.9,0,48.5-1.9,65-4.5
		C336.1,270.1,358.5,264.2,362.9,260.3L362.9,260.3z M362.9,251.2v2.5c-2.8,3.3-20.2,8.3-42.1,11.9c-16.6,2.6-38.3,4.5-65.3,4.5
		c-25.7,0-46.1-1.8-62-4.3c-25.1-3.7-41.1-10.1-44.4-12l0-3c9.7,6.4,35.9,11.1,44.7,12.6c15.8,2.4,36.1,4.2,61.7,4.2
		c26.9,0,48.5-1.9,65-4.5C336.2,261.1,358.5,255.2,362.9,251.2L362.9,251.2z"/>
	<path d="M255.5,279.5c-22.8,0-43.6-1.4-62.1-4.3c-24-3.5-40.6-9.7-44.5-12l-0.1-3.2c10.2,6.2,37.1,11,45.1,12.3
		c18.2,2.8,39,4.2,61.6,4.2c23.9,0,45.7-1.5,64.9-4.4c15.6-2.3,37.9-8.1,42.2-12l0.5,2.8c-3,3.6-20.8,8.7-42.3,12.2
		C301.5,278,279.5,279.5,255.5,279.5L255.5,279.5z M149,260.3l0.5,2.7c2.3,1.2,17.9,7.8,44.1,11.7c18.4,2.8,39.2,4.3,62,4.3
		c23.9,0,45.9-1.5,65.3-4.5c21.1-3.4,39.1-8.5,41.9-11.8l-0.1-2.4c-3.9,4.2-26.4,10.1-42.1,12.4c-19.3,3-41.1,4.4-65,4.4
		c-22.7,0-43.4-1.4-61.7-4.2C183.5,271.2,158.5,266.6,149,260.3L149,260.3z M255.5,270.5c-22.7,0-43.6-1.5-62.1-4.3
		c-24.1-3.5-40.6-9.7-44.5-12l-0.1-3.2c10.1,6.2,37,11,45,12.3c18.3,2.8,39.1,4.2,61.6,4.2c23.9,0,45.8-1.5,64.9-4.4
		c15.6-2.3,37.9-8.1,42.2-12l0.5,2.8c-3,3.6-20.7,8.7-42.3,12.2C301.5,269,279.5,270.5,255.5,270.5L255.5,270.5z M149,251.2l0.5,2.7
		c2.3,1.2,17.7,7.8,44.1,11.7c18.5,2.8,39.3,4.3,62,4.3c24,0,46-1.5,65.3-4.5c21.1-3.4,39.1-8.5,41.9-11.8l-0.1-2.4
		c-4,4.2-26.4,10.1-42.1,12.4c-19.2,3-41.1,4.5-65,4.5c-22.6,0-43.4-1.4-61.7-4.2C183.5,262.1,158.5,257.5,149,251.2L149,251.2z"/>
	<path class="st2" d="M255.9,320.2c-45.6-0.3-84.7-12.4-92.9-14.4l6,9.4c14.6,6.1,52.7,15.3,87.4,14.3c34.6-1,64.9-3.7,86.3-14.1
		l6.2-9.8C334.2,312.4,284.7,320.1,255.9,320.2L255.9,320.2z"/>
	<path class="st2" d="M344.9,313.1c-0.9,1.4-1.8,2.7-2.8,4.1c-10.1,3.5-25.9,7.3-32.6,8.4c-13.7,2.8-34.8,4.9-53.6,4.9
		c-40.4-0.6-73.5-8.5-89-15.3l-1.3-2.2l0.2-0.3l2.1,0.8c27.7,9.9,58.8,13.9,88.2,14.6c18.7,0.1,37.4-2.2,52.6-4.9
		c23.2-4.6,32.6-8.1,35.5-9.7L344.9,313.1L344.9,313.1z M350.3,304.3C350.3,304.3,350.3,304.4,350.3,304.3c-0.6,1.2-1.3,2.4-2,3.5
		c-5.4,1.9-19.9,6.2-41.2,9.2c-14,1.9-22.7,3.8-50.6,4.3c-52.3-1.3-86.1-11.5-94.2-14.1l-1.2-2.3c30.3,7.9,61.2,13.4,95.4,14
		c25.5-0.6,36.4-2.5,50.3-4.3c24.8-3.9,37.3-8,41.1-9.1c0-0.1-0.1-0.1-0.1-0.2L350.3,304.3L350.3,304.3z"/>
	<path d="M255.9,330.8L255.9,330.8c-41.2-0.6-73.8-8.6-89.1-15.3l-1.4-2.3c0.1-0.1,0.4-0.8,0.6-0.8l0,0l2.1,0.8
		c24.7,8.9,54.3,13.8,88.1,14.6c0,0,0,0,0,0c21.1,0,40.1-2.6,52.5-4.9c25.9-5.2,33.6-8.7,35.4-9.7c0.1,0,0.3-0.1,0.5-0.2
		c0,0,0.1-0.1,0.1-0.1l0.2,0.2l0,0c0.1,0,0.4,0,0.3,0.1c-0.9,1.4-1.8,2.8-2.8,4.1c-10.1,3.6-25.9,7.4-32.8,8.5
		C295.2,328.9,274.1,330.8,255.9,330.8L255.9,330.8z M165.7,313l1.4,2.1c16.4,7,50.3,14.5,88.8,15.1c17.9,0,39.4-2,53.5-4.9
		c6.9-1.1,22.7-4.9,32.6-8.3c0.6-0.9,1.3-1.9,2-3c-2.3,1.2-10.5,4.7-35.3,9.6c-12.4,2.2-31.4,4.9-51.8,4.9l0,0
		c-34.7-0.8-64.4-5.7-89.2-14.6L165.7,313L165.7,313z M256.4,321.6L256.4,321.6c-46.5-1.2-79-9.3-94.2-14.1l-1.4-2.4
		c35,8.6,65.3,13.1,95.6,13.6c22.6-0.5,33.8-2.1,45.7-3.7l4.6-0.6c23.8-3.7,36.4-7.7,40.5-9l3-1.4l-0.1,0.2l-2.4,1.3
		c-4.5,1.7-17.1,5.7-41,9.4l-4.5,0.6c-11.9,1.7-23.1,3.2-45.8,3.7c-30.4-0.5-60.7-5-95.4-14l1.5,1.9c15,4.6,47.5,12.7,93.9,13.9
		c23.7-0.5,33.4-1.8,44.6-3.5l6-0.8c18.9-2.7,34-6.6,41.2-9.2l1.9-3.3l-1.6,3.7c-7.3,2.7-22.5,6.7-41.4,9.3l-6,0.8
		C289.9,319.8,280.2,321.2,256.4,321.6C256.4,321.6,256.4,321.6,256.4,321.6L256.4,321.6z"/>
	<path class="st2" d="M255.9,160.9c52.4,0,94.7,42.6,94.7,95.1c0,52.4-42.3,94.7-94.7,94.7c-52.4,0-94.8-42.5-94.8-94.9
		C161.1,203.4,203.6,160.9,255.9,160.9L255.9,160.9z M255.9,151.5c57.4,0,104.2,46.9,104.2,104.3c0,57.4-46.8,104.3-104.2,104.3
		s-104.2-46.9-104.2-104.3C151.7,198.3,198.5,151.5,255.9,151.5L255.9,151.5z"/>
	<path class="st2" d="M256,150.2c58.2,0,105.6,47.5,105.6,105.7c0,58.2-47.4,105.7-105.6,105.7c-58.1,0-105.6-47.5-105.6-105.7
		C150.4,197.7,197.9,150.2,256,150.2L256,150.2z M256,152.6c56.6,0,103.3,46.5,103.3,103.3c0,56.9-46.7,103.4-103.3,103.4
		c-56.6,0-103.3-46.5-103.3-103.4C152.7,199.1,199.4,152.6,256,152.6L256,152.6z"/>
	<path d="M256,361.9c-58.4,0-105.9-47.5-105.9-106c0-58.5,47.5-106,105.9-106s105.9,47.5,105.9,106
		C361.9,314.4,314.4,361.9,256,361.9L256,361.9z M256,150.5c-58,0-105.3,47.3-105.3,105.4c0,58.1,47.2,105.4,105.3,105.4
		S361.3,314,361.3,255.9C361.3,197.8,314,150.5,256,150.5L256,150.5z M256,359.5c-57.1,0-103.6-46.5-103.6-103.6
		c0-57.2,46.5-103.7,103.6-103.7c57.1,0,103.6,46.5,103.6,103.7C359.6,313.1,313.1,359.5,256,359.5L256,359.5z M256,152.9
		c-56.8,0-103,46.2-103,103c0,56.8,46.2,103,103,103s103-46.2,103-103C359,199.1,312.8,152.9,256,152.9L256,152.9z"/>
	<path class="st2" d="M256.1,159c53,0,96.7,43.6,96.7,96.8c0,53.2-43.7,96.8-96.7,96.8c-53,0-96.7-43.6-96.7-96.8
		C159.4,202.6,203.1,159,256.1,159L256.1,159z M256.1,161.4c51.7,0,94.4,42.5,94.4,94.5c0,52-42.6,94.4-94.4,94.4
		c-51.8,0-94.4-42.5-94.4-94.4C161.7,203.9,204.3,161.4,256.1,161.4L256.1,161.4z"/>
	<path d="M256.1,352.9c-53.5,0-97-43.6-97-97.1c0-53.6,43.5-97.1,97-97.1c53.5,0,97,43.6,97,97.1
		C353.1,309.4,309.6,352.9,256.1,352.9L256.1,352.9z M256.1,159.3c-53.2,0-96.4,43.3-96.4,96.5c0,53.2,43.2,96.5,96.4,96.5
		c53.1,0,96.4-43.3,96.4-96.5C352.5,202.6,309.3,159.3,256.1,159.3L256.1,159.3z M256.1,350.6c-52.2,0-94.7-42.5-94.7-94.8
		c0-52.3,42.5-94.8,94.7-94.8c52.2,0,94.7,42.5,94.7,94.8C350.8,308.1,308.3,350.6,256.1,350.6L256.1,350.6z M256.1,161.6
		c-51.9,0-94.1,42.3-94.1,94.2c0,51.9,42.2,94.2,94.1,94.2c51.9,0,94.1-42.3,94.1-94.2C350.2,203.9,308,161.6,256.1,161.6
		L256.1,161.6z"/>
	<rect x="251.7" y="149.7" class="st2" width="9.2" height="212.6"/>
	<path class="st3" d="M252.9,149.8h6.4H252.9z"/>
	<path class="st3" d="M252.9,362.1h6.4H252.9z"/>
	<path class="st2" d="M259.4,148.6h2.3l0,214.8h-2.3L259.4,148.6L259.4,148.6z M250.4,148.6h2.3l0,214.8h-2.3V148.6L250.4,148.6z"/>
	<path d="M261.8,363.7h-2.3l-0.3-215.1l2.6-0.3l0.3,215.1c0,0.1,0,0.1-0.1,0.2C261.9,363.6,261.8,363.7,261.8,363.7L261.8,363.7z
		 M261.4,148.6l-2,0.3l0.3,214.5l1.7-0.3L261.4,148.6L261.4,148.6z M252.8,363.7h-2.3l-0.3-215.1l2.6-0.3l0.3,215.1
		c0,0.1,0,0.1-0.1,0.2C252.9,363.6,252.9,363.7,252.8,363.7L252.8,363.7z M252.5,148.6l-2,0.3l0.3,214.5l1.7-0.3L252.5,148.6
		L252.5,148.6z"/>
	<path class="st2" d="M150,251.4c13.2-12.2,62.1-20.1,105.4-19.9c43.3,0.2,94.7,9.1,105.8,19.7l0.1,9.1
		c-9.4-8.8-49.2-19.3-105.9-19.4c-56.6-0.1-97.8,10.7-105.5,19.6V251.4L150,251.4z"/>
	<path d="M150.3,259.7l-0.6-7.9c0-0.3,0.6-0.3,0.6,0V259.7L150.3,259.7z"/>
	<path d="M362,260l-0.6-7.9c0-0.3,0.6-0.3,0.6,0V260L362,260z"/>
	<path class="st2" d="M256,239.6c24.9,0,49.1,2.4,68.3,6.1c19.8,4,33.8,8.9,38.5,14.5v2.8c-5.7-6.9-24.5-12-39-14.9
		c-19-3.7-43.1-6.1-67.9-6.1c-26.2,0-50.5,2.5-69.3,6.2c-15,3-35.1,9-37.7,14.8V260c1.4-4.1,16.3-10.1,37.3-14.3
		C205.3,242.1,229.7,239.6,256,239.6L256,239.6z M256.1,230.5c24.9-0.1,49.1,2.4,68.3,6.1c19.8,4,33.7,8.9,38.5,14.5l0,2.8
		c-5.7-6.9-24.5-12-38.9-14.9c-19.1-3.7-43.1-6.1-67.9-6.1c-26.2,0-50.4,2.5-69.2,6.2c-14.5,2.7-35.4,8.9-37.8,14.8V251
		c1.4-4,16.6-10.3,37.3-14.3C205.3,233,229.7,230.6,256.1,230.5L256.1,230.5z"/>
	<path d="M149.1,263.2C149.1,263.2,149.1,263.2,149.1,263.2c-0.2,0-0.3-0.2-0.3-0.3V260c1.5-4.5,17.3-10.6,37.5-14.6
		c20.2-3.9,44.9-6.1,69.7-6.2c24,0,48.1,2.2,68.4,6.1c20.7,4.1,34.1,9.2,38.7,14.6l0.1,3c-6.6-7.2-27.5-12.2-39.3-14.6
		c-20-3.9-43.8-6-67-6c-25.3,0-49.8,2.2-70,6.2c-16.4,3.3-35.1,9.2-37.4,14.6C149.4,263.2,149.2,263.2,149.1,263.2L149.1,263.2z
		 M256,241.6c24.1,0,47.9,2.1,67.9,6c11.9,2.4,32.9,7.5,39.1,15l-0.5-2.5c-4.5-5.1-17.7-10.1-38.3-14.2c-20.2-3.9-44.3-6.1-67.7-6.1
		c-25.2,0-49.9,2.3-70.1,6.2c-22.5,4.5-35.9,10.6-37.1,14.1v1.7c4.5-6,25.2-11.6,37.3-14C206.9,243.9,231.5,241.7,256,241.6
		L256,241.6z M149.1,254.2C149.1,254.2,149.1,254.2,149.1,254.2c-0.2,0-0.3-0.1-0.3-0.3V251c1.5-4.5,17.7-10.7,37.6-14.6
		c20.1-3.9,44.9-6.1,69.7-6.2c24.2,0,48.2,2.2,68.4,6.1c20.7,4.1,34,9.2,38.7,14.6l0.1,3c-6.6-7.1-27.4-12.2-39.3-14.6
		c-20-3.9-43.9-6-67.3-6c-24.9,0-49.4,2.3-69.7,6.2c-16.6,3.2-35.4,9.3-37.5,14.6C149.4,254.1,149.3,254.2,149.1,254.2L149.1,254.2z
		 M256.1,232.6c23.9,0,47.8,2.1,67.9,6.1c12,2.4,32.9,7.5,39.1,15l-0.5-2.5c-4.5-5.1-17.7-10.1-38.2-14.2
		c-20.1-3.9-44.1-6.1-67.5-6.1c-25.6,0-50.3,2.2-70.4,6.2c-21.6,4.2-35.8,10.5-37.1,14.1l0,1.6c4.2-5.8,24.2-11.4,37.4-13.9
		C207.1,234.8,231.7,232.6,256.1,232.6L256.1,232.6z"/>
	<path class="st2" d="M255.5,184.3c39.3-0.2,73.6,5.5,89.2,13.5l5.7,9.9c-13.6-7.4-50.6-15-94.9-13.8c-36.1,0.2-74.7,4-94,14.3
		l6.8-11.4C184.3,188.5,221.7,184.3,255.5,184.3L255.5,184.3z"/>
	<path class="st3" d="M345.8,199.4l3.9,6.3L345.8,199.4z"/>
	<path class="st2" d="M256.1,192.4c22.4-0.1,44.1,1.2,61.3,4.3c16,3,31.3,7.4,33.5,9.9l1.7,3c-5.3-3.5-18.6-7.3-35.6-10.6
		c-17.1-3.2-38.7-4.3-61-4.2c-25.3-0.1-44.9,1.2-61.8,4.2c-17.9,3.3-30.2,8.1-33.3,10.4l1.7-3.2c5.9-3,15.3-6.7,31.2-9.5
		C211.2,193.5,231.1,192.6,256.1,192.4L256.1,192.4z M256,183.4c21.5-0.1,42.6,1.1,59.1,4.1c13,2.5,25.9,6.5,30.6,10l2.5,3.9
		c-4.2-4.7-20.1-9.1-34.1-11.6c-16.4-2.8-36.7-4-58.1-4.1c-22.5,0-43.3,1.4-59.5,4.4c-15.4,2.9-25.3,6.4-29.5,9.1l2.2-3.3
		c5.8-3.1,15.2-5.9,27-8.1C212.5,184.8,233.4,183.5,256,183.4L256,183.4z"/>
	<path d="M352.6,209.9c-0.1,0-0.1,0-0.2,0c-5.2-3.4-18.1-7.2-35.4-10.5c-14.8-2.8-34.7-4.2-58.9-4.2l-2,0l-2.3,0
		c-24.3,0-43.2,1.4-59.5,4.2c-17.8,3.3-30.1,8.1-33.1,10.3l1.2-3.6c8.1-4.2,18.4-7.3,31.4-9.7c15.8-2.9,33.9-4.1,62.4-4.3h1.3
		c23.6,0,44.3,1.5,60,4.3c16.4,3.1,31.5,7.5,33.7,10l1.7,3c0.1,0.1,0,0.3,0,0.4C352.7,209.9,352.7,209.9,352.6,209.9L352.6,209.9z
		 M257.4,192.7h-1.3c-28.4,0.2-46.5,1.4-62.2,4.3c-13,2.3-23.1,5.4-31.1,9.5l-1.5,3.1c2.7-2.7,15.1-7.5,32.9-10.8
		c16.4-2.9,35.3-4.2,59.6-4.2h2.3h2c24.3,0,44.2,1.4,59.1,4.2c16.4,3.1,28.8,6.7,34.6,10l-1.1-2c-2.1-2.3-17.3-6.8-33.3-9.7
		C301.6,194.2,280.9,192.7,257.4,192.7L257.4,192.7z M348.3,201.8c-0.1,0-0.2,0-0.2-0.1c-4.4-4.8-21-9.2-33.9-11.5
		c-14.9-2.6-33.9-3.9-58.1-4.1c-23.4,0-44,1.6-59.4,4.4c-13.7,2.6-24.7,6-29.4,9.1l1.8-3.7c5.9-3.2,15.2-6,27.2-8.3
		c15.3-2.8,36.1-4.3,59.9-4.4h1.7c22.6,0,42.5,1.4,57.5,4.1c13.9,2.7,26.3,6.8,30.7,10.1l2.6,4c0.1,0.1,0,0.3-0.1,0.4
		C348.4,201.7,348.4,201.8,348.3,201.8L348.3,201.8z M256,185.4c24.2,0.2,43.3,1.6,58.2,4.1c11.8,2.1,26.6,5.9,32.7,10.3l-1.4-2.2
		c-4.3-3.2-16.5-7.2-30.4-9.9c-14.9-2.7-34.7-4.1-57.4-4.1H256c-23.8,0.1-44.5,1.6-59.8,4.4c-11.9,2.3-21.2,5.1-26.9,8.1l-2.1,3.2
		c4.4-3.5,15.5-7,29.2-9.6C212,187,232.6,185.5,256,185.4L256,185.4z"/>
	<path class="st2" d="M308.5,299.9c-19.4-3.6-38.9-4.2-52.5-4c-65.5,0.8-86.6,13.5-89.2,17.3l-4.9-8c16.7-12.1,52.3-18.9,94.5-18.2
		c21.9,0.4,40.8,1.8,56.6,4.9L308.5,299.9L308.5,299.9z"/>
	<path class="st3" d="M163,306.3l3.2,5.6L163,306.3z"/>
	<path class="st2" d="M255.7,294.7c18.2,0.3,36.1,1,53.4,4.2l-1.3,2.2c-16-3-33.1-4.1-52-4c-24.2-0.2-48.6,2.1-69.9,8.2
		c-6.7,1.9-17.8,6.2-19,9.8l-1.2-2.1c0.4-2.1,7.1-6.5,19.6-10C209.6,296.1,232.4,294.9,255.7,294.7L255.7,294.7z M256.5,285.5
		c18.9,0.4,38.4,1.2,57.3,5l-1.3,2.3c-17.1-3.4-33.4-4.5-55.9-4.9c-24.2,0.1-50,1.8-73.4,8.6c-7.5,2.2-20.6,7-21,10.7L161,305
		c0.3-3.4,11.6-7.9,21.7-10.8C206.3,287.4,232,285.6,256.5,285.5L256.5,285.5z"/>
	<path d="M166.9,315.4c-0.1,0-0.2-0.1-0.3-0.1l-1.2-2.1c0.4-2.6,7.5-7,19.8-10.5c23.3-6.7,45-8.1,70.5-8.3
		c17.3,0.3,35.7,0.9,53.4,4.2l-1.1,2.6c-14.8-2.5-31.1-3.9-50-3.9l-2.3,0l-2.8,0c-25.6,0-48.2,2.7-67.1,8.2
		c-7.2,2-17.7,6.3-18.8,9.6C167.1,315.3,167,315.4,166.9,315.4C166.9,315.4,166.9,315.4,166.9,315.4L166.9,315.4z M255.6,295
		c-25.4,0.2-47.1,1.6-70.3,8.3c-12.7,3.6-19.1,8-19.4,9.8l0.9,1.4c2.2-4,14.3-8.1,18.9-9.4c18.9-5.4,41.5-8.2,67.2-8.2l2.8,0l2.3,0
		c18.9,0,35.2,1.3,49.8,4l0.9-2.1C291.3,295.9,272.9,295.3,255.6,295L255.6,295z M162.2,307.5c-0.1,0-0.2-0.1-0.3-0.1l-1.2-2.2
		c0.3-4.7,16.8-9.8,21.9-11.3c20.1-5.8,43.6-8.6,73.9-8.7c18.5,0.3,38.3,1.2,57.4,5l-1.1,2.7c-18.5-3.5-35.8-4.4-56.2-4.7
		c-30.1,0.1-53.3,2.8-73.3,8.6c-9.8,2.9-20.4,7.4-20.8,10.5C162.5,307.4,162.4,307.5,162.2,307.5
		C162.3,307.5,162.3,307.5,162.2,307.5L162.2,307.5z M256.5,285.8c-30.2,0.1-53.6,2.8-73.7,8.7c-12.8,3.7-21.3,7.9-21.5,10.6
		l0.8,1.4c2.1-4.6,19-9.7,21-10.3c20-5.8,43.3-8.5,73.4-8.6c20.4,0.3,37.7,1.3,55.9,4.9l1-2.1C294.7,287,275,286.2,256.5,285.8
		L256.5,285.8z"/>
	<path d="M236.9,291.9c0-0.3,0.1-0.6,0.3-0.8c0.2-0.2,0.4-0.3,0.7-0.3c0.2,0,0.3,0,0.5,0.1c0.1,0.1,0.2,0.2,0.3,0.3
		c0.1,0.1,0.1,0.3,0.1,0.5c0,0.2-0.1,0.4-0.2,0.5c-0.1,0.2-0.2,0.3-0.4,0.4c-0.1,0.1-0.3,0.1-0.5,0.1c-0.2,0-0.3,0-0.5-0.1
		c-0.1-0.1-0.2-0.2-0.3-0.3C236.9,292.3,236.9,292.1,236.9,291.9L236.9,291.9z M237.2,291.9c0,0.2,0,0.4,0.1,0.6
		c0.1,0.1,0.3,0.2,0.5,0.1c0.2,0,0.4-0.1,0.5-0.2c0.1-0.1,0.2-0.3,0.2-0.6c0-0.1,0-0.3,0-0.4c0-0.1-0.1-0.2-0.2-0.2
		c-0.1,0-0.2-0.1-0.3-0.1c-0.2,0-0.4,0.1-0.5,0.2C237.3,291.4,237.2,291.6,237.2,291.9L237.2,291.9z M239.7,292.2l0.2,0
		c0,0.1,0,0.2,0.1,0.2c0,0.1,0.1,0.1,0.2,0.1c0.1,0,0.2,0,0.3-0.1c0,0,0.1-0.1,0.1-0.1c0-0.1,0-0.1,0-0.1c0,0-0.1,0-0.2-0.1
		c-0.2,0-0.3-0.1-0.4-0.1c0,0-0.1-0.1-0.1-0.1c0-0.1,0-0.1,0-0.2c0-0.1,0-0.1,0.1-0.2c0-0.1,0.1-0.1,0.1-0.1c0,0,0.1,0,0.1-0.1
		c0.1,0,0.1,0,0.2,0c0.1,0,0.2,0,0.3,0c0.1,0,0.1,0.1,0.2,0.1c0,0,0,0.1,0.1,0.2l-0.2,0.1c0-0.1,0-0.1-0.1-0.2c0,0-0.1,0-0.2,0
		c-0.1,0-0.2,0-0.2,0.1c-0.1,0-0.1,0.1-0.1,0.1c0,0,0,0,0,0.1c0,0,0,0,0.1,0c0,0,0.1,0,0.2,0.1c0.2,0,0.3,0,0.3,0.1
		c0.1,0,0.1,0.1,0.2,0.1c0,0,0,0.1,0,0.2c0,0.1,0,0.2-0.1,0.2c0,0-0.1,0.1-0.2,0.2c-0.1,0-0.2,0-0.3,0c-0.2,0-0.3,0-0.4-0.1
		C239.7,292.5,239.7,292.4,239.7,292.2L239.7,292.2z M242.1,292.1l0.2,0c0,0.1-0.1,0.3-0.3,0.3c-0.1,0.1-0.2,0.1-0.4,0.1
		c-0.2,0-0.4,0-0.5-0.2c-0.1-0.1-0.1-0.3-0.1-0.5c0-0.2,0.1-0.4,0.2-0.6c0.1-0.1,0.3-0.2,0.5-0.2c0.2,0,0.3,0,0.5,0.2
		c0.1,0.1,0.1,0.3,0.1,0.6c0,0,0,0,0,0.1l-1,0c0,0.1,0,0.3,0.1,0.3c0,0.1,0.2,0.1,0.3,0.1c0.1,0,0.2,0,0.2,0
		C242,292.2,242,292.2,242.1,292.1L242.1,292.1z M241.4,291.7l0.8,0c0-0.1,0-0.2-0.1-0.3c0-0.1-0.2-0.1-0.3-0.1
		c-0.1,0-0.2,0-0.3,0.1C241.4,291.5,241.4,291.6,241.4,291.7L241.4,291.7z M242.5,292.6h0.2c0,0.1,0,0.1,0,0.2c0,0,0.1,0,0.2,0
		c0.1,0,0.2,0,0.3-0.1c0.1-0.1,0.1-0.1,0.1-0.2c0,0,0-0.1,0.1-0.3c-0.1,0.1-0.3,0.2-0.4,0.2c-0.2,0-0.3,0-0.4-0.2
		c-0.1-0.1-0.1-0.3-0.1-0.5c0-0.1,0.1-0.3,0.1-0.4c0.1-0.1,0.1-0.2,0.2-0.3c0.1-0.1,0.2-0.1,0.3-0.1c0.2,0,0.3,0,0.4,0.2l0-0.2h0.2
		l-0.1,1.2c0,0.2-0.1,0.4-0.1,0.5c-0.1,0.1-0.1,0.2-0.2,0.2c-0.1,0.1-0.2,0.1-0.4,0.1c-0.2,0-0.3,0-0.4-0.1
		C242.5,292.8,242.5,292.7,242.5,292.6L242.5,292.6z M242.8,291.7c0,0.2,0,0.3,0.1,0.4c0.1,0.1,0.1,0.1,0.3,0.1c0.1,0,0.2,0,0.3-0.1
		c0.1-0.1,0.1-0.2,0.2-0.4c0-0.2,0-0.3-0.1-0.4c-0.1-0.1-0.2-0.1-0.3-0.1c-0.1,0-0.2,0.1-0.3,0.1
		C242.9,291.4,242.8,291.5,242.8,291.7L242.8,291.7z M244,292.4l0.2-1.4h0.2l0,0.2c0-0.1,0.1-0.1,0.2-0.2c0.1-0.1,0.2-0.1,0.3-0.1
		c0.1,0,0.2,0,0.2,0.1c0.1,0,0.1,0.1,0.1,0.2c0.1-0.2,0.3-0.3,0.5-0.3c0.1,0,0.2,0,0.3,0.1c0.1,0.1,0.1,0.2,0.1,0.4l-0.1,1h-0.2
		l0.1-0.9c0-0.1,0-0.2,0-0.2c0-0.1,0-0.1-0.1-0.1c0,0-0.1,0-0.1,0c-0.1,0-0.2,0-0.3,0.1c-0.1,0.1-0.1,0.2-0.1,0.3l-0.1,0.8h-0.2
		l0.1-0.9c0-0.1,0-0.2,0-0.2c0,0-0.1-0.1-0.2-0.1c-0.1,0-0.1,0-0.2,0.1c-0.1,0-0.1,0.1-0.2,0.1c0,0.1,0,0.2-0.1,0.3l-0.1,0.7H244
		L244,292.4z M247.3,291.8l0.2,0c-0.1,0.1-0.1,0.3-0.3,0.3c-0.1,0.1-0.2,0.1-0.4,0.1c-0.2,0-0.4-0.1-0.4-0.2
		c-0.1-0.1-0.1-0.3-0.1-0.5c0-0.2,0.1-0.4,0.3-0.6c0.1-0.1,0.3-0.2,0.5-0.2c0.2,0,0.3,0.1,0.4,0.2c0.1,0.1,0.1,0.3,0.1,0.5
		c0,0,0,0,0,0.1l-1,0c0,0.1,0,0.3,0.1,0.4c0.1,0.1,0.2,0.1,0.3,0.1c0.1,0,0.2,0,0.2-0.1C247.2,292,247.2,291.9,247.3,291.8
		L247.3,291.8z M246.6,291.4l0.8,0c0-0.1,0-0.2-0.1-0.3c0-0.1-0.1-0.1-0.3-0.1c-0.1,0-0.2,0.1-0.3,0.1
		C246.7,291.2,246.6,291.3,246.6,291.4L246.6,291.4z M247.8,292.2l0.2-1.4h0.2l0,0.2c0.1-0.1,0.3-0.2,0.5-0.2c0.1,0,0.2,0,0.2,0
		c0,0,0.1,0.1,0.1,0.1c0,0,0,0.1,0,0.2c0,0,0,0.1,0,0.2l-0.1,0.9l-0.2,0l0.1-0.9c0-0.1,0-0.2,0-0.2c0,0,0-0.1-0.1-0.1
		c0,0-0.1,0-0.2,0c-0.1,0-0.2,0-0.3,0.1c-0.1,0.1-0.1,0.2-0.1,0.4l-0.1,0.8H247.8z M249.8,292v0.2c-0.1,0-0.1,0-0.2,0
		c-0.1,0-0.1,0-0.2,0c0,0-0.1-0.1-0.1-0.1c0,0,0-0.1,0-0.3l0.1-0.8h-0.2l0-0.2h0.2l0-0.4l0.3-0.1l-0.1,0.5l0.2,0l0,0.2h-0.2
		l-0.1,0.8c0,0.1,0,0.1,0,0.1c0,0,0,0,0,0c0,0,0.1,0,0.1,0C249.7,292,249.8,292,249.8,292L249.8,292z M250,291.5
		c0-0.3,0.1-0.5,0.3-0.6c0.1-0.1,0.3-0.2,0.5-0.2c0.2,0,0.3,0,0.4,0.2c0.1,0.1,0.1,0.3,0.1,0.5c0,0.2-0.1,0.3-0.1,0.4
		c-0.1,0.1-0.2,0.2-0.3,0.2c-0.1,0.1-0.2,0.1-0.4,0.1c-0.2,0-0.3-0.1-0.4-0.2C250,291.9,250,291.7,250,291.5L250,291.5z
		 M250.3,291.5c0,0.2,0,0.3,0.1,0.4c0.1,0.1,0.2,0.1,0.3,0.1c0.1,0,0.2,0,0.3-0.1c0.1-0.1,0.2-0.2,0.2-0.4c0-0.2,0-0.3,0-0.4
		c-0.1-0.1-0.2-0.1-0.3-0.1c-0.1,0-0.2,0-0.3,0.1C250.4,291.1,250.3,291.3,250.3,291.5L250.3,291.5z M253.2,291.7l0.2,0
		c-0.1,0.1-0.2,0.2-0.3,0.3c-0.1,0.1-0.2,0.1-0.4,0.1c-0.2,0-0.3,0-0.4-0.2c-0.1-0.1-0.1-0.3-0.1-0.5c0-0.2,0.1-0.4,0.3-0.6
		c0.1-0.1,0.3-0.2,0.5-0.2c0.2,0,0.3,0.1,0.4,0.2c0.1,0.1,0.1,0.3,0.1,0.5c0,0,0,0,0,0.1h-1c0,0.2,0,0.3,0.1,0.4
		c0.1,0.1,0.1,0.1,0.3,0.1c0.1,0,0.2,0,0.2-0.1C253.1,291.8,253.2,291.8,253.2,291.7L253.2,291.7z M252.5,291.3h0.8
		c0-0.1,0-0.2,0-0.3c-0.1-0.1-0.2-0.1-0.3-0.1c-0.1,0-0.2,0-0.3,0.1C252.6,291.1,252.6,291.2,252.5,291.3L252.5,291.3z M253.7,292.1
		l0.3-2h0.2l-0.3,2H253.7L253.7,292.1z M254.6,290.4l0.1-0.3h0.2l0,0.3H254.6L254.6,290.4z M254.3,292.1l0.2-1.4h0.2l-0.2,1.4H254.3
		L254.3,292.1z M254.9,292.1l0.2-1.4h0.2l0,0.2c0-0.1,0.1-0.1,0.2-0.2c0.1-0.1,0.2-0.1,0.3-0.1c0.1,0,0.2,0,0.2,0.1
		c0.1,0,0.1,0.1,0.1,0.2c0.1-0.2,0.3-0.2,0.5-0.2c0.1,0,0.2,0,0.3,0.1c0.1,0.1,0.1,0.2,0,0.4l-0.2,1h-0.2l0.1-0.9c0-0.1,0-0.2,0-0.2
		c0-0.1,0-0.1,0-0.1c0,0-0.1,0-0.1,0c-0.1,0-0.2,0-0.3,0.1c-0.1,0.1-0.1,0.2-0.1,0.3l-0.1,0.8h-0.2l0.1-0.9c0-0.1,0-0.2,0-0.2
		c0,0-0.1-0.1-0.2-0.1c-0.1,0-0.1,0-0.2,0c0,0-0.1,0.1-0.1,0.2c0,0-0.1,0.1-0.1,0.3l-0.1,0.7H254.9L254.9,292.1z M257.4,290.4
		l0.1-0.3h0.2l0,0.3H257.4L257.4,290.4z M257.1,292.1l0.2-1.4h0.2l-0.2,1.4H257.1L257.1,292.1z M257.7,292.1l0.3-1.4h0.2l0,0.2
		c0.1-0.1,0.3-0.2,0.5-0.2c0.1,0,0.2,0,0.2,0c0,0,0.1,0.1,0.1,0.1c0,0,0,0.1,0,0.2c0,0,0,0.1,0,0.2l-0.2,0.9h-0.2l0.1-0.9
		c0-0.1,0-0.2,0-0.2c0-0.1,0-0.1-0.1-0.1c0,0-0.1,0-0.1,0c-0.2,0-0.2,0-0.3,0.1c-0.1,0.1-0.2,0.2-0.2,0.4l-0.1,0.8H257.7
		L257.7,292.1z M260.1,291.9c-0.1,0.1-0.2,0.1-0.3,0.1c-0.1,0-0.2,0-0.3,0c-0.1,0-0.3,0-0.3-0.1c-0.1-0.1-0.1-0.2-0.1-0.3
		c0-0.1,0-0.1,0.1-0.2c0.1,0,0.1-0.1,0.2-0.1c0,0,0.1,0,0.2-0.1c0,0,0.1,0,0.2,0c0.2,0,0.3,0,0.4-0.1c0,0,0,0,0-0.1
		c0-0.1,0-0.1,0-0.2c-0.1-0.1-0.1-0.1-0.2-0.1c-0.1,0-0.2,0-0.3,0c-0.1,0-0.1,0.1-0.2,0.2l-0.2,0c0-0.1,0.1-0.2,0.2-0.2
		c0,0,0.1-0.1,0.2-0.1c0.1-0.1,0.2-0.1,0.3-0.1c0.1,0,0.2,0,0.3,0.1c0.1,0,0.1,0.1,0.1,0.1c0,0,0,0.1,0,0.1c0,0,0,0.1,0,0.2l0,0.3
		c-0.1,0.2-0.1,0.4-0.1,0.4c0,0.1,0,0.1,0,0.2h-0.2C260.1,292.1,260.1,292,260.1,291.9L260.1,291.9z M260.2,291.4
		c-0.1,0-0.2,0.1-0.4,0.1c-0.1,0-0.2,0-0.2,0c-0.1,0-0.1,0-0.1,0.1c0,0,0,0.1-0.1,0.1c0,0.1,0,0.1,0.1,0.2c0,0,0.1,0,0.2,0
		c0.1,0,0.2,0,0.3,0c0.1,0,0.1-0.1,0.2-0.2C260.1,291.7,260.1,291.6,260.2,291.4L260.2,291.4L260.2,291.4z M261.5,292.1l0-0.2
		c-0.1,0.1-0.2,0.2-0.4,0.2c-0.1,0-0.2,0-0.3-0.1c-0.1,0-0.1-0.1-0.2-0.3c0-0.1,0-0.2,0-0.4c0-0.1,0.1-0.3,0.1-0.4
		c0.1-0.1,0.2-0.2,0.3-0.2c0.1-0.1,0.2-0.1,0.3-0.1c0.1,0,0.2,0,0.2,0.1c0.1,0,0.1,0.1,0.1,0.1l0.1-0.7l0.2,0l-0.4,1.9H261.5
		L261.5,292.1z M260.9,291.4c0,0.2,0,0.3,0,0.4c0.1,0.1,0.1,0.1,0.2,0.1c0.1,0,0.2,0,0.3-0.1c0.1-0.1,0.1-0.2,0.2-0.4
		c0-0.2,0-0.3,0-0.4c-0.1-0.1-0.1-0.1-0.2-0.1c-0.1,0-0.2,0-0.3,0.1C261,291.1,261,291.2,260.9,291.4L260.9,291.4z M262.2,291.4
		c0-0.3,0.1-0.4,0.3-0.6c0.1-0.1,0.3-0.2,0.5-0.2c0.2,0,0.3,0.1,0.4,0.2c0.1,0.1,0.1,0.3,0.1,0.5c0,0.2-0.1,0.3-0.2,0.4
		c-0.1,0.1-0.2,0.2-0.3,0.2c-0.1,0-0.2,0.1-0.3,0.1c-0.2,0-0.3-0.1-0.4-0.2C262.1,291.8,262.1,291.6,262.2,291.4L262.2,291.4z
		 M262.4,291.4c0,0.2,0,0.3,0,0.4c0.1,0.1,0.2,0.1,0.3,0.1c0.1,0,0.2,0,0.3-0.1c0.1-0.1,0.2-0.2,0.2-0.4c0-0.2,0-0.3,0-0.4
		c-0.1-0.1-0.2-0.1-0.3-0.1c-0.1,0-0.2,0-0.3,0.1C262.5,291.1,262.4,291.2,262.4,291.4L262.4,291.4z M264.3,292.2l0.3-1.4h0.2l0,0.2
		c0.1-0.1,0.1-0.2,0.2-0.2c0,0,0.1-0.1,0.1-0.1c0.1,0,0.2,0,0.3,0.1l-0.1,0.2c0,0-0.1,0-0.1,0c-0.1,0-0.2,0-0.2,0
		c0,0-0.1,0.1-0.1,0.1c-0.1,0.1-0.1,0.2-0.1,0.3l-0.1,0.8H264.3L264.3,292.2z M266.2,291.8l0.2,0c-0.1,0.1-0.2,0.3-0.3,0.3
		c-0.1,0.1-0.3,0.1-0.4,0.1c-0.2,0-0.4-0.1-0.4-0.2c-0.1-0.1-0.1-0.3-0.1-0.5c0-0.2,0.2-0.4,0.3-0.6c0.1-0.1,0.3-0.2,0.5-0.2
		c0.2,0,0.3,0.1,0.4,0.2c0.1,0.1,0.1,0.3,0.1,0.6c0,0,0,0,0,0l-1,0c0,0.2,0,0.3,0.1,0.4c0,0.1,0.1,0.1,0.3,0.1c0.1,0,0.2,0,0.2-0.1
		C266.1,291.9,266.2,291.9,266.2,291.8L266.2,291.8z M265.6,291.3l0.8,0c0-0.1,0-0.2,0-0.3c-0.1-0.1-0.1-0.1-0.3-0.1
		c-0.1,0-0.2,0-0.3,0.1C265.7,291.1,265.6,291.2,265.6,291.3L265.6,291.3z M266.7,291.8h0.2c0,0.1,0,0.2,0,0.2
		c0.1,0,0.1,0.1,0.2,0.1c0.1,0,0.2,0,0.2,0c0.1,0,0.1-0.1,0.1-0.2c0,0,0-0.1,0-0.1c0,0-0.1,0-0.2-0.1c-0.1,0-0.3-0.1-0.3-0.1
		c0,0-0.1-0.1-0.1-0.1c0-0.1,0-0.1,0-0.2c0,0,0-0.1,0.1-0.2c0-0.1,0.1-0.1,0.1-0.1c0,0,0.1,0,0.2-0.1c0.1,0,0.1,0,0.2,0
		c0.1,0,0.2,0,0.3,0c0.1,0,0.1,0.1,0.2,0.1c0,0,0,0.1,0,0.2l-0.2,0.1c0-0.1,0-0.1-0.1-0.2c0,0-0.1-0.1-0.2-0.1c-0.1,0-0.2,0-0.2,0
		c0,0-0.1,0.1-0.1,0.1c0,0,0,0.1,0,0.1c0,0,0,0,0.1,0c0,0,0.1,0,0.2,0.1c0.2,0,0.3,0.1,0.3,0.1c0.1,0,0.1,0.1,0.1,0.1
		c0,0.1,0,0.1,0,0.2c0,0.1-0.1,0.2-0.1,0.2c0,0-0.1,0.1-0.2,0.2c-0.1,0-0.2,0-0.3,0c-0.2,0-0.3,0-0.4-0.1
		C266.7,292.1,266.7,291.9,266.7,291.8L266.7,291.8z M267.9,292.8l0.4-2l0.2,0l0,0.2c0.1-0.1,0.1-0.1,0.2-0.2c0.1,0,0.1,0,0.2,0
		c0.1,0,0.2,0,0.3,0.1c0.1,0.1,0.1,0.1,0.1,0.3c0,0.1,0,0.2,0,0.4c0,0.1-0.1,0.3-0.2,0.4c-0.1,0.1-0.2,0.2-0.3,0.2
		c-0.1,0.1-0.2,0.1-0.3,0.1c-0.1,0-0.1,0-0.2-0.1c0,0-0.1-0.1-0.1-0.1l-0.1,0.7H267.9L267.9,292.8z M268.4,291.6c0,0.2,0,0.3,0,0.4
		c0,0.1,0.1,0.1,0.2,0.1c0.1,0,0.2,0,0.3-0.1c0.1-0.1,0.2-0.2,0.2-0.4c0-0.2,0-0.3,0-0.4c0-0.1-0.1-0.1-0.2-0.1
		c-0.1,0-0.2,0-0.3,0.1C268.5,291.2,268.4,291.4,268.4,291.6L268.4,291.6z M270.5,291.9l0.2,0c-0.1,0.1-0.2,0.3-0.3,0.3
		c-0.1,0.1-0.3,0.1-0.4,0.1c-0.2,0-0.4-0.1-0.4-0.2c-0.1-0.1-0.1-0.3-0.1-0.6c0.1-0.2,0.2-0.4,0.3-0.6c0.2-0.1,0.3-0.2,0.5-0.2
		c0.2,0,0.3,0.1,0.4,0.2c0.1,0.1,0.1,0.3,0.1,0.5c0,0,0,0,0,0.1l-1,0c0,0.1,0,0.3,0,0.4c0.1,0.1,0.1,0.1,0.3,0.1
		c0.1,0,0.1,0,0.2-0.1C270.4,292.1,270.5,292,270.5,291.9L270.5,291.9z M269.8,291.5l0.8,0c0-0.1,0-0.2,0-0.3c0-0.1-0.1-0.1-0.3-0.1
		c-0.1,0-0.2,0-0.3,0.1C269.9,291.3,269.9,291.4,269.8,291.5L269.8,291.5z M271.3,290.7l0.1-0.3h0.2l-0.1,0.3H271.3L271.3,290.7z
		 M271,292.4l0.3-1.4l0.2,0l-0.3,1.4L271,292.4z M272.1,292.2v0.2c-0.1,0-0.1,0-0.1,0c-0.1,0-0.2,0-0.2-0.1c0,0-0.1-0.1-0.1-0.1
		c0,0,0-0.1,0-0.3l0.2-0.8l-0.2,0l0-0.2l0.2,0l0.1-0.4l0.3-0.1l-0.1,0.5h0.2l0,0.2h-0.2l-0.2,0.8c0,0.1,0,0.1,0,0.1
		c0,0.1,0,0.1,0,0.1C271.9,292.2,271.9,292.2,272.1,292.2C272,292.2,272,292.2,272.1,292.2L272.1,292.2z M273.2,292.3
		c-0.1,0-0.2,0.1-0.3,0.1c-0.1,0-0.2,0-0.3,0c-0.2,0-0.3,0-0.3-0.1c-0.1-0.1-0.1-0.2-0.1-0.3c0-0.1,0-0.1,0.1-0.2
		c0,0,0.1-0.1,0.1-0.1c0.1,0,0.1-0.1,0.2-0.1c0,0,0.1,0,0.2,0c0.2,0,0.3,0,0.4-0.1c0,0,0,0,0-0.1c0-0.1,0-0.2,0-0.2
		c0,0-0.1-0.1-0.3-0.1c-0.1,0-0.2,0-0.2,0.1c-0.1,0-0.1,0.1-0.2,0.2l-0.2,0c0-0.1,0.1-0.2,0.1-0.2c0.1-0.1,0.1-0.1,0.2-0.1
		c0.1,0,0.2,0,0.3,0c0.1,0,0.2,0,0.3,0.1c0,0,0.1,0,0.1,0.1c0,0.1,0,0.1,0,0.2c0,0,0,0.1,0,0.2l-0.1,0.3c0,0.2-0.1,0.4-0.1,0.4
		c0,0,0,0.1,0,0.2h-0.2C273.2,292.4,273.2,292.4,273.2,292.3L273.2,292.3z M273.2,291.8c-0.1,0-0.2,0-0.4,0c-0.1,0-0.2,0-0.2,0.1
		c0,0-0.1,0-0.1,0c0,0,0,0.1,0,0.1c0,0,0,0.1,0,0.2c0,0,0.1,0.1,0.2,0.1c0.1,0,0.2,0,0.3-0.1c0.1,0,0.1-0.1,0.2-0.1
		C273.2,292,273.2,291.9,273.2,291.8L273.2,291.8L273.2,291.8z M274.5,291.8c0.1-0.2,0.2-0.4,0.3-0.6c0.1-0.1,0.3-0.1,0.5-0.1
		c0.2,0,0.3,0.1,0.4,0.2c0.1,0.1,0.1,0.3,0.1,0.5c0,0.2-0.1,0.3-0.2,0.4c-0.1,0.1-0.2,0.2-0.3,0.2c-0.1,0.1-0.2,0.1-0.3,0.1
		c-0.2,0-0.3-0.1-0.4-0.2C274.5,292.3,274.4,292.1,274.5,291.8L274.5,291.8z M274.7,291.8c0,0.2,0,0.3,0,0.4c0,0.1,0.1,0.1,0.3,0.2
		c0.1,0,0.2,0,0.3-0.1c0.1-0.1,0.2-0.2,0.2-0.4c0-0.2,0-0.3,0-0.4c-0.1-0.1-0.2-0.2-0.3-0.2c-0.1,0-0.2,0-0.3,0.1
		C274.8,291.5,274.8,291.7,274.7,291.8L274.7,291.8z M276.5,293.2l0.4-1.9h0.2l0,0.2c0,0,0.1-0.1,0.2-0.1c0.1,0,0.2,0,0.2,0
		c0.1,0,0.2,0,0.3,0.1c0.1,0.1,0.1,0.2,0.1,0.3c0,0.1,0,0.2,0,0.4c0,0.1-0.1,0.3-0.2,0.4c-0.1,0.1-0.2,0.2-0.3,0.3
		c-0.1,0-0.2,0.1-0.3,0.1c-0.1,0-0.1,0-0.2-0.1c-0.1,0-0.1-0.1-0.1-0.1l-0.2,0.7L276.5,293.2z M277,291.9c0,0.2,0,0.3,0,0.4
		c0,0.1,0.1,0.1,0.2,0.2c0.1,0,0.2,0,0.3-0.1c0.1-0.1,0.2-0.2,0.2-0.4c0-0.2,0-0.3,0-0.4c0-0.1-0.1-0.2-0.2-0.2
		c-0.1,0-0.2,0-0.3,0.1C277.1,291.7,277,291.8,277,291.9L277,291.9z M278.1,292.7l0.3-1.4h0.2l0,0.2c0.1-0.1,0.1-0.1,0.2-0.2
		c0,0,0.1-0.1,0.2,0c0.1,0,0.1,0,0.2,0.1l-0.1,0.2c0,0-0.1-0.1-0.1-0.1c-0.1,0-0.2,0-0.2,0c-0.1,0-0.1,0.1-0.1,0.1
		c0,0.1-0.1,0.2-0.1,0.3l-0.2,0.7H278.1L278.1,292.7z M279,292.1c0-0.3,0.2-0.5,0.3-0.6c0.2-0.1,0.3-0.1,0.5-0.1
		c0.2,0,0.3,0.1,0.4,0.2c0.1,0.1,0.1,0.3,0.1,0.5c0,0.2-0.1,0.3-0.2,0.4c-0.1,0.1-0.2,0.2-0.3,0.2c-0.1,0-0.2,0.1-0.4,0.1
		c-0.2,0-0.3-0.1-0.4-0.2C279,292.5,279,292.3,279,292.1L279,292.1z M279.3,292.1c-0.1,0.2,0,0.3,0,0.4c0,0.1,0.1,0.1,0.3,0.1
		c0.1,0,0.2,0,0.3-0.1c0.1-0.1,0.2-0.2,0.2-0.4c0-0.2,0-0.3,0-0.4c-0.1-0.1-0.1-0.1-0.3-0.1c-0.1,0-0.2,0-0.3,0.1
		C279.4,291.8,279.3,291.9,279.3,292.1L279.3,292.1z M280.8,291.2l0.1-0.3h0.2l-0.1,0.3H280.8L280.8,291.2z M280,293.4l0.1-0.2
		c0,0,0.1,0,0.1,0c0.1,0,0.1,0,0.1,0c0,0,0.1-0.1,0.1-0.2l0.3-1.5l0.2,0l-0.3,1.5c0,0.2-0.1,0.3-0.2,0.3c-0.1,0.1-0.2,0.1-0.3,0.1
		C280.1,293.5,280.1,293.5,280,293.4L280,293.4z M282,292.5l0.2,0c-0.1,0.1-0.2,0.3-0.3,0.3c-0.1,0.1-0.3,0.1-0.4,0.1
		c-0.2,0-0.4-0.1-0.5-0.2c-0.1-0.1-0.1-0.3-0.1-0.5c0.1-0.2,0.2-0.4,0.3-0.5c0.1-0.1,0.3-0.2,0.5-0.2c0.2,0,0.3,0.1,0.4,0.2
		c0.1,0.1,0.1,0.3,0,0.6c0,0,0,0,0,0l-1,0c0,0.1,0,0.3,0,0.3c0.1,0.1,0.2,0.1,0.3,0.1c0.1,0,0.2,0,0.2,0
		C281.9,292.7,282,292.6,282,292.5L282,292.5z M281.4,292.1l0.8,0c0-0.1,0-0.2,0-0.3c0-0.1-0.1-0.1-0.3-0.2c-0.1,0-0.2,0-0.3,0.1
		C281.5,291.9,281.4,292,281.4,292.1L281.4,292.1z"/>
	<path d="M283.5,292.6l0.2,0c-0.1,0.2-0.2,0.3-0.3,0.4c-0.1,0.1-0.3,0.1-0.4,0.1c-0.2,0-0.3-0.1-0.4-0.2c-0.1-0.1-0.1-0.3,0-0.5
		c0-0.2,0.1-0.3,0.2-0.4c0.1-0.1,0.2-0.2,0.3-0.2c0.1,0,0.2-0.1,0.3-0.1c0.2,0,0.3,0,0.3,0.1c0.1,0.1,0.1,0.2,0.1,0.3l-0.2,0
		c0-0.1,0-0.2-0.1-0.2c0,0-0.1-0.1-0.2-0.1c-0.1,0-0.2,0-0.3,0.1c-0.1,0.1-0.2,0.2-0.2,0.4c0,0.2,0,0.3,0,0.4c0,0.1,0.1,0.1,0.2,0.1
		c0.1,0,0.2,0,0.3-0.1C283.4,292.8,283.4,292.7,283.5,292.6L283.5,292.6z M284.3,293l0,0.2c-0.1,0-0.1,0-0.1,0c-0.1,0-0.2,0-0.2,0
		c0,0-0.1-0.1-0.1-0.1c0-0.1,0-0.1,0-0.3l0.2-0.8l-0.2,0l0-0.2l0.2,0l0.1-0.4l0.3-0.1l-0.1,0.5h0.2l0,0.2l-0.2,0l-0.2,0.8
		c0,0.1,0,0.1,0,0.1c0,0,0,0,0,0C284.2,293,284.2,293,284.3,293C284.2,293,284.3,293,284.3,293L284.3,293z M284.6,292.5
		c0.1-0.3,0.2-0.4,0.4-0.6c0.1-0.1,0.3-0.1,0.5-0.1c0.2,0,0.3,0.1,0.4,0.2c0.1,0.1,0.1,0.3,0,0.6c0,0.2-0.1,0.3-0.2,0.4
		c-0.1,0.1-0.2,0.2-0.3,0.2c-0.1,0-0.2,0.1-0.3,0.1c-0.2,0-0.3-0.1-0.4-0.2C284.5,292.9,284.5,292.7,284.6,292.5L284.6,292.5z
		 M284.8,292.5c0,0.2,0,0.3,0,0.4c0.1,0.1,0.2,0.1,0.3,0.2c0.1,0,0.2,0,0.3-0.1c0.1-0.1,0.2-0.2,0.2-0.4c0.1-0.2,0-0.3,0-0.4
		c0-0.1-0.1-0.2-0.3-0.2c-0.1,0-0.2,0-0.3,0.1C284.9,292.2,284.9,292.3,284.8,292.5L284.8,292.5z M287.6,293.5l0-0.2
		c-0.1,0.1-0.3,0.2-0.4,0.2c-0.1,0-0.2,0-0.3-0.1c-0.1-0.1-0.1-0.2-0.2-0.3c0-0.1,0-0.3,0-0.4c0-0.1,0.1-0.3,0.2-0.4
		c0.1-0.1,0.2-0.2,0.3-0.3c0.1,0,0.2,0,0.3,0c0.1,0,0.2,0,0.2,0c0.1,0,0.1,0.1,0.1,0.2l0.1-0.7h0.2l-0.4,2L287.6,293.5L287.6,293.5z
		 M287,292.7c0,0.2,0,0.3,0,0.4c0.1,0.1,0.1,0.2,0.2,0.2c0.1,0,0.2,0,0.3-0.1c0.1-0.1,0.1-0.2,0.2-0.4c0-0.2,0-0.3,0-0.4
		c-0.1-0.1-0.1-0.1-0.2-0.1c-0.1,0-0.2,0-0.3,0.1C287.1,292.4,287,292.5,287,292.7L287,292.7z M289.2,293.2l0.2,0
		c-0.1,0.1-0.2,0.2-0.3,0.3c-0.1,0.1-0.3,0.1-0.4,0.1c-0.2,0-0.3-0.1-0.4-0.2c-0.1-0.1-0.1-0.3,0-0.6c0.1-0.2,0.2-0.4,0.3-0.5
		c0.1-0.1,0.3-0.2,0.5-0.2c0.2,0,0.3,0.1,0.4,0.2c0.1,0.1,0.1,0.3,0,0.6c0,0,0,0,0,0.1l-1-0.1c0,0.2,0,0.3,0,0.4
		c0.1,0.1,0.1,0.1,0.2,0.1c0.1,0,0.2,0,0.2,0C289.1,293.4,289.1,293.3,289.2,293.2L289.2,293.2z M288.5,292.7l0.7,0.1
		c0-0.1,0-0.2,0-0.3c0-0.1-0.1-0.1-0.3-0.2c-0.1,0-0.2,0-0.3,0.1C288.6,292.5,288.6,292.6,288.5,292.7L288.5,292.7z M291.8,293.2
		l0.2,0.1c-0.1,0.2-0.2,0.4-0.4,0.5c-0.2,0.1-0.3,0.1-0.5,0.1c-0.2,0-0.3-0.1-0.5-0.2c-0.1-0.1-0.2-0.2-0.2-0.4c0-0.2,0-0.4,0-0.5
		c0-0.2,0.1-0.4,0.3-0.5c0.1-0.1,0.2-0.2,0.4-0.3c0.2-0.1,0.3-0.1,0.5-0.1c0.2,0,0.3,0.1,0.4,0.2c0.1,0.1,0.2,0.2,0.2,0.4l-0.3,0
		c0-0.1,0-0.2-0.1-0.3c0-0.1-0.2-0.1-0.3-0.1c-0.2,0-0.3,0-0.4,0.1c-0.1,0.1-0.2,0.2-0.3,0.3c-0.1,0.1-0.1,0.2-0.1,0.4
		c0,0.2-0.1,0.3,0,0.4c0,0.1,0.1,0.2,0.1,0.3c0.1,0,0.2,0.1,0.3,0.1c0.1,0,0.3,0,0.4-0.1C291.7,293.5,291.8,293.4,291.8,293.2
		L291.8,293.2z M292.3,293.3c0.1-0.3,0.2-0.5,0.4-0.6c0.2-0.1,0.3-0.1,0.5-0.1c0.2,0,0.3,0.1,0.4,0.2c0.1,0.1,0.1,0.3,0,0.5
		c-0.1,0.2-0.1,0.3-0.2,0.4c-0.1,0.1-0.2,0.2-0.3,0.2c-0.1,0-0.2,0.1-0.3,0c-0.2,0-0.3-0.1-0.4-0.2
		C292.2,293.7,292.2,293.5,292.3,293.3L292.3,293.3z M292.5,293.3c0,0.2,0,0.3,0,0.4c0.1,0.1,0.1,0.1,0.2,0.2c0.1,0,0.2,0,0.3-0.1
		c0.1-0.1,0.2-0.2,0.2-0.4c0-0.2,0-0.3,0-0.4c0-0.1-0.1-0.2-0.2-0.2c-0.1,0-0.2,0-0.3,0.1C292.7,292.9,292.6,293.1,292.5,293.3
		L292.5,293.3z M293.6,294.1l0.5-1.9h0.2l-0.5,2L293.6,294.1L293.6,294.1z M295.1,294.3l0-0.2c-0.1,0.1-0.3,0.2-0.5,0.2
		c-0.1,0-0.2,0-0.2-0.1c-0.1,0-0.1-0.1-0.1-0.1c0,0,0-0.1,0-0.2c0,0,0-0.1,0.1-0.2l0.2-0.9l0.2,0l-0.2,0.8c0,0.1,0,0.2,0,0.3
		c0,0,0,0.1,0,0.1c0,0,0.1,0.1,0.2,0.1c0.1,0,0.1,0,0.2,0c0.1,0,0.1-0.1,0.2-0.1c0.1,0,0.1-0.1,0.1-0.2l0.2-0.8l0.2,0l-0.4,1.4
		L295.1,294.3L295.1,294.3z M295.6,294.4l0.4-1.4l0.2,0l-0.1,0.2c0.1,0,0.1-0.1,0.2-0.1c0.1,0,0.2-0.1,0.3,0c0.1,0,0.2,0,0.2,0.1
		c0.1,0,0.1,0.1,0.1,0.2c0.1-0.2,0.3-0.2,0.5-0.2c0.1,0,0.2,0.1,0.3,0.2c0,0.1,0,0.2,0,0.3l-0.3,1l-0.2,0l0.2-0.9c0-0.1,0-0.2,0-0.2
		c0,0,0-0.1,0-0.1c0,0-0.1,0-0.1,0c-0.2,0-0.2,0-0.3,0c-0.1,0.1-0.1,0.2-0.2,0.3l-0.2,0.8l-0.2,0l0.2-0.9c0-0.1,0-0.2,0-0.2
		c0,0-0.1-0.1-0.2-0.1c-0.1,0-0.1,0-0.2,0c-0.1,0-0.1,0.1-0.2,0.1c0,0-0.1,0.2-0.1,0.3l-0.2,0.7L295.6,294.4z M298,294.7l-0.2,0
		l0.5-1.9l0.2,0l-0.2,0.7c0.1-0.1,0.3-0.1,0.4-0.1c0.1,0,0.2,0,0.2,0.1c0.1,0,0.1,0.1,0.1,0.2c0,0.1,0,0.2,0,0.2c0,0.1,0,0.2,0,0.3
		c-0.1,0.2-0.2,0.4-0.3,0.5c-0.1,0.1-0.3,0.2-0.5,0.2c-0.2,0-0.3-0.1-0.3-0.3L298,294.7L298,294.7z M298.2,294c0,0.2-0.1,0.3,0,0.4
		c0,0.1,0.1,0.2,0.2,0.2c0.1,0,0.2,0,0.3-0.1c0.1-0.1,0.2-0.2,0.2-0.4c0.1-0.2,0.1-0.3,0-0.4c0-0.1-0.1-0.2-0.2-0.2
		c-0.1,0-0.2,0-0.3,0.1C298.3,293.7,298.3,293.8,298.2,294L298.2,294z M300.2,294.8c-0.1,0-0.2,0.1-0.3,0.1c-0.1,0-0.2,0-0.3,0
		c-0.1,0-0.2-0.1-0.3-0.2c-0.1-0.1-0.1-0.2-0.1-0.3c0-0.1,0.1-0.1,0.1-0.2c0,0,0.1-0.1,0.2-0.1c0.1,0,0.1,0,0.2-0.1c0,0,0.1,0,0.2,0
		c0.2,0,0.4,0,0.4,0c0,0,0-0.1,0-0.1c0-0.1,0-0.2,0-0.2c0,0-0.1-0.1-0.2-0.1c-0.1,0-0.2,0-0.2,0c-0.1,0-0.1,0.1-0.2,0.2l-0.2,0
		c0-0.1,0.1-0.2,0.2-0.2c0.1-0.1,0.1-0.1,0.2-0.1c0.1,0,0.2,0,0.3,0c0.1,0,0.2,0.1,0.3,0.1c0.1,0,0.1,0.1,0.1,0.1c0,0,0,0.1,0,0.2
		c0,0,0,0.1-0.1,0.2l-0.1,0.3c-0.1,0.2-0.1,0.4-0.1,0.4c0,0.1,0,0.1,0,0.2l-0.2,0C300.2,294.9,300.2,294.9,300.2,294.8L300.2,294.8z
		 M300.3,294.2c-0.1,0-0.2,0-0.4,0c-0.1,0-0.2,0-0.2,0c0,0-0.1,0-0.1,0.1c0,0,0,0.1,0,0.1c0,0.1,0,0.1,0,0.2c0,0,0.1,0.1,0.2,0.1
		c0.1,0,0.2,0,0.2,0c0.1,0,0.2,0,0.2-0.1C300.2,294.5,300.2,294.4,300.3,294.2L300.3,294.2L300.3,294.2z M300.7,295.1l0.4-1.4l0.2,0
		l0,0.2c0.1-0.1,0.3-0.2,0.5-0.1c0.1,0,0.2,0,0.2,0.1c0.1,0,0.1,0.1,0.1,0.1c0,0.1,0,0.1,0,0.2c0,0,0,0.1-0.1,0.2l-0.3,0.9l-0.2,0
		l0.3-0.8c0-0.1,0-0.2,0-0.2c0,0,0-0.1-0.1-0.1c0-0.1-0.1-0.1-0.1-0.1c-0.2,0-0.2,0-0.3,0.1c-0.1,0-0.2,0.2-0.2,0.3l-0.2,0.8
		L300.7,295.1L300.7,295.1z M302.2,294.6c0.1-0.3,0.2-0.5,0.4-0.6c0.1-0.1,0.3-0.1,0.5-0.1c0.2,0,0.3,0.1,0.4,0.2
		c0.1,0.2,0.1,0.3,0,0.6c0,0.2-0.1,0.3-0.2,0.4c-0.1,0.1-0.2,0.1-0.3,0.2c-0.1,0-0.2,0-0.3,0c-0.2,0-0.3-0.1-0.4-0.3
		C302.1,295,302.1,294.8,302.2,294.6L302.2,294.6z M302.4,294.6c0,0.2,0,0.3,0,0.4c0,0.1,0.1,0.1,0.2,0.2c0.1,0,0.2,0,0.3-0.1
		c0.1-0.1,0.2-0.2,0.2-0.4c0.1-0.2,0.1-0.3,0-0.4c0-0.1-0.1-0.2-0.2-0.2c-0.1,0-0.2,0-0.3,0.1C302.6,294.3,302.5,294.4,302.4,294.6
		L302.4,294.6z"/>
	<path class="st0" d="M307.9,301.5c-0.1,0-0.2,0-0.2-0.1c-0.2-0.1-0.3-0.4-0.2-0.7l5.8-10.2c0.1-0.2,0.4-0.3,0.7-0.2
		c0.2,0.1,0.3,0.5,0.2,0.7l-5.8,10.2C308.3,301.4,308.1,301.5,307.9,301.5L307.9,301.5z"/>
	<path class="st2" d="M167.5,196.6c32.4-0.4,182.3,91.6,182.7,108.6l-9.3,14.2c-4.2-19.7-156.2-109.2-181.3-107.5L167.5,196.6
		L167.5,196.6z"/>
	<path d="M341.9,318.7l7.3-12.5c0.1-0.1,0.3-0.2,0.4-0.1c0.1,0.1,0.2,0.3,0.1,0.4L341.9,318.7L341.9,318.7z"/>
	<path d="M160.2,211.1l6.8-13.9c0.1-0.1,0.3-0.2,0.4-0.1c0.1,0.1,0.2,0.3,0.1,0.4L160.2,211.1L160.2,211.1z"/>
	<path class="st2" d="M158.7,211.3c6-4.1,50.3,15.6,96.6,43.6c46.2,28,90.3,59.7,86.3,65.6l-1.3,2.1l-0.6,0.5
		c0.1-0.1,0.8-0.9-0.1-3.1c-2-6.5-33.3-31.5-85.2-62.9c-50.6-30.2-92.8-48.4-97-43.2L158.7,211.3L158.7,211.3z M351.1,306.2
		c3.8-7.5-37.2-38.5-88.1-68.6c-52.1-29.5-89.6-46.9-96.4-41.7l-1.5,2.8c0,0.1,0.1-0.2,0.4-0.4c1.3-1.1,3.3-1,4.2-1
		c11.8,0.2,45.5,15.7,92.8,42.8c20.7,12.1,87.5,54.9,87.3,67c0,1,0.1,1.2-0.3,1.8L351.1,306.2L351.1,306.2z"/>
	<path d="M339.9,323.2l-0.3-0.4c-0.1,0-0.1,0-0.1-0.1c0,0,0.6-0.7-0.2-2.8c-2-6.6-35.1-32.5-85.1-62.7c-42.8-25.5-82.3-44-94-44
		c-1.3,0-2.2,0.3-2.7,0.8l0-0.1c0-0.1,0-0.3,0.1-0.4l0.7-2.3c0.7-0.5,1.6-0.7,2.8-0.7c11.8,0,53.2,19.4,94.2,44.1
		c41.6,25.2,84.7,55.4,86.7,64.3c0.2,0.7,0.1,1.3-0.2,1.7l-1.3,2.1c-0.1,0-0.3,0.1-0.4,0.2C340,323.1,339.9,323.2,339.9,323.2
		L339.9,323.2z M160.3,212.7c11.8,0,51.4,18.6,94.3,44.1c50.8,30.7,83.2,56.1,85.3,63c0.3,0.9,0.4,1.6,0.4,2.1l1-1.6
		c0.2-0.3,0.3-0.7,0.1-1.2c-1.9-8.7-45.9-39.4-86.4-64c-40.9-24.7-82.2-44.1-93.9-44.1c-1.1,0-1.8,0.2-2.3,0.5l-0.8,1.6
		C158.5,212.8,159.3,212.7,160.3,212.7L160.3,212.7z M349.6,308.8c0,0-0.1,0-0.2,0c0,0,0,0,0,0l-0.1-0.4c0,0,0,0,0,0l-0.2,0.3
		l0.2-0.3c0.1-0.2,0.1-0.4,0.1-0.9c0.3-12.4-67.8-55.9-87.1-67.1c-47.1-27-80.9-42.6-92.6-42.8c-1.2,0-3,0-4,0.9c0,0,0,0-0.1,0
		c1.2-1.6,2.9-1.6,3.9-1.6c12.1,0.2,46,15.8,93.2,42.9c13.6,8,87.7,54.1,87.4,67.3c0,0.1,0,0.2,0,0.2l0.8-1.2
		c3.5-6.9-35.1-36.9-88-68.2c-55.9-31.7-89.9-46.4-96.1-41.7l-1.3,2.4c-0.3,0.1-0.8,0.3-0.8,0.2l1.6-2.9c0.9-0.8,2.2-1.1,4-1.1
		c14.6,0,58.6,23.2,92.9,42.7c45.9,27.2,92.5,60.6,88.2,69l-1.5,2.4C349.8,308.8,349.7,308.8,349.6,308.8L349.6,308.8z"/>
	<path class="st4" d="M192.8,267.6c0,17.3,7.1,33.1,18.6,44.5c11.5,11.5,27.2,18.7,44.6,18.7c17.5,0,33.3-7.1,44.8-18.6
		c11.5-11.4,18.6-27.3,18.6-44.7l0,0v-84.5L192.7,183L192.8,267.6L192.8,267.6z"/>
	<path d="M256,331.2c-16.7,0-32.6-6.7-44.8-18.9c-12.1-12.1-18.7-28-18.7-44.8l0-84.6l127-0.2l0.4,84.9c0,16.9-6.7,32.9-18.7,44.9
		C289,324.6,273,331.2,256,331.2L256,331.2z M319,183.1l-126.3,0.2l0.4,84.3c0,16.6,6.6,32.4,18.5,44.3c12.1,12,27.8,18.6,44.3,18.6
		c16.8,0,32.6-6.5,44.6-18.5c11.9-11.9,18.5-27.7,18.5-44.4V183.1L319,183.1z"/>
	<path class="st0" d="M195.1,267.7L195.1,267.7c0,16.7,6.9,31.8,17.9,42.8c11,11,26.3,17.8,42.9,17.8c16.7,0,31.9-6.8,42.9-17.8
		c11-10.9,17.8-26,17.8-42.7l0,0v-82H195.2L195.1,267.7L195.1,267.7z M292.2,210.3l0,52.2l0,5.5l0,0c0,1.5-0.1,3.1-0.3,4.5
		c-1,8.3-4.8,15.5-10.4,21c-6.6,6.6-15.6,10.6-25.6,10.6c-10,0-18.8-4.2-25.4-10.8c-6.8-6.7-10.7-16-10.7-25.6v-57.7L292.2,210.3
		L292.2,210.3z"/>
	<path d="M255.9,328.5c-16.2,0-31.5-6.4-43.1-17.9c-11.6-11.5-18-26.8-18-42.9l0.1-82l121.7-0.3l0.3,82.3c0,16.2-6.4,31.4-17.9,42.9
		C287.4,322.2,272.1,328.5,255.9,328.5L255.9,328.5z M316.3,185.8L195.2,186l0.2,81.6c0,16,6.3,31.1,17.8,42.6
		c11.5,11.4,26.7,17.8,42.7,17.8c16.1,0,31.3-6.3,42.7-17.7c11.4-11.4,17.7-26.5,17.7-42.5V185.8L316.3,185.8z M255.9,304.4
		c-9.5,0-18.6-3.9-25.6-10.8c-6.9-6.8-10.8-16.2-10.8-25.8l0-57.9l72.7,0.1l0.3,52.4l0,5.5c0,1.4-0.1,3.1-0.3,4.5
		c-0.9,8-4.6,15.3-10.5,21.2C274.8,300.7,265.6,304.4,255.9,304.4L255.9,304.4z M220,210.4l0,57.4c0,9.4,3.9,18.6,10.6,25.4
		c6.9,6.9,15.9,10.7,25.2,10.7c9.6,0,18.6-3.7,25.4-10.5c5.8-5.8,9.4-13,10.3-20.9c0.2-1.4,0.2-3.1,0.2-4.5l0-57.7L220,210.4
		L220,210.4z"/>
	<path class="st5" d="M248.2,258.4L248.2,258.4c0,2.4,0.9,4.5,2.4,6.1c1.5,1.6,3.5,2.5,5.7,2.5c2.2,0,4.2-1,5.7-2.5
		c1.5-1.6,2.4-3.7,2.4-6.1v-11.5l-16,0L248.2,258.4L248.2,258.4z"/>
	<path class="st4" d="M260.8,249.7c-0.9,0-1.6,0.7-1.6,1.6c0,0.8,0.7,1.6,1.6,1.6c0.9,0,1.6-0.7,1.6-1.6
		C262.4,250.4,261.7,249.7,260.8,249.7L260.8,249.7z"/>
	<path class="st4" d="M256.3,253.9c-0.9,0-1.6,0.7-1.6,1.6c0,0.9,0.7,1.6,1.6,1.6c0.9,0,1.6-0.7,1.6-1.6
		C257.9,254.7,257.2,253.9,256.3,253.9L256.3,253.9z"/>
	<path class="st4" d="M260.8,258.4c-0.9,0-1.6,0.7-1.6,1.6c0,0.9,0.7,1.6,1.6,1.6c0.9,0,1.6-0.7,1.6-1.6
		C262.4,259.1,261.6,258.4,260.8,258.4L260.8,258.4z"/>
	<path class="st4" d="M252.1,258.4c-0.9,0-1.6,0.7-1.6,1.6c0,0.9,0.7,1.6,1.6,1.6c0.9,0,1.6-0.7,1.6-1.6
		C253.7,259.1,253,258.4,252.1,258.4L252.1,258.4z"/>
	<path class="st4" d="M252.1,249.7c-0.9,0-1.6,0.7-1.6,1.6c0,0.9,0.7,1.6,1.6,1.6c0.9,0,1.6-0.7,1.6-1.6
		C253.7,250.4,253,249.7,252.1,249.7L252.1,249.7z"/>
	<path class="st5" d="M248.2,285.9L248.2,285.9c0,2.4,0.9,4.5,2.4,6.1c1.4,1.6,3.4,2.5,5.7,2.5c2.2,0,4.2-0.9,5.7-2.5
		c1.4-1.6,2.3-3.7,2.3-6.1v-11.5l-16,0L248.2,285.9L248.2,285.9z"/>
	<path class="st4" d="M260.7,277.2c-0.9,0-1.6,0.7-1.6,1.6c0,0.9,0.7,1.6,1.6,1.6c0.9,0,1.6-0.7,1.6-1.6
		C262.3,277.9,261.6,277.2,260.7,277.2L260.7,277.2z"/>
	<path class="st4" d="M256.3,281.5c-0.9,0-1.6,0.7-1.6,1.6c0,0.9,0.7,1.6,1.6,1.6c0.9,0,1.6-0.7,1.6-1.6
		C257.8,282.2,257.1,281.5,256.3,281.5L256.3,281.5z"/>
	<path class="st4" d="M260.7,285.9c-0.9,0-1.6,0.7-1.6,1.6c0,0.9,0.7,1.6,1.6,1.6c0.9,0,1.6-0.7,1.6-1.6
		C262.3,286.6,261.6,285.9,260.7,285.9L260.7,285.9z"/>
	<path class="st4" d="M252,285.9c-0.9,0-1.6,0.7-1.6,1.6c0,0.9,0.7,1.6,1.6,1.6c0.9,0,1.6-0.7,1.6-1.6
		C253.6,286.6,252.9,285.9,252,285.9L252,285.9z"/>
	<path class="st4" d="M252,277.2c-0.9,0-1.6,0.7-1.6,1.6c0,0.9,0.7,1.6,1.6,1.6c0.9,0,1.6-0.7,1.6-1.6
		C253.6,277.9,252.9,277.2,252,277.2L252,277.2z"/>
	<path class="st5" d="M226.1,258.4L226.1,258.4c0,2.4,0.9,4.5,2.4,6.1c1.5,1.6,3.5,2.5,5.7,2.5c2.2,0,4.2-0.9,5.7-2.5
		c1.5-1.6,2.4-3.7,2.4-6.1V247l-16,0L226.1,258.4L226.1,258.4z"/>
	<path class="st4" d="M238.6,249.7c-0.9,0-1.6,0.7-1.6,1.6c0,0.9,0.7,1.6,1.6,1.6c0.9,0,1.6-0.7,1.6-1.6
		C240.2,250.4,239.5,249.7,238.6,249.7L238.6,249.7z"/>
	<path class="st4" d="M234.2,254c-0.9,0-1.6,0.7-1.6,1.6c0,0.9,0.7,1.6,1.6,1.6c0.9,0,1.6-0.7,1.6-1.6
		C235.7,254.7,235,254,234.2,254L234.2,254z"/>
	<path class="st4" d="M238.6,258.4c-0.9,0-1.6,0.7-1.6,1.6c0,0.9,0.7,1.6,1.6,1.6c0.9,0,1.6-0.7,1.6-1.6
		C240.2,259.2,239.5,258.4,238.6,258.4L238.6,258.4z"/>
	<path class="st4" d="M229.9,258.4c-0.9,0-1.6,0.7-1.6,1.6c0,0.9,0.7,1.6,1.6,1.6c0.9,0,1.6-0.7,1.6-1.6
		C231.5,259.2,230.8,258.4,229.9,258.4L229.9,258.4z"/>
	<path class="st4" d="M229.9,249.7c-0.8,0-1.6,0.7-1.6,1.6c0,0.9,0.7,1.6,1.6,1.6c0.9,0,1.6-0.7,1.6-1.6
		C231.5,250.4,230.8,249.7,229.9,249.7L229.9,249.7z"/>
	<path class="st5" d="M270.4,258.4L270.4,258.4c0,2.4,0.9,4.5,2.4,6.1c1.4,1.6,3.5,2.5,5.7,2.5c2.2,0,4.2-1,5.7-2.5
		c1.4-1.5,2.4-3.7,2.4-6.1v-11.5h-16L270.4,258.4L270.4,258.4z"/>
	<path class="st4" d="M282.9,249.7c-0.9,0-1.6,0.7-1.6,1.6c0,0.9,0.7,1.6,1.6,1.6c0.9,0,1.6-0.7,1.6-1.6
		C284.5,250.4,283.8,249.7,282.9,249.7L282.9,249.7z"/>
	<path class="st4" d="M278.5,254c-0.9,0-1.6,0.7-1.6,1.6s0.7,1.6,1.6,1.6c0.9,0,1.6-0.7,1.6-1.6S279.3,254,278.5,254L278.5,254z"/>
	<path class="st4" d="M282.9,258.4c-0.9,0-1.6,0.7-1.6,1.6c0,0.9,0.7,1.6,1.6,1.6c0.9,0,1.6-0.7,1.6-1.6
		C284.5,259.1,283.8,258.4,282.9,258.4L282.9,258.4z"/>
	<path class="st4" d="M274.3,258.4c-0.9,0-1.6,0.7-1.6,1.6c0,0.9,0.7,1.6,1.6,1.6c0.9,0,1.6-0.7,1.6-1.6
		C275.8,259.2,275.1,258.4,274.3,258.4L274.3,258.4z"/>
	<path class="st4" d="M274.2,249.7c-0.9,0-1.6,0.7-1.6,1.6c0,0.9,0.7,1.6,1.6,1.6c0.9,0,1.6-0.7,1.6-1.6
		C275.8,250.4,275.1,249.7,274.2,249.7L274.2,249.7z"/>
	<path class="st5" d="M248.2,230.6L248.2,230.6c0,2.4,0.9,4.5,2.4,6.1c1.5,1.6,3.5,2.5,5.7,2.5c2.2,0,4.2-0.9,5.7-2.5
		c1.4-1.6,2.4-3.7,2.4-6.1v-11.5h-16L248.2,230.6L248.2,230.6z"/>
	<path class="st4" d="M260.8,221.9c-0.9,0-1.6,0.7-1.6,1.6c0,0.9,0.7,1.6,1.6,1.6c0.9,0,1.6-0.7,1.6-1.6
		C262.4,222.6,261.7,221.9,260.8,221.9L260.8,221.9z"/>
	<path class="st4" d="M256.3,226.2c-0.9,0-1.6,0.7-1.6,1.6c0,0.9,0.7,1.6,1.6,1.6c0.9,0,1.6-0.7,1.6-1.6
		C257.9,226.9,257.2,226.2,256.3,226.2L256.3,226.2z"/>
	<path class="st4" d="M260.8,230.6c-0.8,0-1.6,0.7-1.6,1.6c0,0.9,0.7,1.6,1.6,1.6c0.9,0,1.6-0.7,1.6-1.6
		C262.4,231.3,261.6,230.6,260.8,230.6L260.8,230.6z"/>
	<path class="st4" d="M252.1,230.6c-0.9,0-1.6,0.7-1.6,1.6c0,0.9,0.7,1.6,1.6,1.6c0.9,0,1.6-0.7,1.6-1.6
		C253.7,231.4,253,230.6,252.1,230.6L252.1,230.6z"/>
	<path class="st4" d="M252.1,221.9c-0.9,0-1.6,0.7-1.6,1.6c0,0.9,0.7,1.6,1.6,1.6c0.9,0,1.6-0.7,1.6-1.6
		C253.7,222.6,253,221.9,252.1,221.9L252.1,221.9z"/>
	<path class="st2" d="M203,207.2c0.1-5.9,4.3-7.3,4.4-7.3c0,0,4.5,1.5,4.5,7.3L203,207.2L203,207.2z"/>
	<path class="st2" d="M199.4,200l-0.7,6.8h4.4c0.1-5.6,4.2-6.5,4.4-6.5c0.1,0,4.3,1.2,4.4,6.5h4.4l-0.8-6.8L199.4,200L199.4,200z"/>
	<path d="M216.5,207h-4.7c-0.4-5.3-4.4-6.5-4.4-6.5c0,0-4,0.8-4.1,6.3l-4.7,0.2l0.5-7.1l16.3-0.3L216.5,207L216.5,207z M206.9,200.1
		l-7.5,0.1l-0.5,6.5l4.1-0.3C202.9,201.9,205.8,200.5,206.9,200.1L206.9,200.1z M207.8,200.1c1.1,0.4,4.2,2,4.3,6.7l3.9-0.2
		l-0.8-6.5L207.8,200.1L207.8,200.1z"/>
	<path class="st2" d="M198.4,206.8h18.1c0.4,0,0.7,0.4,0.7,0.8c0,0.4-0.3,0.8-0.7,0.8h-18.1c-0.4,0-0.7-0.4-0.7-0.8
		C197.7,207.2,198,206.8,198.4,206.8L198.4,206.8z"/>
	<path d="M216.4,208.7h-18.1c-0.5,0-1-0.5-1-1.1c0-0.6,0.4-1.1,1-1.1h18.1c0.5,0,1,0.5,1,1.1C217.4,208.2,216.9,208.7,216.4,208.7
		L216.4,208.7z M198.4,207.1v1.1h18.1c0.2,0,0.4-0.2,0.4-0.5L198.4,207.1L198.4,207.1z"/>
	<path class="st2" d="M204.9,206.8c0-3.5,2.4-4.5,2.4-4.5s2.5,1,2.5,4.5H204.9L204.9,206.8z"/>
	<path d="M210.1,207h-5.2c-0.2-3.9,2.2-5,2.3-5c0.3,0,2.9,1.1,2.9,4.8V207L210.1,207z M207.2,202.5c0.1,0-2,1-2,4.3l4.4-0.3
		C209.5,203.4,207.3,202.5,207.2,202.5L207.2,202.5z"/>
	<path class="st2" d="M198.7,197.2h17.3c0.3,0,0.6,0.3,0.6,0.8c0,0.4-0.3,0.8-0.6,0.8h-17.3c-0.4,0-0.7-0.3-0.7-0.8
		C198.1,197.5,198.4,197.2,198.7,197.2L198.7,197.2z"/>
	<path d="M216.1,198.9h-17.3c-0.5,0-0.9-0.4-0.9-1c0-0.6,0.4-1,0.9-1h17.3c0.5,0,0.9,0.4,0.9,1C217,198.5,216.6,198.9,216.1,198.9
		L216.1,198.9z M198.7,197.4v0.9h17.3c0.2,0,0.4-0.2,0.4-0.5L198.7,197.4L198.7,197.4z"/>
	<path class="st2" d="M199.1,198.7h16.6c0.3,0,0.6,0.3,0.6,0.8c0,0.4-0.3,0.8-0.6,0.8h-16.6c-0.4,0-0.6-0.3-0.6-0.8
		C198.5,199,198.7,198.7,199.1,198.7L199.1,198.7z"/>
	<path d="M215.7,200.5h-16.6c-0.5,0-0.9-0.5-0.9-1c0-0.6,0.4-1,0.9-1h16.6c0.5,0,0.9,0.5,0.9,1C216.6,200,216.2,200.5,215.7,200.5
		L215.7,200.5z M199.1,198.9v1h16.6c0.2,0,0.4-0.2,0.4-0.5L199.1,198.9L199.1,198.9z"/>
	<path class="st2" d="M204.5,187.4h1.3v0.9h0.9v-0.9h1.3v0.9h1v-0.9h1.3v2.1c0,0.3-0.3,0.6-0.6,0.6h-4.7c-0.3,0-0.6-0.3-0.6-0.6
		V187.4L204.5,187.4z"/>
	<path d="M209.8,190.3h-5l-0.6-0.8v-2.1l1.6-0.3l0.3,1.2l0.7-0.3l-0.3-0.7l1.6-0.3l0.3,1.2l0.7-0.3l-0.3-0.7l1.6-0.3l0.3,2.7
		L209.8,190.3L209.8,190.3z M205.5,187.4l-1.1,0.3l0.3,1.8l5.1,0.6l0.3-0.6v-2.1l-1.1,0.2l0.3,0.7l-1.2,0.2l-0.3-1.2l-1.1,0.2
		l0.3,0.7l-1.2,0.2L205.5,187.4L205.5,187.4z"/>
	<polygon class="st2" points="209.4,190.3 209.7,197.2 205.1,197.1 205.4,190.2 209.4,190.3 	"/>
	<path d="M210,197.4h-4.9l0-7.2l4.2-0.2L210,197.4L210,197.4z M209.1,190.3l-3.7,0.2l0,6.6l4.1-0.2L209.1,190.3L209.1,190.3z"/>
	<path class="st2" d="M210.2,190.8h1.3v0.9h0.9v-0.9h1.3v0.9h0.9v-0.9h1.3v2.2c0,0.3-0.3,0.6-0.6,0.6h-4.6c-0.3,0-0.6-0.3-0.6-0.6
		V190.8L210.2,190.8z"/>
	<path d="M215.3,193.7h-4.9l-0.6-0.8v-2.1l1.5-0.3l0.3,1.2l0.7-0.3l-0.3-0.7l1.6-0.3l0.3,1.2l0.7-0.3l-0.3-0.7l1.6-0.3l0.3,2.7
		L215.3,193.7L215.3,193.7z M211.2,190.8l-1,0.3l0.3,1.8l4.9,0.6l0.3-0.6v-2.2l-1.1,0.3l0.3,0.7l-1.2,0.3l-0.3-1.2l-1.1,0.3l0.3,0.7
		l-1.2,0.3L211.2,190.8L211.2,190.8z"/>
	<polygon class="st2" points="215.1,193.4 215.3,197.2 210.8,197.2 211,193.4 	"/>
	<path d="M215.5,197.4h-4.7l-0.1-4l4.4-0.3L215.5,197.4L215.5,197.4z M214.8,193.4l-3.9,0.2l0.1,3.5l3.9-0.3L214.8,193.4
		L214.8,193.4z"/>
	<path class="st2" d="M198.8,190.8h1.3v0.9h0.9v-1l1.3,0v0.9h0.9v-1h1.3v2.2c0,0.3-0.3,0.6-0.6,0.6h-4.6c-0.3,0-0.6-0.2-0.6-0.6
		V190.8L198.8,190.8z"/>
	<path d="M204,193.7h-4.9l-0.6-0.8v-2.1l1.6-0.3l0.3,1.2l0.7-0.3l-0.3-0.7l1.6-0.2l0.3,1.2l0.7-0.3l-0.3-0.7l1.6-0.3l0.3,2.7
		L204,193.7L204,193.7z M199.9,190.8l-1,0.2l0.3,1.9l4.9,0.6l0.3-0.6v-2.2l-1,0.3l0.3,0.7l-1.2,0.3l-0.3-1.2l-1,0.2l0.3,0.7
		l-1.2,0.3L199.9,190.8L199.9,190.8z"/>
	<polygon class="st2" points="203.8,193.4 203.9,197.2 199.5,197.2 199.6,193.4 	"/>
	<path d="M204.2,197.4h-4.7l-0.1-4l4.4-0.3L204.2,197.4L204.2,197.4z M203.5,193.4l-3.9,0.2l0.1,3.5l3.9-0.2L203.5,193.4
		L203.5,193.4z"/>
	<path d="M206.9,192.4c0-0.7,0.9-0.7,0.9,0v1.6h-0.9V192.4L206.9,192.4z"/>
	<path d="M212.6,194.8c0-0.7,0.9-0.7,0.9,0v1.3h-0.9V194.8L212.6,194.8z"/>
	<path d="M201.3,194.8c0-0.6,0.9-0.7,0.9,0v1.3h-0.9V194.8L201.3,194.8z"/>
	<path class="st2" d="M253.2,187.4h1.3v0.9h0.9v-0.9h1.3v0.9h1v-0.9h1.3v2.1c0,0.3-0.3,0.6-0.6,0.6h-4.7c-0.3,0-0.6-0.2-0.6-0.6
		L253.2,187.4L253.2,187.4z"/>
	<path d="M258.5,190.3h-5l-0.6-0.8v-2.1l1.6-0.3l0.3,1.2l0.7-0.3l-0.3-0.7l1.6-0.3l0.3,1.2l0.7-0.3l-0.3-0.7l1.6-0.3l0.3,2.7
		L258.5,190.3L258.5,190.3z M254.3,187.4l-1.1,0.3l0.3,1.9l5.1,0.6l0.3-0.6v-2.1l-1.1,0.2l0.3,0.7l-1.2,0.3l-0.3-1.2l-1.1,0.2
		l0.3,0.7l-1.2,0.3L254.3,187.4L254.3,187.4z"/>
	<polygon class="st2" points="258.1,190.3 258.4,197.2 253.8,197.1 254.1,190.3 258.1,190.3 	"/>
	<path d="M258.7,197.4h-4.9l0-7.2l4.3-0.2L258.7,197.4L258.7,197.4z M257.9,190.3l-3.7,0.2l0,6.6l4-0.2L257.9,190.3L257.9,190.3z"/>
	<path class="st2" d="M258.9,190.8h1.3v0.9h0.9v-0.9h1.3v0.9h0.9v-0.9h1.3v2.2c0,0.3-0.3,0.6-0.6,0.6h-4.6c-0.3,0-0.6-0.2-0.6-0.6
		V190.8L258.9,190.8z"/>
	<path d="M264.1,193.7h-4.9l-0.6-0.8v-2.1l1.5-0.3l0.3,1.2l0.7-0.3l-0.3-0.7l1.6-0.3l0.3,1.2l0.7-0.3l-0.3-0.7l1.6-0.3l0.3,2.7
		L264.1,193.7L264.1,193.7z M259.9,190.8l-1,0.3l0.3,1.9l4.9,0.6l0.3-0.6v-2.2l-1.1,0.3l0.3,0.7l-1.2,0.3l-0.3-1.2l-1,0.3l0.3,0.7
		l-1.2,0.3L259.9,190.8L259.9,190.8z"/>
	<polygon class="st2" points="263.8,193.4 264,197.2 259.6,197.2 259.7,193.4 	"/>
	<path d="M259.3,197.4l0.1-4l4.4-0.3l0.4,4L259.3,197.4L259.3,197.4z M263.6,193.4l-3.9,0.2l0.1,3.2l4.1,0L263.6,193.4L263.6,193.4z
		"/>
	<path class="st2" d="M247.6,190.8h1.3v0.9h0.9v-0.9h1.3v0.9h0.9v-0.9h1.3l0,2.2c0,0.3-0.3,0.5-0.6,0.5h-4.6c-0.3,0-0.6-0.2-0.6-0.6
		V190.8L247.6,190.8z"/>
	<path d="M252.8,193.7h-4.9l-0.6-0.8v-2.1l1.6-0.3l0.3,1.2l0.7-0.3l-0.3-0.7l1.6-0.3l0.3,1.2l0.7-0.3l-0.3-0.7l1.6-0.3l0.3,2.7
		L252.8,193.7L252.8,193.7z M248.6,190.8l-1,0.2l0.3,1.9l4.9,0.6l0.3-0.5v-2.2l-1,0.3l0.3,0.7l-1.2,0.3l-0.3-1.2l-1,0.3l0.3,0.7
		l-1.2,0.3L248.6,190.8L248.6,190.8z"/>
	<polygon class="st2" points="252.5,193.4 252.7,197.2 248.3,197.2 248.4,193.4 	"/>
	<path d="M252.9,197.4h-4.7l-0.1-4l4.4-0.3L252.9,197.4L252.9,197.4z M252.3,193.4l-3.9,0.3l0.1,3.4l3.9-0.2L252.3,193.4
		L252.3,193.4z"/>
	<path class="st2" d="M251.7,207.2c0.1-5.9,4.3-7.3,4.3-7.3c0,0,4.5,1.5,4.5,7.4L251.7,207.2L251.7,207.2z"/>
	<path class="st2" d="M248.1,200l-0.7,6.8h4.4c0-5.6,4.2-6.5,4.3-6.5c0.1,0,4.3,1.2,4.4,6.5h4.4l-0.8-6.8L248.1,200L248.1,200z"/>
	<path d="M265.3,207h-4.7c-0.4-5.4-4.4-6.5-4.4-6.5c0,0-4,0.8-4,6.3l-4.7,0.3l0.5-7.1l16.3-0.3L265.3,207L265.3,207z M255.6,200.1
		l-7.5,0.1l-0.5,6.5l4.1-0.3C251.6,202,254.5,200.5,255.6,200.1L255.6,200.1z M256.5,200.1c1.1,0.4,4.2,2,4.3,6.7l3.9-0.2l-0.8-6.5
		L256.5,200.1L256.5,200.1z"/>
	<path class="st2" d="M247.1,206.8h18.1c0.4,0,0.7,0.4,0.7,0.8c0,0.5-0.3,0.8-0.7,0.8h-18.1c-0.4,0-0.7-0.4-0.7-0.8
		C246.4,207.2,246.7,206.8,247.1,206.8L247.1,206.8z"/>
	<path d="M265.2,208.7h-18.1c-0.5,0-0.9-0.5-0.9-1.1c0-0.6,0.4-1.1,0.9-1.1h18.1c0.5,0,0.9,0.5,0.9,1.1
		C266.1,208.2,265.7,208.7,265.2,208.7L265.2,208.7z M247.1,207.1v1.1h18.1c0.2,0,0.4-0.3,0.4-0.6L247.1,207.1L247.1,207.1z"/>
	<path class="st2" d="M253.7,206.8c0-3.5,2.4-4.5,2.4-4.5s2.5,1,2.5,4.5H253.7L253.7,206.8z"/>
	<path d="M258.9,207h-5.2c-0.3-3.9,2.2-5,2.3-5c0.3,0,2.9,1.1,2.9,4.8V207L258.9,207z M256,202.5c0.1,0-2,1-2,4.3l4.4-0.2
		C258.2,203.5,256.1,202.5,256,202.5L256,202.5z"/>
	<path class="st2" d="M247.5,197.2h17.3c0.4,0,0.7,0.3,0.7,0.8c0,0.4-0.3,0.8-0.7,0.8h-17.3c-0.4,0-0.7-0.3-0.7-0.8
		C246.8,197.5,247.1,197.2,247.5,197.2L247.5,197.2z"/>
	<path d="M264.8,199h-17.3c-0.5,0-0.9-0.5-0.9-1c0-0.6,0.4-1,0.9-1h17.3c0.5,0,0.9,0.5,0.9,1C265.7,198.5,265.3,199,264.8,199
		L264.8,199z M247.5,197.4v1h17.3c0.2,0,0.4-0.2,0.4-0.5L247.5,197.4L247.5,197.4z"/>
	<path class="st2" d="M247.8,198.7h16.6c0.4,0,0.6,0.3,0.6,0.8c0,0.4-0.3,0.7-0.6,0.7h-16.6c-0.4,0-0.6-0.3-0.6-0.7
		C247.2,199,247.5,198.7,247.8,198.7L247.8,198.7z"/>
	<path d="M264.4,200.5h-16.6c-0.5,0-0.9-0.4-0.9-1c0-0.6,0.4-1,0.9-1h16.6c0.5,0,0.9,0.5,0.9,1C265.3,200,264.9,200.5,264.4,200.5
		L264.4,200.5z M247.8,199v1h16.6c0.2,0,0.4-0.2,0.4-0.5L247.8,199L247.8,199z"/>
	<path d="M255.7,192.4c0-0.7,0.9-0.7,0.9,0v1.7h-0.9V192.4L255.7,192.4z"/>
	<path d="M261.3,194.8c0-0.6,0.9-0.7,0.9,0v1.3h-0.9V194.8L261.3,194.8z"/>
	<path d="M250,194.8c0-0.7,0.9-0.7,0.9,0v1.3H250V194.8L250,194.8z"/>
	<path class="st2" d="M301.4,187.4h1.3v0.9h1v-0.9h1.3v0.9h0.9v-0.9h1.3v2.2c0,0.3-0.3,0.5-0.6,0.5H302c-0.3,0-0.6-0.2-0.6-0.5
		V187.4L301.4,187.4z"/>
	<path d="M306.7,190.4h-5l-0.6-0.8v-2.1l1.6-0.3l0.3,1.2l0.7-0.3l-0.3-0.7l1.6-0.3l0.3,1.2l0.7-0.3l-0.3-0.7l1.6-0.3l0.3,2.7
		L306.7,190.4L306.7,190.4z M302.5,187.4l-1,0.2l0.3,1.9l5,0.5l0.3-0.5v-2.2l-1.1,0.3l0.3,0.7l-1.2,0.3l-0.3-1.2l-1.1,0.3l0.3,0.7
		l-1.2,0.3L302.5,187.4L302.5,187.4z"/>
	<polygon class="st2" points="306.3,190.3 306.6,197.2 302,197.2 302.4,190.3 	"/>
	<path d="M306.9,197.4l-4.9,0l0-7.2l4.3-0.2L306.9,197.4L306.9,197.4z M306.1,190.3l-3.7,0.3l0,6.6l4-0.3L306.1,190.3L306.1,190.3z"
		/>
	<path class="st2" d="M307.1,190.8h1.3v0.9h0.9v-0.9h1.3v0.9h0.9v-0.9h1.3v2.1c0,0.4-0.3,0.6-0.6,0.6h-4.6c-0.3,0-0.6-0.2-0.6-0.6
		L307.1,190.8L307.1,190.8z"/>
	<path d="M312.3,193.7h-4.9l-0.6-0.8v-2.1l1.6-0.3l0.3,1.2l0.7-0.3l-0.3-0.7l1.6-0.3l0.3,1.2l0.7-0.3l-0.3-0.7l1.6-0.3l0.3,2.7
		L312.3,193.7L312.3,193.7z M308.1,190.8l-1,0.2l0.3,1.9l4.9,0.6l0.3-0.6v-2.1l-1,0.2l0.3,0.7l-1.2,0.2l-0.3-1.2l-1,0.2l0.3,0.7
		l-1.2,0.2L308.1,190.8L308.1,190.8z"/>
	<polygon class="st2" points="312,193.5 312.2,197.2 307.8,197.2 307.9,193.5 	"/>
	<path d="M312.5,197.4h-4.7l-0.1-4l4.4-0.2L312.5,197.4L312.5,197.4z M311.8,193.5l-3.9,0.3l0.1,3.4l3.9-0.3L311.8,193.5
		L311.8,193.5z"/>
	<path class="st2" d="M295.8,190.8h1.3v0.9h0.9v-0.9h1.3v0.9h0.9v-0.9h1.3v2.1c0,0.3-0.3,0.6-0.6,0.6h-4.6c-0.3,0-0.6-0.3-0.6-0.6
		V190.8L295.8,190.8z"/>
	<path d="M301,193.7h-4.9l-0.6-0.8v-2.1l1.5-0.3l0.3,1.2l0.7-0.3l-0.3-0.7l1.6-0.3l0.3,1.2l0.7-0.3l-0.3-0.7l1.6-0.3l0.3,2.7
		L301,193.7L301,193.7z M296.8,190.8l-1,0.3l0.3,1.8l4.9,0.6l0.3-0.6v-2.1l-1,0.2l0.3,0.7l-1.2,0.3l-0.3-1.2l-1,0.2l0.3,0.7
		l-1.2,0.3L296.8,190.8L296.8,190.8z"/>
	<polygon class="st2" points="300.7,193.5 300.9,197.2 296.5,197.2 296.6,193.5 	"/>
	<path d="M301.2,197.4h-4.7l-0.1-4l4.4-0.3L301.2,197.4L301.2,197.4z M300.5,193.5l-3.9,0.2l0.1,3.5l3.9-0.3L300.5,193.5
		L300.5,193.5z"/>
	<path class="st2" d="M299.9,207.2c0.1-5.9,4.3-7.3,4.4-7.3c0,0,4.5,1.5,4.5,7.4L299.9,207.2L299.9,207.2z"/>
	<path class="st2" d="M296.3,200l-0.7,6.8h4.4c0-5.6,4.2-6.5,4.3-6.5c0.1,0,4.2,1.2,4.4,6.5h4.4l-0.8-6.8L296.3,200L296.3,200z"/>
	<path d="M313.4,207.1h-4.7c-0.4-5.3-4.4-6.5-4.4-6.5c0,0-4,0.8-4,6.3l-4.7,0.2l0.5-7.1l16.3-0.3L313.4,207.1L313.4,207.1z
		 M303.9,200.2l-7.6,0.1l-0.5,6.5l4.1-0.3C299.8,202,302.7,200.6,303.9,200.2L303.9,200.2z M304.7,200.1c1.1,0.4,4.2,2,4.3,6.6
		l3.8-0.2l-0.8-6.5L304.7,200.1L304.7,200.1z"/>
	<path class="st2" d="M295.3,206.8h18.1c0.4,0,0.7,0.4,0.7,0.8c0,0.5-0.3,0.8-0.7,0.8h-18.1c-0.4,0-0.7-0.4-0.7-0.8
		C294.6,207.2,294.9,206.8,295.3,206.8L295.3,206.8z"/>
	<path d="M313.4,208.8h-18.1c-0.5,0-1-0.5-1-1.1c0-0.6,0.4-1.1,1-1.1h18.1c0.5,0,1,0.5,1,1.1C314.3,208.3,313.9,208.8,313.4,208.8
		L313.4,208.8z M295.3,207.1v1.2h18.1c0.2,0,0.4-0.3,0.4-0.6L295.3,207.1L295.3,207.1z"/>
	<path class="st2" d="M301.9,206.8c0-3.5,2.4-4.5,2.4-4.5c0,0,2.5,1,2.5,4.5H301.9L301.9,206.8z"/>
	<path d="M307.1,207.1h-5.2c-0.2-3.9,2.2-5,2.3-5c0.3,0,2.9,1.2,2.9,4.8V207.1L307.1,207.1z M304.2,202.5c0.1,0-2,1-2,4.3l4.4-0.2
		C306.4,203.5,304.3,202.5,304.2,202.5L304.2,202.5z"/>
	<path class="st2" d="M295.7,197.2H313c0.4,0,0.7,0.4,0.7,0.8c0,0.4-0.3,0.8-0.7,0.8h-17.3c-0.4,0-0.7-0.3-0.7-0.8
		C295,197.6,295.3,197.2,295.7,197.2L295.7,197.2z"/>
	<path d="M313,199h-17.3c-0.5,0-0.9-0.5-0.9-1c0-0.6,0.4-1,0.9-1H313c0.5,0,0.9,0.5,0.9,1C313.9,198.5,313.5,199,313,199L313,199z
		 M295.7,197.5v1H313c0.2,0,0.4-0.2,0.4-0.5L295.7,197.5L295.7,197.5z"/>
	<path class="st2" d="M296,198.7h16.6c0.3,0,0.6,0.3,0.6,0.7c0,0.4-0.3,0.8-0.6,0.8H296c-0.3,0-0.6-0.3-0.6-0.8
		C295.4,199,295.7,198.7,296,198.7L296,198.7z"/>
	<path d="M312.6,200.5H296c-0.5,0-0.9-0.5-0.9-1c0-0.6,0.4-1,0.9-1h16.6c0.5,0,0.9,0.5,0.9,1C313.5,200,313.1,200.5,312.6,200.5
		L312.6,200.5z M296,199v1h16.6c0.2,0,0.4-0.2,0.4-0.5L296,199L296,199z"/>
	<path d="M303.9,192.5c0-0.7,0.9-0.7,0.9,0v1.7h-0.9V192.5L303.9,192.5z"/>
	<path d="M309.6,194.9c0-0.7,0.9-0.7,0.9,0v1.3h-0.9V194.9L309.6,194.9z"/>
	<path d="M298.2,194.9c0-0.7,0.9-0.7,0.9,0v1.3h-0.9V194.9L298.2,194.9z"/>
	<path class="st2" d="M204.5,236.8h1.3v0.9h0.9v-1h1.3v1h1v-1h1.3v2.1c0,0.4-0.3,0.6-0.6,0.6h-4.7c-0.3,0-0.6-0.2-0.6-0.6V236.8
		L204.5,236.8z"/>
	<path d="M209.8,239.7h-4.9l-0.6-0.8v-2.1l1.6-0.3l0.3,1.2l0.7-0.3l-0.2-0.7l1.6-0.2l0.2,1.2l0.7-0.3l-0.2-0.7l1.6-0.2l0.2,2.6
		L209.8,239.7L209.8,239.7z M205.5,236.8l-1.1,0.2l0.2,1.9l5.1,0.6l0.3-0.6v-2.1L209,237l0.3,0.7l-1.2,0.2l-0.3-1.2l-1.1,0.2
		l0.3,0.7l-1.2,0.2L205.5,236.8L205.5,236.8z"/>
	<polygon class="st2" points="209.4,239.7 209.7,246.6 205.1,246.5 205.4,239.7 209.4,239.7 	"/>
	<path d="M210,246.8l-4.9,0l0-7.2l4.3-0.2L210,246.8L210,246.8z M209.1,239.7l-3.7,0.2l0,6.6l4.1-0.3L209.1,239.7L209.1,239.7z"/>
	<path class="st2" d="M210.2,240.2h1.3v0.9h0.9v-0.9h1.3v0.9h0.9v-0.9h1.3v2.1c0,0.3-0.3,0.6-0.6,0.6h-4.6c-0.3,0-0.6-0.2-0.6-0.6
		V240.2L210.2,240.2z"/>
	<path d="M215.4,243.1h-4.9l-0.6-0.8v-2.1l1.5-0.2l0.2,1.2l0.7-0.3l-0.2-0.7l1.6-0.3l0.3,1.2l0.7-0.3l-0.3-0.7l1.6-0.3l0.2,2.6
		L215.4,243.1L215.4,243.1z M211.2,240.2l-1,0.3l0.2,1.9l5,0.6l0.3-0.6v-2.1l-1.1,0.2l0.2,0.7l-1.2,0.2l-0.3-1.2l-1.1,0.2l0.3,0.7
		l-1.2,0.2L211.2,240.2L211.2,240.2z"/>
	<polygon class="st2" points="215.1,242.9 215.3,246.6 210.9,246.6 211,242.9 	"/>
	<path d="M215.5,246.8h-4.7l-0.1-4l4.4-0.2L215.5,246.8L215.5,246.8z M214.9,242.9l-3.9,0.2l0.1,3.5l3.9-0.2L214.9,242.9
		L214.9,242.9z"/>
	<path class="st2" d="M198.9,240.2h1.3v0.9h0.9v-0.9h1.3v0.9h0.9v-0.9h1.3v2.2c0,0.3-0.3,0.6-0.6,0.6h-4.6c-0.3,0-0.6-0.3-0.6-0.6
		V240.2L198.9,240.2z"/>
	<path d="M204.1,243.1h-4.9l-0.6-0.8v-2.1l1.5-0.3l0.3,1.2l0.7-0.2l-0.2-0.7l1.6-0.2l0.2,1.2l0.7-0.2l-0.3-0.7l1.6-0.2l0.3,2.6
		L204.1,243.1L204.1,243.1z M199.9,240.2l-1,0.2l0.3,1.9l5,0.6l0.3-0.6v-2.2l-1.1,0.3l0.2,0.7l-1.2,0.3l-0.3-1.2l-1.1,0.3l0.3,0.7
		l-1.2,0.3L199.9,240.2L199.9,240.2z"/>
	<polygon class="st2" points="203.8,242.9 204,246.6 199.6,246.6 199.7,242.9 	"/>
	<path d="M204.2,246.8h-4.7l-0.1-4l4.4-0.2L204.2,246.8L204.2,246.8z M203.6,242.9l-3.9,0.2l0.1,3.5l3.9-0.2L203.6,242.9
		L203.6,242.9z"/>
	<path class="st2" d="M203,256.6c0.1-5.9,4.3-7.3,4.3-7.3c0,0,4.5,1.5,4.5,7.3L203,256.6L203,256.6z"/>
	<path class="st2" d="M199.4,249.4l-0.7,6.8h4.4c0-5.6,4.2-6.5,4.3-6.5c0.1,0,4.3,1.2,4.4,6.5h4.4l-0.8-6.8L199.4,249.4L199.4,249.4
		z"/>
	<path d="M216.5,256.4h-4.7c-0.4-5.4-4.4-6.5-4.4-6.5c0,0-4,0.8-4,6.3l-4.7,0.2l0.4-7.1l16.3-0.3L216.5,256.4L216.5,256.4z
		 M206.9,249.5l-7.5,0.1l-0.4,6.6l4.1-0.3C202.9,251.3,205.8,249.9,206.9,249.5L206.9,249.5z M207.8,249.5c1.1,0.4,4.2,2,4.3,6.6
		l3.9-0.2l-0.8-6.5L207.8,249.5L207.8,249.5z"/>
	<path class="st2" d="M198.4,256.2h18.1c0.4,0,0.7,0.4,0.7,0.8c0,0.5-0.3,0.8-0.7,0.8h-18.1c-0.4,0-0.7-0.4-0.7-0.8
		C197.7,256.6,198,256.2,198.4,256.2L198.4,256.2z"/>
	<path d="M216.5,258.1h-18.1c-0.5,0-1-0.5-1-1.1c0-0.6,0.4-1.1,1-1.1h18.1c0.5,0,1,0.5,1,1.1C217.4,257.7,217,258.1,216.5,258.1
		L216.5,258.1z M198.4,256.5v1.1h18.1c0.2,0,0.4-0.2,0.4-0.6L198.4,256.5L198.4,256.5z"/>
	<path class="st2" d="M205,256.2c0-3.5,2.4-4.5,2.4-4.5s2.5,1,2.5,4.5H205L205,256.2z"/>
	<path d="M210.2,256.4H205c-0.2-3.9,2.2-5,2.4-5c0.2,0,2.8,1.1,2.8,4.8L210.2,256.4L210.2,256.4z M207.3,251.9
		c0,0.1-2.1,1.1-2.1,4.3l4.4-0.2C209.5,252.9,207.4,251.9,207.3,251.9L207.3,251.9z"/>
	<path class="st2" d="M198.8,246.6h17.3c0.4,0,0.7,0.3,0.7,0.8c0,0.4-0.3,0.8-0.7,0.8h-17.3c-0.4,0-0.7-0.3-0.7-0.8
		C198.1,246.9,198.4,246.6,198.8,246.6L198.8,246.6z"/>
	<path d="M216.1,248.4h-17.3c-0.5,0-0.9-0.4-0.9-1c0-0.6,0.4-1,0.9-1h17.3c0.5,0,0.9,0.5,0.9,1C217,247.9,216.6,248.4,216.1,248.4
		L216.1,248.4z M198.8,246.9v1h17.3c0.2,0,0.4-0.2,0.4-0.5L198.8,246.9L198.8,246.9z"/>
	<path class="st2" d="M199.1,248.1h16.6c0.4,0,0.7,0.3,0.7,0.7c0,0.4-0.3,0.8-0.7,0.8h-16.6c-0.4,0-0.6-0.3-0.6-0.8
		C198.5,248.4,198.8,248.1,199.1,248.1L199.1,248.1z"/>
	<path d="M215.7,249.9h-16.6c-0.5,0-0.9-0.5-0.9-1c0-0.6,0.4-1,0.9-1h16.6c0.5,0,0.9,0.5,0.9,1C216.6,249.4,216.2,249.9,215.7,249.9
		L215.7,249.9z M199.1,248.4v1h16.6c0.2,0,0.4-0.2,0.4-0.5L199.1,248.4L199.1,248.4z"/>
	<path d="M207,241.9c0-0.7,0.9-0.7,0.9,0v1.6H207V241.9L207,241.9z"/>
	<path d="M212.6,244.2c0-0.7,0.9-0.7,0.9,0v1.3h-0.9V244.2L212.6,244.2z"/>
	<path d="M201.3,244.2c0-0.7,0.9-0.7,0.9,0v1.3h-0.9V244.2L201.3,244.2z"/>
	<path class="st2" d="M298.6,288.9l0.9,0.9l-0.7,0.7l0.7,0.7l0.7-0.7l0.9,0.9l-0.7,0.7l0.7,0.7l0.7-0.7l0.9,0.9l-1.5,1.5
		c-0.2,0.2-0.6,0.2-0.8,0l-3.3-3.3c-0.2-0.2-0.2-0.6,0-0.8L298.6,288.9L298.6,288.9z"/>
	<path d="M300.8,295l-0.6-0.3l-3.5-3.5l0.1-1l1.5-1.5l1.3,0.9l-0.6,1l0.7,0.3l0.3-0.7l1.3,0.9l-0.7,1l0.7,0.3l0.3-0.7l1.3,0.9
		L300.8,295L300.8,295z M298.4,289.1l-1.1,1.5l3.6,4.1l0.2-0.4l1.5-1.5l-0.9-0.6l-0.3,0.7l-1-0.7l0.7-1l-0.9-0.6l-0.3,0.7l-1.1-0.7
		l0.7-1L298.4,289.1L298.4,289.1z"/>
	<polygon class="st2" points="300,294.5 295.4,299.5 292.1,296.3 297.2,291.6 	"/>
	<path d="M295.4,299.9l-3.4-3.4l5.1-5.1l3.2,2.9L295.4,299.9L295.4,299.9z M297,291.8l-4.7,4.7l3,2.7l4.5-4.9L297,291.8L297,291.8z"
		/>
	<path class="st2" d="M300.2,295.4l0.9,0.9l-0.6,0.7l0.6,0.7l0.7-0.7l0.9,0.9l-0.7,0.7l0.7,0.7l0.7-0.7l0.9,0.9l-1.5,1.5
		c-0.2,0.2-0.6,0.2-0.8,0l-3.3-3.3c-0.2-0.2-0.2-0.6,0-0.8L300.2,295.4L300.2,295.4z"/>
	<path d="M302.4,301.4l-0.6-0.3l-3.4-3.4l0.1-1l1.5-1.5l1.3,0.9l-0.7,1l0.7,0.3l0.3-0.7l1.3,0.9l-0.7,1l0.7,0.3l0.3-0.7l1.3,0.9
		L302.4,301.4L302.4,301.4z M300,295.5l-1.1,1.5l3.5,4.1l0.2-0.4l1.5-1.5l-0.9-0.6l-0.3,0.7l-1.1-0.7l0.7-1l-0.9-0.6l-0.3,0.7
		l-1-0.7l0.7-1L300,295.5L300,295.5z"/>
	<polygon class="st2" points="301.8,300.7 299.3,303.5 296.2,300.4 298.9,297.8 301.8,300.7 	"/>
	<path d="M299.3,303.9l-3.3-3.3l2.7-2.9l3.3,2.9L299.3,303.9L299.3,303.9z M298.7,298l-2.3,2.5l2.9,2.5l2.3-2.5L298.7,298L298.7,298
		z"/>
	<path class="st2" d="M292.2,287.4l0.9,0.9l-0.7,0.7l0.7,0.7l0.7-0.7l0.9,0.9l-0.7,0.7l0.7,0.7l0.7-0.7l0.9,0.9l-1.5,1.5
		c-0.2,0.2-0.6,0.2-0.8,0l-3.2-3.3c-0.2-0.2-0.2-0.6,0-0.8L292.2,287.4L292.2,287.4z"/>
	<path d="M294.4,293.4l-0.6-0.2l-3.3-3.4l0-1.1l1.5-1.5l1.3,0.9l-0.7,1l0.7,0.3l0.3-0.7l1.3,0.9l-0.7,1.1l0.7,0.3l0.3-0.7l1.3,0.9
		L294.4,293.4L294.4,293.4z M292,287.5l-1.1,1.5l3.5,4.1l0.2-0.3l1.5-1.5l-0.9-0.6l-0.3,0.7l-1.1-0.7l0.7-1.1l-0.9-0.5l-0.3,0.7
		l-1-0.7l0.7-1L292,287.5L292,287.5z"/>
	<polygon class="st2" points="293.8,292.7 291.3,295.5 288.2,292.4 290.9,289.8 	"/>
	<path d="M291.3,295.8l-3.3-3.3l2.7-2.9l3.3,2.9L291.3,295.8L291.3,295.8z M290.7,290l-2.3,2.5l2.9,2.5l2.3-2.5L290.7,290L290.7,290
		z"/>
	<path class="st2" d="M283.5,301.9c4.3-4.1,8.2-2.1,8.2-2.1c0,0,2.1,4.3-2,8.4L283.5,301.9L283.5,301.9z"/>
	<path class="st2" d="M286.1,294.2l-5.3,4.3l3.1,3.1c4-4,7.6-1.6,7.7-1.5c0.1,0,2.1,3.9-1.5,7.7l3.1,3.2l4.2-5.4L286.1,294.2
		L286.1,294.2z"/>
	<path d="M293.2,311.3l-3.3-3.3c3.5-4,1.5-7.6,1.5-7.7l0,0c0,0-1-0.7-2.5-0.7c-1.6,0-3.2,0.8-4.7,2.2l-3.5-3.1l5.3-4.7l11.7,11.3
		L293.2,311.3L293.2,311.3z M292,300.3c0.2,0.4,0.4,1.1,0.5,2c0.1,1.4-0.2,3.5-2.2,5.7l2.9,2.6l4.1-5.2L292,300.3L292,300.3z
		 M285.9,294.4l-5,4.3l3.1,2.7c1.9-2.5,5.9-2.5,7.2-1.8L285.9,294.4L285.9,294.4z"/>
	<path class="st2" d="M280.6,298.3l12.8,12.8c0.3,0.3,0.2,0.8-0.1,1.1c-0.3,0.3-0.8,0.3-1.1,0.1l-12.8-12.8
		c-0.3-0.3-0.2-0.7,0.1-1.1C279.8,298.1,280.3,298.1,280.6,298.3L280.6,298.3z"/>
	<path d="M292.6,312.8l-0.6-0.2l-12.8-12.8c-0.4-0.4-0.3-1,0.1-1.5l0.8-0.3l13.4,13c0.4,0.4,0.3,1-0.1,1.5L292.6,312.8L292.6,312.8z
		 M279.6,299.3l13,13.1l0.4-0.5l-12.7-13.5l-1,1L279.6,299.3L279.6,299.3z"/>
	<path class="st2" d="M285.2,303c2.5-2.5,4.9-1.5,4.9-1.5c0,0,1,2.5-1.4,5L285.2,303L285.2,303z"/>
	<path d="M288.7,306.9l-3.7-3.7c2.7-3.4,5.1-1.9,5.2-1.9c0.2,0.2,1.2,2.9-1.3,5.4L288.7,306.9L288.7,306.9z M288.9,301.5
		c-0.8,0-2.1,0.3-3.5,1.6l3.3,2.9c1.9-2.1,1.3-4.1,1.2-4.5C289.9,301.7,289.5,301.5,288.9,301.5L288.9,301.5z"/>
	<path class="st2" d="M287.6,291.8l12.3,12.3c0.3,0.2,0.2,0.7-0.1,1c-0.3,0.3-0.7,0.3-1,0l-12.2-12.2c-0.3-0.3-0.2-0.7,0-1
		C286.9,291.6,287.3,291.6,287.6,291.8L287.6,291.8z"/>
	<path d="M299.3,305.6l-0.6-0.2l-12.3-12.3c-0.4-0.4-0.3-1,0.1-1.4l1.4-0.1l12.2,12.3c0.3,0.3,0.3,1,0,1.4L299.3,305.6L299.3,305.6z
		 M287.4,292l-0.7,0.7l12.5,12.6l0.4-0.4L287.4,292L287.4,292z"/>
	<path class="st2" d="M286.8,293.1l11.7,11.7c0.2,0.2,0.2,0.7-0.1,1c-0.3,0.3-0.7,0.3-1,0.1l-11.7-11.7c-0.3-0.2-0.2-0.7,0.1-1
		C286.1,292.9,286.5,292.9,286.8,293.1L286.8,293.1z"/>
	<path d="M297.9,306.4l-0.6-0.3l-11.7-11.7c-0.4-0.4-0.3-1,0.1-1.4l1.4-0.1l11.7,11.7c0.3,0.3,0.3,0.9-0.1,1.4L297.9,306.4
		L297.9,306.4z M286.6,293.3l-0.7,0.7l11.9,12.1l0.4-0.4L286.6,293.3L286.6,293.3z"/>
	<path d="M296.8,294.1c0.4-0.5,1.1,0.2,0.6,0.7l-1.2,1.2l-0.6-0.7L296.8,294.1L296.8,294.1z"/>
	<path d="M299.1,299.8c0.5-0.5,1.1,0.2,0.6,0.6l-0.9,0.9l-0.6-0.6L299.1,299.8L299.1,299.8z"/>
	<path d="M291,291.8c0.4-0.5,1.1,0.2,0.6,0.6l-0.9,0.9l-0.6-0.6L291,291.8L291,291.8z"/>
	<path class="st2" d="M301.3,236.8h1.3v0.9h0.9v-0.9h1.3v0.9h1v-0.9h1.3v2.1c0,0.3-0.3,0.6-0.6,0.6h-4.7c-0.3,0-0.6-0.3-0.6-0.6
		V236.8L301.3,236.8z"/>
	<path d="M306.7,239.7h-5l-0.6-0.8v-2.1l1.6-0.3l0.3,1.2l0.7-0.3l-0.3-0.7l1.6-0.3l0.3,1.2l0.7-0.3l-0.3-0.7l1.6-0.3l0.3,2.7
		L306.7,239.7L306.7,239.7z M302.4,236.8l-1,0.3l0.3,1.8l5,0.6l0.3-0.6v-2.1l-1.1,0.2l0.3,0.7l-1.2,0.2l-0.3-1.2l-1.1,0.2l0.3,0.7
		l-1.2,0.2L302.4,236.8L302.4,236.8z"/>
	<polygon class="st2" points="306.3,239.7 306.6,246.6 302,246.6 302.3,239.7 	"/>
	<path d="M306.8,246.8H302l0-7.2l4.3-0.2L306.8,246.8L306.8,246.8z M306,239.7l-3.7,0.2l0,6.6l4.1-0.2L306,239.7L306,239.7z"/>
	<path class="st2" d="M307,240.2h1.3v0.9h0.9v-0.9h1.3v0.9h0.9v-0.9h1.3v2.2c0,0.3-0.3,0.6-0.6,0.6h-4.6c-0.3,0-0.6-0.3-0.6-0.6
		V240.2L307,240.2z"/>
	<path d="M312.2,243.1h-4.9l-0.6-0.8v-2.1l1.6-0.3l0.3,1.2l0.7-0.3l-0.3-0.7l1.6-0.3l0.3,1.2l0.7-0.3l-0.3-0.7l1.6-0.3l0.3,2.7
		L312.2,243.1L312.2,243.1z M308.1,240.2l-1,0.3l0.3,1.8l4.9,0.6l0.3-0.6v-2.2l-1,0.3l0.3,0.7l-1.2,0.3l-0.3-1.2l-1,0.3l0.3,0.7
		l-1.2,0.3L308.1,240.2L308.1,240.2z"/>
	<polygon class="st2" points="312,242.9 312.1,246.6 307.7,246.6 307.8,242.9 	"/>
	<path d="M312.4,246.8h-4.7l-0.1-4l4.4-0.3L312.4,246.8L312.4,246.8z M311.7,242.9l-3.9,0.2l0.1,3.5l3.9-0.3L311.7,242.9
		L311.7,242.9z"/>
	<path class="st2" d="M295.7,240.2h1.3v0.9h0.9v-0.9h1.3v0.9h0.9v-0.9h1.3v2.2c0,0.3-0.3,0.6-0.6,0.6h-4.6c-0.3,0-0.6-0.2-0.6-0.6
		V240.2L295.7,240.2z"/>
	<path d="M300.9,243.1H296l-0.6-0.8v-2.1l1.5-0.3l0.3,1.2l0.7-0.3l-0.3-0.7l1.6-0.3l0.3,1.2l0.7-0.3l-0.3-0.7l1.6-0.3l0.3,2.7
		L300.9,243.1L300.9,243.1z M296.7,240.2l-1,0.3l0.3,1.9l4.9,0.6l0.3-0.6v-2.2l-1,0.3l0.3,0.7l-1.2,0.3l-0.3-1.2l-1.1,0.3l0.3,0.7
		l-1.2,0.3L296.7,240.2L296.7,240.2z"/>
	<polygon class="st2" points="300.7,242.9 300.8,246.6 296.4,246.6 296.5,242.9 	"/>
	<path d="M296.1,246.9l0.1-4l4.4-0.2l0.4,4L296.1,246.9L296.1,246.9z M300.4,242.9l-3.9,0.2l0.1,3.2l4.1,0L300.4,242.9L300.4,242.9z
		"/>
	<path class="st2" d="M299.9,256.6c0.1-5.9,4.3-7.3,4.3-7.3c0,0,4.5,1.5,4.5,7.3L299.9,256.6L299.9,256.6z"/>
	<path class="st2" d="M296.3,249.4l-0.7,6.8h4.4c0-5.6,4.2-6.5,4.3-6.5c0.1,0,4.3,1.3,4.4,6.5h4.4l-0.8-6.8L296.3,249.4L296.3,249.4
		z"/>
	<path d="M313.4,256.5h-4.7c-0.4-5.4-4.4-6.5-4.4-6.5c0,0-4,0.8-4,6.3l-4.7,0.2l0.4-7.1l16.3-0.3L313.4,256.5L313.4,256.5z
		 M303.8,249.5l-7.5,0.1l-0.4,6.5l4.1-0.3C299.8,251.4,302.6,249.9,303.8,249.5L303.8,249.5z M304.7,249.5c1.2,0.4,4.1,2.2,4.2,6.7
		l3.9-0.2l-0.8-6.5L304.7,249.5L304.7,249.5z"/>
	<path class="st2" d="M295.2,256.2h18.1c0.4,0,0.7,0.4,0.7,0.8c0,0.4-0.3,0.8-0.7,0.8h-18.1c-0.4,0-0.7-0.4-0.7-0.8
		C294.5,256.6,294.9,256.2,295.2,256.2L295.2,256.2z"/>
	<path d="M313.3,258.1h-18.1c-0.5,0-1-0.5-1-1.1c0-0.6,0.4-1.1,1-1.1h18.1c0.5,0,1,0.5,1,1.1C314.3,257.7,313.8,258.1,313.3,258.1
		L313.3,258.1z M295.2,256.5v1.1h18.1c0.2,0,0.4-0.2,0.4-0.5L295.2,256.5L295.2,256.5z"/>
	<path class="st2" d="M301.8,256.2c0-3.5,2.4-4.5,2.4-4.5s2.5,1,2.5,4.5H301.8L301.8,256.2z"/>
	<path d="M307,256.4h-5.2c-0.3-3.9,2.2-5,2.3-5c0.3,0,2.9,1.1,2.9,4.8V256.4L307,256.4z M304.1,251.9c0.1,0.1-2,1-2,4.3l4.4-0.3
		C306.4,252.9,304.2,251.9,304.1,251.9L304.1,251.9z"/>
	<path class="st2" d="M295.6,246.6h17.3c0.4,0,0.7,0.3,0.7,0.7c0,0.4-0.3,0.8-0.7,0.8h-17.3c-0.4,0-0.7-0.4-0.7-0.8
		C295,246.9,295.3,246.6,295.6,246.6L295.6,246.6z"/>
	<path d="M312.9,248.4h-17.3c-0.5,0-0.9-0.5-0.9-1c0-0.6,0.4-1,0.9-1h17.3c0.5,0,0.9,0.4,0.9,1C313.9,247.9,313.4,248.4,312.9,248.4
		L312.9,248.4z M295.6,246.9v0.9h17.3c0.2,0,0.4-0.2,0.4-0.5L295.6,246.9L295.6,246.9z"/>
	<path class="st2" d="M296,248.1h16.6c0.3,0,0.6,0.3,0.6,0.8c0,0.4-0.3,0.8-0.6,0.8H296c-0.3,0-0.6-0.3-0.6-0.8
		C295.3,248.5,295.6,248.1,296,248.1L296,248.1z"/>
	<path d="M312.5,249.9H296c-0.5,0-0.9-0.5-0.9-1c0-0.6,0.4-1,0.9-1h16.6c0.5,0,0.9,0.5,0.9,1C313.4,249.4,313,249.9,312.5,249.9
		L312.5,249.9z M296,248.4v1h16.6c0.2,0,0.4-0.2,0.4-0.5L296,248.4L296,248.4z"/>
	<path d="M303.8,241.9c0-0.7,0.9-0.7,0.9,0v1.6h-0.9V241.9L303.8,241.9z"/>
	<path d="M309.5,244.2c0-0.7,0.9-0.7,0.9,0v1.3h-0.9V244.2L309.5,244.2z"/>
	<path d="M298.1,244.2c0-0.6,0.9-0.7,0.9,0v1.3h-0.9V244.2L298.1,244.2z"/>
	<path class="st2" d="M209.3,293l0.9-0.9l0.7,0.7l0.7-0.7l-0.7-0.7l1-0.9l0.7,0.7l0.7-0.7l-0.7-0.7l0.9-0.9l1.5,1.5
		c0.2,0.2,0.2,0.6,0,0.8l-3.3,3.3c-0.2,0.2-0.6,0.3-0.8,0L209.3,293L209.3,293z"/>
	<path d="M211.1,295l-0.6-0.2l-1.5-1.5l0.9-1.3l1,0.7l0.3-0.7l-0.7-0.3l1-1.3l1,0.7l0.3-0.7l-0.7-0.3l0.9-1.3l2.1,1.7l-0.2,1
		L211.1,295L211.1,295z M210,292.3l-0.5,0.9l1.7,1.5l0.3-0.4l3.3-3.3l-1.5-1.9l-0.6,0.9l0.7,0.3l-0.7,1.1l-1-0.7l-0.6,0.9l0.7,0.3
		l-0.7,1L210,292.3L210,292.3z"/>
	<polygon class="st2" points="214.8,291.6 219.8,296.2 216.6,299.5 212,294.4 	"/>
	<path d="M216.6,299.9l-4.8-5.3l2.9-3.2l5.4,4.6L216.6,299.9L216.6,299.9z M214.6,291.8l-2.5,2.8l4.5,4.5l3.1-3L214.6,291.8
		L214.6,291.8z"/>
	<path class="st2" d="M215.7,291.4l0.9-0.9l0.7,0.7l0.7-0.7l-0.7-0.7l0.9-0.9l0.7,0.7l0.7-0.7l-0.7-0.7l0.9-0.9l1.5,1.5
		c0.2,0.2,0.2,0.6,0,0.8l-3.3,3.3c-0.2,0.2-0.6,0.2-0.8,0L215.7,291.4L215.7,291.4z"/>
	<path d="M217.6,293.3l-0.6-0.2l-1.5-1.5l0.9-1.3l1,0.7l0.3-0.7L217,290l0.9-1.3l1.1,0.7l0.3-0.7l-0.7-0.3l0.9-1.3l1.9,1.7l0,1
		L217.6,293.3L217.6,293.3z M216.4,290.7l-0.5,0.9l1.7,1.5l0.3-0.4l3.2-3.2l-1.5-1.9l-0.6,0.9l0.7,0.3l-0.7,1l-1.1-0.7l-0.5,0.9
		l0.7,0.3l-0.7,1L216.4,290.7L216.4,290.7z"/>
	<polygon class="st2" points="221.1,289.8 223.8,292.3 220.7,295.4 218.1,292.7 	"/>
	<path d="M220.7,295.8l-2.7-2.9l2.9-3.3l3.1,2.5L220.7,295.8L220.7,295.8z M220.9,290l-2.6,2.9l2.3,2.2l2.9-2.9L220.9,290L220.9,290
		z"/>
	<path class="st2" d="M207.7,299.4l0.9-0.9l0.7,0.7l0.7-0.7l-0.7-0.7l0.9-0.9l0.7,0.7l0.7-0.7l-0.7-0.7l0.9-0.9l1.5,1.5
		c0.2,0.2,0.2,0.6,0,0.8l-3.3,3.3c-0.2,0.2-0.6,0.2-0.8,0L207.7,299.4L207.7,299.4z"/>
	<path d="M209.6,301.3l-0.6-0.2l-1.5-1.5l0.9-1.3l1.1,0.7l0.3-0.7L209,298l0.9-1.3l1,0.7l0.3-0.7l-0.7-0.3l0.9-1.3l1.9,1.6l0,1.1
		L209.6,301.3L209.6,301.3z M208.4,298.7l-0.5,0.9l1.7,1.5l0.2-0.4l3.3-3.3l-1.5-1.9l-0.5,0.9l0.7,0.3l-0.7,1l-1-0.7l-0.6,0.9
		l0.7,0.3l-0.6,1L208.4,298.7L208.4,298.7z"/>
	<polygon class="st2" points="213.1,297.8 215.8,300.3 212.7,303.4 210.1,300.7 	"/>
	<path d="M212.7,303.8l-2.7-2.9l2.9-3.3l3.1,2.5L212.7,303.8L212.7,303.8z M212.9,298l-2.6,2.9l2.4,2.2l2.9-2.9L212.9,298L212.9,298
		z"/>
	<path class="st2" d="M222.2,308.1c-4.1-4.3-2.1-8.2-2.1-8.2c0,0,4.3-2.1,8.4,2L222.2,308.1L222.2,308.1z"/>
	<path class="st2" d="M214.6,305.5l4.3,5.3l3.1-3.1c-3.9-4-1.6-7.6-1.6-7.7c0.1-0.1,3.9-2.1,7.7,1.5l3.1-3.1l-5.4-4.2L214.6,305.5
		L214.6,305.5z"/>
	<path d="M218.8,311.2l-4.5-5.5l11.3-11.7l5.7,4.2l-3.1,3.5c-1.8-1.4-3.4-2.1-5.1-2.1c-1.6,0-2.6,0.6-2.6,0.6l0,0
		c0,0-2.2,3.4,1.6,7.3L218.8,311.2L218.8,311.2z M220,300.3l-5.2,5.4l4.1,4.7l2.9-2.9c-2.2-1.9-2.5-4.1-2.3-5.5
		C219.6,301.3,219.8,300.7,220,300.3L220,300.3z M223.2,299.1c1.9,0,3.6,0.8,5.1,2.2l2.8-3.1l-5.3-3.9l-5.1,5.3
		C221.1,299.4,222.1,299.1,223.2,299.1L223.2,299.1z"/>
	<path class="st2" d="M218.7,311.1l12.8-12.8c0.3-0.3,0.8-0.2,1.1,0.1c0.3,0.3,0.4,0.8,0.1,1.1l-12.8,12.8c-0.3,0.3-0.8,0.2-1.1-0.1
		C218.4,311.8,218.4,311.3,218.7,311.1L218.7,311.1z"/>
	<path d="M219.4,312.7l-0.8-0.4c-0.3-0.3-0.4-1.1-0.1-1.5l12.8-12.8c0.9-0.2,1.2-0.1,1.5,0.1c0.3,0.3,0.5,1.1,0.1,1.5L219.4,312.7
		L219.4,312.7z M231.9,298.4l-13,12.9l-0.1,0.9l0.6,0.3l0.2-0.4l12.8-12.8l0.1-0.9H231.9L231.9,298.4z"/>
	<path class="st2" d="M223.3,306.4c-2.5-2.5-1.5-4.9-1.5-4.9s2.5-1,5,1.4L223.3,306.4L223.3,306.4z"/>
	<path d="M223.3,306.8l-0.2-0.2c-2.6-2.6-1.6-5.1-1.6-5.2c0.4-0.3,2.7-1.3,5.4,1.3L223.3,306.8L223.3,306.8z M221.9,301.7
		c0.1,0-0.7,2,1.4,4.3l3.3-3.3C224.2,301,222,301.7,221.9,301.7L221.9,301.7L221.9,301.7z"/>
	<path class="st2" d="M212.1,304l12.2-12.2c0.3-0.3,0.7-0.2,1,0.1c0.3,0.3,0.3,0.7,0.1,1l-12.2,12.2c-0.3,0.3-0.7,0.2-1,0
		C211.9,304.7,211.9,304.3,212.1,304L212.1,304z"/>
	<path d="M212.8,305.5l-0.7-0.4l0-1.3l12.2-12.2l1.4,0c0.4,0.4,0.4,1,0.1,1.4L212.8,305.5L212.8,305.5z M212.8,305v0.3l0.3-0.4
		l12.2-12.2l0.1-0.8l-0.5,0l-12.5,12.4l-0.1,0.8L212.8,305L212.8,305z"/>
	<path class="st2" d="M213.5,304.8l11.7-11.7c0.3-0.2,0.7-0.2,1,0.1c0.3,0.3,0.3,0.7,0.1,1l-11.7,11.7c-0.2,0.2-0.7,0.2-1-0.1
		C213.2,305.5,213.2,305,213.5,304.8L213.5,304.8z"/>
	<path d="M214.1,306.3l-0.8-0.3c-0.4-0.4-0.4-1-0.1-1.4l11.7-11.7l1.4,0.1c0.4,0.4,0.4,1,0.1,1.4L214.1,306.3L214.1,306.3z
		 M214.1,305.8v0.3l0.2-0.4l11.7-11.7l0.1-0.8l-0.6,0L213.6,305l-0.1,0.8L214.1,305.8L214.1,305.8z"/>
	<path d="M214.6,294.7c-0.5-0.5,0.2-1.1,0.7-0.7l1.1,1.2l-0.6,0.7L214.6,294.7L214.6,294.7z"/>
	<path d="M220.3,292.4c-0.5-0.5,0.2-1.1,0.6-0.6l0.9,0.9l-0.6,0.6L220.3,292.4L220.3,292.4z"/>
	<path d="M212.3,300.4c-0.5-0.4,0.2-1.1,0.6-0.6l0.9,0.9l-0.6,0.6L212.3,300.4L212.3,300.4z"/>
</g>
</svg>
