<svg version="1.1"  xmlns="http://www.w3.org/2000/svg" width="24" height="24" viewBox="0 0 24 24">
<g>
	<rect x="4.4" y="9.2" id="svg-ico" class="archive0" fill="#f8b3b5" width="15.1" height="10.4"/>
	<g>
		<path class="archive1" fill="#5C65AD" d="M22.4,2.5H1.6C1,2.5,0.7,2.9,0.7,3.5v4.7c0,0.6,0.4,0.9,0.9,0.9h0.9v11.3c0,0.6,0.4,0.9,0.9,0.9h17
			c0.6,0,0.9-0.4,0.9-0.9V9.2h0.9c0.6,0,0.9-0.4,0.9-0.9V3.5C23.3,2.9,23,2.5,22.4,2.5z M19.6,19.6H4.4V9.2h15.1V19.6z M21.5,7.3
			H2.5V4.4h18.9V7.3z"/>
		<path class="archive1" fill="#5C65AD" d="M10.1,12.9h3.8c0.6,0,0.9-0.4,0.9-0.9s-0.4-0.9-0.9-0.9h-3.8c-0.6,0-0.9,0.4-0.9,0.9S9.5,12.9,10.1,12.9z"/>
	</g>
</g>
</svg>
