<svg version="1.1"  xmlns="http://www.w3.org/2000/svg" width="24" height="24" viewBox="0 0 24 24">
<circle id="svg-ico" class="award0" fill="#f8b3b5" cx="12" cy="8" r="6"/>
<path class="award1" fill="#5C65AD" d="M16.9,14.3C18.8,12.9,20,10.6,20,8c0-4.4-3.6-8-8-8S4,3.6,4,8c0,2.6,1.2,4.9,3.1,6.3L6,22.9
	c-0.1,0.4,0.1,0.8,0.4,1c0.4,0.2,0.8,0.2,1.1,0l4.5-2.7l4.5,2.7C16.6,24,16.8,24,17,24s0.4-0.1,0.6-0.1c0.3-0.2,0.5-0.6,0.4-1
	L16.9,14.3z M6,8c0-3.3,2.7-6,6-6s6,2.7,6,6c0,2.1-1.1,3.9-2.7,5c0,0,0,0,0,0c-0.9,0.6-2.1,1-3.3,1C8.7,14,6,11.3,6,8z M12.5,19.2
	c-0.3-0.2-0.7-0.2-1,0l-3.2,1.9L9,15.4c0.9,0.4,1.9,0.6,3,0.6s2.1-0.2,3-0.6l0.7,5.7L12.5,19.2z"/>
</svg>
