<svg version="1.1"  xmlns="http://www.w3.org/2000/svg" width="24" height="24" viewBox="0 0 24 24">
<path class="bell0" fill="#5C65AD" d="M21,18H3c-0.4,0-0.8-0.3-1-0.7c-0.1-0.4,0-0.9,0.4-1.1c0,0,2.6-1.9,2.6-8.2c0-3.9,3.1-7,7-7s7,3.1,7,7
	c0,6.3,2.5,8.2,2.6,8.2c0.4,0.3,0.5,0.7,0.4,1.1S21.4,18,21,18z M5.1,16h13.7C18,14.5,17,12,17,8c0-2.8-2.2-5-5-5S7,5.2,7,8
	C7,12,6,14.5,5.1,16z"/>
<path class="bell0" fill="#5C65AD" d="M12,23c-0.5,0-1-0.1-1.5-0.4C10,22.3,9.7,22,9.4,21.5s-0.1-1.1,0.4-1.4s1.1-0.1,1.4,0.4
	c0.1,0.1,0.2,0.3,0.4,0.4c0.5,0.3,1.1,0.1,1.4-0.4c0.3-0.5,0.9-0.6,1.4-0.4c0.5,0.3,0.6,0.9,0.4,1.4C14,22.5,13,23,12,23z"/>
<path id="svg-ico" class="bell1" fill="#f8b3b5" d="M5.1,16h13.7C18,14.5,17,12,17,8c0-2.8-2.2-5-5-5S7,5.2,7,8C7,12,6,14.5,5.1,16z"/>
</svg>
