<svg version="1.1"  xmlns="http://www.w3.org/2000/svg" width="24" height="24" viewBox="0 0 24 24">
<path class="browser0" fill="#5C65AD" d="M19.3,20.5H4.7c-0.7,0-1.2-0.5-1.2-1.2v-8.5h17.1c0,0,0,7.7,0,8.5S20,20.5,19.3,20.5z M3.5,8.3V4.7
	C3.5,4,4,3.5,4.7,3.5h14.6c0.7,0,1.2,0.5,1.2,1.2v3.7L3.5,8.3L3.5,8.3z M19.3,1H4.7C2.7,1,1,2.7,1,4.7v14.6c0,2,1.6,3.7,3.7,3.7
	h14.6c2,0,3.7-1.6,3.7-3.7V4.7C23,2.7,21.3,1,19.3,1z"/>
<circle class="browser0" fill="#5C65AD" cx="7.1" cy="5.9" r="1.2"/>
<circle class="browser0" fill="#5C65AD" cx="12" cy="5.9" r="1.2"/>
<path id="svg-ico" class="browser1" fill="#f8b3b5" d="M19.3,20.5H4.7c-0.7,0-1.2-0.5-1.2-1.2v-8.5h17.1c0,0,0,7.7,0,8.5C20.6,20.1,20,20.5,19.3,20.5z"/>
</svg>
