<svg version="1.1"  xmlns="http://www.w3.org/2000/svg" width="24" height="24" viewBox="0 0 24 24">
<path class="cloud0" fill="#5C65AD" d="M9.1,20.7c-3.9,0-7.4-2.7-8.4-6.5c-0.6-2.2-0.3-4.6,1-6.5c1.2-2,3.1-3.4,5.3-3.9s4.6-0.3,6.5,1
	c1.7,1,3.1,2.6,3.8,4.5h0.5c3.2,0,5.8,2.6,5.8,5.8s-2.6,5.8-5.8,5.8H9.1L9.1,20.7z M9.1,5.3C8.5,5.3,8,5.4,7.4,5.5
	C5.6,5.9,4.2,7,3.3,8.5s-1.2,3.4-0.7,5.1c0.7,3,3.4,5.1,6.5,5.1l0,0h8.7c2.1,0,3.9-1.7,3.9-3.9S19.9,11,17.8,11h-1.3
	c-0.5,0-0.9-0.3-1-0.8C14.9,7.3,12.1,5.3,9.1,5.3z"/>
<path id="svg-ico" class="cloud1" fill="#f8b3b5" d="M9.1,5.3C8.5,5.3,8,5.4,7.4,5.5C5.6,5.9,4.2,7,3.3,8.5s-1.2,3.4-0.7,5.1c0.7,3,3.4,5.1,6.5,5.1l0,0h8.7
	c2.1,0,3.9-1.7,3.9-3.9S19.9,11,17.8,11h-1.3c-0.5,0-0.9-0.3-1-0.8C14.9,7.3,12.1,5.3,9.1,5.3z"/>
</svg>
