<svg version="1.1"  xmlns="http://www.w3.org/2000/svg" width="24" height="24" viewBox="0 0 24 24">
<g>
	<path class="cpu0" fill="#5C65AD" d="M14.8,8.2H9.2c-0.6,0-0.9,0.4-0.9,0.9v5.7c0,0.6,0.4,0.9,0.9,0.9h5.7c0.6,0,0.9-0.4,0.9-0.9V9.2
		C15.8,8.6,15.4,8.2,14.8,8.2z M13.9,13.9h-3.8v-3.8h3.8V13.9z"/>
	<path class="cpu0" fill="#5C65AD" d="M22.4,12.9h-1.9v-2.8h1.9c0.6,0,0.9-0.4,0.9-0.9S23,8.2,22.4,8.2h-1.9V6.3c0-1.6-1.2-2.8-2.8-2.8h-1.9V1.6
		c0-0.6-0.4-0.9-0.9-0.9S13.9,1,13.9,1.6v1.9h-3.8V1.6c0-0.6-0.4-0.9-0.9-0.9S8.2,1,8.2,1.6v1.9H6.3c-1.6,0-2.8,1.2-2.8,2.8v1.9H1.6
		C1,8.2,0.7,8.6,0.7,9.2s0.4,0.9,0.9,0.9h1.9v2.8H1.6c-0.6,0-0.9,0.4-0.9,0.9c0,0.6,0.4,0.9,0.9,0.9h1.9v2.8c0,1.6,1.2,2.8,2.8,2.8
		h1.9v1.9c0,0.6,0.4,0.9,0.9,0.9s0.9-0.4,0.9-0.9v-1.9h3.8v1.9c0,0.6,0.4,0.9,0.9,0.9s0.9-0.4,0.9-0.9v-1.9h1.9
		c1.6,0,2.8-1.2,2.8-2.8v-2.8h1.9c0.6,0,0.9-0.4,0.9-0.9C23.3,13.3,23,12.9,22.4,12.9z M18.6,17.7c0,0.6-0.4,0.9-0.9,0.9H6.3
		c-0.6,0-0.9-0.4-0.9-0.9V6.3c0-0.6,0.4-0.9,0.9-0.9h11.3c0.6,0,0.9,0.4,0.9,0.9V17.7z"/>
</g>
<path id="svg-ico" class="cpu1" fill="#f8b3b5" d="M17.7,5.4H6.3c-0.6,0-0.9,0.4-0.9,0.9v11.3c0,0.6,0.4,0.9,0.9,0.9h11.3c0.6,0,0.9-0.4,0.9-0.9V6.3
	C18.6,5.8,18.2,5.4,17.7,5.4z M15.8,14.8c0,0.6-0.4,0.9-0.9,0.9H9.2c-0.6,0-0.9-0.4-0.9-0.9V9.2c0-0.6,0.4-0.9,0.9-0.9h5.7
	c0.6,0,0.9,0.4,0.9,0.9V14.8z"/>
</svg>
