<svg version="1.1"  xmlns="http://www.w3.org/2000/svg" width="24" height="24" viewBox="0 0 24 24">
<path id="svg-ico" class="credit-card0" fill="#f8b3b5" d="M20.6,18.7H3.4c-0.6,0-1-0.4-1-1V11h19.1v6.7C21.6,18.3,21.2,18.7,20.6,18.7z"/>
<path class="credit-card1" fill="#5C65AD" d="M20.6,3.4H3.4c-1.6,0-2.9,1.2-2.9,2.9v11.5c0,1.6,1.2,2.9,2.9,2.9h17.2c1.6,0,2.9-1.2,2.9-2.9V6.3
	C23.5,4.6,22.2,3.4,20.6,3.4z M3.4,5.3h17.2c0.6,0,1,0.4,1,1v2.9H2.4V6.3C2.4,5.7,2.8,5.3,3.4,5.3z M20.6,18.7H3.4c-0.6,0-1-0.4-1-1
	V11h19.1v6.7C21.6,18.3,21.2,18.7,20.6,18.7z"/>
</svg>
