<svg version="1.1"  xmlns="http://www.w3.org/2000/svg" width="24" height="24" viewBox="0 0 24 24">
<path class="file0" fill="#5C65AD" d="M20.6,8.2l-6.8-6.8C13.6,1.2,13.4,1,13,1H6C4.3,1,3,2.3,3,4v16c0,1.7,1.3,3,3,3h12c1.7,0,3-1.3,3-3V9
	C21,8.6,20.8,8.4,20.6,8.2z M14,4.4L17.6,8H14V4.4z M18,21H6c-0.6,0-1-0.4-1-1V4c0-0.6,0.4-1,1-1h6v6c0,0.6,0.4,1,1,1h6v10
	C19,20.6,18.6,21,18,21z"/>
<path id="svg-ico" class="file1" fill="#f8b3b5" d="M18,21H6c-0.6,0-1-0.4-1-1v-7.7V4c0-0.6,0.4-1,1-1h6v6c0,0.6,0.4,1,1,1h6v2.3V20C19,20.6,18.6,21,18,21z"/>
</svg>
