<svg version="1.1"  xmlns="http://www.w3.org/2000/svg" width="24" height="24" viewBox="0 0 24 24">
<path class="globel0" fill="#5C65AD" d="M12,0.7C5.8,0.7,0.7,5.8,0.7,12S5.8,23.3,12,23.3S23.3,18.2,23.3,12S18.2,0.7,12,0.7z M3,13.5c0-0.4,0-1,0-1.5
	c0-5,4-9,9-9c0.7,0,1.4,0.1,2,0.2c-0.2,0.4-0.5,0.8-0.9,1.1c-0.2,0.2-0.5,0.4-0.8,0.5c-0.9,0.4-1.6,1.1-2.1,1.9
	c-0.6,1.2-0.8,2.4-0.7,3.7c0,1.5,0,2.4-1.1,3.2C6.9,14.8,4.5,14.1,3,13.5z M15.5,10.6c-0.1,0.5-0.2,1-0.2,1.5c0,0.6-0.1,1.1-0.3,1.7
	L14.9,14c-0.7,1.2-1.6,2.6-0.4,4.5c0.1,0.2,0.3,0.5,0.4,0.7c0.3,0.3,0.5,0.8,0.6,1.2C14.4,20.8,13.2,21,12,21
	c-3.3,0-6.3-1.8-7.9-4.7c0.7,0.2,1.5,0.3,2.3,0.3c1.3,0,2.5-0.4,3.5-1.1c1.9-1.5,1.9-3.5,1.9-5c-0.1-0.9,0.1-1.8,0.4-2.6
	c0.3-0.4,0.8-0.8,1.3-1c0.4-0.2,0.7-0.4,1-0.7c0.7-0.6,1.2-1.3,1.6-2.1c1.6,0.8,2.9,2.1,3.8,3.6C18.3,7.9,16,8.5,15.5,10.6z
	 M17.6,19.1c-0.2-0.5-0.4-0.9-0.7-1.3c-0.1-0.2-0.2-0.4-0.4-0.6c-0.4-0.8-0.3-1.1,0.4-2.3l0.1-0.2c0.4-0.8,0.7-1.8,0.6-2.7
	c0-0.4,0-0.8,0.1-1.1c0.2-0.8,1.9-1.1,3-1.1C21.7,13.3,20.4,17,17.6,19.1z"/>
<path id="svg-ico" class="globel1" fill="#f8b3b5" d="M17.6,19.1c-0.2-0.5-0.4-0.9-0.7-1.3c-0.1-0.2-0.2-0.4-0.4-0.6c-0.4-0.8-0.3-1.1,0.4-2.3l0.1-0.2
	c0.4-0.8,0.7-1.8,0.6-2.7c0-0.4,0-0.8,0.1-1.1c0.2-0.8,1.9-1.1,3-1.1C21.7,13.3,20.4,17,17.6,19.1L17.6,19.1z"/>
<path id="svg-ico" class="globel1" fill="#f8b3b5" d="M12,3c0.7,0,1.4,0.1,2,0.2c-0.2,0.4-0.5,0.8-0.9,1.1c-0.2,0.2-0.5,0.4-0.8,0.5c-0.9,0.4-1.6,1.1-2.1,1.9
	c-0.6,1.2-0.8,2.4-0.7,3.7c0,1.5,0,2.4-1.1,3.2c-1.5,1.2-3.9,0.5-5.4-0.1c0-0.4,0-1,0-1.5C3,7,7,3,12,3z"/>
</svg>
