<svg version="1.1"  xmlns="http://www.w3.org/2000/svg" width="24" height="24" viewBox="0 0 24 24">
<g>
	<path class="helpdesk0" fill="#5C65AD" d="M22.1,9.2h-0.2C21.2,4.4,17,0.7,12,0.7S2.8,4.4,2.1,9.2H1.9c-0.6,0-1,0.4-1,1v3.5c0,0.6,0.4,1,1,1h0.8
		c1.2,3.1,3.8,5.9,7,6.8c0.2,1,1.2,1.8,2.3,1.8c1.3,0,2.3-1,2.3-2.3s-1-2.3-2.3-2.3c-0.7,0-1.4,0.4-1.8,0.9C6.6,18.5,4,14.5,4,10.8
		c0-4.4,3.6-8,8-8s7.9,3.5,8,7.8v3.1c0,0.6,0.4,1,1,1h1.1c0.6,0,1-0.4,1-1v-3.5C23.1,9.7,22.7,9.2,22.1,9.2z"/>
	<path class="helpdesk0" fill="#5C65AD" d="M12.2,4c-3.7,0-6.6,3-6.6,6.6s3,6.6,6.6,6.6s6.6-3,6.6-6.6S15.9,4,12.2,4z M12.2,15.3c-2.6,0-4.6-2.1-4.6-4.6
		C7.6,8.1,9.7,6,12.2,6c2.6,0,4.6,2.1,4.6,4.6C16.9,13.2,14.8,15.3,12.2,15.3z"/>
</g>
<path id="svg-ico" class="helpdesk1" fill="#f8b3b5" d="M12.2,15.3c-2.6,0-4.6-2.1-4.6-4.6C7.6,8.1,9.7,6,12.2,6c2.6,0,4.6,2.1,4.6,4.6C16.9,13.2,14.8,15.3,12.2,15.3z
	"/>
</svg>
