<svg version="1.1"  xmlns="http://www.w3.org/2000/svg" width="24" height="24" viewBox="0 0 24 24">
<path class="home0" fill="#5C65AD" d="M21.6,8.2l-9-7c-0.3-0.3-0.8-0.3-1.2,0l-9,7C2.1,8.4,2,8.7,2,9v11c0,1.7,1.3,3,3,3h14c1.7,0,3-1.3,3-3V9
	C22,8.7,21.9,8.4,21.6,8.2z M14,21h-4v-8h4V21z M20,20c0,0.6-0.4,1-1,1h-3v-9c0-0.6-0.4-1-1-1H9c-0.6,0-1,0.4-1,1v9H5
	c-0.6,0-1-0.4-1-1V9.5l8-6.2l8,6.2V20z"/>
<path id="svg-ico" fill="#f8b3b5" class="home1" d="M20,20c0,0.6-0.4,1-1,1h-3v-9c0-0.6-0.4-1-1-1H9c-0.6,0-1,0.4-1,1v9H5c-0.6,0-1-0.4-1-1V9.5l8-6.2l8,6.2V20z"/>
</svg>
