<svg version="1.1"  xmlns="http://www.w3.org/2000/svg" width="24" height="24" viewBox="0 0 24 24">
<path class="image0" fill="#5C65AD" d="M19,2H5C3.3,2,2,3.3,2,5v14c0,1.7,1.3,3,3,3h14c1.7,0,3-1.3,3-3V5C22,3.3,20.7,2,19,2z M4,5c0-0.6,0.4-1,1-1h14
	c0.6,0,1,0.4,1,1v7.6l-3.3-3.3c-0.4-0.4-1-0.4-1.4,0L4.7,19.9C4.3,19.8,4,19.5,4,19V5z M19,20H7.4l8.6-8.6l4,4V19
	C20,19.6,19.6,20,19,20z"/>
<path id="svg-ico" class="image1" fill="#f8b3b5" d="M19,20H7.4l8.6-8.6l4,4V19C20,19.6,19.6,20,19,20z"/>
<path class="image0" fill="#5C65AD" d="M8.5,6C7.1,6,6,7.1,6,8.5S7.1,11,8.5,11S11,9.9,11,8.5S9.9,6,8.5,6z M8.5,9.4C8,9.4,7.6,9,7.6,8.5
	S8,7.6,8.5,7.6S9.4,8,9.4,8.5S9,9.4,8.5,9.4z"/>
<circle id="svg-ico" class="image1" fill="#f8b3b5" cx="8.5" cy="8.5" r="0.9"/>
</svg>
