<svg version="1.1"  xmlns="http://www.w3.org/2000/svg" width="24" height="24" viewBox="0 0 24 24">
<path id="svg-ico" class="map-pin0" fill="#f8b3b5" d="M12,2c-4.4,0-8,3.6-8,8c0,5.4,6.1,10.4,8,11.8c1.9-1.4,8-6.4,8-11.8C20,5.6,16.4,2,12,2z M12,12
	c-1.1,0-2-0.9-2-2s0.9-2,2-2s2,0.9,2,2S13.1,12,12,12z"/>
<path class="map-pin1" fill="#5C65AD" d="M12,24c-0.2,0-0.4-0.1-0.6-0.2C11.1,23.6,2,17.4,2,10C2,4.5,6.5,0,12,0s10,4.5,10,10c0,7.4-9.1,13.6-9.4,13.8
	C12.4,23.9,12.2,24,12,24z M12,2c-4.4,0-8,3.6-8,8c0,5.4,6.1,10.4,8,11.8c1.9-1.4,8-6.4,8-11.8C20,5.6,16.4,2,12,2z"/>
<path class="map-pin1" fill="#5C65AD" d="M12,14c-2.2,0-4-1.8-4-4s1.8-4,4-4s4,1.8,4,4S14.2,14,12,14z M12,8c-1.1,0-2,0.9-2,2s0.9,2,2,2s2-0.9,2-2
	S13.1,8,12,8z"/>
</svg>
