<svg version="1.1"  xmlns="http://www.w3.org/2000/svg" width="24" height="24" viewBox="0 0 24 24">
<path class="pie-chart0" fill="#5C65AD" d="M12,23c-1.4,0-2.9-0.3-4.3-0.9c-5.6-2.4-8.2-8.8-5.8-14.4C3,5.1,5,3,7.6,1.9c0.5-0.2,1.1,0,1.3,0.5
	s0,1.1-0.5,1.3c-2.1,1-3.8,2.7-4.7,4.8c-1.9,4.6,0.2,9.9,4.8,11.8s9.9-0.2,11.8-4.8c0.2-0.5,0.8-0.7,1.3-0.5s0.7,0.8,0.5,1.3
	C20.4,20.5,16.3,23,12,23z"/>
<path class="pie-chart0" fill="#5C65AD" d="M22,13H12c-0.6,0-1-0.4-1-1V2c0-0.6,0.4-1,1-1c6.1,0,11,4.9,11,11C23,12.6,22.6,13,22,13z M13,11h7.9
	c-0.5-4.2-3.8-7.5-7.9-7.9V11z"/>
<path id="svg-ico" class="pie-chart1" fill="#f8b3b5" d="M13,11h7.9c-0.5-4.2-3.8-7.5-7.9-7.9V11z"/>
</svg>
