<svg version="1.1"  xmlns="http://www.w3.org/2000/svg" width="24" height="24" viewBox="0 0 24 24">
<path id="svg-ico" class="server0" fill="#f8b3b5" d="M4,15c-0.6,0-1,0.4-1,1v4c0,0.6,0.4,1,1,1h16c0.6,0,1-0.4,1-1v-4c0-0.6-0.4-1-1-1H4z"/>
<path class="server1" fill="#5C65AD" d="M20,11H4c-1.7,0-3-1.3-3-3V4c0-1.7,1.3-3,3-3h16c1.7,0,3,1.3,3,3v4C23,9.7,21.7,11,20,11z M4,3C3.4,3,3,3.4,3,4
	v4c0,0.6,0.4,1,1,1h16c0.6,0,1-0.4,1-1V4c0-0.6-0.4-1-1-1H4z"/>
<path class="server1" fill="#5C65AD" d="M20,23H4c-1.7,0-3-1.3-3-3v-4c0-1.7,1.3-3,3-3h16c1.7,0,3,1.3,3,3v4C23,21.7,21.7,23,20,23z M4,15
	c-0.6,0-1,0.4-1,1v4c0,0.6,0.4,1,1,1h16c0.6,0,1-0.4,1-1v-4c0-0.6-0.4-1-1-1H4z"/>
<path class="server1" fill="#5C65AD" d="M6,7C5.5,7,5,6.6,5,6s0.4-1,1-1l0,0c0.6,0,1,0.4,1,1S6.6,7,6,7z"/>
<path class="server1" fill="#5C65AD" d="M6,19c-0.6,0-1-0.4-1-1s0.4-1,1-1l0,0c0.6,0,1,0.4,1,1S6.6,19,6,19z"/>
</svg>
