<svg version="1.1"  xmlns="http://www.w3.org/2000/svg" width="24" height="24" viewBox="0 0 24 24">
<path id="svg-ico" class="settings0" fill="#f8b3b5" d="M20.7,11h-0.2c-1.1,0-1.9-0.6-2.3-1.5c0-0.1-0.1-0.2-0.1-0.3c-0.3-0.9-0.1-1.9,0.6-2.6c0.5-0.5,0.5-1.1,0.1-1.4
	c-0.2-0.2-0.4-0.3-0.7-0.3c-0.3,0-0.5,0.1-0.7,0.3c-0.8,0.8-1.9,1-2.9,0.6S13,4.4,13,3.4c0-0.7-0.4-1.1-1-1.1s-1,0.4-1,1v0.2
	c0,1.1-0.6,1.9-1.5,2.3c-0.1,0-0.2,0.1-0.3,0.1C8.3,6.2,7.3,6,6.6,5.4C6.1,4.9,5.6,4.9,5.2,5.3c-0.4,0.4-0.4,1,0,1.3
	c0.8,0.8,1,1.9,0.6,2.9S4.5,11,3.4,11.1H3.3c-0.6,0-1,0.4-1,1c0,0.6,0.4,1,1,1h0.2c1.1,0,1.9,0.6,2.3,1.5c0.4,1,0.2,2-0.5,2.8
	C5.1,17.7,5,17.9,5,18.2c0,0.3,0.1,0.5,0.3,0.7c0.4,0.4,1,0.4,1.3,0c0.6-0.6,1.2-0.8,1.8-0.8c0.4,0,0.7,0.1,1.1,0.2
	c1,0.4,1.5,1.2,1.6,2.3v0.1c0,0.6,0.4,1,1,1c0.6,0,1-0.4,1-1v-0.2c0-1.1,0.6-1.9,1.5-2.3c1-0.4,2-0.2,2.8,0.5
	c0.3,0.3,0.5,0.4,0.8,0.4c0.3,0,0.5-0.1,0.7-0.3c0.2-0.2,0.3-0.4,0.3-0.7c0-0.3-0.1-0.5-0.3-0.7c-0.8-0.8-1-1.9-0.6-2.9
	s1.3-1.5,2.3-1.5c0.6,0,1.1-0.4,1.1-1S21.2,11,20.7,11z M12,13.9c-1.1,0-1.9-0.9-1.9-1.9s0.9-1.9,1.9-1.9s1.9,0.9,1.9,1.9
	S13.1,13.9,12,13.9z"/>
<path class="settings1" fill="#5C65AD" d="M12,15.8c-2.1,0-3.8-1.7-3.8-3.8S9.9,8.2,12,8.2s3.8,1.7,3.8,3.8S14.1,15.8,12,15.8z M12,10.1
	c-1.1,0-1.9,0.9-1.9,1.9s0.9,1.9,1.9,1.9s1.9-0.9,1.9-1.9S13.1,10.1,12,10.1z"/>
<path class="settings1" fill="#5C65AD" d="M20.7,14.9c1.6,0,2.9-1.2,2.9-2.9s-1.2-2.9-2.9-2.9h-0.2c-0.2,0-0.4-0.1-0.5-0.2c-0.1-0.1-0.1-0.1-0.1-0.2
	c-0.1-0.3,0-0.6,0.2-0.8c1.2-1.1,1.2-2.9,0-4c-0.6-0.6-1.2-0.9-2-0.9c-0.8,0-1.5,0.3-2.1,0.9c-0.2,0.2-0.4,0.2-0.7,0.1
	c-0.2-0.1-0.4-0.4-0.4-0.7c0-1.6-1.2-2.9-2.9-2.9S9.1,1.7,9.1,3.3v0.2C9.1,3.7,9,3.9,8.8,4C8.7,4.1,8.7,4.1,8.6,4.1
	c-0.2,0.1-0.5,0-0.8-0.2c-1.1-1.2-2.9-1.2-4,0c-1.2,1.2-1.2,3,0.1,4.1C4.1,8.3,4.1,8.5,4,8.8C3.9,9,3.6,9.2,3.3,9.2
	c-1.6,0-2.9,1.2-2.9,2.9c0,1.6,1.2,2.9,2.9,2.9h0.2c0.3,0,0.5,0.2,0.6,0.4c0.1,0.3,0,0.6-0.2,0.8c-0.6,0.5-0.9,1.2-0.9,2
	c0,0.8,0.3,1.4,0.9,2c1.2,1.1,3,1.1,4.1-0.1c0.2-0.2,0.5-0.2,0.8-0.1c0.2,0.1,0.4,0.4,0.4,0.7c0,1.6,1.2,2.9,2.9,2.9
	c1.5,0,2.9-1.2,2.9-2.9v-0.2c0-0.3,0.2-0.5,0.4-0.6c0.3-0.1,0.6,0,0.8,0.2c1.1,1.2,2.9,1.2,4,0c1.1-1.2,1.1-3-0.1-4.1
	c-0.2-0.2-0.2-0.5-0.1-0.7C20.1,15.1,20.4,14.9,20.7,14.9z M18.8,17.4c0.2,0.2,0.3,0.4,0.3,0.7c0,0.3-0.1,0.5-0.3,0.7
	c-0.2,0.2-0.4,0.3-0.7,0.3c-0.3,0-0.5-0.1-0.8-0.4c-0.8-0.7-1.8-0.9-2.8-0.5c-1,0.4-1.5,1.2-1.5,2.3v0.2c0,0.6-0.4,1-1,1
	c-0.6,0-1-0.4-1-1v-0.1c-0.1-1.1-0.7-1.9-1.6-2.3c-0.4-0.1-0.7-0.2-1.1-0.2c-0.6,0-1.2,0.2-1.8,0.8c-0.4,0.4-1,0.4-1.3,0
	C5.1,18.6,5,18.4,5,18.2c0-0.3,0.1-0.5,0.4-0.8c0.7-0.8,0.9-1.8,0.5-2.8c-0.4-1-1.2-1.5-2.3-1.5H3.3c-0.6,0-1-0.4-1-1
	c0-0.6,0.4-1,1-1h0.1c1.1-0.1,1.9-0.7,2.3-1.6s0.2-2.1-0.6-2.9c-0.4-0.4-0.4-1,0-1.3c0.4-0.4,1-0.4,1.4,0.1C7.3,6,8.3,6.2,9.2,5.9
	c0.1,0,0.2-0.1,0.3-0.1c1-0.4,1.5-1.2,1.5-2.3V3.3c0-0.6,0.4-1,1-1s1,0.4,1,1.1c0,1,0.6,1.9,1.5,2.3s2.1,0.2,2.9-0.6
	c0.2-0.2,0.4-0.3,0.7-0.3c0.3,0,0.5,0.1,0.7,0.3c0.4,0.4,0.4,1-0.1,1.4c-0.7,0.7-0.9,1.7-0.6,2.6c0,0.1,0.1,0.2,0.1,0.3
	c0.4,1,1.2,1.5,2.3,1.5h0.2c0.6,0,1,0.4,1,1s-0.5,1-1.1,1c-1,0-1.9,0.6-2.3,1.5S18.1,16.6,18.8,17.4z"/>
</svg>
