<svg version="1.1"  xmlns="http://www.w3.org/2000/svg" width="24" height="24" viewBox="0 0 24 24">
<path id="svg-ico" class="shop0" fill="#f8b3b5" d="M19.6,19.3h-2.1v-5.4c0-1.2-1-2.2-2.2-2.2h-1.4c-1.2,0-2.2,1-2.2,2.2v5.4H4.5c-0.3,0-0.6-0.3-0.6-0.5v-8.2
	c0.1,0,0.2,0,0.3,0c1.1,0,2-0.4,2.7-0.9c0.6,0.5,1.5,1,2.6,1c0.9,0,1.8-0.4,2.5-0.9c0.6,0.5,1.5,0.9,2.4,0.9c1.1,0,2-0.5,2.6-1
	c0.7,0.5,1.7,0.9,2.7,0.9c0.1,0,0.3,0,0.4,0c0,0,0,7.9,0,8.2S19.9,19.3,19.6,19.3z"/>
<g>
	<path class="shop1" fill="#5C65AD" d="M23.4,7.7c0-0.4-0.1-0.7-0.2-1.1l-1-3.1c-0.1-0.4-0.5-0.6-0.9-0.6h-8.6l0,0H2.8C2.4,2.9,2,3.1,1.9,3.5l-1,3.1
		c-0.1,0.3-0.3,0.6-0.3,1c0,1,0.6,1.8,1.4,2.3v8.8c0,1.3,1.2,2.4,2.5,2.4h15.1c1.3,0,2.4-1.1,2.4-2.4V9.9
		C22.8,9.4,23.4,8.6,23.4,7.7z M2.6,7.2l0.8-2.5h9.2l0,0h7.9l0.8,2.5c0.1,0.2,0.1,0.3,0.1,0.4c0,0.5-0.8,1-1.7,1
		c-1,0-1.8-0.6-1.9-0.9c-0.2-0.3-0.4-0.4-0.7-0.4c-0.3,0-0.6,0.1-0.8,0.4c-0.2,0.3-0.9,1-1.9,1c-0.7,0-1.4-0.6-1.5-0.8l0,0
		c-0.1-0.2-0.2-0.4-0.5-0.5c-0.4-0.2-0.8-0.1-1.1,0.2c0,0,0,0,0,0.1s-0.1,0.1-0.1,0.2c-0.1,0.2-1,0.8-1.6,0.8c-0.8,0-1.6-0.6-1.9-1
		C7.5,7.5,7.2,7.4,6.9,7.4c-0.3,0-0.6,0.2-0.7,0.4c-0.2,0.3-1,0.9-2,0.9c-0.9,0-1.7-0.5-1.7-1C2.5,7.5,2.5,7.4,2.6,7.2z M15.6,19.3
		h-2v-5.4c0-0.2,0.2-0.3,0.3-0.3h1.4c0.2,0,0.3,0.1,0.3,0.3V19.3z M19.6,19.3h-2.1v-5.4c0-1.2-1-2.2-2.2-2.2h-1.4
		c-1.2,0-2.2,1-2.2,2.2v5.4H4.5c-0.3,0-0.6-0.3-0.6-0.5v-8.2c0.1,0,0.2,0,0.3,0c1.1,0,2-0.4,2.7-0.9c0.6,0.5,1.5,1,2.6,1
		c0.9,0,1.8-0.4,2.5-0.9c0.6,0.5,1.5,0.9,2.4,0.9c1.1,0,2-0.5,2.6-1c0.7,0.5,1.7,0.9,2.7,0.9c0.1,0,0.3,0,0.4,0c0,0,0,7.9,0,8.2
		S19.9,19.3,19.6,19.3z"/>
</g>
</svg>
