<svg version="1.1"  xmlns="http://www.w3.org/2000/svg" width="24" height="24" viewBox="0 0 24 24">
<g>
	<circle class="shop-cart0" fill="#5C65AD" cx="9.1" cy="21.1" r="1.9"/>
	<circle class="shop-cart0" fill="#5C65AD" cx="19.7" cy="21.1" r="1.9"/>
	<path class="shop-cart0" fill="#5C65AD" d="M9.7,17.3c-1.3,0-2.5-1-2.8-2.3l-1.6-8V6.8L4.5,2.9H1.5c-0.6,0-1-0.4-1-1s0.4-1,1-1h3.8c0.5,0,0.9,0.3,1,0.8
		l0.8,4h15.5c0.3,0,0.6,0.1,0.8,0.4c0.2,0.2,0.2,0.5,0.2,0.8l-1.5,8c-0.3,1.3-1.5,2.3-2.9,2.3H9.7C9.8,17.3,9.7,17.3,9.7,17.3z
		 M7.4,7.7l1.3,6.9c0.1,0.5,0.5,0.8,1,0.8H19c0.5,0,0.9-0.3,1-0.8l1.4-6.9H7.4z"/>
</g>
<path id="svg-ico" class="shop-cart1" fill="#f8b3b5" d="M7.4,7.7l1.3,6.9c0.1,0.5,0.5,0.8,1,0.8H19c0.5,0,0.9-0.3,1-0.8l1.4-6.9H7.4z"/>
</svg>
