<svg version="1.1"  xmlns="http://www.w3.org/2000/svg" width="24" height="24" viewBox="0 0 24 24">
<path id="svg-ico" class="up-cloud0" fill="#f8b3b5" d="M18.6,17c0.7-0.5,1.2-1.2,1.3-2.1c0.1-0.9-0.1-1.7-0.6-2.5c-0.6-0.9-1.7-1.4-2.7-1.4l0,0h-1.1
	c-0.4,0-0.7-0.2-0.8-0.7c-0.8-3.1-4-5-7-4.1C6.2,6.6,5,7.5,4.3,8.8c-0.8,1.3-1.1,2.9-0.7,4.4C3.9,14.1,5,16.1,7.2,17H18.6z"/>
<path d="M16,17c-0.3,0-0.5-0.1-0.7-0.3L12,13.4l-3.3,3.3c-0.4,0.4-1,0.4-1.4,0s-0.4-1,0-1.4l4-4c0.4-0.4,1-0.4,1.4,0l4,4
	c0.4,0.4,0.4,1,0,1.4C16.5,16.9,16.3,17,16,17z"/>
<path class="up-cloud1" fill="#5C65AD" d="M20.4,19.4c-0.4,0-0.7-0.2-0.9-0.5c-0.3-0.5-0.1-1.1,0.4-1.4c0.9-0.5,1.6-1.4,1.9-2.4s0.2-2.1-0.3-3
	c-0.7-1.3-2-2.1-3.5-2.1h-1.3c-0.5,0-0.9-0.3-1-0.7c-1-3.7-4.8-6-8.5-5C5.4,4.7,3.9,5.8,3,7.4c-1,1.7-1.3,3.5-0.8,5.4
	c0.3,1.1,0.8,2.1,1.5,2.9c0.4,0.4,0.3,1-0.1,1.4s-1,0.3-1.4-0.1c-0.9-1.1-1.6-2.3-2-3.7c-0.6-2.3-0.3-4.7,1-6.8S4.4,3,6.7,2.4
	c4.6-1.2,9.2,1.4,10.7,5.7H18c2.2,0,4.2,1.2,5.3,3.1c0.8,1.4,0.9,3,0.5,4.6c-0.5,1.5-1.5,2.8-2.9,3.6C20.7,19.4,20.6,19.4,20.4,19.4
	z"/>
<path class="up-cloud1" fill="#5C65AD" d="M16.7,15.3l-3.9-3.9C12.6,11.2,12.4,11,12,11s-0.6,0.2-0.8,0.4l-3.9,3.9c-0.4,0.4-0.4,1,0,1.4
	c0.4,0.4,1,0.4,1.4,0l2.3-2.3V21c0,0.6,0.4,1,1,1s1-0.4,1-1v-6.6l2.3,2.3c0.2,0.2,0.4,0.3,0.7,0.3s0.5-0.1,0.7-0.3
	C17.1,16.3,17.1,15.7,16.7,15.3z"/>
</svg>
