<svg width="248" height="40" viewBox="0 0 248 40" fill="none" xmlns="http://www.w3.org/2000/svg">
<path d="M63.2092 20.3582V3.87232H65.9797V20.3582H63.2092ZM52.0319 20.3582V3.87232H54.8023V20.3582H52.0319ZM54.2053 13.1515V10.6551H64.3317V13.1515H54.2053Z" fill="#18181B"/>
<path d="M78.3272 20.6408C76.6713 20.6408 75.2065 20.2797 73.9327 19.5575C72.659 18.8352 71.6559 17.8304 70.9235 16.5429C70.207 15.2554 69.8487 13.7795 69.8487 12.1153C69.8487 10.451 70.207 8.98294 70.9235 7.71118C71.6559 6.42371 72.651 5.41885 73.9089 4.69662C75.1667 3.95868 76.6156 3.58971 78.2556 3.58971C79.9115 3.58971 81.3684 3.95868 82.6262 4.69662C83.9 5.41885 84.8872 6.42371 85.5877 7.71118C86.3042 8.98294 86.6625 10.451 86.6625 12.1153C86.6625 13.7795 86.3042 15.2554 85.5877 16.5429C84.8872 17.8304 83.9079 18.8352 82.6501 19.5575C81.4082 20.2797 79.9672 20.6408 78.3272 20.6408ZM78.3272 18.1444C79.41 18.1444 80.3653 17.8853 81.1932 17.3672C82.0212 16.8491 82.666 16.1425 83.1278 15.2476C83.6054 14.3369 83.8443 13.2928 83.8443 12.1153C83.8443 10.9534 83.6054 9.91714 83.1278 9.00649C82.6501 8.09585 81.9893 7.38931 81.1455 6.88688C80.3175 6.36875 79.3542 6.10969 78.2556 6.10969C77.1729 6.10969 76.2096 6.36875 75.3657 6.88688C74.5378 7.38931 73.877 8.09585 73.3834 9.00649C72.9058 9.90144 72.6669 10.9377 72.6669 12.1153C72.6669 13.2928 72.9058 14.3369 73.3834 15.2476C73.877 16.1425 74.5457 16.8491 75.3896 17.3672C76.2494 17.8853 77.2286 18.1444 78.3272 18.1444Z" fill="#18181B"/>
<path d="M96.0534 20.6408C95.1777 20.6408 94.3736 20.5388 93.6412 20.3346C92.9247 20.1305 92.2878 19.8479 91.7306 19.4868C91.1892 19.1257 90.7354 18.7253 90.3692 18.2857C90.0189 17.8304 89.7721 17.3593 89.6288 16.8726L92.3515 16.0483C92.5585 16.6292 92.9645 17.1395 93.5696 17.5792C94.1746 18.0188 94.9229 18.2464 95.8146 18.2621C96.8495 18.2621 97.6695 18.0502 98.2745 17.6263C98.8796 17.2023 99.1821 16.6449 99.1821 15.9541C99.1821 15.3261 98.9273 14.8158 98.4178 14.4233C97.9083 14.0151 97.2237 13.701 96.3639 13.4812L94.3099 12.9631C93.5297 12.759 92.8212 12.4607 92.1843 12.0682C91.5634 11.6756 91.0698 11.1811 90.7036 10.5844C90.3533 9.9878 90.1781 9.28126 90.1781 8.46482C90.1781 6.92613 90.6877 5.73287 91.7067 4.88503C92.7257 4.02148 94.1826 3.58971 96.0773 3.58971C97.1441 3.58971 98.0755 3.75457 98.8716 4.08428C99.6836 4.3983 100.352 4.83792 100.878 5.40315C101.403 5.95268 101.793 6.58071 102.048 7.28725L99.3732 8.1351C99.1343 7.50706 98.7204 6.98894 98.1312 6.58072C97.5421 6.17249 96.8097 5.96838 95.934 5.96838C95.0264 5.96838 94.3099 6.18034 93.7845 6.60427C93.275 7.02819 93.0202 7.61697 93.0202 8.37061C93.0202 8.98294 93.2193 9.46182 93.6173 9.80724C94.0313 10.137 94.5886 10.3882 95.2891 10.5609L97.3431 11.0555C98.8398 11.4166 100.002 12.0368 100.83 12.916C101.658 13.7952 102.072 14.7687 102.072 15.8364C102.072 16.7784 101.841 17.6105 101.379 18.3328C100.918 19.055 100.233 19.6203 99.3254 20.0285C98.4338 20.4367 97.3431 20.6408 96.0534 20.6408Z" fill="#18181B"/>
<path d="M109.556 20.3582V6.36875H104.421V3.87232H117.461V6.36875H112.326V20.3582H109.556Z" fill="#18181B"/>
<path d="M120.716 20.3582V3.87232H123.486V20.3582H120.716Z" fill="#18181B"/>
<path d="M128.411 20.3582V3.87232H131.277L140.162 15.7893V3.87232H142.932V20.3582H140.162L131.182 8.29996V20.3582H128.411Z" fill="#18181B"/>
<path d="M155.529 20.6408C153.841 20.6408 152.336 20.2797 151.015 19.5575C149.709 18.8195 148.682 17.8147 147.934 16.5429C147.185 15.2554 146.811 13.7874 146.811 12.1388C146.811 10.4588 147.185 8.98294 147.934 7.71118C148.682 6.42371 149.709 5.41885 151.015 4.69662C152.336 3.95868 153.841 3.58971 155.529 3.58971C156.5 3.58971 157.407 3.73886 158.251 4.03718C159.111 4.3355 159.883 4.74372 160.568 5.26185C161.253 5.76427 161.81 6.35305 162.24 7.02819L159.995 8.44126C159.692 7.98594 159.302 7.57772 158.825 7.2166C158.347 6.85548 157.821 6.58071 157.248 6.3923C156.691 6.18819 156.118 6.08614 155.529 6.08614C154.382 6.08614 153.363 6.3452 152.472 6.86333C151.596 7.38146 150.903 8.09585 150.394 9.00649C149.884 9.90144 149.629 10.9455 149.629 12.1388C149.629 13.3007 149.876 14.3369 150.37 15.2476C150.879 16.1582 151.58 16.8726 152.472 17.3907C153.379 17.9089 154.422 18.1679 155.6 18.1679C156.524 18.1679 157.352 17.9795 158.084 17.6027C158.817 17.2259 159.39 16.6999 159.804 16.0248C160.234 15.3496 160.449 14.5724 160.449 13.6932L163.1 13.3635C163.1 14.8551 162.773 16.1504 162.12 17.2494C161.484 18.3328 160.592 19.1728 159.445 19.7694C158.315 20.3503 157.009 20.6408 155.529 20.6408ZM156.436 13.9052V11.6913H163.1V13.5283L161.619 13.9052H156.436Z" fill="#18181B"/>
<path d="M167.783 20.3582V3.87232H174.709C175.967 3.87232 177.082 4.11568 178.053 4.60241C179.024 5.08914 179.78 5.76427 180.322 6.62782C180.879 7.49136 181.158 8.48837 181.158 9.61883C181.158 10.7493 180.879 11.7541 180.322 12.6334C179.78 13.4969 179.024 14.1799 178.053 14.6823C177.082 15.1691 175.967 15.4124 174.709 15.4124H172.201V20.3582H167.783ZM172.201 11.4087H174.59C175.195 11.4087 175.68 11.2439 176.047 10.9141C176.429 10.5844 176.62 10.1527 176.62 9.61883C176.62 9.1007 176.429 8.67678 176.047 8.34706C175.68 8.01734 175.195 7.85248 174.59 7.85248H172.201V11.4087Z" fill="#18181B"/>
<path d="M184.143 20.3582V3.87232H188.561V16.3545H195.44V20.3582H184.143Z" fill="#18181B"/>
<path d="M210.384 20.3582L204.27 3.87232H208.665L215.065 20.3582H210.384ZM197.511 20.3582L203.912 3.87232H208.306L202.192 20.3582H197.511ZM200.52 17.7205V13.8816H212.08V17.7205H200.52Z" fill="#18181B"/>
<path d="M225.114 20.6408C223.442 20.6408 221.961 20.2797 220.671 19.5575C219.398 18.8195 218.394 17.8147 217.662 16.5429C216.93 15.2554 216.563 13.7795 216.563 12.1153C216.563 10.451 216.93 8.98294 217.662 7.71118C218.394 6.42371 219.398 5.41885 220.671 4.69662C221.961 3.95868 223.442 3.58971 225.114 3.58971C226.403 3.58971 227.566 3.80952 228.601 4.24914C229.635 4.68877 230.527 5.3011 231.275 6.08614C232.024 6.87118 232.597 7.78183 232.995 8.81808L228.792 10.137C228.569 9.61883 228.282 9.17135 227.932 8.79453C227.582 8.40201 227.168 8.10369 226.69 7.89958C226.228 7.69547 225.703 7.59342 225.114 7.59342C224.333 7.59342 223.641 7.78968 223.036 8.1822C222.431 8.55902 221.953 9.085 221.603 9.76013C221.268 10.4353 221.101 11.2203 221.101 12.1153C221.101 12.9945 221.276 13.7795 221.627 14.4704C221.977 15.1455 222.455 15.6793 223.06 16.0719C223.681 16.4487 224.389 16.6371 225.185 16.6371C225.806 16.6371 226.34 16.535 226.785 16.3309C227.247 16.1111 227.637 15.8128 227.956 15.436C228.29 15.0435 228.577 14.5881 228.816 14.07L233.019 15.3889C232.637 16.4251 232.072 17.3436 231.323 18.1444C230.575 18.9294 229.675 19.5418 228.624 19.9814C227.574 20.421 226.403 20.6408 225.114 20.6408Z" fill="#18181B"/>
<path d="M236.232 20.3582V3.87232H247.433V7.87603H240.65V10.1605H246.143V14.0465H240.65V16.3545H247.6V20.3582H236.232Z" fill="#18181B"/>
<path d="M54.9884 36.6457V28.9234H52.0319V27.969H59.0587V28.9234H56.1021V36.6457H54.9884Z" fill="#18181B"/>
<path d="M66.5463 36.6457V27.969H67.6599V36.6457H66.5463ZM60.1691 36.6457V27.969H61.2961V36.6457H60.1691ZM61.1635 32.6544V31.7H66.7849V32.6544H61.1635Z" fill="#18181B"/>
<path d="M69.8605 36.6457V27.969H75.3493V28.9234H70.9874V31.7248H74.9648V32.6668H70.9874V35.6913H75.3758V36.6457H69.8605Z" fill="#18181B"/>
<path d="M80.4519 36.6457V27.969H83.4747C84.0758 27.969 84.6061 28.0847 85.0657 28.316C85.5342 28.5474 85.8966 28.8697 86.1529 29.2829C86.418 29.6961 86.5506 30.1754 86.5506 30.7207C86.5506 31.2496 86.4313 31.7206 86.1927 32.1338C85.954 32.547 85.627 32.8734 85.2116 33.1131C84.7961 33.3444 84.3144 33.4601 83.7664 33.4601H81.5788V36.6457H80.4519ZM81.5788 32.5057H83.7664C84.2526 32.5057 84.6503 32.3404 84.9597 32.0099C85.2778 31.6711 85.4369 31.2414 85.4369 30.7207C85.4369 30.1836 85.2513 29.7498 84.8801 29.4192C84.5089 29.0887 84.036 28.9234 83.4615 28.9234H81.5788V32.5057Z" fill="#18181B"/>
<path d="M87.8645 36.6457V27.969H88.9914V35.6913H93.3666V36.6457H87.8645Z" fill="#18181B"/>
<path d="M100.918 36.6457L97.192 27.969H98.3189L102.097 36.6457H100.918ZM93.3737 36.6457L97.1522 27.969H98.2924L94.5669 36.6457H93.3737ZM95.1635 34.1791V33.237H100.321V34.1791H95.1635Z" fill="#18181B"/>
<path d="M106.821 36.7945C105.937 36.7945 105.155 36.6044 104.474 36.2243C103.794 35.8359 103.259 35.307 102.87 34.6377C102.481 33.9601 102.287 33.1833 102.287 32.3074C102.287 31.4314 102.477 30.6588 102.857 29.9894C103.246 29.3118 103.776 28.7829 104.448 28.4028C105.128 28.0144 105.906 27.8202 106.781 27.8202C107.338 27.8202 107.873 27.9153 108.385 28.1053C108.898 28.2871 109.358 28.5474 109.764 28.8862C110.171 29.2168 110.485 29.601 110.706 30.039L109.738 30.4976C109.561 30.1506 109.318 29.8489 109.009 29.5928C108.699 29.3366 108.354 29.1383 107.974 28.9978C107.594 28.849 107.197 28.7747 106.781 28.7747C106.136 28.7747 105.557 28.9275 105.044 29.2333C104.532 29.5308 104.13 29.944 103.838 30.4728C103.555 31.0017 103.414 31.6132 103.414 32.3074C103.414 33.0015 103.559 33.6171 103.851 34.1543C104.143 34.6914 104.545 35.1129 105.058 35.4186C105.579 35.7161 106.167 35.8648 106.821 35.8648C107.245 35.8648 107.647 35.7863 108.027 35.6293C108.408 35.4641 108.748 35.2409 109.048 34.96C109.358 34.679 109.601 34.3567 109.778 33.9931L110.759 34.4518C110.529 34.9063 110.211 35.3112 109.804 35.6665C109.406 36.0218 108.947 36.2987 108.425 36.497C107.913 36.6953 107.378 36.7945 106.821 36.7945Z" fill="#18181B"/>
<path d="M112.2 36.6457V27.969H117.689V28.9234H113.327V31.7248H117.304V32.6668H113.327V35.6913H117.715V36.6457H112.2Z" fill="#18181B"/>
<path d="M124.661 36.6457V28.9234H121.704V27.969H128.731V28.9234H125.774V36.6457H124.661Z" fill="#18181B"/>
<path d="M133.792 36.7945C132.9 36.7945 132.108 36.6044 131.419 36.2243C130.73 35.8442 130.19 35.3153 129.802 34.6377C129.413 33.9601 129.218 33.1833 129.218 32.3074C129.218 31.4232 129.408 30.6464 129.788 29.977C130.177 29.2994 130.712 28.7705 131.393 28.3904C132.073 28.0103 132.86 27.8202 133.752 27.8202C134.645 27.8202 135.432 28.0144 136.112 28.4028C136.802 28.7829 137.337 29.3118 137.717 29.9894C138.097 30.6588 138.287 31.4314 138.287 32.3074C138.287 33.1833 138.097 33.9601 137.717 34.6377C137.337 35.3153 136.806 35.8442 136.126 36.2243C135.454 36.6044 134.676 36.7945 133.792 36.7945ZM133.792 35.84C134.455 35.84 135.038 35.6913 135.542 35.3938C136.046 35.0881 136.439 34.6707 136.722 34.1419C137.014 33.613 137.16 33.0015 137.16 32.3074C137.16 31.6215 137.014 31.0141 136.722 30.4852C136.431 29.9481 136.028 29.5308 135.516 29.2333C135.012 28.9275 134.424 28.7747 133.752 28.7747C133.09 28.7747 132.502 28.9275 131.989 29.2333C131.477 29.5308 131.074 29.9481 130.783 30.4852C130.491 31.0141 130.345 31.6215 130.345 32.3074C130.345 33.0015 130.491 33.613 130.783 34.1419C131.074 34.6707 131.481 35.0881 132.002 35.3938C132.524 35.6913 133.12 35.84 133.792 35.84Z" fill="#18181B"/>
<path d="M142.88 36.6457V27.969H145.81C146.446 27.969 146.99 28.0599 147.441 28.2417C147.891 28.4235 148.241 28.692 148.488 29.0474C148.735 29.3944 148.859 29.82 148.859 30.3241C148.859 30.7455 148.758 31.1174 148.554 31.4397C148.351 31.7537 148.064 32.0099 147.693 32.2082C148.152 32.4148 148.506 32.6916 148.753 33.0387C149.009 33.3858 149.138 33.7989 149.138 34.2782C149.138 34.7823 149.018 35.212 148.78 35.5673C148.541 35.9144 148.201 36.183 147.759 36.373C147.326 36.5548 146.804 36.6457 146.194 36.6457H142.88ZM143.993 35.7037H146.141C146.725 35.7037 147.18 35.5756 147.507 35.3194C147.843 35.055 148.011 34.6955 148.011 34.241C148.011 33.7535 147.821 33.3734 147.441 33.1007C147.061 32.8197 146.53 32.6792 145.85 32.6792H143.993V35.7037ZM143.993 31.7744H146.088C146.601 31.7744 147.003 31.6463 147.295 31.3901C147.586 31.1339 147.732 30.7786 147.732 30.3241C147.732 29.8531 147.56 29.4936 147.215 29.2457C146.879 28.9895 146.402 28.8614 145.783 28.8614H143.993V31.7744Z" fill="#18181B"/>
<path d="M150.72 36.6457V27.969H156.209V28.9234H151.847V31.7248H155.824V32.6668H151.847V35.6913H156.235V36.6457H150.72Z" fill="#18181B"/>
<path d="M167.688 36.6457V27.969H168.802V36.6457H167.688ZM161.311 36.6457V27.969H162.438V36.6457H161.311ZM162.305 32.6544V31.7H167.927V32.6544H162.305Z" fill="#18181B"/>
<path d="M174.953 36.7945C174.061 36.7945 173.27 36.6044 172.58 36.2243C171.891 35.8442 171.352 35.3153 170.963 34.6377C170.574 33.9601 170.379 33.1833 170.379 32.3074C170.379 31.4232 170.569 30.6464 170.949 29.977C171.338 29.2994 171.873 28.7705 172.554 28.3904C173.234 28.0103 174.021 27.8202 174.914 27.8202C175.806 27.8202 176.593 28.0144 177.274 28.4028C177.963 28.7829 178.498 29.3118 178.878 29.9894C179.258 30.6588 179.448 31.4314 179.448 32.3074C179.448 33.1833 179.258 33.9601 178.878 34.6377C178.498 35.3153 177.967 35.8442 177.287 36.2243C176.615 36.6044 175.837 36.7945 174.953 36.7945ZM174.953 35.84C175.616 35.84 176.2 35.6913 176.703 35.3938C177.207 35.0881 177.601 34.6707 177.883 34.1419C178.175 33.613 178.321 33.0015 178.321 32.3074C178.321 31.6215 178.175 31.0141 177.883 30.4852C177.592 29.9481 177.19 29.5308 176.677 29.2333C176.173 28.9275 175.585 28.7747 174.914 28.7747C174.251 28.7747 173.663 28.9275 173.15 29.2333C172.638 29.5308 172.235 29.9481 171.944 30.4852C171.652 31.0141 171.506 31.6215 171.506 32.3074C171.506 33.0015 171.652 33.613 171.944 34.1419C172.235 34.6707 172.642 35.0881 173.164 35.3938C173.685 35.6913 174.282 35.84 174.953 35.84Z" fill="#18181B"/>
<path d="M184 36.7945C183.488 36.7945 183.032 36.7449 182.635 36.6457C182.237 36.5383 181.892 36.3937 181.601 36.2119C181.309 36.0218 181.07 35.8153 180.885 35.5921C180.699 35.3608 180.562 35.117 180.474 34.8608L181.548 34.5137C181.68 34.8773 181.945 35.1955 182.343 35.4682C182.75 35.7326 183.245 35.8648 183.828 35.8648C184.544 35.8648 185.105 35.7326 185.512 35.4682C185.918 35.2038 186.122 34.8526 186.122 34.4146C186.122 34.0097 185.94 33.6832 185.578 33.4353C185.216 33.1792 184.738 32.9808 184.146 32.8404L183.125 32.5925C182.71 32.4933 182.325 32.3487 181.972 32.1586C181.627 31.9603 181.349 31.7124 181.137 31.4149C180.933 31.1091 180.832 30.7455 180.832 30.3241C180.832 29.5391 181.101 28.9275 181.64 28.4896C182.188 28.0433 182.975 27.8202 184 27.8202C184.61 27.8202 185.136 27.9153 185.578 28.1053C186.02 28.2871 186.378 28.5226 186.652 28.8119C186.935 29.0928 187.134 29.3986 187.248 29.7291L186.188 30.0762C186.02 29.663 185.737 29.3407 185.339 29.1093C184.942 28.8697 184.46 28.7499 183.894 28.7499C183.302 28.7499 182.829 28.8862 182.476 29.1589C182.131 29.4234 181.959 29.787 181.959 30.2497C181.959 30.6464 182.096 30.9521 182.37 31.167C182.644 31.3736 183.001 31.5265 183.443 31.6256L184.464 31.8611C185.366 32.0595 186.055 32.39 186.533 32.8528C187.019 33.3073 187.262 33.7989 187.262 34.3278C187.262 34.7823 187.138 35.1996 186.891 35.5797C186.643 35.9516 186.276 36.2491 185.79 36.4722C185.313 36.6871 184.716 36.7945 184 36.7945Z" fill="#18181B"/>
<path d="M190.779 36.6457V28.9234H187.822V27.969H194.849V28.9234H191.892V36.6457H190.779Z" fill="#18181B"/>
<path d="M195.959 36.6457V27.969H201.448V28.9234H197.086V31.7248H201.064V32.6668H197.086V35.6913H201.475V36.6457H195.959Z" fill="#18181B"/>
<path d="M203.54 36.6457V27.969H206.364C207.239 27.969 208.008 28.1549 208.671 28.5268C209.343 28.8904 209.869 29.3986 210.249 30.0514C210.629 30.7042 210.819 31.4562 210.819 32.3074C210.819 33.1502 210.629 33.8981 210.249 34.5509C209.869 35.2038 209.343 35.7161 208.671 36.088C208.008 36.4598 207.239 36.6457 206.364 36.6457H203.54ZM204.667 35.6789H206.364C206.833 35.6789 207.266 35.5963 207.663 35.431C208.061 35.2575 208.41 35.0137 208.711 34.6997C209.02 34.3857 209.259 34.0262 209.427 33.6213C209.604 33.2081 209.692 32.7701 209.692 32.3074C209.692 31.8446 209.604 31.4108 209.427 31.0058C209.259 30.5927 209.02 30.2291 208.711 29.915C208.41 29.601 208.061 29.3614 207.663 29.1961C207.266 29.0226 206.833 28.9358 206.364 28.9358H204.667V35.6789Z" fill="#18181B"/>
<path fill-rule="evenodd" clip-rule="evenodd" d="M1.60439 5.20071C0 7.81978 0 11.385 0 18.5155V21.4199C0 28.5505 0 32.1157 1.60439 34.7348C2.50213 36.2003 3.73384 37.4325 5.19882 38.3305C7.81694 39.9355 11.3809 39.9355 18.5088 39.9355H21.4122C28.5401 39.9355 32.1041 39.9355 34.7222 38.3305C36.1872 37.4325 37.4189 36.2003 38.3166 34.7348C39.921 32.1157 39.921 28.5505 39.921 21.4199V18.5155C39.921 11.385 39.921 7.81978 38.3166 5.20071C37.4189 3.73519 36.1872 2.50304 34.7222 1.60497C32.1041 0 28.5401 0 21.4122 0H18.5088C11.3809 0 7.81694 0 5.19882 1.60497C3.73384 2.50304 2.50213 3.73519 1.60439 5.20071ZM30.5849 25.1992C30.6825 24.9062 30.6599 24.5864 30.5219 24.31L30.5231 24.3089C30.3848 24.0327 30.1427 23.8227 29.8498 23.725C29.5568 23.6273 29.2371 23.65 28.9609 23.788L20.161 28.1872L11.3622 23.7891C11.0874 23.6621 10.774 23.6471 10.4883 23.7473C10.2026 23.8475 9.96715 24.055 9.83176 24.3259C9.69638 24.5968 9.67172 24.9097 9.763 25.1985C9.85428 25.4872 10.0543 25.729 10.3208 25.8728L19.6403 30.5342C19.802 30.615 19.9802 30.6571 20.161 30.6571C20.3417 30.6571 20.52 30.615 20.6817 30.5342L30.0012 25.8728C30.2773 25.7345 30.4872 25.4923 30.5849 25.1992ZM30.586 20.5366C30.6837 20.2436 30.661 19.9238 30.5231 19.6475C30.3848 19.3713 30.1427 19.1612 29.8498 19.0636C29.5568 18.9659 29.2371 18.9885 28.9609 19.1265L20.161 23.5258L11.3634 19.1265C11.0886 18.9995 10.7751 18.9846 10.4895 19.0847C10.2038 19.1849 9.96831 19.3924 9.83293 19.6633C9.69755 19.9342 9.67288 20.2471 9.76416 20.5359C9.85544 20.8246 10.0555 21.0665 10.322 21.2102L19.6414 25.8716C19.8031 25.9524 19.9814 25.9945 20.1621 25.9945C20.3429 25.9945 20.5212 25.9524 20.6829 25.8716L30.0023 21.2102C30.2784 21.0719 30.4884 20.8297 30.586 20.5366ZM20.2996 9.68949C20.2569 9.68405 20.2138 9.68133 20.1703 9.68133L20.0864 9.68366L20.0212 9.68949L19.893 9.7128L19.7929 9.74076L19.7777 9.74776L19.7649 9.75009L19.674 9.78738L19.6531 9.79903L19.6403 9.80486L10.3208 14.4663C10.1275 14.5632 9.96506 14.7119 9.85151 14.8959C9.73796 15.0799 9.67782 15.2919 9.67782 15.5081C9.67782 15.7243 9.73796 15.9363 9.85151 16.1203C9.96506 16.3043 10.1275 16.4531 10.3208 16.5499L19.6403 21.2114C19.802 21.2922 19.9802 21.3343 20.161 21.3343C20.3417 21.3343 20.52 21.2922 20.6817 21.2114L30.0012 16.5499C30.1944 16.4531 30.3569 16.3043 30.4705 16.1203C30.584 15.9363 30.6441 15.7243 30.6441 15.5081C30.6441 15.2919 30.584 15.0799 30.4705 14.8959C30.3569 14.7119 30.1944 14.5632 30.0012 14.4663L20.6817 9.80486L20.6677 9.79903L20.6491 9.78854L20.5908 9.7664L20.5571 9.75009L20.5431 9.74776L20.5291 9.74076L20.4289 9.7128L20.2996 9.68949Z" fill="#18181B"/>
</svg>
