<svg width="32" height="32" viewBox="0 0 32 32" fill="none" xmlns="http://www.w3.org/2000/svg">
<path fill-rule="evenodd" clip-rule="evenodd" d="M16 23.5997C16.44 23.5997 16.8 23.2397 16.8 22.7997V21.6083H18C18.44 21.6083 18.8 21.2483 18.8 20.8083C18.8 20.3683 18.44 20.0083 18 20.0083H16.8V18.7997C16.8 18.3597 16.44 17.9997 16 17.9997C15.56 17.9997 15.2 18.3597 15.2 18.7997V20.0083H14C13.56 20.0083 13.2 20.3683 13.2 20.8083C13.2 21.2483 13.56 21.6083 14 21.6083H15.2V22.7997C15.2 23.2397 15.56 23.5997 16 23.5997ZM22.4 9.59971C22.4 6.06521 19.535 3.19971 16 3.19971C12.465 3.19971 9.59999 6.06521 9.59999 9.59971V12.7997H8.79999C6.59099 12.7997 4.79999 14.5897 4.79999 16.7997V24.7997C4.79999 27.0097 6.59099 28.7997 8.79999 28.7997H23.2C25.41 28.7997 27.2 27.0097 27.2 24.7997V16.7997C27.2 14.5897 25.41 12.7997 23.2 12.7997H22.4V9.59971ZM11.2 9.59971C11.2 6.94871 13.305 4.79971 16 4.79971C18.65 4.79971 20.8 6.94871 20.8 9.59971V12.7997H11.2V9.59971ZM6.39999 16.7997C6.39999 15.4747 7.47449 14.3997 8.79999 14.3997H23.2C24.525 14.3997 25.6 15.4747 25.6 16.7997V24.7997C25.6 26.1247 24.525 27.1997 23.2 27.1997H8.79999C7.47449 27.1997 6.39999 26.1247 6.39999 24.7997V16.7997Z" fill="#4580ff"/>
</svg>
