<svg width="555" height="555" viewBox="0 0 555 555" fill="none" xmlns="http://www.w3.org/2000/svg">
<path d="M277 473C384.695 473 472 385.695 472 278C472 170.304 384.695 83 277 83C169.304 83 82 170.304 82 278C82 385.695 169.304 473 277 473Z" fill="#E3E3E3"/>
<mask id="mask0_16_3120" style="mask-type:alpha" maskUnits="userSpaceOnUse" x="82" y="83" width="391" height="390">
<path d="M277.428 473C385.123 473 472.428 385.695 472.428 278C472.428 170.304 385.123 83 277.428 83C169.732 83 82.4277 170.304 82.4277 278C82.4277 385.695 169.732 473 277.428 473Z" fill="#F8F8F8"/>
</mask>
<g mask="url(#mask0_16_3120)">
<path d="M186.454 231.437C183.833 226.872 172.165 222.982 172.165 222.982C172.165 222.982 173.433 211.906 168.275 211.906C163.118 211.906 145.531 215.795 150.097 209.285C154.662 202.774 158.552 206.664 161.173 196.94C163.794 187.217 170.896 192.459 163.118 185.019C155.339 177.494 153.986 176.225 147.56 169.038C141.134 161.852 139.781 147.647 128.705 147.647C128.705 147.647 128.282 147.816 127.521 148.239C93.5317 186.372 72.9857 236.51 72.9857 291.553C72.9857 306.012 74.4231 320.132 77.1288 333.829C80.5954 334.759 88.5432 336.366 91.0797 333.322C94.2927 329.432 87.8668 318.356 91.7562 318.356C95.6455 318.356 98.8585 321.738 106.045 323.007C113.148 324.19 126.845 316.412 128.79 309.901C130.734 303.391 123.632 301.446 137.921 299.501C152.21 297.557 156.776 302.714 163.287 295.612C169.797 288.51 168.444 272.276 177.576 267.71C186.707 263.144 201.588 255.365 201.588 248.855C201.419 242.429 189.075 235.919 186.454 231.437Z" fill="#F8F8F8"/>
<path d="M197.532 98.2717C198.631 97.7644 200.153 95.9888 201.759 94.1287C179.776 103.852 159.653 117.127 142.235 133.191C145.279 134.291 154.072 133.276 161.174 133.276C171.574 133.276 180.621 136.489 185.187 147.565C189.753 158.641 201.421 149.425 201.421 149.425C201.421 149.425 202.097 131.923 206.579 130.655C211.144 129.387 225.434 143.676 228.647 147.565C231.859 151.455 240.315 148.242 242.259 147.565C244.204 146.889 246.825 130.655 249.362 124.821C251.983 118.987 241.583 122.876 238.285 119.663C234.988 116.45 245.388 109.94 244.796 104.698C244.204 99.4554 242.175 100.808 235.664 102.076C229.154 103.345 223.32 105.289 212.328 104.698C201.252 104.021 206.494 105.966 194.826 109.263C183.242 112.561 194.911 99.6245 197.532 98.2717Z" fill="#F8F8F8"/>
<path d="M439.859 138.012C435.8 139.281 431.911 141.141 428.021 137.251C422.187 131.417 413.732 126.175 420.243 126.852C422.356 127.021 425.4 127.359 428.444 127.443C416.184 116.959 402.741 107.912 388.282 100.302C384.816 99.7106 381.011 99.8797 376.699 101.486C364.354 106.052 342.286 118.566 342.286 120.764C342.286 122.962 342.963 132.686 348.797 134.63C354.631 136.575 350.741 146.975 360.465 144.354C370.188 141.733 376.699 140.464 376.699 135.222C376.699 130.065 368.244 124.4 377.967 120.764C387.69 117.044 400.035 120.341 396.822 124.231C393.609 128.12 378.643 132.009 386.422 137.251C394.201 142.409 408.49 144.354 407.222 147.651C405.953 150.949 400.711 145.537 387.099 153.063C373.486 160.588 353.363 160.588 350.065 157.375C346.852 154.162 351.333 144.354 344.231 147.651C337.129 150.864 337.129 156.783 327.321 158.051C317.597 159.319 302.632 155.43 303.984 160.672C305.253 165.83 303.984 179.527 300.772 179.527C297.559 179.527 281.917 173.693 276.083 178.259C270.248 182.825 257.904 197.706 276.759 197.706C295.614 197.706 300.772 195.761 312.44 189.927C324.108 184.093 334.508 180.204 336.452 184.769C338.397 189.335 342.286 196.437 344.907 203.624C347.528 210.727 353.109 218.59 355.223 213.348C357.252 208.19 347.528 196.437 350.741 190.012C353.954 183.501 360.465 190.012 361.818 194.577C363.17 199.143 357.252 215.377 366.975 216.645C376.699 217.913 374.754 211.488 381.941 213.432C389.043 215.377 394.285 217.322 397.498 208.866C400.711 200.411 409.843 196.522 415 197.79C420.158 199.058 425.4 200.411 426.077 210.811C426.753 221.211 422.187 229.666 416.353 227.721C410.519 225.777 388.451 216.645 385.154 222.564C381.941 228.398 374.754 227.13 383.886 234.908C393.017 242.687 401.388 242.011 406.63 244.632C411.788 247.253 409.251 250.466 404.009 255.708C398.851 260.866 395.554 266.108 385.83 258.921C376.107 251.819 376.107 237.952 363.086 241.588C350.065 245.308 344.907 253.679 340.342 249.789C335.776 245.9 327.321 240.658 326.729 233.555C326.052 226.453 331.886 216.645 326.052 214.109C320.218 211.488 311.763 212.84 298.15 213.432C284.538 214.109 279.972 208.866 272.785 210.219C265.683 211.488 249.787 226.453 249.787 226.453C249.787 226.453 238.373 232.287 232.454 234.232C226.62 236.177 220.786 242.011 219.433 250.466C218.165 258.921 201.255 271.857 205.82 277.776C210.386 283.61 217.488 292.741 218.165 306.354C218.841 319.967 242.346 320.136 249.787 323.349C257.143 326.477 253.254 329.099 262.977 326.477C272.7 323.856 276.59 325.97 279.211 327.577C281.832 329.099 279.211 313.71 285.721 335.355C292.232 357 277.943 347.869 281.832 360.89C285.721 373.911 295.445 378.392 294.853 383.634C294.176 388.792 294.853 388.2 285.721 399.868C276.59 411.536 274.053 421.26 276.59 436.225C279.211 451.191 274.645 445.018 273.969 456.179C273.292 467.34 281.071 473.259 278.534 482.306C275.913 491.437 286.99 491.437 294.768 493.382C302.547 495.327 293.5 500.484 307.113 497.271C320.726 494.058 323.347 487.548 328.504 484.25C333.662 481.037 329.181 474.527 334.338 470.638C339.496 466.748 344.738 469.961 348.628 463.535C352.517 457.025 340.849 455.757 353.785 451.191C366.806 446.625 373.908 447.978 377.798 436.225C381.687 424.557 375.177 407.647 386.253 401.813C397.329 395.979 434.278 375.855 438.844 366.132C443.41 356.409 430.389 354.464 421.934 351.843C413.479 349.222 410.857 346.854 408.321 335.355C405.7 323.856 399.866 307.622 399.866 307.622C399.866 307.622 401.81 292.065 399.866 290.12C397.921 288.176 401.134 268.729 405.7 273.21C410.266 277.776 411.534 281.665 412.21 290.712C412.887 299.844 412.887 308.214 415.423 311.512C418.044 314.725 419.313 318.783 419.989 323.264C420.665 327.746 425.823 335.271 425.823 335.271C425.823 335.271 430.389 343.134 445.27 338.653C460.235 334.172 474.525 324.448 473.848 319.291C473.172 314.133 464.125 316.078 458.291 306.946C452.457 297.815 451.78 279.044 451.78 279.044C451.78 279.044 460.912 273.21 462.18 282.257C463.448 291.389 464.125 292.657 470.635 297.815C477.146 302.972 464.125 302.972 480.359 306.946C493.041 309.99 499.383 314.978 502.427 317.008C503.357 308.722 503.949 300.267 503.949 291.727C503.949 290.881 503.949 290.036 503.949 289.19C503.949 267.83 500.742 248.675 493.887 226.453C483.403 192.463 464.548 162.279 439.859 138.012Z" fill="#F8F8F8"/>
<path d="M399.439 452.437C394.281 463.514 390.307 468.671 390.307 475.774C390.307 482.876 377.286 488.795 385.15 492.008C392.928 495.221 408.486 486.85 414.404 474.505C420.239 462.161 432.583 445.927 426.073 438.825C426.073 438.825 404.597 441.446 399.439 452.437Z" fill="#F8F8F8"/>
</g>
<path d="M133.246 457.335L139.5 456.501L121.5 512.501L116.673 511.466C115.511 511.217 114.822 510.018 115.191 508.889L131.609 458.695C131.848 457.965 132.484 457.436 133.246 457.335Z" fill="#BCBCBC"/>
<path d="M279.734 356.336L286 355.501L268 411.501L262.728 410.446C261.546 410.21 260.84 408.99 261.224 407.847L278.103 357.681C278.346 356.958 278.979 356.437 279.734 356.336Z" fill="#BCBCBC"/>
<path d="M142.5 461.501L150.5 448.001L177.5 447.001L150 482.501L142.5 461.501Z" fill="#FFBD6E"/>
<rect x="187.915" y="220.001" width="17.7278" height="91.6474" rx="8.86391" transform="rotate(33 187.915 220.001)" fill="#FF7059"/>
<rect x="247.617" y="259.834" width="17.2777" height="102.317" rx="8.63886" transform="rotate(33 247.617 259.834)" fill="#FF7059"/>
<rect x="215.698" y="235.951" width="25.3655" height="114.419" rx="12.6828" transform="rotate(33 215.698 235.951)" fill="#FF7059"/>
<path d="M186.965 294.403L180.487 290.196C180.597 290.051 180.705 289.903 180.805 289.748C182.956 286.436 182.015 282.007 178.703 279.856C175.39 277.705 170.961 278.646 168.81 281.958C168.709 282.113 168.618 282.272 168.531 282.431L162.052 278.224L191.114 233.473L216.027 249.652L186.965 294.403Z" fill="#FF7059"/>
<path d="M225.356 308.113L218.876 303.905C218.986 303.76 219.094 303.611 219.195 303.456C221.346 300.144 220.405 295.714 217.093 293.563C213.78 291.413 209.352 292.355 207.201 295.667C207.1 295.822 207.007 295.981 206.92 296.141L200.443 291.935L223.512 256.411L248.425 272.589L225.356 308.113Z" fill="#FF7059"/>
<path d="M289 360.501L296 348.001L324.5 345.501L296.5 381.501L289 360.501Z" fill="#FFBD6E"/>
<path d="M167.966 229.367C181.797 211.727 201.05 207.001 210 207.001L272.5 247.001L246.5 295.001L171.075 244.569C165.93 241.129 164.147 234.237 167.966 229.367Z" fill="#95D1F9"/>
<path d="M258.5 260.501L149 450.501L184.652 448.186C186.454 448.069 188.107 447.146 189.154 445.674L289.5 304.501L325 297.501L296 348.001L330.249 345.687C331.995 345.569 333.603 344.694 334.651 343.292L380.003 282.619C390.387 268.727 379.374 249.105 362.106 250.733L258.5 260.501Z" fill="#4680E1"/>
<path d="M151.499 480.501C151.499 480.501 144.5 469.501 145.999 455.501L139.5 456.501L121 512.501C133 517.501 151.499 480.501 151.499 480.501Z" fill="black"/>
<path d="M297.999 379.501C297.999 379.501 291 368.501 292.499 354.501L286 355.501L267.5 411.501C279.5 416.501 297.999 379.501 297.999 379.501Z" fill="black"/>
<path d="M299.047 290.004L289.5 304.501L297 303.001L300.836 290.855C301.185 289.748 299.685 289.034 299.047 290.004Z" fill="#306DC6"/>
<path d="M434.018 74.7583L438.017 70.6025C439.178 69.3755 439.591 67.6173 439.09 66.0045L438.097 62.787C437.791 61.7954 436.358 61.8845 436.175 62.9062L435.112 68.8505L434.018 74.7583Z" fill="#FFBD6E"/>
<path d="M419.207 76.9802C420.067 77.8942 421.503 77.9312 422.417 77.072L448.326 52.5933C449.239 51.734 449.276 50.2977 448.417 49.3838C447.558 48.4699 446.122 48.4328 445.208 49.292L419.299 73.7707C418.385 74.63 418.348 76.0663 419.207 76.9802Z" fill="black"/>
<path d="M437.617 53.5652L424.141 60.4216C422.504 62.1513 421.194 64.1667 420.271 66.3623C419.002 69.3848 416.948 73.7733 414.932 75.9035L424.463 84.9236L428.374 80.791L434.051 74.7193L435.945 64.2893L430.513 69.3994L431.953 61.8316L439.437 54.7143C439.752 53.9053 438.69 52.8644 437.622 53.5692" fill="#FFBD6E"/>
<path d="M344 188.001L329.769 145.356L415.225 75.623L427.934 82.4298C428.487 82.7261 428.634 83.4528 428.239 83.9406L344 188.001Z" fill="#FF7059"/>
<path d="M226.5 120.001C226.501 152.701 236.167 162.001 245 167.501L326.001 142.001L329.501 111.501L351.501 89.5007C330.501 87.0007 333.501 102.001 305.001 111.501C266.104 124.466 245.597 99.0538 231.326 86.3805C229.449 84.7143 226.681 86.1907 226.708 88.6998C226.789 96.107 226.5 106.321 226.5 120.001Z" fill="black"/>
<path d="M204.575 220.399L255.5 254.502C256.902 252.608 262.872 243.102 264.389 241.001C287.044 209.626 320.211 157.123 293.5 144.001C269.282 132.104 228.901 176.31 209.5 201.946C208.202 203.661 205.266 208.179 202.852 211.897C201.025 214.711 201.787 218.532 204.575 220.399Z" fill="#F8F8F8"/>
<path d="M295.556 190.001L247.498 160.735C229.408 176.148 247.494 160.734 247.497 160.734L247.498 160.735C247.498 160.734 247.499 160.734 247.499 160.734C263.709 146.922 280.819 137.772 293.499 144.001C307.881 151.066 304.904 169.547 295.556 190.001Z" fill="#95D1F9"/>
<path d="M250.974 252.968L257.5 236.001L310 148.501L328.5 141.001C328.5 141.001 344 159.501 344.5 185.001C344.901 205.467 340.472 237.205 338.707 248.939C338.301 251.639 336.103 253.679 333.384 253.934L257.135 261.096C252.702 261.512 249.376 257.124 250.974 252.968Z" fill="#FF7059"/>
<path d="M325.785 142.019L330.913 135.489L344.811 141.233L344.233 161.084C344.185 162.696 342.097 163.322 341.103 162.025L325.785 142.019Z" fill="#FFBD6E"/>
<path d="M325.948 141.981L326.295 109.815C326.423 97.8729 336.406 88.4067 348.592 88.6794C360.779 88.9522 370.553 98.8565 370.424 110.803L370.291 123.237C370.153 135.968 358.882 145.695 345.964 144.237" fill="#FFBD6E"/>
<path d="M370.4 112.87L372.788 117.229C373.212 118.012 373.113 118.961 372.523 119.626L370.296 122.137L369.564 117.67L370.396 112.87L370.404 112.87L370.4 112.87Z" fill="#FFBD6E"/>
<path d="M326.443 107.476C327.752 96.661 337.209 88.425 348.588 88.6797C357.179 88.8719 364.57 93.8501 368.139 100.956C368.19 101.059 368.241 101.162 368.29 101.264C361.808 101.964 358.393 96.8165 358.202 96.5189C363.199 108.691 345.072 113.594 341.376 113.884C340.969 114.62 340.564 115.389 340.151 116.174C337.133 121.906 331.997 137.124 325.792 141.985L326.294 109.816C326.303 109.037 326.353 108.255 326.443 107.476Z" fill="black"/>
<path d="M344.129 116.909C344.156 114.349 342.064 112.228 339.452 112.17C336.84 112.111 334.703 114.137 334.675 116.697C334.648 119.258 336.74 121.378 339.352 121.437C341.964 121.495 344.101 119.47 344.129 116.909Z" fill="#FFBD6E"/>
<path d="M364.406 130.104C364.808 130.057 365.131 130.402 365.155 130.763C365.183 131.141 364.884 131.471 364.5 131.49C364.322 131.498 364.14 131.502 363.962 131.498C360.537 131.421 357.192 128.884 356.332 125.721C356.285 125.542 356.312 125.356 356.406 125.195C356.501 125.035 356.652 124.923 356.838 124.876C356.899 124.858 356.96 124.855 357.029 124.856C357.348 124.864 357.625 125.08 357.707 125.383C358.407 127.972 361.159 130.047 363.985 130.111C364.127 130.114 364.264 130.121 364.406 130.104Z" fill="black"/>
<path d="M365.025 108.642C364.689 108.635 364.355 108.477 364.136 108.186C363.773 107.699 363.878 107.023 364.371 106.673C364.456 106.608 366.547 105.144 369.618 105.351C370.229 105.389 370.7 105.911 370.665 106.509C370.627 107.107 370.116 107.563 369.498 107.521C367.251 107.368 365.705 108.43 365.686 108.443C365.491 108.581 365.255 108.648 365.025 108.642Z" fill="black"/>
<path d="M369.353 115.028C369.403 115.907 368.381 115.196 367.173 115.247C365.966 115.299 365.03 116.094 364.98 115.215C364.93 114.336 365.868 113.581 367.076 113.529C368.283 113.478 369.303 114.149 369.353 115.028Z" fill="black"/>
<path d="M354.587 123.136C356.277 123.174 357.662 121.861 357.68 120.204C357.698 118.547 356.342 117.173 354.651 117.135C352.961 117.097 351.576 118.41 351.558 120.067C351.54 121.724 352.896 123.098 354.587 123.136Z" fill="#E59A48"/>
<path fill-rule="evenodd" clip-rule="evenodd" d="M306.845 173.782C304.015 164.837 297.948 158.929 293.477 156.315L301.207 149.438C301.207 149.442 301.207 149.44 301.207 149.44C306.954 153.608 313.22 160.78 316.38 170.766C320.1 182.524 319.337 197.615 309.363 215.44L300.637 210.558C309.463 194.783 309.617 182.541 306.845 173.782Z" fill="#F8F8F8"/>
<path d="M325.267 177.687C328.373 182.359 329.832 187.214 330.542 191.176C331.385 195.178 327.941 198.984 323.898 198.457L315.345 197.398C314.119 197.247 313.322 196.031 313.673 194.846L318.401 178.871C319.252 175.505 323.491 174.883 325.267 177.687Z" fill="#FFBD6E"/>
<circle cx="259" cy="201.001" r="17" fill="#95D1F9"/>
<circle cx="259" cy="201.001" r="11" fill="#F8F8F8"/>
<path d="M256 239.5L318.376 217.909C319.262 217.602 320.04 218.57 319.543 219.364C304.341 243.659 286.228 261.283 262.221 254.5C256.054 252.757 252.5 249 252.5 249L256 239.5Z" fill="#E55041"/>
<path d="M279 171.001C295 143.801 316.333 142.501 325.999 142.001L302.999 202.501L314.5 192.501L329.305 199.468C330.443 200.004 330.811 201.443 330.067 202.456C315.124 222.795 286.751 259.35 263.999 247.501C239.999 235.001 259 205.001 279 171.001Z" fill="#FF7059"/>
<path fill-rule="evenodd" clip-rule="evenodd" d="M306.845 173.785C304.052 164.957 298.107 159.089 293.654 156.423C293.594 156.388 291.739 155.153 291.68 155.119C291.68 155.119 293.654 153.238 296 151.5C298.346 149.762 300.323 148.821 300.323 148.821C300.912 149.165 300.323 148.823 300.323 148.823C306.3 152.88 313.057 160.269 316.379 170.769C316.958 172.599 317.429 174.51 317.773 176.5L308.212 188.5C308.808 182.818 308.152 177.914 306.845 173.785Z" fill="#F8F8F8"/>
</svg>
