<svg width="32" height="32" viewBox="0 0 32 32" fill="none" xmlns="http://www.w3.org/2000/svg">
<path d="M29.8241 19.4945V17.1045C29.8241 14.9445 28.0341 13.1045 25.8241 13.1045C25.4141 13.1045 25.0241 13.1845 24.6341 13.3045C24.0741 13.4745 23.5641 13.7745 23.1441 14.1545C22.3341 14.8845 21.8241 15.9445 21.8241 17.0845V19.4845C20.9441 19.4845 20.2241 20.2445 20.2241 21.1245V27.5245C20.2241 28.4045 20.9441 29.1245 21.8241 29.1245H29.8241C30.7041 29.1245 31.4241 28.4045 31.4241 27.5245V21.1245C31.4241 20.2445 30.7041 19.4845 29.8241 19.4845V19.4945ZM23.4141 17.1045C23.4141 16.3545 23.7841 15.6745 24.3441 15.2245C24.7441 14.9045 25.2541 14.7045 25.7941 14.7045H25.8041C27.1241 14.7045 28.2041 15.8245 28.2041 17.1045V19.5045H23.4041V17.1045H23.4141ZM29.8241 27.5445H21.8241V21.1445H29.8241V27.5445Z" fill="blue"/>
<path d="M22.3259 12.4855C22.7359 12.0555 23.2659 11.7355 23.9059 11.5555C24.2559 11.4555 24.6159 11.3755 25.0359 11.3755C25.1259 11.3755 25.1959 11.3955 25.2859 11.3955C23.6759 6.26549 19.0859 2.87549 13.3759 2.87549C6.30586 2.87549 0.575865 8.60549 0.575865 15.6755C0.575865 22.7455 6.30586 28.4755 13.3759 28.4755C15.3159 28.4755 17.1059 28.0155 18.4359 27.4855V25.7255C18.0159 25.9155 17.5459 26.0855 16.9459 26.2855C17.9959 24.8755 18.8259 22.8555 19.3059 20.4655L19.5259 18.8655C19.6959 17.8355 19.7659 16.7655 19.7659 15.6655C19.7659 14.5655 19.6959 13.4955 19.5259 12.4655H22.3159L22.3259 12.4855ZM13.3759 4.48549C14.2159 4.48549 15.3959 5.20549 16.4759 7.34549C16.9659 8.33549 17.3859 9.53549 17.6359 10.8855H9.07586C9.36586 9.53549 9.78586 8.33549 10.2859 7.34549C11.3559 5.19549 12.5459 4.48549 13.3759 4.48549ZM9.79587 5.06549C8.74586 6.48549 7.91587 8.50549 7.43587 10.8855H3.25586C4.54586 8.15549 6.91586 6.04549 9.80587 5.06549H9.79587ZM2.17586 15.6855C2.17586 14.5755 2.33587 13.5055 2.63586 12.4855H7.17587C7.04587 13.5155 6.97587 14.5855 6.97587 15.6855C6.97587 16.7855 7.04587 17.8555 7.17587 18.8855H2.63586C2.33587 17.8655 2.17586 16.7955 2.17586 15.6855ZM3.25586 20.4855H7.44586C7.92586 22.8655 8.75587 24.8855 9.80587 26.3055C6.91586 25.3355 4.55586 23.2155 3.25586 20.4855ZM16.4759 24.0255C15.3959 26.1655 14.2159 26.8855 13.3759 26.8855C12.5359 26.8855 11.3559 26.1655 10.2859 24.0255C9.79587 23.0355 9.37586 21.7955 9.07586 20.4855H17.6259C17.3759 21.7855 16.9659 23.0255 16.4659 24.0255H16.4759ZM17.9659 18.8855H8.78586C8.64586 17.8755 8.57586 16.7955 8.57586 15.6855C8.57586 14.5755 8.65586 13.4955 8.78586 12.4855H17.9559C18.0959 13.4955 18.1659 14.5755 18.1659 15.6855C18.1659 16.7955 18.0959 17.8755 17.9559 18.8855H17.9659ZM19.3159 10.8855C18.8359 8.50549 18.0059 6.48549 16.9559 5.06549C19.8459 6.03549 22.2159 8.15549 23.4959 10.8855H19.3159Z" fill="blue"/>
</svg>
