<svg width="32" height="32" viewBox="0 0 32 32" fill="none" xmlns="http://www.w3.org/2000/svg">
<path d="M28.8 3.19995H3.2C1.4325 3.19995 0 4.63245 0 6.39995V22.4C0 24.1675 1.4325 25.6 3.2 25.6H28.8C30.5675 25.6 32 24.1675 32 22.4V6.39995C32 4.63245 30.565 3.19995 28.8 3.19995ZM30.4 22.4C30.4 23.282 29.682 24 28.8 24H3.2C2.318 24 1.6 23.282 1.6 22.4V6.39995C1.6 5.51795 2.318 4.79995 3.2 4.79995H28.8C29.682 4.79995 30.4 5.51795 30.4 6.39995V22.4ZM26.4 27.2H5.6C5.16 27.2 4.8 27.56 4.8 28C4.8 28.44 5.16 28.8 5.6 28.8H26.4C26.8419 28.8 27.2 28.4418 27.2 28C27.2 27.56 26.84 27.2 26.4 27.2Z" fill="blue"/>
</svg>
