<svg width="32" height="32" viewBox="0 0 32 32" fill="none" xmlns="http://www.w3.org/2000/svg">
<path d="M16 6.79995C16.665 6.79995 17.2 7.33745 17.2 7.99995C17.2 8.66495 16.665 9.19995 16 9.19995C15.335 9.19995 14.8 8.66495 14.8 7.99995C14.8 7.33745 15.335 6.79995 16 6.79995ZM16 17.6C16.875 17.6 17.67 17.95 18.245 18.52L23.59 15.315C23.965 15.085 24.46 15.21 24.685 15.59C24.915 15.965 24.79 16.46 24.41 16.685L19.07 19.89C19.155 20.18 19.2 20.485 19.2 20.8C19.2 22.565 17.765 24 15.955 24C14.235 24 12.755 22.565 12.755 20.8C12.755 19.035 14.235 17.6 15.955 17.6H16ZM14.4 20.8C14.4 21.685 15.115 22.4 16 22.4C16.885 22.4 17.6 21.685 17.6 20.8C17.6 19.915 16.885 19.2 16 19.2C15.115 19.2 14.4 19.915 14.4 20.8ZM21.6 9.19995C22.265 9.19995 22.8 9.73495 22.8 10.4C22.8 11.065 22.265 11.6 21.6 11.6C20.935 11.6 20.4 11.065 20.4 10.4C20.4 9.73495 20.935 9.19995 21.6 9.19995ZM8.00001 17.2C7.33751 17.2 6.80001 16.665 6.80001 16C6.80001 15.335 7.33751 14.8 8.00001 14.8C8.66501 14.8 9.20001 15.335 9.20001 16C9.20001 16.665 8.66501 17.2 8.00001 17.2ZM10.4 9.19995C11.065 9.19995 11.6 9.73495 11.6 10.4C11.6 11.065 11.065 11.6 10.4 11.6C9.73501 11.6 9.20001 11.065 9.20001 10.4C9.20001 9.73495 9.73501 9.19995 10.4 9.19995ZM16 28.8C8.93001 28.8 3.20001 23.07 3.20001 16C3.20001 8.92995 8.93001 3.19995 16 3.19995C23.07 3.19995 28.8 8.92995 28.8 16C28.8 23.07 23.07 28.8 16 28.8ZM27.2 16C27.2 9.81495 22.185 4.79995 16 4.79995C9.81501 4.79995 4.80001 9.81495 4.80001 16C4.80001 22.185 9.81501 27.2 16 27.2C22.185 27.2 27.2 22.185 27.2 16Z" fill="black"/>
</svg>
