<svg width="32" height="32" viewBox="0 0 32 32" fill="none" xmlns="http://www.w3.org/2000/svg">
<path d="M14.815 28.16C12.205 24.95 6.39996 17.17 6.39996 12.8C6.39996 7.49795 10.698 3.19995 16 3.19995C21.3 3.19995 25.6 7.49795 25.6 12.8C25.6 17.17 19.75 24.95 17.185 28.16C16.57 28.925 15.43 28.925 14.815 28.16ZM23.17 15.97C23.73 14.65 24 13.58 24 12.8C24 8.37995 20.42 4.79995 16 4.79995C11.58 4.79995 7.99996 8.37995 7.99996 12.8C7.99996 13.58 8.27146 14.65 8.82796 15.97C9.37346 17.265 10.14 18.67 11.007 20.075C12.71 22.84 14.73 25.485 16 27.08C17.27 25.485 19.29 22.84 20.995 20.075C21.86 18.67 22.625 17.265 23.17 15.97Z" fill="blue"/>
<path d="M12.666 8.6391C12.3536 8.32668 11.8471 8.32668 11.5347 8.6391C11.2222 8.95152 11.2222 9.45805 11.5347 9.77047L14.8697 13.1055L11.5285 16.4467C11.2161 16.7591 11.2161 17.2656 11.5285 17.578C11.8409 17.8905 12.3475 17.8905 12.6599 17.578L16.0011 14.2369L19.3328 17.5686C19.6452 17.881 20.1517 17.881 20.4641 17.5686C20.7765 17.2561 20.7765 16.7496 20.4641 16.4372L17.1324 13.1055L20.4634 9.7745C20.7758 9.46208 20.7758 8.95555 20.4634 8.64313C20.151 8.33071 19.6445 8.33071 19.332 8.64313L16.0011 11.9741L12.666 8.6391Z" fill="blue"/>
</svg>
