<svg width="32" height="32" viewBox="0 0 32 32" fill="none" xmlns="http://www.w3.org/2000/svg">
<path d="M14.75 3.59185C15.55 3.2532 16.455 3.25325 17.25 3.59195L26.085 7.33945C27.185 7.80595 28.01 8.88995 28 10.1549C27.975 15.1599 25.935 24.2349 17.32 28.3599C16.485 28.7549 15.515 28.7549 14.68 28.3599C6.063 24.2349 4.0245 15.1599 4 10.1549C3.9935 8.88995 4.816 7.80595 5.915 7.33945L14.75 3.59185ZM16.625 5.06495C16.225 4.89545 15.775 4.89545 15.375 5.06495L6.5395 8.81495C5.9755 9.04995 5.597 9.58495 5.6 10.1899C5.623 14.8899 7.5665 23.1799 15.37 26.9149C15.77 27.1049 16.23 27.1049 16.63 26.9149C24.435 23.1799 26.38 14.8899 26.4 10.1899C26.405 9.58495 26.025 9.04995 25.46 8.81495L16.625 5.06495Z" fill="blue"/>
</svg>
