<svg width="32" height="32" viewBox="0 0 32 32" fill="none" xmlns="http://www.w3.org/2000/svg">
<path fill-rule="evenodd" clip-rule="evenodd" d="M4.94186 11.5913C2.50732 14.0258 2.50732 17.973 4.94186 20.4075C7.6764 23.1421 12.2151 22.7529 14.4442 19.5927L15.9231 17.4962L15.9212 17.4935L16.9786 15.999L16.9782 15.9985L18.8617 13.3283C20.5187 10.9792 23.8926 10.6899 25.9253 12.7226C27.735 14.5323 27.735 17.4664 25.9253 19.2762C23.8926 21.3089 20.5187 21.0196 18.8617 18.6705L18.4142 18.036L18.4132 18.0367C18.2681 17.8355 18.0316 17.7046 17.7646 17.7046C17.3231 17.7046 16.9652 18.0625 16.9652 18.5039C16.9652 18.6858 17.026 18.8535 17.1283 18.9878L17.1278 18.9882L17.5543 19.5927C19.7834 22.7529 24.3221 23.1421 27.0566 20.4075C29.4912 17.973 29.4912 14.0258 27.0566 11.5913C24.3221 8.85672 19.7834 9.24589 17.5543 12.406L15.9992 14.6106L15.9966 14.6068L14.9439 16.1192L14.9402 16.1138L13.1367 18.6705C11.4798 21.0196 8.10593 21.3089 6.07323 19.2762C4.26353 17.4664 4.26353 14.5323 6.07323 12.7226C8.10593 10.6899 11.4798 10.9792 13.1367 13.3283L13.6533 14.0606L13.6545 14.0597C13.8002 14.255 14.033 14.3814 14.2954 14.3814C14.7369 14.3814 15.0948 14.0235 15.0948 13.582C15.0948 13.3912 15.0279 13.216 14.9163 13.0786L14.9178 13.0775L14.4442 12.406C12.2151 9.24589 7.6764 8.85672 4.94186 11.5913Z" fill="black"/>
</svg>
