<svg width="555" height="555" viewBox="0 0 555 555" fill="none" xmlns="http://www.w3.org/2000/svg">
<g clip-path="url(#clip0_16_3114)">
<rect width="555" height="555" rx="30.9767" fill="#F8F8F8"/>
<path d="M338.84 436.155L170.972 397.77L195.418 276.212L375.419 385.224L338.84 436.155Z" fill="#DCC6FF"/>
<path d="M123.887 536.055L96.5242 407.76C88.78 371.878 93.6847 334.706 109.947 301.922L137.706 255.558L190.487 274.043C207.782 281.271 221.464 295.469 227.659 313.022L302.778 521.083C309.231 538.894 296.066 557.481 277.222 557.481H150.475C137.827 557.481 126.727 548.704 123.887 536.055Z" fill="#DCC6FF"/>
<path d="M135.523 259.43L155.896 246.939L179.129 253.651L190.487 292.114C191.52 295.986 187.131 298.825 184.034 296.502L135.523 259.43Z" fill="#824F36"/>
<path d="M259.927 402.596L249.344 373.168C248.569 371.103 251.409 369.554 252.699 371.361L275.932 402.596H259.927Z" fill="#6AAED8"/>
<path d="M172.315 362.481L206.519 475.856L286.568 473.92L299.475 512.022L218.651 534.893C187.7 542.689 157.446 525.471 146.837 497.747L146.656 497.437C146.191 496.224 145.546 494.701 145.159 493.255L115.499 362.094L153.471 337.597L163.203 341.856" fill="#BCA4EA"/>
<path d="M345.114 485.202C408.126 485.202 459.211 434.116 459.211 371.104C459.211 308.092 408.126 257.006 345.114 257.006C282.102 257.006 231.016 308.092 231.016 371.104C231.016 434.116 282.102 485.202 345.114 485.202Z" fill="#F8F8F8"/>
<path d="M194.038 379.821L250.267 368.861L277.5 400.116L294.258 501.993L194.038 379.821Z" fill="#DCC6FF"/>
<path d="M342.041 378.177L229.751 296.863L201.355 369.142L290.407 424.64C307.315 434.423 328.102 433.858 347.152 429.495L464.658 402.7V371.724L342.041 378.177Z" fill="#DCC6FF"/>
<path d="M438.559 275.335C385.641 222.416 299.939 222.416 247.02 275.335C194.101 328.253 194.101 413.956 247.02 466.874C249.859 469.714 252.699 472.295 255.797 474.876L304.327 461.969C298.648 459.388 293.227 456.032 287.806 452.418L423.846 316.379C449.659 354.583 445.529 406.728 411.971 440.544C403.711 448.804 394.418 455.258 384.35 459.904C359.311 471.521 330.141 472.037 304.327 461.969L255.539 475.393C273.35 490.107 293.743 499.658 315.169 504.046C358.278 512.823 404.743 500.69 438.301 467.132C491.22 413.956 491.22 328.253 438.559 275.335ZM261.476 425.83C235.662 387.625 239.792 335.481 273.35 301.923C307.166 268.107 359.311 264.235 397.515 290.049L261.476 425.83Z" fill="#FF7059"/>
<path d="M111.652 363.386L154.09 294.437L206.57 417.337L217.153 504.382L151.947 483.601L111.652 363.386Z" fill="#DCC6FF"/>
<path d="M325.021 462.458C320.762 462.329 319.841 464.473 319.841 468.216L319.557 489.873C319.557 497.098 318.794 498.767 325.022 496.809L364.164 484.065C367.778 482.671 370.876 480.348 372.528 477.328L377.923 467.854C379.446 465.324 377.277 462.562 374.102 462.459L325.021 462.458Z" fill="#824F36"/>
<path d="M322.939 462.124L148.024 460.756C147.327 500.82 184.989 530.635 223.762 520.774L325.03 497.077L323.92 462.408L322.939 462.124Z" fill="#DCC6FF"/>
<path fill-rule="evenodd" clip-rule="evenodd" d="M135.523 259.43L182.419 256.247C213.395 254.181 235.854 225.786 230.691 195.326L230.195 192.298L234.238 185.476C235.528 183.669 235.27 181.346 233.979 179.539L226.606 170.386L225.786 165.381C221.14 136.728 194.035 117.368 165.382 122.014C136.728 126.661 117.368 153.765 122.014 182.419L135.523 259.43Z" fill="#824F36"/>
<path d="M210.623 151.686C209.848 151.944 209.074 151.686 208.3 150.911C207.267 149.879 207.267 148.33 208.3 147.297C208.558 147.039 212.688 142.651 220.174 141.876C221.723 141.618 223.013 142.651 223.013 144.2C223.272 145.748 222.239 147.039 220.69 147.039C215.269 147.555 212.172 150.911 212.172 150.911C211.655 151.427 211.139 151.686 210.623 151.686Z" fill="black"/>
<path d="M222.755 174.401C223.53 179.048 223.788 182.662 222.497 182.92C221.206 183.178 219.916 179.564 219.141 174.917C218.367 170.271 218.109 166.657 219.4 166.399C220.69 166.141 221.981 170.013 222.755 174.401Z" fill="black"/>
<path d="M219.658 214.413C220.69 214.155 221.465 214.929 221.723 215.704C221.981 216.478 221.465 217.511 220.432 217.769C219.916 217.769 219.658 218.027 219.142 218.027C211.139 219.318 202.104 214.671 198.749 207.443V206.152C199.007 205.636 199.265 205.378 199.523 205.12C199.695 205.12 199.867 205.034 200.039 204.862C200.814 204.862 201.588 205.12 201.846 205.894C204.686 211.831 211.914 215.445 218.625 214.413H219.658Z" fill="black"/>
<path d="M119.582 187.546L131.198 234.528C136.878 233.495 139.201 231.688 143.331 228.074C147.461 224.46 150.559 219.556 152.366 213.876L160.368 187.03L201.064 128.765C204.381 120.323 195.991 115.009 189.538 116.042C137.688 126.711 111.21 137.756 119.582 187.546Z" fill="black"/>
<path d="M143.765 185.243C146.604 179.564 153.574 176.982 159.511 179.822C165.19 182.662 167.772 189.631 164.932 195.569C162.093 201.248 155.123 203.829 149.186 200.989C143.249 198.15 140.925 191.18 143.765 185.243Z" fill="#824F36"/>
<path d="M466.798 406.153C459.088 399.708 454.114 392.111 450.88 385.665C447.398 379.219 451.378 370.932 458.591 369.781L477.991 366.558V400.628C478.239 406.844 471.275 410.067 466.798 406.153Z" fill="#824F36"/>
</g>
<defs>
<clipPath id="clip0_16_3114">
<rect width="555" height="555" rx="30.9767" fill="white"/>
</clipPath>
</defs>
</svg>
