<svg width="555" height="555" viewBox="0 0 555 555" fill="none" xmlns="http://www.w3.org/2000/svg">
<g clip-path="url(#clip0_16_3116)">
<rect width="555" height="555" rx="30.9767" fill="#F8F8F8"/>
<path d="M492.678 561.775L503.702 428.763C506.926 389.829 501.659 350.671 488.243 313.986L474.977 281.372L410.315 300.156L394.035 325.972C359.698 380.42 333.382 439.541 315.927 501.492L305.305 539.186C301.561 552.49 310.604 565.982 324.326 567.576L465.552 583.981C479.243 585.571 491.525 575.517 492.663 561.773" fill="#95D1F9"/>
<path d="M248.314 405.296L407.51 423.788L476.267 281.372L232.213 331.798L248.314 405.296Z" fill="#95D1F9"/>
<path d="M268.039 235.496C270.826 211.501 298.323 174.15 308.415 161.125C310.086 158.968 308.894 155.822 306.222 155.298C305.177 155.1 304.078 155.354 303.238 156.02L256.145 193.324C245.201 201.991 238.143 214.651 236.533 228.508L236.15 231.807L251.852 234.989L268.037 235.511L268.039 235.496Z" fill="#FFBD6E"/>
<path d="M268.04 235.497L248.317 405.297C209.079 400.739 184.895 360.162 199.536 323.485L236.152 231.808L268.039 235.512L268.04 235.497Z" fill="#95D1F9"/>
<path d="M442.758 462.582L474.977 282.663L612.411 579.24L587.378 599.063L442.758 462.582Z" fill="#95D1F9"/>
<path d="M106.137 184.58L80.4995 181.602C74.9366 180.956 69.4499 183.323 66.1073 187.831L50.7016 208.538C47.3611 213.028 46.6703 218.975 48.8927 224.111L59.1396 247.816C61.362 252.952 66.1578 256.532 71.7208 257.178L97.358 260.156C102.921 260.802 108.407 258.435 111.75 253.927L127.158 233.202C130.499 228.712 131.189 222.765 128.967 217.629L118.718 193.942C116.495 188.807 111.7 185.227 106.137 184.58Z" fill="#FF7059"/>
<path d="M136.746 33.4811L111.109 30.5032C105.546 29.857 100.059 32.2242 96.7164 36.7321L81.3103 57.4388C77.9698 61.9284 77.279 67.8757 79.5014 73.0115L89.7487 96.717C91.9711 101.853 96.767 105.433 102.33 106.079L127.967 109.057C133.53 109.703 139.016 107.336 142.359 102.828L157.767 82.1026C161.108 77.613 161.799 71.6658 159.576 66.53L149.327 42.8432C147.104 37.7074 142.309 34.1273 136.746 33.4811Z" fill="#FF7059"/>
<path d="M220.81 85.9793L195.172 83.0014C189.609 82.3552 184.123 84.7224 180.781 89.2303L165.374 109.937C162.034 114.427 161.343 120.374 163.566 125.51L173.813 149.215C176.035 154.351 180.831 157.931 186.394 158.577L212.031 161.555C217.594 162.201 223.081 159.834 226.423 155.326L241.831 134.601C245.172 130.112 245.863 124.164 243.64 119.029L233.391 95.3414C231.169 90.2056 226.373 86.6255 220.81 85.9793Z" fill="#FF7059"/>
<path d="M361.638 383.455C356.172 394.376 350.994 405.438 346.134 416.659L323.887 414.074L357.752 380.638C359.701 378.712 362.871 380.988 361.638 383.455Z" fill="#6AAED8"/>
<path d="M496.684 513.482L474.136 492.193C471.426 489.634 467.164 492.681 468.71 496.066L493.595 550.723L496.684 513.482Z" fill="#6AAED8"/>
<g clip-path="url(#clip1_16_3116)">
<path d="M475.381 284.168L457.843 268.926L436.1 263.997L418.182 307.402C416.729 310.928 420.518 314.306 423.861 312.472L475.381 284.168Z" fill="#FFBD6E"/>
<path d="M475.381 284.168L505.658 214.409C516.899 188.509 505.017 158.384 479.108 147.139C453.199 135.894 423.083 147.78 411.838 173.689L400.134 200.655C388.15 228.267 402.493 260.205 431.085 269.601" fill="#FFBD6E"/>
<path d="M409.898 178.159L400.671 185.248C399.024 186.525 398.318 188.67 398.918 190.678L401.184 198.261L407.031 189.331L409.907 178.162L409.89 178.155L409.898 178.159Z" fill="#FFBD6E"/>
<path d="M507.591 209.21C515.262 184.598 503.3 157.639 479.108 147.139C460.844 139.212 440.491 142.779 426.13 154.65C425.923 154.823 425.718 154.996 425.515 155.169C438.483 162.973 450.631 155.18 451.319 154.723C429.07 176.142 462.491 204.326 469.988 208.541C470.136 210.524 470.246 212.578 470.359 214.672C471.185 229.976 472.124 247.382 488.281 254.421L505.649 214.405C506.382 212.716 507.03 210.98 507.591 209.21Z" fill="#824F36"/>
<path d="M461.291 212.386C463.701 206.833 470.148 204.289 475.701 206.699C481.254 209.109 483.799 215.556 481.389 221.109C478.979 226.663 472.531 229.207 466.978 226.797C461.425 224.387 458.88 217.939 461.291 212.386Z" fill="#FFBD6E"/>
<path d="M415.526 168.385C414.915 167.904 414.525 167.142 414.538 166.293C414.571 164.875 415.74 163.756 417.158 163.789C417.411 163.786 423.397 163.96 428.785 168.628C429.862 169.549 429.981 171.183 429.053 172.253C428.118 173.318 426.513 173.461 425.428 172.521C421.489 169.103 417.078 168.93 417.038 168.934C416.476 168.92 415.951 168.709 415.531 168.378" fill="#824F36"/>
<path d="M412.489 182.896C410.609 187.015 409.482 190.53 410.683 191.082C411.884 191.634 413.803 188.483 415.691 184.368C417.571 180.25 418.698 176.734 417.497 176.182C416.296 175.631 414.377 178.782 412.489 182.896Z" fill="black"/>
<path fill-rule="evenodd" clip-rule="evenodd" d="M405.335 225.119C404.454 225.308 403.585 224.75 403.39 223.87C403.194 222.985 403.752 222.11 404.637 221.914C404.637 221.914 405.105 221.833 405.275 221.812C405.652 221.765 406.194 221.716 406.907 221.695C408.334 221.652 410.441 221.721 413.273 222.142C416.104 222.563 418.14 223.111 419.493 223.567C420.169 223.795 420.673 224 421.02 224.154C421.197 224.233 421.601 224.438 421.601 224.438C422.39 224.882 422.669 225.883 422.225 226.672C421.782 227.458 420.788 227.738 420 227.301C419.972 227.286 419.482 227.025 418.444 226.675C417.284 226.284 415.438 225.78 412.79 225.386C410.142 224.992 408.229 224.936 407.005 224.973C405.934 225.005 405.389 225.108 405.337 225.118C405.336 225.118 405.335 225.119 405.335 225.119Z" fill="black"/>
</g>
</g>
<defs>
<clipPath id="clip0_16_3116">
<rect width="555" height="555" rx="30.9767" fill="white"/>
</clipPath>
<clipPath id="clip1_16_3116">
<rect width="172.974" height="190.868" fill="white" transform="translate(361.087 116.163) rotate(8.46204)"/>
</clipPath>
</defs>
</svg>
