<svg width="555" height="555" viewBox="0 0 555 555" fill="none" xmlns="http://www.w3.org/2000/svg">
<path d="M277.5 540.999C423.026 540.999 540.999 423.027 540.999 277.5C540.999 131.973 423.026 14 277.5 14C131.973 14 13.9999 131.973 13.9999 277.5C13.9999 423.027 131.973 540.999 277.5 540.999Z" fill="#F8F8F8"/>
<mask id="mask0_16_3118" style="mask-type:alpha" maskUnits="userSpaceOnUse" x="14" y="14" width="528" height="527">
<path d="M278.079 541C423.606 541 541.579 423.027 541.579 277.5C541.579 131.973 423.606 14.0006 278.079 14.0006C132.552 14.0006 14.5793 131.973 14.5793 277.5C14.5793 423.027 132.552 541 278.079 541Z" fill="#F8F8F8"/>
</mask>
<g mask="url(#mask0_16_3118)">
<path d="M155.149 214.581C151.607 208.411 135.84 203.155 135.84 203.155C135.84 203.155 137.554 188.188 130.585 188.188C123.615 188.188 99.8508 193.444 106.02 184.646C112.19 175.849 117.446 181.105 120.988 167.966C124.529 154.826 134.127 161.91 123.615 151.856C113.104 141.687 111.276 139.974 102.593 130.262C93.9097 120.551 92.0816 101.356 77.1145 101.356C77.1145 101.356 76.5433 101.585 75.515 102.156C29.5854 153.684 1.82202 221.436 1.82202 295.814C1.82202 315.351 3.76431 334.432 7.4204 352.941C12.1048 354.197 22.8445 356.368 26.2721 352.255C30.6137 346.999 21.9305 332.032 27.1861 332.032C32.4417 332.032 36.7833 336.602 46.4948 338.316C56.092 339.916 74.601 329.405 77.2288 320.607C79.8566 311.81 70.2594 309.182 89.5681 306.554C108.877 303.926 115.046 310.896 123.844 301.298C132.641 291.701 130.813 269.765 143.153 263.595C155.492 257.425 175.6 246.914 175.6 238.117C175.372 229.433 158.691 220.636 155.149 214.581Z" fill="#E3E3E3"/>
<path d="M170.119 34.6328C171.604 33.9473 173.661 31.548 175.831 29.0344C146.126 42.1735 118.933 60.1112 95.3974 81.8192C99.5105 83.3045 111.393 81.9334 120.99 81.9334C135.043 81.9334 147.268 86.275 153.438 101.242C159.607 116.209 175.374 103.756 175.374 103.756C175.374 103.756 176.288 80.1054 182.344 78.3916C188.513 76.6778 207.822 95.9865 212.164 101.242C216.505 106.498 227.931 102.156 230.558 101.242C233.186 100.328 236.728 78.3916 240.156 70.5081C243.697 62.6247 229.644 67.8803 225.188 63.5387C220.733 59.1971 234.786 50.3997 233.986 43.316C233.186 36.2323 230.444 38.0604 221.647 39.7742C212.849 41.488 204.966 44.1158 190.113 43.316C175.146 42.402 182.229 45.0298 166.463 49.4857C150.81 53.9415 166.577 36.4608 170.119 34.6328Z" fill="#E3E3E3"/>
<path d="M497.569 88.3311C492.085 90.0449 486.829 92.5584 481.574 87.3028C473.69 79.4194 462.265 72.3357 471.062 73.2498C473.919 73.4783 478.032 73.9353 482.145 74.0495C465.578 59.8822 447.412 47.6572 427.875 37.3744C423.191 36.5747 418.049 36.8032 412.222 38.974C395.541 45.1436 365.721 62.053 365.721 65.0236C365.721 67.9941 366.635 81.1332 374.519 83.761C382.402 86.3888 377.147 100.442 390.286 96.9001C403.425 93.3582 412.222 91.6444 412.222 84.5608C412.222 77.5914 400.797 69.9364 413.936 65.0236C427.075 59.9964 443.756 64.4523 439.414 69.7079C435.073 74.9635 414.85 80.2192 425.361 87.3028C435.873 94.2722 455.181 96.9001 453.467 101.356C451.754 105.812 444.67 98.4996 426.275 108.668C407.881 118.837 380.689 118.837 376.233 114.495C371.891 110.153 377.946 96.9001 368.349 101.356C358.752 105.698 358.752 113.695 345.499 115.409C332.36 117.123 312.137 111.867 313.965 118.951C315.679 125.92 313.965 144.429 309.623 144.429C305.282 144.429 284.145 136.546 276.262 142.715C268.378 148.885 251.697 168.993 277.176 168.993C302.654 168.993 309.623 166.366 325.39 158.482C341.157 150.599 355.21 145.343 357.838 151.513C360.466 157.682 365.721 167.28 369.263 176.991C372.805 186.588 380.346 197.214 383.202 190.13C385.944 183.161 372.805 167.28 377.147 158.597C381.488 149.799 390.286 158.596 392.114 164.766C393.942 170.936 385.944 192.872 399.083 194.586C412.222 196.3 409.594 187.617 419.306 190.244C428.903 192.872 435.987 195.5 440.328 184.075C444.67 172.65 457.009 167.394 463.979 169.108C470.948 170.822 478.032 172.65 478.946 186.703C479.86 200.756 473.69 212.181 465.807 209.553C457.923 206.925 428.103 194.586 423.648 202.584C419.306 210.467 409.594 208.753 421.934 219.265C434.273 229.776 445.584 228.862 452.668 232.404C459.637 235.946 456.21 240.287 449.126 247.371C442.156 254.34 437.701 261.424 424.562 251.712C411.422 242.115 411.422 223.378 393.828 228.291C376.233 233.318 369.263 244.629 363.094 239.373C356.924 234.117 345.499 227.034 344.699 217.437C343.785 207.839 351.668 194.586 343.785 191.158C335.901 187.617 324.476 189.445 306.081 190.244C287.687 191.159 281.517 184.075 271.806 185.903C262.208 187.617 240.729 207.839 240.729 207.839C240.729 207.839 225.305 215.723 217.307 218.351C209.424 220.978 201.54 228.862 199.712 240.287C197.998 251.712 175.148 269.193 181.318 277.191C187.487 285.074 197.084 297.413 197.998 315.808C198.912 334.203 230.675 334.431 240.729 338.773C250.669 343 245.413 346.542 258.552 343C271.691 339.458 276.947 342.315 280.489 344.486C284.031 346.542 280.489 325.748 289.286 354.997C298.084 384.245 278.775 371.906 284.031 389.501C289.286 407.096 302.425 413.151 301.626 420.235C300.712 427.204 301.626 426.405 289.286 442.172C276.947 457.938 273.519 471.078 276.947 491.3C280.489 511.523 274.319 503.182 273.405 518.264C272.491 533.345 283.002 541.343 279.575 553.568C276.033 565.907 291 565.907 301.511 568.535C312.023 571.163 299.798 578.132 318.192 573.791C336.587 569.449 340.129 560.652 347.098 556.196C354.068 551.854 348.012 543.057 354.982 537.801C361.951 532.545 369.035 536.887 374.29 528.204C379.546 519.406 363.779 517.693 381.26 511.523C398.855 505.353 408.452 507.181 413.708 491.3C418.963 475.533 410.166 452.683 425.133 444.799C440.1 436.916 490.028 409.724 496.198 396.585C502.368 383.446 484.773 380.818 473.347 377.276C461.922 373.734 458.38 370.535 454.953 354.997C451.411 339.458 443.527 317.522 443.527 317.522C443.527 317.522 446.155 296.499 443.527 293.872C440.9 291.244 445.241 264.966 451.411 271.021C457.581 277.191 459.294 282.446 460.208 294.671C461.122 307.011 461.122 318.322 464.55 322.778C468.092 327.119 469.806 332.603 470.72 338.659C471.634 344.714 478.603 354.883 478.603 354.883C478.603 354.883 484.773 365.508 504.881 359.453C525.104 353.397 544.413 340.258 543.499 333.289C542.585 326.319 530.36 328.947 522.476 316.608C514.593 304.269 513.679 278.905 513.679 278.905C513.679 278.905 526.018 271.021 527.732 283.246C529.445 295.585 530.36 297.299 539.157 304.269C547.954 311.238 530.36 311.238 552.296 316.608C569.434 320.721 578.003 327.462 582.116 330.204C583.373 319.007 584.173 307.582 584.173 296.042C584.173 294.9 584.173 293.757 584.173 292.615C584.173 263.75 579.839 237.868 570.576 207.839C556.409 161.91 530.931 121.122 497.569 88.3311Z" fill="#E3E3E3"/>
<path d="M442.952 513.21C435.982 528.178 430.612 535.147 430.612 544.744C430.612 554.341 413.017 562.339 423.643 566.681C434.154 571.022 455.177 559.711 463.174 543.03C471.058 526.35 487.739 504.413 478.941 494.816C478.941 494.816 449.921 498.358 442.952 513.21Z" fill="#E3E3E3"/>
<path d="M331.058 899.342H404.052C425.096 899.342 438.389 876.738 428.179 858.346L228.37 498.716H124.075L306.115 883.541C310.674 893.187 320.392 899.33 331.058 899.33V899.342Z" fill="#C3DCF4"/>
<path d="M222.215 523.551L228.37 498.716L194.537 449.094L124.075 498.716L151.777 562.4" fill="#3E5FFF"/>
<path d="M124.075 498.716L93.4693 869.683C92.1495 885.652 104.759 899.33 120.776 899.33H200.992C216.121 899.33 228.395 887.068 228.395 871.927V498.716H124.087H124.075Z" fill="#C3DCF4"/>
<path d="M124.075 498.716H199.12C200.8 498.716 201.136 501.092 199.528 501.559L121.987 524.031L124.075 498.728V498.716Z" fill="#9BC2DE"/>
<path d="M168.908 190.689L204.876 310.476L129.151 321.06L110.575 188.158" fill="black"/>
<path d="M301.375 371.24H155.376L152.593 263.777L321.855 321.042L301.375 371.24Z" fill="#C3DCF4"/>
<path d="M154.912 250.649L115.471 252.491L106.557 188.719C103.247 165.038 119.765 143.153 143.446 139.843C167.127 136.533 189.013 153.051 192.323 176.732L195.769 201.387C199.296 226.625 180.365 249.441 154.91 250.637" fill="#FFBD6E"/>
<path d="M192.906 180.817L198.827 188.688C199.885 190.103 199.971 192.017 199.03 193.517L195.462 199.189L192.894 180.819L192.906 180.817Z" fill="#FFBD6E"/>
<path d="M102.239 481.08L79.5992 375.524C73.2885 346.082 77.2117 315.368 90.7451 288.469L111.729 246.754L156.876 265.542C171.141 271.481 182.263 283.142 187.506 297.672L249.366 468.806C254.633 483.359 243.847 498.728 228.37 498.728H124.063C113.541 498.728 104.434 491.374 102.227 481.08" fill="#C3DCF4"/>
<path d="M111.729 246.753L128.334 236.159L151.058 250.376L156.756 273.328C157.536 276.459 153.937 278.822 151.369 276.867L111.741 246.741L111.729 246.753Z" fill="#FFBD6E"/>
<path d="M180.09 165.14C179.437 165.232 178.742 165.026 178.234 164.515C177.388 163.664 177.391 162.295 178.242 161.449C178.39 161.295 181.999 157.738 188.014 157.176C189.209 157.057 190.277 157.938 190.384 159.134C190.49 160.331 189.634 161.396 188.425 161.504C184.024 161.913 181.334 164.506 181.314 164.533C180.973 164.871 180.54 165.065 180.088 165.128" fill="black"/>
<path d="M189.729 184.095C190.33 187.876 190.452 190.997 189.35 191.175C188.248 191.353 187.392 188.347 186.791 184.567C186.19 180.786 186.069 177.666 187.17 177.487C188.272 177.309 189.128 180.315 189.729 184.095Z" fill="black"/>
<path d="M186.433 216.842C187.241 216.729 187.925 217.203 188.084 217.907C188.248 218.648 187.771 219.393 187.031 219.557C186.689 219.629 186.335 219.69 185.99 219.739C179.336 220.669 172.095 216.702 169.489 210.718C169.345 210.375 169.341 210 169.474 209.654C169.607 209.308 169.873 209.041 170.214 208.884C170.328 208.832 170.445 208.804 170.576 208.785C171.194 208.699 171.799 209.039 172.048 209.609C174.175 214.509 180.127 217.748 185.617 216.98C185.89 216.942 186.175 216.902 186.443 216.828L186.433 216.842Z" fill="black"/>
<path d="M367.47 255.477L266.402 356.545C289.762 379.905 328.922 374.698 345.359 346.047L386.451 274.445L367.47 255.465V255.477Z" fill="#C3DCF4"/>
<path d="M386.451 274.457C400.74 260.167 438.149 249.957 451.538 246.658C453.746 246.118 454.61 243.431 453.122 241.703C452.546 241.019 451.694 240.635 450.795 240.635H400.548C388.875 240.635 377.681 245.266 369.427 253.521L367.459 255.488L386.439 274.469L386.451 274.457Z" fill="#FFBD6E"/>
<path d="M214.104 371.241L205.358 347.054C204.746 345.374 207.001 344.174 208.057 345.602L227.098 371.241H214.092H214.104Z" fill="#9BC2DE"/>
<path d="M117.849 401.138L97.0446 275.954L-32.602 533.7L-13.6218 552.68L117.849 401.138Z" fill="#C3DCF4"/>
<path d="M125.279 142.381L172.415 135.793C176.503 135.222 180.582 136.929 183.044 140.243L186.028 144.26C188.254 147.268 187.014 151.573 183.533 152.931L159.005 162.49C149.159 166.325 141.523 174.358 138.176 184.384L130.63 207.014L143.775 301.061C146.573 321.083 129.53 338.256 109.488 335.618L87.7785 332.753C69.5001 330.341 57.499 312.43 62.2172 294.616L95.6109 168.382C99.4364 154.582 111.092 144.364 125.279 142.381Z" fill="black"/>
<path d="M143.214 197.113C142.505 192.04 137.819 188.503 132.746 189.212C127.672 189.921 124.135 194.607 124.845 199.681C125.554 204.754 130.24 208.291 135.313 207.582C140.387 206.873 143.923 202.187 143.214 197.113Z" fill="#FFBD6E"/>
<path d="M91.5848 431.409L111.249 408.745C112.413 407.401 114.572 408.745 113.864 410.389L95.976 451.877L91.5848 431.421V431.409Z" fill="#9BC2DE"/>
</g>
<path d="M418.619 28.7233C378.468 26.3825 345.193 58.2572 345.193 97.8823C345.193 104.49 346.111 110.885 347.859 116.944C347.892 117.034 347.915 117.168 347.982 117.348C348.015 117.437 348.038 117.549 348.071 117.684C348.15 117.952 348.239 118.232 348.318 118.49C348.307 118.501 348.318 118.501 348.318 118.524C350.905 127.338 364.781 168.9 408.304 219.031C411.552 222.783 417.409 222.783 420.669 219.031C464.191 168.9 478.068 127.338 480.655 118.524C480.655 118.512 480.666 118.512 480.655 118.49C480.756 118.176 480.834 117.919 480.901 117.684C480.935 117.549 480.957 117.437 480.991 117.348C481.047 117.168 481.081 117.034 481.114 116.944C482.772 111.154 483.69 105.073 483.768 98.7782C484.216 63.3196 454.033 30.7841 418.641 28.7233H418.619ZM414.475 126.229C398.807 126.229 386.117 113.54 386.117 97.8711C386.117 82.2025 398.807 69.5467 414.475 69.5467C430.144 69.5467 442.833 82.2361 442.833 97.8711C442.833 113.506 430.144 126.229 414.475 126.229Z" fill="#3E5FFF"/>
</svg>
