<svg width="32" height="32" viewBox="0 0 32 32" fill="none" xmlns="http://www.w3.org/2000/svg">
<path d="M31.695 27.3697C32.045 27.6447 32.1 28.1047 31.83 28.4947C31.555 28.8447 31.05 28.8997 30.705 28.6297L0.304297 4.6277C-0.0424682 4.3537 -0.101653 3.8507 0.172147 3.504C0.445897 3.15724 0.948997 3.09805 1.2955 3.37185L31.695 27.3697ZM30.275 16.6147C29.765 17.8447 28.86 19.4647 27.58 21.0647L26.325 20.0747C27.505 18.5547 28.34 17.1047 28.8 15.9997C28.135 14.3547 26.695 11.9547 24.54 9.9997C22.385 7.9992 19.52 6.3997 16 6.3997C14.01 6.3997 12.23 6.9102 10.67 7.7152L9.305 6.6387C11.2 5.5397 13.44 4.7547 16 4.7547C20.04 4.7547 23.275 6.6417 25.63 8.8297C27.97 10.9997 29.535 13.5547 30.275 15.3847C30.44 15.7797 30.44 16.2197 30.275 16.6147ZM4.4195 10.9347L5.675 11.9247C4.493 13.3997 3.6615 14.8947 3.155 15.9547C3.8665 17.5997 5.305 19.9997 7.46 21.9997C9.615 23.9997 12.48 25.5997 15.955 25.5997C17.99 25.5997 19.77 25.0897 21.33 24.2847L22.695 25.3597C20.755 26.4597 18.56 27.1997 15.955 27.1997C11.96 27.1997 8.725 25.3597 6.37 23.1697C4.031 20.9547 2.467 18.3997 1.723 16.6147C1.559 16.2197 1.559 15.7797 1.723 15.3847C2.2365 14.1547 3.14 12.5347 4.4195 10.9347ZM9.555 15.9547C9.555 15.6847 9.625 15.3797 9.665 15.0747L11.21 16.2947C11.36 18.8097 13.405 20.7997 15.955 20.7997C16.28 20.7997 16.56 20.7747 16.825 20.7297L18.37 21.9447C17.635 22.2397 16.835 22.3997 15.955 22.3997C12.465 22.3997 9.555 19.5347 9.555 15.9547ZM22.4 15.9547C22.4 16.3147 22.375 16.6197 22.335 16.9247L20.79 15.7047C20.64 13.1897 18.55 11.1547 15.955 11.1547C15.72 11.1547 15.44 11.2247 15.175 11.2697L13.63 10.0547C14.365 9.7597 15.165 9.5547 15.955 9.5547C19.535 9.5547 22.4 12.4647 22.4 15.9547Z" fill="#4580ff"/>
</svg>
