<svg width="32" height="32" viewBox="0 0 32 32" fill="none" xmlns="http://www.w3.org/2000/svg">
<g clip-path="url(#clip0_366_194)">
<path d="M15.9667 18.3599C14.1941 18.3599 12.768 19.7865 12.768 21.5599C12.768 23.3332 14.1941 24.7599 15.9667 24.7599C17.7393 24.7599 19.1653 23.3332 19.1653 21.5599C19.1653 19.7865 17.7793 18.3599 15.9667 18.3599ZM16.0067 23.1999C15.127 23.1999 14.4073 22.4799 14.4073 21.5999C14.4073 20.7199 15.127 19.9999 16.0067 19.9999C16.8863 19.9999 17.606 20.7199 17.606 21.5999C17.606 22.4799 16.8863 23.1999 16.0067 23.1999Z" fill="#4580ff"/>
<path d="M30.6139 10.1466C30.7738 10.3066 30.9871 10.3999 31.187 10.3999C31.3869 10.3999 31.5868 10.3332 31.7334 10.1866C32.0533 9.8799 32.0666 9.37324 31.7601 9.05324C27.7618 4.82657 22.0175 2.3999 15.98 2.3999C9.94253 2.3999 4.22491 4.82657 0.226574 9.05324C-0.0799647 9.37324 -0.0666369 9.8799 0.25323 10.1866C0.573097 10.4932 1.07955 10.4799 1.38609 10.1599C5.09121 6.2399 10.409 3.9999 16.0067 3.9999C21.6043 3.9999 26.9221 6.2399 30.6272 10.1466H30.6139Z" fill="#4580ff"/>
<path d="M23.7501 12.6667C21.4844 11.1867 18.8322 10.3467 16.0067 10.3467C12.115 10.3467 8.51645 11.8533 5.83757 14.5867C5.53103 14.9467 5.53103 15.4533 5.83757 15.76C6.15744 16.0667 6.66389 16.0667 6.97043 15.76C9.34278 13.3333 12.5414 12 15.9933 12C18.299 12 20.4715 12.6267 22.3773 13.7333C22.4706 13.6267 22.5506 13.52 22.6572 13.4267C22.9904 13.12 23.3636 12.8667 23.7634 12.6667H23.7501Z" fill="#4580ff"/>
<path d="M30.4006 19.9467V17.5601C30.4006 15.4001 28.6147 13.5601 26.4023 13.5601C25.9891 13.5601 25.6026 13.6401 25.2161 13.7601C24.6564 13.9334 24.1499 14.2267 23.7234 14.6134C22.9104 15.3467 22.404 16.4001 22.404 17.5467V19.9467C21.5243 19.9467 20.8046 20.7067 20.8046 21.5867V27.9867C20.8046 28.8667 21.5243 29.5867 22.404 29.5867H30.4006C31.2803 29.5867 32 28.8667 32 27.9867V21.5867C32 20.7067 31.2803 19.9467 30.4006 19.9467ZM23.99 17.5601C23.99 16.8134 24.3631 16.1334 24.9229 15.6801C25.3227 15.3601 25.8292 15.1601 26.3756 15.1601H26.389C27.7084 15.1601 28.788 16.2801 28.788 17.5601V19.9601H23.99V17.5601ZM30.4006 28.0001H22.404V21.6001H30.4006V28.0001Z" fill="#4580ff"/>
</g>
<defs>
<clipPath id="clip0_366_194">
<rect width="32" height="32" fill="white"/>
</clipPath>
</defs>
</svg>
