<svg width="250" height="210" viewBox="80 50 190 150" fill="none" xmlns="http://www.w3.org/2000/svg">
<g id="021-the-easiest-seo-tool">
<path id="Fill 1" fill-rule="evenodd" clip-rule="evenodd" d="M178.4 144.14C178.4 144.14 150.4 142.14 133.067 145.807C115.733 149.474 124.067 155.14 133.067 155.14C142.067 155.14 145.733 159.807 130.733 159.474C115.733 159.14 97.0668 166.474 112.733 174.474C128.4 182.474 230.4 183.807 249.067 175.807C267.733 167.807 255.733 161.14 238.4 160.14C221.067 159.14 220.067 153.807 232.733 151.474C245.4 149.14 254.4 142.807 225.733 140.807C197.067 138.807 178.4 144.14 178.4 144.14Z" fill="#FFE9B3"/>
<path id="Fill 4" fill-rule="evenodd" clip-rule="evenodd" d="M145.323 109.912C145.323 109.912 142.156 100.6 141.323 95.7657C140.49 90.9327 137.156 87.9327 131.656 87.2657C126.156 86.5997 124.323 81.0997 123.823 77.5997C123.323 74.0997 122.99 71.2657 115.156 69.5997C107.323 67.9327 106.99 64.4327 104.656 62.4327C102.323 60.4327 89.8231 58.7657 89.8231 70.2657C89.8231 81.7657 95.3231 83.9327 100.656 84.4327C105.99 84.9327 108.323 86.5997 108.323 92.2657C108.323 97.9327 109.99 102.266 117.573 103.1C125.156 103.933 124.656 104.933 125.823 111.766C126.99 118.6 145.323 123.1 145.323 123.1V109.912Z" fill="#7FD8BE"/>
<path id="Fill 7" fill-rule="evenodd" clip-rule="evenodd" d="M148.258 134.933C148.258 134.933 139.99 138.433 133.49 134.933C126.99 131.433 128.823 132.1 122.157 132.433C115.49 132.766 111.798 129.433 109.227 127.433C106.657 125.433 105.49 125.1 98.9897 127.433C92.4897 129.766 82.6567 127.766 80.6567 120.433C78.6567 113.1 81.3227 109.557 87.3227 109.912C93.3227 110.266 92.1567 109.1 95.6567 107.266C99.1567 105.433 106.323 105.1 111.157 109.1C115.99 113.1 116.49 111.1 121.157 111.433C125.823 111.766 135.657 109.514 142.657 121.224C149.657 132.933 148.258 134.933 148.258 134.933Z" fill="#7FD8BE"/>
<path id="Fill 10" fill-rule="evenodd" clip-rule="evenodd" d="M202.49 148.266C202.49 148.266 206.99 151.597 212.99 149.015C218.99 146.433 220.157 145.1 223.657 145.433C227.157 145.766 231.823 145.117 234.823 140.359C237.823 135.6 234.823 136.933 245.657 136.933C256.49 136.933 262.162 131.1 260.909 125.266C259.657 119.433 251.157 114.266 245.323 118.6C239.49 122.933 238.657 123.849 234.323 122.724C229.99 121.6 222.323 121.6 217.157 128.766C211.99 135.933 202.49 148.266 202.49 148.266Z" fill="#7FD8BE"/>
<path id="Fill 12" fill-rule="evenodd" clip-rule="evenodd" d="M211.24 142.266C211.24 142.266 219.323 140.016 223.49 136.433C227.657 132.85 231.823 130.933 235.907 130.1C239.99 129.266 246.157 128.1 251.073 126.433C255.99 124.766 257.073 126.85 254.407 127.433C251.74 128.016 246.99 130.35 243.323 130.766C239.657 131.183 236.157 130.683 232.657 132.933C229.157 135.183 225.99 139.1 220.573 141.016C215.157 142.933 210.407 144.6 210.157 143.6C209.907 142.6 209.029 142.969 211.24 142.266Z" fill="#309C7D"/>
<path id="Fill 14" fill-rule="evenodd" clip-rule="evenodd" d="M142.573 112.35C142.573 112.35 137.156 109.6 133.24 102.1C129.323 94.6002 124.323 90.6002 120.823 87.8502C117.323 85.1002 111.24 81.4332 108.323 77.1002C108.323 77.1002 105.323 75.6002 106.656 78.6832C107.99 81.7662 111.323 85.5162 115.99 87.8502C120.656 90.1832 126.656 95.7662 129.156 100.6C131.656 105.433 136.073 111.516 142.156 114.433C148.24 117.35 145.156 113.516 142.573 112.35Z" fill="#309C7D"/>
<path id="Fill 16" fill-rule="evenodd" clip-rule="evenodd" d="M144.407 127.85C144.407 127.85 133.407 120.016 123.49 118.1C113.574 116.183 106.99 115.933 103.074 116.433C99.1566 116.933 95.7396 117.1 92.1566 117.183C88.5736 117.266 89.9066 119.766 92.5736 119.683C95.2396 119.6 98.7396 118.683 107.824 118.85C116.907 119.016 120.74 118.376 127.324 122.03C133.907 125.683 142.074 130.183 145.324 130.6C148.574 131.016 146.407 128.933 144.407 127.85Z" fill="#309C7D"/>
<path id="Fill 18" fill-rule="evenodd" clip-rule="evenodd" d="M198.969 136.004C198.969 136.004 204.447 133.399 206.247 125.805H189.102V109.911H226.133C226.133 109.911 227.102 126.097 218.93 136.004C210.758 145.911 209.683 147.24 206.74 149.166C203.796 151.092 198.969 136.004 198.969 136.004Z" fill="#95B8D1"/>
<path id="Fill 20" fill-rule="evenodd" clip-rule="evenodd" d="M151.35 81.6382C151.35 81.6382 136.641 100.666 140.436 119.398C144.231 138.129 153.291 146.331 153.291 146.331L168.594 133.232C168.594 133.232 159.413 123.438 161.983 111.685C164.554 99.9322 169.823 96.1482 172.027 94.4862C174.231 92.8232 151.35 81.6382 151.35 81.6382Z" fill="#FFD266"/>
<path id="Fill 22" fill-rule="evenodd" clip-rule="evenodd" d="M220.143 75.1021L209.332 92.1631C209.332 92.1631 196.107 84.3921 185.068 87.6021C174.029 90.8111 167.948 98.4131 167.948 98.4131C167.948 98.4131 167.441 92.1631 160.347 91.4871C153.252 90.8111 151.394 88.5721 148.523 86.1441C148.523 86.1441 154.435 73.7501 168.286 68.5141C182.137 63.2781 204.265 62.2641 220.143 75.1021Z" fill="#F48498"/>
<path id="Fill 24" fill-rule="evenodd" clip-rule="evenodd" d="M163.144 124.199C162.998 123.705 160.72 125.6 158.279 128.738C155.838 131.877 152.177 132.4 150.695 134.143C149.213 135.887 148.434 139.088 148.257 139.841C148.257 139.841 154.879 154.019 174.842 156.198C194.805 158.378 204.917 151.142 210.758 145.912C210.758 145.912 205.789 144.429 205.789 142.251C205.789 140.071 204.656 135.364 200.907 134.841C200.907 134.841 189.139 142.861 178.765 139.374C168.392 135.887 164.309 128.156 163.144 124.199Z" fill="#309C7D"/>
<path id="Fill 26" fill-rule="evenodd" clip-rule="evenodd" d="M177.532 64.8647C177.532 64.8647 165.782 67.8077 162.282 70.3077C158.782 72.8077 151.779 76.3187 148.523 84.0577C145.267 91.7977 141.782 95.9327 140.907 100.183C140.032 104.433 137.965 109.683 139.811 118.683C141.657 127.683 144.532 138.183 150.782 144.808C157.032 151.433 167.157 158.308 181.157 157.558C195.157 156.808 204.061 154.301 209.774 147.558C215.487 140.816 221.782 134.69 223.532 129.625C225.282 124.558 225.869 117.292 226.169 115.268C226.47 113.246 225.407 112.121 225.282 114.246C225.157 116.371 223.282 125.058 221.782 127.933C220.282 130.808 216.782 138.871 211.532 143.183C206.282 147.496 207.719 148.371 201.969 151.183C196.219 153.996 184.985 156.683 179.508 155.496C174.032 154.308 163.469 152.433 155.282 145.558C147.095 138.683 143.157 125.246 142.532 121.746C141.907 118.246 140.178 105.496 145.324 96.3707C150.47 87.2457 150.657 85.4957 154.407 80.5577C158.157 75.6207 162.719 71.9327 167.469 70.1207C172.22 68.3077 177.719 65.6827 182.282 65.5577C186.845 65.4327 187.97 64.8547 184.657 64.6737C181.345 64.4917 180.282 64.5457 177.532 64.8647Z" fill="#2E526B"/>
</g>
</svg>
