<svg width="250" height="210" viewBox="0 0 290 200" fill="none" xmlns="http://www.w3.org/2000/svg">
<g id="022-the-easiest-seo-tool">
<g id="Group 1">
<path id="Fill 1" fill-rule="evenodd" clip-rule="evenodd" d="M136.996 118.426C136.996 118.426 22.8052 115.707 4.4531 144.255C-13.899 172.803 39.798 180.28 86.6979 174.842C133.598 169.404 157.355 169.301 146.496 176.489C135.637 183.678 130.199 197.952 196.131 191.835C262.063 185.717 304.884 170.141 285.173 155.839C265.461 141.536 227.398 144.935 242.351 137.458C257.305 129.981 298.087 127.802 271.579 118.355C245.07 108.91 168.263 115.028 136.996 118.426Z" fill="#CAE4F8"/>
<path id="Fill 4" fill-rule="evenodd" clip-rule="evenodd" d="M178.899 79.6744C178.899 79.6744 185.017 70.3855 186.829 56.7913C188.642 43.1971 189.095 35.7203 187.962 29.1503C186.829 22.5788 186.252 13.8568 188.58 18.2178C190.907 22.5788 194.532 35.4933 195.892 41.158C197.251 46.8227 198.838 67.6666 197.478 73.1043C197.478 73.1043 201.103 58.2799 208.127 48.3602C215.151 38.4392 220.814 29.83 224.892 26.2044C228.971 22.5788 232.823 16.6885 232.143 20.087C231.464 23.4856 226.479 38.2121 223.987 43.6498C221.494 49.0875 215.376 69.7058 215.376 69.7058C215.376 69.7058 234.408 57.698 244.604 53.8454C254.8 49.9942 263.41 47.7281 267.261 47.0484C271.113 46.3686 271.792 47.2754 268.394 49.3145C264.995 51.3536 237.127 71.0652 229.877 76.2758L222.628 81.4878C222.628 81.4878 237.581 72.6516 254.347 71.2922C271.113 69.9328 269.98 71.2922 272.926 71.2922C275.87 71.2922 276.55 72.8773 271.34 73.784C266.129 74.6907 253.44 81.6238 245.511 84.8402C237.581 88.0579 233.163 90.0576 226.422 93.4752C219.682 96.8941 210.393 101.425 210.393 101.425L178.899 79.6744Z" fill="#309C7D"/>
<path id="Fill 6" fill-rule="evenodd" clip-rule="evenodd" d="M99.6567 111.508C99.1469 111.508 90.1408 104.711 83.0039 99.783C75.8669 94.8551 67.7104 89.7573 65.1615 88.5678C62.6126 87.3783 61.2532 85.679 62.9525 89.4174C64.6517 93.1558 69.4097 100.633 75.697 105.9C81.9843 111.168 87.9318 117.795 92.01 121.534C92.01 121.534 83.6836 117.285 76.0369 116.776C68.3901 116.266 58.5344 118.305 52.2471 119.834C45.9598 121.364 38.483 122.043 43.5808 122.893C48.6786 123.743 54.1163 122.708 60.7434 125.774C67.3706 128.841 81.4745 131.05 83.8535 131.389C83.8535 131.389 72.8082 134.278 63.1224 138.356C53.4365 142.435 49.6982 146.343 47.659 147.872C45.6199 149.402 46.6395 148.212 54.1163 146.343C61.5931 144.474 78.4158 141.755 89.9709 141.585C101.526 141.415 111.212 142.265 113.931 143.114L99.6567 111.508Z" fill="#309C7D"/>
<path id="Fill 8" fill-rule="evenodd" clip-rule="evenodd" d="M104.075 37.2498C104.075 37.2498 77.0565 50.1643 76.5467 50.1643C76.0369 50.1643 69.7496 51.5237 71.4489 56.1117C73.1481 60.6997 78.5858 75.3135 82.3242 82.9602C86.0626 90.6069 96.9379 113.887 99.3169 118.815C101.696 123.743 111.722 145.323 113.931 149.742C116.14 154.16 120.898 164.695 122.087 166.734C123.277 168.773 123.107 171.152 130.923 167.924C138.74 164.695 162.7 153.355 167.118 151.464C171.536 149.572 199.404 136.317 201.273 134.958C203.142 133.599 205.182 134.108 202.463 129.01C199.744 123.913 182.524 71.0653 178.9 60.19C175.274 49.3146 163.719 18.8977 162.7 15.839C161.68 12.7803 161.459 10.2314 155.793 12.6104C150.125 14.9893 104.075 37.2498 104.075 37.2498Z" fill="#A16A45"/>
<path id="Fill 10" fill-rule="evenodd" clip-rule="evenodd" d="M81.1347 52.0335L155.547 18.218C155.547 18.218 163.719 36.4002 168.647 46.0861C173.575 55.7719 183.091 70.5556 189.888 77.0128C196.685 83.4701 206.371 99.034 226.422 103.062C226.422 103.062 190.228 124.932 182.581 130.03C174.935 135.128 144.518 151.464 144.518 151.464C144.518 151.464 116.819 132.069 107.303 111.168C97.7876 90.2671 86.7423 72.7646 84.7032 65.9676C82.664 59.1705 81.1347 52.0335 81.1347 52.0335Z" fill="#FFE9B3"/>
<path id="Fill 12" fill-rule="evenodd" clip-rule="evenodd" d="M118.111 21.9085C117.227 24.6682 113.911 24.8857 111.151 24.7769C108.378 24.6682 106.175 21.3512 107.059 18.2109C107.943 15.0843 111.817 14.6085 111.817 14.6085C117.785 13.3986 118.995 19.1353 118.111 21.9085ZM141.004 30.867C141.004 30.867 140.12 25.4429 139.236 22.6833C138.353 19.9101 136.803 17.8166 135.036 18.3196C133.255 18.8226 123.861 23.3508 123.861 23.3508C123.861 23.3508 121.646 16.1595 120.436 12.3925C119.212 8.64053 116.126 6.9834 115.012 7.52581C113.911 8.08317 110.267 9.30665 106.067 10.9651C101.866 12.6236 100.534 15.3832 101.2 17.0417C101.866 18.7016 106.95 31.1933 106.95 31.1933C106.95 31.1933 98.4268 34.8365 95.7759 36.06C93.125 37.2699 91.5753 38.1535 91.9151 39.377C92.2414 40.5868 94.566 45.236 95.9934 47.7782C97.4344 50.3203 101.2 49.2191 103.185 48.3355C105.183 47.4519 132.929 35.9512 137.469 34.2927C142.01 32.6356 141.004 30.867 141.004 30.867Z" fill="#457AA0"/>
<path id="Fill 14" fill-rule="evenodd" clip-rule="evenodd" d="M95.1537 67.5818C95.1537 67.5818 102.205 64.9486 103.394 64.0976C104.584 63.2479 105.859 61.55 106.455 64.0976C107.049 66.6478 109.343 70.3006 109.937 71.5757C110.533 72.8495 111.637 73.6991 109.088 74.4631C106.539 75.2285 101.101 78.797 99.9973 78.9669C98.8921 79.1368 97.7869 78.627 96.0876 74.8886C94.3897 71.1502 93.9642 70.3862 93.71 69.7908C93.4544 69.1954 94.0498 67.7517 94.8995 69.281C95.7477 70.8104 98.4679 76.8421 99.2319 77.2676C99.9973 77.6917 103.48 75.8225 105.349 74.803C107.219 73.7834 109.513 73.6991 108.578 71.8299C107.644 69.9607 105.094 66.5622 104.84 65.6283C104.584 64.693 98.3823 68.1758 96.8529 68.2615C95.3236 68.3458 94.5596 68.6013 95.1537 67.5818Z" fill="#457AA0"/>
<path id="Fill 16" fill-rule="evenodd" clip-rule="evenodd" d="M112.147 84.3341C112.147 84.3341 108.749 86.2047 106.794 87.1318C104.84 88.0576 104.33 88.1432 106.284 91.3718C108.239 94.6004 109.513 95.62 109.938 96.4696C110.362 97.3193 112.231 96.2141 113.931 95.1102C115.63 94.005 119.878 91.796 120.813 91.2862C121.747 90.7764 121.917 88.5837 119.794 87.1318C117.669 85.6786 116.395 84.1492 115.716 83.6395C115.036 83.1297 113.676 83.2371 114.95 84.8398C116.225 86.4439 119.284 88.5673 119.028 89.6725C118.774 90.7764 116.395 92.2663 113.931 93.4762C111.467 94.6847 110.108 95.5792 109.173 93.4762C108.239 91.3718 105.35 89.247 107.134 88.3974C108.918 87.5478 112.083 85.7669 113.26 84.8398C114.439 83.9141 113.248 83.7333 112.147 84.3341Z" fill="#457AA0"/>
<path id="Fill 18" fill-rule="evenodd" clip-rule="evenodd" d="M128.211 108.707C127.096 109.293 124.378 110.652 122.42 112.011C120.476 113.371 120.639 112.528 119.117 109.809C117.581 107.09 117.336 107.43 117.839 106.751C118.342 106.071 124.296 102.074 124.296 102.074C126.077 100.863 126.335 103.269 128.211 105.391C130.074 107.512 129.312 108.11 128.211 108.707ZM131.093 107.648C129.897 106.152 127.015 101.23 126.077 100.375C125.139 99.5308 124.989 99.4628 123.779 100.375C123.779 100.375 118.437 104.535 116.479 105.473C114.522 106.411 116.819 108.192 117.92 109.891C119.022 111.59 119.62 115.164 121.061 114.907C122.515 114.649 126.254 111.332 128.116 110.489C129.992 109.645 132.289 109.142 131.093 107.648Z" fill="#457AA0"/>
<path id="Fill 20" fill-rule="evenodd" clip-rule="evenodd" d="M140.772 127.739C139.848 128.418 137.211 129.521 135.906 130.826C134.601 132.117 134.234 130.962 133.214 129.684C132.195 128.418 131.093 126.884 131.855 126.379C132.616 125.864 136.368 122.641 136.368 122.641C138.325 120.957 138.054 123.239 139.848 124.598C141.629 125.958 141.71 127.059 140.772 127.739ZM140.691 122.559C138.652 121.025 137.455 118.863 135.933 120.168C135.933 120.168 130.251 125.169 128.796 125.769C127.355 126.379 130.06 128.418 131.42 130.118C132.793 131.817 132.969 135.122 134.832 133.435C136.694 131.723 141.806 129.004 142.988 128.325C144.171 127.645 142.73 124.083 140.691 122.559Z" fill="#457AA0"/>
<path id="Fill 22" fill-rule="evenodd" clip-rule="evenodd" d="M144.093 47.5302C144.093 47.5302 138.231 51.0144 132.962 53.5619C127.694 56.1108 121.832 58.6611 119.539 59.595C117.244 60.5303 112.912 62.7393 112.232 63.9288C111.552 65.1183 113.343 64.8043 116.483 62.7516C119.623 60.7002 126.313 59.0009 129.34 57.3003C132.368 55.601 137.296 53.392 139.845 51.6084C142.393 49.8235 145.197 48.8896 146.386 48.04C147.577 47.1903 146.262 46.2714 144.093 47.5302Z" fill="#457AA0"/>
<path id="Fill 24" fill-rule="evenodd" clip-rule="evenodd" d="M143.753 53.9877C143.753 53.9877 135.512 58.4058 132.877 59.6795C130.243 60.9547 124.295 62.5098 120.728 64.6197C117.16 66.7322 113.95 67.8374 113.26 68.6014C112.572 69.3667 112.402 70.7262 114.781 69.3667C117.16 68.0073 122.172 66.5623 124.211 65.1186C126.25 63.6735 132.877 61.2089 135.766 59.7652C138.655 58.3215 143.329 55.9411 144.517 55.0072C145.706 54.0719 145.86 52.8621 143.753 53.9877Z" fill="#457AA0"/>
<path id="Fill 26" fill-rule="evenodd" clip-rule="evenodd" d="M154.203 63.4186C154.203 63.4186 145.367 67.327 143.072 68.3465C140.779 69.3661 134.728 72.5947 131.424 74.3796C128.12 76.1632 123.577 78.6278 121.473 79.3918C119.368 80.1571 119.708 81.6865 122.343 80.3271C124.976 78.9677 130.499 77.4383 133.047 75.5691C135.596 73.6986 142.648 70.0458 144.603 69.1962C146.557 68.3465 153.863 65.228 155.137 64.6204C156.412 64.0127 156.815 62.2631 154.203 63.4186Z" fill="#457AA0"/>
<path id="Fill 28" fill-rule="evenodd" clip-rule="evenodd" d="M150.89 72.4245C150.89 72.4245 145.876 74.208 141.969 76.5027C138.06 78.7961 132.644 81.5679 128.385 83.3678C124.127 85.169 123.184 85.6788 123.57 86.3585C123.957 87.0382 124.467 87.0382 127.695 85.5945C130.923 84.1494 134.244 83.0266 137.47 80.8692C140.694 78.7118 147.151 75.9929 149.616 74.9734C152.079 73.9538 155.138 71.7448 150.89 72.4245Z" fill="#457AA0"/>
<path id="Fill 30" fill-rule="evenodd" clip-rule="evenodd" d="M163.294 80.8692C163.294 80.8692 157.501 85.2017 153.006 86.799C148.511 88.3977 141.211 91.4564 137.47 94.0909C133.727 96.7241 130.295 98.5933 129.461 99.0188C128.629 99.443 128.545 101.058 129.904 100.548C131.264 100.038 136.483 97.4038 138.249 95.5346C140.014 93.6654 147.491 90.6068 149.87 89.5029C152.249 88.3977 158.451 86.1044 160.746 84.2352C163.04 82.366 166.693 79.798 163.294 80.8692Z" fill="#457AA0"/>
<path id="Fill 32" fill-rule="evenodd" clip-rule="evenodd" d="M165.334 86.7992C165.334 86.7992 154.798 90.3636 151.654 93.5025C148.511 96.6387 141.714 99.8088 139.505 100.646C137.296 101.482 134.153 102.263 135.087 103.062C136.022 103.861 140.354 102.868 144.093 100.646C147.831 98.4236 152.673 94.9516 154.544 93.5025C156.413 92.0506 162.577 89.4174 164.677 88.3979C166.777 87.3783 167.639 85.9659 165.334 86.7992Z" fill="#457AA0"/>
<path id="Fill 34" fill-rule="evenodd" clip-rule="evenodd" d="M176.549 101.425C176.549 101.425 166.099 108.705 159.81 110.658C153.524 112.613 145.282 117.795 144.348 118.56C143.413 119.324 143.613 120.632 145.383 119.765C147.151 118.9 158.156 112.783 160.173 112.018C162.189 111.254 169.242 108.875 172.301 106.666C175.359 104.455 177.767 101.963 178.899 101.425C180.033 100.887 178.452 100.144 176.549 101.425Z" fill="#457AA0"/>
<path id="Fill 36" fill-rule="evenodd" clip-rule="evenodd" d="M177.993 108.194C177.993 108.194 166.013 114.906 163.124 116.435C160.235 117.964 151.485 120.856 150.125 122.044C148.766 123.234 148.851 123.828 151.315 123.064C153.779 122.298 161.812 118.644 164.678 117.37C167.543 116.095 173.999 111.639 176.889 110.383C179.777 109.128 180.579 106.749 177.993 108.194Z" fill="#457AA0"/>
<path id="Fill 38" fill-rule="evenodd" clip-rule="evenodd" d="M102.172 70.8739C102.172 70.8739 101.454 69.0332 100.636 68.5112C99.816 67.9905 98.549 67.5433 99.1458 69.2562C99.7412 70.969 101.101 72.0865 102.172 73.4269C103.242 74.7672 103.689 74.3948 103.912 73.4269C104.135 72.4589 106.965 65.0121 108.008 63.6703C109.052 62.3299 111.062 60.1698 110.392 59.0524C109.722 57.9349 108.605 57.7868 107.785 59.8721C106.965 61.9561 102.888 67.6493 102.172 70.8739Z" fill="#F48498"/>
<path id="Fill 40" fill-rule="evenodd" clip-rule="evenodd" d="M81.3591 56.6787C81.3591 56.6787 82.5228 62.9578 84.4192 67.7797C86.5099 73.0909 96.6539 91.1168 98.0133 93.9484C99.3727 96.7815 106.51 112.528 109.116 116.606C111.722 120.684 121.238 132.692 126.901 138.923C132.566 145.154 143.214 152.403 144.573 153.99C145.933 155.576 149.572 152.335 150.812 151.464C152.05 150.591 174.66 135.978 179.555 133.372C184.451 130.767 200.989 118.733 206.767 115.574C212.544 112.415 217.189 108.622 219.341 107.742C221.495 106.863 223.534 104.598 220.021 106.07C216.51 107.543 204.728 113.434 200.537 116.606C196.345 119.777 178.559 131.22 175.84 133.146C173.121 135.071 150.238 148.366 148.199 148.573C146.16 148.779 143.952 149.232 134.917 140.623C125.881 132.012 119.651 126.914 116.592 121.364C113.534 115.813 104.925 105.164 103.678 98.7064C102.431 92.2492 97.4478 86.0285 94.729 80.8695C92.0101 75.7105 84.4368 59.5185 82.6071 54.7524C80.7773 49.9862 80.3137 51.6746 81.3591 56.6787Z" fill="#2E526B"/>
</g>
</g>
</svg>
