<svg width="250" height="210" viewBox="95 25 250 210" fill="none" xmlns="http://www.w3.org/2000/svg">
<rect width="561" height="302" fill="white"/>
<path d="M225.071 73.9345C225.071 73.9345 205.671 78.8345 213.071 96.0345C213.071 96.0345 209.171 95.1345 209.671 99.2345C210.171 103.335 212.571 106.735 215.971 103.135C215.971 103.135 216.971 108.235 224.371 111.735L222.071 128.135L230.271 147.935H234.471C234.471 147.935 236.071 119.835 238.371 112.835C240.671 105.835 240.871 104.835 240.871 104.835C240.871 104.835 244.371 101.735 246.471 98.0345C246.471 98.0345 251.971 94.0345 251.671 89.5345C251.371 85.0345 245.571 89.4345 245.571 89.4345C245.571 89.4345 249.371 84.9345 245.971 78.3345C242.571 71.7345 225.071 73.9345 225.071 73.9345Z" fill="#FACCD4"/>
<path d="M244.572 165.134L242.272 179.134C242.272 179.134 231.172 181.334 227.172 179.134L225.072 161.734C224.972 161.734 237.472 158.634 244.572 165.134Z" fill="#FACCD4"/>
<path d="M210.471 207.334L200.071 208.634C200.071 208.634 186.571 219.634 188.071 223.034C189.571 226.434 191.471 225.834 191.471 225.834C191.471 225.834 200.371 217.534 203.171 214.034L213.571 212.534L210.471 207.334Z" fill="#FACCD4"/>
<path d="M239.572 208.434L237.672 213.734H247.172C247.172 213.734 255.672 222.434 257.772 222.434C259.872 222.434 260.072 216.934 256.572 213.134C253.072 209.334 250.372 207.334 250.372 207.334L239.572 208.434Z" fill="#FACCD4"/>
<path d="M264.671 132.034C264.671 132.034 277.771 135.034 282.571 129.934C287.371 124.834 287.771 111.234 287.971 108.034C288.071 104.834 290.571 101.834 291.171 101.434C291.771 100.934 291.671 96.2345 292.971 95.8345C294.371 95.5345 294.371 101.334 294.371 101.334C294.371 101.334 296.571 100.934 295.871 103.234C295.871 103.234 298.371 103.434 296.971 105.434C296.971 105.434 299.371 106.434 297.871 107.734C296.371 109.034 294.671 110.634 291.571 111.534C291.571 111.534 293.671 128.434 290.371 135.334C287.071 142.234 283.571 144.934 283.571 144.934C283.571 144.934 284.071 147.134 283.071 147.734C282.071 148.334 281.071 146.034 281.071 146.034C281.071 146.034 267.271 148.534 260.771 146.934L264.671 132.034Z" fill="#FACCD4"/>
<path d="M213.172 120.634C213.672 120.634 220.572 121.934 220.572 121.934L223.372 119.634L227.972 124.434C227.972 124.434 228.872 137.134 230.672 144.834C230.672 144.834 234.172 130.534 233.172 123.534C233.172 123.534 236.572 121.734 237.272 117.834C237.272 117.834 239.872 117.834 241.172 120.434C241.172 120.434 243.372 118.234 248.372 121.334C253.372 124.334 255.672 128.434 260.872 128.934C260.872 128.934 261.672 127.434 265.672 128.834C265.672 128.834 262.872 140.334 261.972 144.434C260.972 148.534 260.272 151.834 257.972 151.434C255.672 151.034 255.672 149.834 255.672 149.834C255.672 149.834 251.772 149.234 249.872 146.334C249.872 146.334 246.472 148.034 246.372 153.334C246.272 158.634 244.572 164.134 244.072 167.434C244.072 167.434 237.172 164.634 234.172 163.734L233.672 164.734C233.672 164.734 236.572 165.334 236.172 174.034C236.172 174.034 231.272 172.734 231.272 165.234L228.072 165.534L213.172 120.634Z" fill="#FFE9B3"/>
<path d="M242.371 177.535C242.271 177.635 242.071 177.635 241.871 177.735L242.371 177.535Z" fill="#457AA0"/>
<path d="M279.171 184.634C274.271 174.334 249.871 178.034 245.571 178.034C241.271 178.034 241.271 178.034 241.271 178.034L241.471 177.934C239.171 178.934 233.271 181.034 227.471 179.334L193.771 190.934C193.771 190.934 175.271 185.034 168.971 188.234C162.571 191.534 168.871 206.534 178.271 208.334C187.671 210.134 198.271 210.234 198.271 210.234L209.671 207.534L211.771 213.034L225.771 211.534L234.671 213.934L238.071 209.734C238.071 209.734 259.571 210.134 270.371 202.634C281.271 195.134 281.171 188.834 279.171 184.634ZM222.471 200.334L217.271 198.534C217.271 198.534 219.971 197.534 222.871 195.634C225.771 193.734 230.071 196.434 230.071 196.434L222.471 200.334Z" fill="#457AA0"/>
<path d="M229.471 178.935C228.871 179.935 228.271 180.635 227.771 181.135C227.671 181.235 227.571 181.335 227.571 181.335C227.471 181.435 227.371 181.535 227.371 181.535C227.071 181.835 226.771 182.035 226.771 182.035C226.771 182.035 204.571 191.535 191.771 194.535C178.971 197.535 176.771 190.335 176.771 190.335L165.671 154.635C166.771 154.835 167.771 154.935 168.771 155.035C168.771 155.035 172.171 157.335 173.671 156.635C175.071 155.935 171.071 154.135 170.771 154.035C171.071 154.135 174.171 155.035 174.771 154.235C175.471 153.435 171.271 153.135 171.271 153.135C171.271 153.135 174.471 152.335 174.871 151.335C175.271 150.435 169.771 151.235 169.771 151.235C169.771 151.235 169.071 150.835 169.871 150.235C170.571 149.635 172.271 148.435 172.471 147.435C172.671 146.335 166.771 149.835 166.771 149.835C166.771 149.835 165.271 149.035 163.571 147.635L161.971 142.635C161.971 142.635 161.071 139.035 159.671 133.735C158.571 129.435 157.271 124.135 155.971 118.835C154.071 110.835 152.171 102.835 151.571 99.0346C150.071 89.8346 153.371 88.6346 156.071 87.2346C158.771 85.8346 171.371 84.1346 179.371 82.6346C187.371 81.1346 199.871 78.6346 202.571 82.6346C205.271 86.6346 209.971 100.635 209.971 100.635C214.071 111.635 228.571 160.635 230.771 168.935C231.971 173.235 230.771 176.635 229.471 178.935Z" fill="#2E526B"/>
<path d="M174.771 154.235C174.071 155.035 170.971 154.035 170.771 154.035C171.071 154.135 175.171 156.035 173.671 156.635C172.171 157.335 168.771 155.035 168.771 155.035C167.771 155.035 166.771 154.835 165.671 154.635L163.471 147.635C165.171 149.035 166.671 149.835 166.671 149.835C166.671 149.835 172.571 146.335 172.371 147.435C172.171 148.535 170.571 149.635 169.771 150.235C168.971 150.835 169.671 151.235 169.671 151.235C169.671 151.235 175.271 150.435 174.771 151.335C174.371 152.235 171.171 153.135 171.171 153.135C171.171 153.135 175.471 153.435 174.771 154.235Z" fill="#2E526B"/>
<path d="M245.571 178.035C244.971 179.035 242.271 181.235 237.671 181.935C235.571 182.235 233.071 182.135 230.971 181.935C229.571 181.735 228.271 181.635 227.471 181.435C227.571 181.335 227.671 181.235 227.671 181.235C228.171 180.735 228.771 179.935 229.371 179.035C230.171 179.135 231.271 179.235 232.971 179.235C236.671 179.235 242.671 175.935 242.671 175.935C244.971 174.635 246.171 177.035 245.571 178.035Z" fill="#95B8D1"/>
<path d="M229.971 65.5346C229.971 65.5346 223.571 61.3346 218.271 64.0346C218.271 64.0346 218.471 61.2346 216.671 60.6346C216.671 60.6346 216.971 53.8346 209.671 55.5346C202.371 57.2346 202.371 66.3346 206.271 67.1346C206.271 67.1346 202.271 72.7346 208.471 73.5346C208.471 73.5346 206.071 92.0346 213.171 96.8346C213.171 96.8346 210.371 90.1346 213.171 86.5346C215.971 83.0346 221.171 80.4346 222.871 76.0346C222.871 76.0346 235.171 80.7346 239.971 80.2346C244.771 79.7346 243.771 91.2346 243.771 91.2346L248.171 87.9346C248.171 87.9346 253.071 84.5346 250.971 75.2346C250.971 75.2346 254.971 74.1346 253.871 67.6346C253.871 67.6346 258.771 63.8346 254.571 60.0346C250.371 56.2346 247.371 58.4346 247.771 60.1346C247.771 60.1346 241.571 57.5346 241.571 63.4346C241.571 63.4346 233.071 60.8346 229.971 65.5346Z" fill="#A16A45"/>
<path d="M215.971 103.234C215.971 103.234 211.971 104.534 213.171 109.134C214.371 113.734 219.471 112.434 220.971 109.934L219.671 108.834C219.671 108.834 217.471 111.534 215.671 109.734C213.871 107.934 215.471 105.634 216.671 105.034L215.971 103.234Z" fill="#FFD266"/>
<path d="M247.471 97.2343C247.471 97.2343 245.771 97.0343 246.071 98.7343C246.071 98.7343 250.071 98.0343 251.171 101.234C252.271 104.434 248.571 107.034 246.571 106.034C244.571 105.034 243.171 102.534 243.171 102.534L241.571 104.234C241.571 104.234 243.571 108.634 247.671 108.834C251.771 109.034 254.571 104.534 254.271 102.334C253.971 100.134 252.271 97.4343 247.471 97.2343Z" fill="#FFD266"/>
<path d="M209.772 205.934C209.772 205.934 212.172 211.334 212.572 212.334C212.972 213.334 212.672 214.834 211.472 214.934C210.272 215.034 209.372 213.434 208.672 211.134C207.972 208.834 207.372 207.234 208.272 205.934C209.072 204.634 209.772 205.934 209.772 205.934Z" fill="#95B8D1"/>
<path d="M203.671 208.935C203.671 208.935 201.571 206.735 199.571 207.335C197.571 207.935 192.471 214.835 190.071 216.635C187.671 218.435 185.171 220.935 185.171 223.835C185.171 226.735 184.971 230.135 187.971 229.035C190.971 227.935 193.471 226.235 193.271 224.235C193.271 224.235 191.571 224.935 190.271 223.435C188.971 221.935 192.671 218.135 193.771 216.935C194.871 215.735 200.971 209.935 203.671 208.935Z" fill="#309C7D"/>
<path d="M237.271 209.634C237.271 209.634 233.871 213.734 234.171 214.534C234.471 215.334 236.771 216.134 237.971 214.934C239.071 213.734 241.771 209.634 241.771 209.634C241.771 209.634 238.671 209.634 237.271 209.634Z" fill="#95B8D1"/>
<path d="M251.271 208.734C251.271 208.734 258.171 214.534 258.671 218.234C259.271 221.934 257.771 222.334 256.571 221.934C255.371 221.534 258.971 225.334 261.971 224.034C264.971 222.734 263.871 215.834 260.471 212.534C257.071 209.234 254.971 208.134 254.971 208.134L251.271 208.734Z" fill="#309C7D"/>
<path d="M184.571 89.9347L174.871 91.4347C174.871 91.4347 173.571 89.2347 169.571 89.9347C165.571 90.6347 156.071 92.8347 156.571 97.2347C157.071 101.635 174.871 169.835 174.871 169.835C174.871 169.835 176.871 185.835 187.771 185.635C198.671 185.435 223.471 173.835 223.471 173.835C223.471 173.835 226.171 173.735 221.071 155.435C215.971 137.135 202.371 94.3347 201.371 91.3347C200.371 88.3347 199.571 84.8347 192.371 85.3347C185.171 85.8347 183.571 87.1347 184.571 89.9347Z" fill="#FFE9B3"/>
<path d="M190.772 104.734C190.772 104.734 181.272 102.634 175.572 107.734C169.972 112.734 166.272 121.334 170.072 128.634C173.772 135.934 181.272 138.434 190.372 137.034C199.472 135.634 203.772 124.934 203.772 120.934C203.572 116.834 201.772 106.834 190.772 104.734Z" fill="#95B8D1"/>
<path d="M183.271 107.634C183.271 107.634 173.171 111.934 172.871 118.634C172.571 125.334 173.571 131.934 181.771 133.334C189.971 134.734 197.171 129.134 198.671 123.734C200.171 118.234 200.171 114.734 197.371 112.034C194.671 109.434 187.871 106.434 183.271 107.634Z" fill="#2E526B"/>
<path d="M191.871 103.234C191.871 103.234 184.071 112.834 182.471 120.834C182.471 120.834 181.271 114.934 180.871 112.934C180.371 110.934 178.971 111.234 179.371 113.134C179.771 115.034 179.771 116.634 179.771 116.634C179.771 116.634 178.571 113.134 177.871 113.434C177.171 113.734 178.471 117.234 178.471 117.234C178.471 117.234 177.471 116.234 176.971 116.534C176.471 116.834 180.271 124.934 180.971 126.334C181.671 127.734 182.671 131.834 183.571 129.634C184.471 127.334 190.771 114.934 193.171 110.734C195.671 106.434 198.471 103.834 197.671 103.234C196.871 102.634 195.171 104.734 195.171 104.734C195.171 104.734 196.971 102.534 196.271 102.034C195.571 101.534 193.071 104.234 193.071 104.234C193.071 104.234 197.071 99.7343 196.471 99.2343C195.771 98.7343 192.971 101.734 191.871 103.234Z" fill="#F48498"/>
<path d="M240.771 182.135C240.771 182.135 238.971 178.535 238.871 177.435C238.771 176.335 239.871 176.635 239.871 176.635L241.871 181.335C241.771 181.335 242.571 182.635 240.771 182.135Z" fill="#457AA0"/>
<path d="M230.771 181.035V187.135H233.471V180.535L230.771 181.035Z" fill="#95B8D1"/>
<path d="M230.771 179.435C230.771 179.435 229.671 180.335 230.271 181.135C230.771 181.935 232.771 182.935 233.471 181.135C234.171 179.335 231.971 178.735 230.771 179.435Z" fill="#FFD266"/>
<path d="M188.471 69.7344C188.471 69.7344 185.971 64.9344 176.871 65.9344C167.771 66.9344 166.971 70.8344 166.971 70.8344L169.871 72.8344C169.871 72.8344 172.971 69.7344 177.771 69.3344C182.571 68.9344 186.571 71.9344 186.571 71.9344L188.471 69.7344Z" fill="#2E526B"/>
<path d="M192.771 61.7343L194.671 59.4343C194.671 59.4343 188.071 51.0343 174.171 51.4343C160.271 51.8343 155.371 60.4343 155.371 60.4343L158.971 62.3343C158.971 62.3343 167.371 54.3343 174.971 55.2343C182.571 56.1343 188.771 58.6343 192.771 61.7343Z" fill="#2E526B"/>
<path d="M197.871 49.6344L200.271 46.6344C200.271 46.6344 187.871 33.2344 171.871 34.0344C155.871 34.8344 146.371 46.9344 146.371 46.9344L150.271 48.8344C150.271 48.8344 162.371 38.2344 172.071 38.3344C181.771 38.4344 189.571 41.9344 197.871 49.6344Z" fill="#2E526B"/>
<path d="M174.772 154.235C174.072 155.035 170.972 154.035 170.772 154.035C171.072 154.135 175.172 156.035 173.672 156.635C172.172 157.335 168.772 155.035 168.772 155.035C167.772 155.035 166.772 154.835 165.672 154.635C160.672 153.735 155.172 151.535 152.772 149.235C149.872 146.435 142.872 140.335 144.472 130.435C145.672 123.435 152.272 120.135 155.872 118.935C157.172 124.235 158.472 129.535 159.572 133.835C158.472 135.435 157.472 137.735 158.172 140.435C158.972 143.535 161.372 146.035 163.372 147.735C165.072 149.135 166.572 149.935 166.572 149.935C166.572 149.935 172.472 146.435 172.272 147.535C172.072 148.635 170.472 149.735 169.672 150.335C168.872 150.935 169.572 151.335 169.572 151.335C169.572 151.335 175.172 150.535 174.672 151.435C174.272 152.335 171.072 153.235 171.072 153.235C171.072 153.235 175.472 153.435 174.772 154.235Z" fill="#FACCD4"/>
<path d="M244.871 89.8347C244.871 89.8347 248.071 87.0347 249.771 87.0347C251.471 87.0347 252.971 88.9347 252.071 91.5347C251.171 94.1347 249.171 96.3347 248.071 96.9347C247.071 97.5347 247.171 96.9347 248.071 95.9347C248.971 94.9347 251.271 92.0347 251.271 90.5347C251.171 89.0347 250.371 87.7347 249.071 88.3347C247.771 88.9347 244.871 90.9347 244.871 90.9347C244.871 90.9347 243.971 90.3347 244.871 89.8347Z" fill="#2E526B"/>
<path d="M250.771 75.1344C250.771 75.1344 251.471 78.3344 251.071 79.8344C250.771 81.3344 245.271 86.6344 244.471 87.0344C243.671 87.3344 243.671 88.6344 244.871 87.9344C246.071 87.2344 248.671 85.4344 250.571 82.0344C252.471 78.6344 251.871 76.0344 251.371 75.1344C250.971 74.2344 250.371 74.1344 250.771 75.1344Z" fill="#663613"/>
<path d="M228.271 94.4342C228.271 94.4342 227.271 100.434 226.371 102.234C225.971 103.034 225.771 103.534 225.771 103.534C225.771 103.534 224.871 103.834 224.571 104.034C223.971 104.334 223.671 104.134 222.971 104.334C221.871 104.534 222.771 105.134 223.471 105.034C224.171 104.934 224.471 105.234 225.771 104.334C225.771 104.334 225.571 106.034 226.971 105.934C228.371 105.834 230.771 103.234 230.771 103.234C230.771 103.234 232.271 104.034 233.671 103.034C233.671 103.034 235.471 105.334 237.971 104.934C240.471 104.534 238.271 104.334 237.671 104.334C237.071 104.334 234.271 103.034 233.971 102.434C233.971 102.434 234.071 100.334 232.571 100.734C232.571 100.734 232.071 101.134 232.471 101.334C232.871 101.534 233.771 101.934 233.171 102.534C232.571 103.134 231.671 102.834 231.171 102.634C230.671 102.434 230.371 102.334 230.171 102.734C229.971 103.134 227.171 105.534 226.671 105.134C226.171 104.734 226.471 103.734 227.171 102.334C227.971 100.934 228.771 95.7342 228.771 94.4342C228.771 93.1342 228.271 94.4342 228.271 94.4342Z" fill="#2E526B"/>
<path d="M225.971 107.234C225.971 107.234 227.971 110.034 230.171 109.534C232.371 109.034 234.371 106.934 234.971 106.534C235.571 106.134 235.871 106.534 235.271 107.234C234.671 107.934 232.271 110.534 229.971 110.434C227.671 110.334 226.071 108.334 225.671 107.634C225.271 106.934 225.471 107.034 225.971 107.234Z" fill="#2E526B"/>
<path d="M213.071 96.4345C213.071 96.4345 212.371 95.3345 211.271 95.7345C210.071 96.2345 209.071 98.1345 209.671 100.635C210.271 103.135 211.971 105.235 213.671 104.935C213.671 104.935 214.071 104.535 215.971 103.435C215.971 103.435 216.071 105.735 220.171 109.235C224.171 112.735 226.371 114.235 230.471 114.135C234.571 114.135 237.671 109.935 238.971 108.335C240.271 106.735 243.971 101.635 244.971 100.235C245.971 98.8346 244.771 99.6345 244.271 100.335C243.771 101.035 238.771 107.335 236.971 109.135C235.171 110.935 231.471 113.635 228.671 112.735C225.871 111.835 221.671 109.335 220.071 107.335C218.371 105.335 217.071 104.335 216.771 103.135C216.471 101.935 215.471 102.635 214.771 103.135C214.071 103.635 212.271 104.835 211.271 102.335C210.271 99.8345 210.271 96.9345 211.471 96.6345C212.571 96.3345 212.971 96.7345 213.271 97.0345C213.571 97.5345 213.471 96.8345 213.071 96.4345Z" fill="#2E526B"/>
<path d="M223.271 111.134V121.234L224.171 121.434L224.871 112.134L223.271 111.134Z" fill="#2E526B"/>
<path d="M239.071 107.434L236.071 120.834L237.071 120.134L241.771 104.734L239.071 107.434Z" fill="#2E526B"/>
<path d="M241.771 120.835C241.271 118.935 239.471 117.935 238.271 117.535C237.071 117.135 237.171 118.835 236.771 119.735C236.371 120.635 234.871 121.535 233.571 122.635C232.271 123.735 232.971 124.535 232.971 128.635C232.971 132.735 230.671 142.835 230.671 142.835C229.771 138.735 228.971 127.435 228.871 125.535C228.771 123.635 227.071 122.835 225.871 121.535C224.671 120.235 223.371 119.135 222.671 119.635C221.971 120.135 221.371 121.335 220.371 121.535C219.371 121.735 216.371 120.835 216.371 120.835L216.771 122.235H220.071C220.071 122.235 222.971 132.035 224.371 134.835C225.771 137.635 227.271 136.735 226.671 133.735C226.071 130.735 227.471 127.535 227.471 127.535C227.871 131.535 228.971 138.735 229.171 140.935C229.271 143.135 229.671 146.235 230.771 146.235C231.871 146.235 231.571 144.135 232.671 139.835C233.771 135.435 234.471 128.335 234.471 128.335C234.671 130.535 235.071 134.235 236.171 134.335C237.271 134.435 237.171 132.935 237.971 131.635C238.771 130.335 242.371 122.735 241.771 120.835ZM225.771 131.035C225.671 132.535 226.471 134.835 225.771 135.035C225.071 135.135 223.371 130.035 222.771 128.435C222.271 126.835 221.071 122.635 221.271 121.935C221.471 121.235 222.571 120.835 222.571 120.835C223.271 120.335 224.071 121.535 224.971 122.735C225.871 123.935 227.371 124.735 227.171 125.835C227.171 126.835 225.871 129.635 225.771 131.035ZM238.471 127.835C237.271 129.835 237.271 132.035 236.271 132.335C235.271 132.635 235.171 128.435 234.971 127.135C234.771 125.835 234.471 124.135 235.571 123.335C236.671 122.535 237.671 118.535 237.671 118.535C238.071 117.735 241.071 120.135 241.371 121.535C241.671 122.835 239.671 125.935 238.471 127.835Z" fill="#2E526B"/>
<path d="M245.372 134.434C245.372 134.434 245.972 140.734 248.172 142.334C250.372 143.934 251.272 144.234 249.772 145.834C248.272 147.434 246.472 149.034 246.372 152.134C246.172 155.234 245.872 160.134 244.972 163.134C244.072 166.134 244.772 166.634 242.072 165.734C239.372 164.834 235.772 163.334 234.372 163.034C233.072 162.834 233.572 163.234 234.672 163.634C235.872 164.034 242.572 166.634 243.572 167.334C244.572 168.034 245.072 167.334 245.372 166.134C245.672 164.934 247.272 158.234 247.372 155.434C247.572 152.534 247.572 148.934 249.972 146.934C252.372 144.934 252.472 143.234 250.572 142.034C248.672 140.834 247.072 137.234 246.672 134.934C246.172 132.634 245.372 132.834 245.372 134.434Z" fill="#2E526B"/>
<path d="M231.672 160.534C228.672 160.434 229.172 162.234 229.172 162.234C229.172 162.234 228.972 163.734 230.072 165.234C231.172 166.634 233.372 165.334 233.972 164.334C234.572 163.334 234.672 160.734 231.672 160.534ZM231.072 165.034C230.272 164.734 229.272 163.234 229.872 162.234C230.272 161.434 231.472 161.534 231.472 161.534C231.472 161.534 233.272 161.234 233.472 162.334C233.672 164.034 231.872 165.334 231.072 165.034Z" fill="#2E526B"/>
<path d="M233.071 161.434C233.071 161.434 235.271 158.234 237.471 157.534C239.671 156.834 243.471 157.734 244.371 158.434C245.271 159.134 245.071 160.234 243.471 161.034C241.971 161.834 238.371 163.334 236.471 162.934C234.571 162.634 233.871 162.534 233.871 162.534C233.871 162.534 233.071 162.134 233.871 162.134C234.671 162.134 237.171 162.534 238.171 162.234C240.071 161.634 243.971 160.434 244.171 159.334C244.371 158.334 242.371 158.134 240.871 158.034C239.371 157.934 237.271 158.034 236.171 159.034C235.071 160.034 233.571 161.534 233.571 161.534L233.071 161.434Z" fill="#2E526B"/>
<path d="M231.271 165.634C231.271 165.634 230.971 167.534 231.971 169.734C232.971 171.934 235.871 174.134 236.571 174.234C237.271 174.334 237.171 173.334 237.071 171.634C237.071 169.934 237.171 165.234 233.971 164.234C233.971 164.234 233.171 164.134 233.871 164.834C234.571 165.534 236.171 167.734 236.371 169.234C236.571 170.734 236.671 173.334 236.271 173.334C235.771 173.334 233.171 170.834 232.771 169.834C232.371 168.834 231.771 166.334 231.871 165.534H231.271V165.634Z" fill="#2E526B"/>
<path d="M229.671 164.634H229.471L229.671 165.434L230.271 165.034L229.671 164.634Z" fill="#2E526B"/>
<path d="M232.672 175.534C232.672 175.534 232.972 176.134 232.872 176.634C232.772 177.134 233.072 177.234 233.172 176.834C233.272 176.434 233.272 175.734 233.072 175.434C232.872 175.134 232.672 175.534 232.672 175.534Z" fill="#2E526B"/>
<path d="M233.171 179.434C233.171 179.434 232.671 178.634 231.671 178.834C230.771 179.034 229.771 179.634 229.871 180.434C229.971 181.334 230.271 182.034 231.071 182.234C231.871 182.434 233.071 182.334 233.471 181.634C233.771 180.934 233.471 180.634 233.271 181.234C233.071 181.834 231.671 182.134 231.371 181.834C230.971 181.534 230.371 180.734 230.471 180.134C230.571 179.534 231.471 179.034 232.271 179.334C233.071 179.634 233.371 180.034 233.171 179.434Z" fill="#2E526B"/>
<path d="M233.172 181.735C233.372 181.635 235.072 182.135 236.972 181.735C238.872 181.335 240.272 181.035 240.272 181.035L240.472 181.435C240.472 181.435 237.572 182.335 236.472 182.335C235.372 182.335 233.572 182.235 232.672 182.035L233.172 181.735Z" fill="#2E526B"/>
<path d="M231.071 182.235C230.871 182.635 230.171 182.135 229.271 182.035C228.671 181.935 227.871 181.735 227.271 181.535C227.371 181.435 227.471 181.435 227.471 181.335C226.871 181.235 226.471 181.135 226.471 181.135L226.671 180.935C226.771 180.935 227.171 181.035 227.771 181.135C228.871 181.335 230.471 181.535 230.471 181.535C230.471 181.535 230.871 181.635 231.071 181.835C231.071 182.035 231.171 182.135 231.071 182.235Z" fill="#2E526B"/>
<path d="M244.271 87.7345C244.271 87.7345 241.871 87.0345 237.771 87.3345C233.671 87.6345 231.771 90.5345 231.771 90.5345C231.771 90.5345 228.571 90.3345 226.771 90.9345C226.771 90.9345 223.271 88.8345 218.971 89.3345C214.671 89.8345 212.571 90.9345 212.571 90.9345L213.271 94.9345H215.071C215.071 94.9345 217.171 100.535 221.471 100.635C225.771 100.735 226.971 94.6345 226.971 94.6345C226.971 94.6345 230.071 94.1345 232.171 94.2345C232.171 94.2345 234.371 98.8345 238.471 98.8345C242.571 98.8345 243.071 91.1345 243.071 91.1345L244.971 91.0345L244.271 87.7345Z" fill="#309C7D"/>
<path d="M224.171 93.0345C224.171 93.0345 222.171 90.3345 218.871 91.5345C215.471 92.7345 216.471 94.2345 217.371 95.9345C218.271 97.5345 220.571 99.4345 222.871 97.9345C225.071 96.4345 224.971 94.3345 224.171 93.0345Z" fill="#2E526B"/>
<path d="M234.071 92.4345C234.071 92.4345 235.171 89.3345 238.771 89.4345C242.371 89.5345 241.871 91.3345 241.471 93.1345C241.071 94.9345 239.371 97.4345 236.771 96.7345C234.171 96.0345 233.671 93.9345 234.071 92.4345Z" fill="#2E526B"/>
<path d="M186.071 144.134C186.071 144.134 179.571 146.134 177.871 146.734C176.171 147.334 175.671 148.534 177.471 147.834C179.271 147.134 183.571 145.934 185.671 145.234C187.771 144.534 188.271 143.434 186.071 144.134Z" fill="#2E526B"/>
<path d="M214.571 160.335C214.571 160.335 208.071 162.335 206.371 162.935C204.671 163.535 204.171 164.735 205.971 164.035C207.771 163.335 212.071 162.135 214.171 161.435C216.271 160.735 216.671 159.635 214.571 160.335Z" fill="#2E526B"/>
<path d="M177.871 151.035C177.871 151.035 186.371 148.535 187.471 148.035C188.571 147.535 188.471 148.435 187.471 148.735C186.471 148.935 180.071 150.835 178.871 151.435C177.671 152.035 176.871 151.435 177.871 151.035Z" fill="#2E526B"/>
<path d="M178.971 155.335C178.971 155.335 185.771 153.235 188.071 152.635C190.371 152.035 191.271 152.935 189.271 153.435C187.271 153.935 181.171 155.735 180.071 156.035C178.971 156.335 178.071 156.035 178.971 155.335Z" fill="#2E526B"/>
<path d="M180.271 159.734C180.271 159.734 187.871 157.434 189.371 157.234C190.871 157.034 190.371 157.834 189.371 158.134C188.371 158.434 181.771 160.234 180.871 160.534C179.971 160.834 179.571 160.034 180.271 159.734Z" fill="#2E526B"/>
<path d="M201.371 149.834C201.371 149.834 208.971 147.534 210.471 147.334C211.971 147.134 211.471 147.934 210.471 148.234C209.471 148.534 202.871 150.334 201.971 150.634C201.071 150.934 200.571 150.034 201.371 149.834Z" fill="#2E526B"/>
<path d="M207.971 172.134C207.971 172.134 215.571 169.834 217.071 169.634C218.571 169.434 218.071 170.234 217.071 170.534C216.071 170.834 209.471 172.634 208.571 172.934C207.571 173.234 207.171 172.434 207.971 172.134Z" fill="#2E526B"/>
<path d="M203.171 158.634C203.171 158.634 210.771 156.334 212.271 156.134C213.771 155.934 213.271 156.734 212.271 157.034C211.271 157.334 204.671 159.134 203.771 159.434C202.871 159.734 202.471 158.834 203.171 158.634Z" fill="#2E526B"/>
<path d="M181.871 164.634C181.871 164.634 188.671 161.934 190.271 161.534C191.971 161.034 192.771 161.934 191.171 162.434C189.571 163.034 184.171 165.134 182.771 165.434C181.371 165.734 181.871 164.634 181.871 164.634Z" fill="#2E526B"/>
<path d="M206.371 168.734C206.371 168.734 213.171 166.034 214.771 165.634C216.371 165.234 217.271 166.034 215.671 166.534C214.071 167.034 208.671 169.234 207.271 169.534C205.871 169.834 206.371 168.734 206.371 168.734Z" fill="#2E526B"/>
<path d="M199.071 144.434C199.071 144.434 205.871 141.734 207.471 141.334C209.171 140.834 209.971 141.734 208.371 142.234C206.771 142.834 201.371 144.934 199.971 145.234C198.671 145.634 199.071 144.434 199.071 144.434Z" fill="#2E526B"/>
<path d="M183.171 169.835C183.171 169.835 190.771 167.535 192.471 166.935C194.171 166.335 193.971 167.335 192.471 167.835C190.971 168.335 184.771 170.135 183.971 170.435C183.171 170.735 182.371 170.535 183.171 169.835Z" fill="#2E526B"/>
<path d="M201.971 154.734C201.971 154.734 209.571 152.434 211.271 151.834C212.971 151.234 212.771 152.234 211.271 152.734C209.771 153.234 203.571 155.034 202.771 155.334C201.971 155.634 201.071 155.434 201.971 154.734Z" fill="#2E526B"/>
<path d="M184.772 174.634C184.772 174.634 192.372 172.534 193.872 172.034C195.372 171.534 195.372 172.234 194.472 172.734C193.572 173.234 186.272 175.334 185.472 175.434C184.672 175.634 184.072 174.834 184.772 174.634Z" fill="#2E526B"/>
<path d="M187.471 178.734C187.471 178.734 193.871 176.734 195.171 176.134C196.471 175.534 196.671 176.734 195.671 177.034C194.671 177.334 189.371 179.134 188.271 179.434C187.171 179.734 187.471 178.734 187.471 178.734Z" fill="#2E526B"/>
<path d="M196.971 140.734C196.971 140.734 203.371 138.734 204.671 138.134C205.971 137.534 206.171 138.734 205.171 139.034C204.171 139.334 198.871 141.134 197.771 141.434C196.571 141.634 196.971 140.734 196.971 140.734Z" fill="#2E526B"/>
<path d="M206.971 182.934C206.971 182.934 205.071 183.834 205.871 185.634C206.671 187.434 209.371 187.234 210.171 185.934C210.971 184.634 209.371 182.234 206.971 182.934Z" fill="#FACCD4"/>
<path d="M229.971 65.2344C229.971 65.2344 225.071 62.7344 223.171 62.7344C221.271 62.7344 218.471 63.1344 217.771 63.9344C217.071 64.8344 217.771 65.0344 219.171 64.3344C220.571 63.6344 223.771 62.7344 225.371 63.9344C227.071 65.1344 229.471 66.0344 230.071 66.0344C230.671 66.0344 230.671 65.5344 229.971 65.2344Z" fill="#663613"/>
<path d="M222.571 73.5346C222.571 73.5346 226.371 66.6346 229.971 64.4346C233.571 62.2346 239.171 62.0346 241.571 63.0346C243.971 64.0346 241.971 64.7346 240.871 63.8346C239.871 63.0346 233.771 63.3346 232.271 64.3346C230.671 65.3346 228.071 67.3346 226.871 69.2346C225.671 71.1346 223.571 73.1346 223.171 74.1346C222.871 75.2346 221.971 74.6346 222.571 73.5346Z" fill="#663613"/>
<path d="M214.672 66.6345C214.872 66.6345 216.772 64.5345 221.572 65.0345C226.272 65.5345 227.472 67.8345 227.472 67.8345L226.972 68.4345C226.972 68.4345 224.772 66.6345 222.872 66.5345C220.972 66.4345 214.672 67.4345 214.672 67.4345V66.6345Z" fill="#663613"/>
<path d="M214.171 69.3344C214.171 69.3344 216.871 67.5344 219.771 68.3344C222.671 69.1344 224.071 72.1344 224.071 72.1344L223.571 72.8344C223.571 72.8344 221.971 70.2344 220.671 69.6344C219.371 69.0344 216.271 69.2344 215.271 69.7344C214.271 70.2344 213.471 69.7344 214.171 69.3344Z" fill="#663613"/>
<path d="M213.372 71.7344C213.372 71.7344 217.172 75.0344 220.672 75.6344C224.172 76.2344 223.972 76.8344 222.772 76.8344C221.572 76.9344 218.672 76.7344 216.772 75.4344C214.872 74.0344 212.872 72.8344 212.472 72.0344C212.172 71.3344 212.772 71.2344 213.372 71.7344Z" fill="#663613"/>
<path d="M210.372 70.9343C210.372 71.1343 211.472 76.1343 213.172 77.6343C214.872 79.1343 217.772 79.5343 218.772 79.5343C219.672 79.5343 219.872 80.7343 218.072 80.4343C216.272 80.1343 212.572 79.5343 211.372 76.5343C210.172 73.5343 209.772 72.1343 209.872 71.1343C209.972 70.1343 210.372 70.9343 210.372 70.9343Z" fill="#663613"/>
<path d="M214.671 84.9344C214.671 84.9344 211.171 83.6344 210.171 80.4344C209.171 77.3344 209.371 74.4344 209.471 72.7344C209.471 72.3344 208.371 72.4344 208.371 73.1344C208.371 74.7344 208.371 79.4344 209.471 81.7344C210.571 84.0344 212.471 85.7344 213.871 85.7344C215.271 85.7344 214.671 84.9344 214.671 84.9344Z" fill="#663613"/>
<path d="M211.871 89.5347C211.671 89.3347 209.571 88.4347 209.271 86.1347C208.971 83.8347 208.871 77.4347 208.871 77.4347V72.5347L207.871 72.9347C207.871 72.9347 207.471 77.9347 207.471 81.6347C207.471 85.3347 207.671 90.2347 209.471 93.0347C211.271 95.9347 213.071 96.5347 213.071 96.5347C213.071 96.5347 213.671 96.4347 212.471 94.9347C211.171 93.5347 210.171 91.7347 209.571 89.2347C209.571 89.2347 210.671 90.0347 211.671 90.5347C212.671 91.0347 212.571 90.0347 211.871 89.5347Z" fill="#663613"/>
<path d="M217.171 60.3344C217.171 60.3344 213.671 59.2344 210.771 60.9344C207.871 62.6344 205.071 66.7344 204.871 68.9344C204.671 71.1344 205.971 74.3344 208.371 73.8344C210.771 73.3344 211.271 70.2344 212.471 68.9344C213.571 67.7344 217.871 66.1344 218.571 64.4344C219.271 62.7344 218.371 61.0344 217.171 60.3344ZM212.471 67.5344C210.471 69.1344 209.771 71.2344 208.971 72.4344C208.071 73.6344 206.771 72.2344 206.071 70.3344C205.371 68.3344 207.971 65.1344 209.771 62.8344C211.671 60.5344 215.171 61.3344 215.171 61.3344C216.371 61.4344 217.571 62.2344 217.871 63.3344C217.971 64.4344 214.471 65.9344 212.471 67.5344Z" fill="#663613"/>
<path d="M216.772 61.1343C216.772 61.1343 217.772 56.4343 214.572 55.5343C211.472 54.6343 207.572 54.7343 206.472 56.4343C205.372 58.1343 202.372 60.3343 203.172 63.2343C203.972 66.1343 205.872 67.2343 205.872 67.2343L206.672 66.1343C206.672 66.1343 203.572 63.9343 203.672 62.4343C203.772 60.9343 205.872 57.6343 207.472 56.7343C209.072 55.8343 213.472 55.9343 214.572 56.6343C215.672 57.2343 215.872 60.4343 215.672 60.7343L216.772 61.1343Z" fill="#663613"/>
<path d="M212.871 60.5347C212.871 60.5347 213.871 56.9347 211.071 55.5347L210.271 55.7347C210.271 55.7347 211.771 56.7347 211.971 58.0347C212.171 59.3347 211.771 60.9347 211.771 60.9347L212.871 60.5347Z" fill="#663613"/>
<path d="M209.772 62.0344C209.772 62.0344 207.572 59.3344 207.572 58.0344C207.572 56.7344 207.572 56.2344 207.572 56.2344L206.572 56.9344C206.572 56.9344 206.472 59.4344 207.472 60.6344C208.472 61.8344 209.172 62.8344 209.172 62.8344L209.772 62.0344Z" fill="#663613"/>
<path d="M210.071 61.7344C210.071 61.7344 209.071 63.8344 210.271 65.8344C211.471 67.7344 212.571 68.1344 212.571 68.1344L213.471 67.5344C213.471 67.5344 210.971 65.8344 210.771 64.3344C210.571 62.8344 211.071 61.2344 211.071 61.2344L210.071 61.7344Z" fill="#663613"/>
<path d="M207.571 64.7344C207.571 64.7344 207.671 67.9344 209.171 68.8344C210.671 69.6344 211.071 69.8344 211.071 69.8344L210.371 70.9344C210.371 70.9344 207.971 69.5344 207.571 67.8344C207.171 66.1344 206.971 65.4344 206.971 65.4344L207.571 64.7344Z" fill="#663613"/>
<path d="M243.572 65.8342C243.572 65.8342 238.072 63.8342 234.972 65.2342C231.772 66.7342 227.372 70.3342 226.572 72.5342C225.672 74.7342 224.672 76.0342 225.072 76.7342C225.372 77.4342 225.972 77.1342 226.472 75.9342C226.972 74.7342 229.072 70.9342 230.172 69.9342C231.272 68.9342 235.872 65.8342 237.672 65.9342C239.472 66.0342 242.672 66.4342 243.372 66.6342C244.072 66.8342 244.472 66.1342 243.572 65.8342Z" fill="#663613"/>
<path d="M245.771 67.8343C245.771 67.8343 242.071 66.9343 240.271 68.1343C238.471 69.3343 234.771 72.8343 233.271 74.1343C231.771 75.4343 229.571 76.2343 230.571 76.8343C231.471 77.5343 232.071 76.8343 233.171 75.9343C234.271 75.0343 238.771 71.0343 240.071 69.9343C241.371 68.8343 244.271 68.5343 245.171 68.7343C246.071 68.9343 246.671 68.0343 245.771 67.8343Z" fill="#663613"/>
<path d="M247.771 70.9346C247.771 70.9346 246.171 71.3346 243.971 73.3346C241.771 75.3346 239.271 77.3346 238.871 78.2346C238.471 79.1346 238.671 79.8346 239.571 79.0346C240.471 78.2346 242.771 75.8346 243.871 75.0346C244.871 74.2346 247.471 72.2346 248.071 71.8346C248.571 71.4346 248.371 70.7346 247.771 70.9346Z" fill="#663613"/>
<path d="M249.671 74.2344C249.671 74.5344 248.871 78.4344 247.571 79.7344C246.271 81.1344 244.171 82.5344 244.071 82.9344C243.971 83.3344 243.471 84.2344 244.771 83.3344C246.071 82.4344 248.471 80.8344 249.271 78.9344C250.171 77.0344 250.471 75.5344 250.471 74.7344C250.571 73.9344 249.771 73.4344 249.671 74.2344Z" fill="#663613"/>
<path d="M256.371 61.3346C255.771 60.1346 252.671 57.4346 249.971 57.6346C247.271 57.8346 247.571 59.8346 247.571 59.8346C247.571 59.8346 246.671 59.5346 245.071 59.3346C243.471 59.1346 242.171 60.0346 241.471 61.3346C240.871 62.6346 241.471 63.6346 242.671 65.1346C243.871 66.6346 248.171 72.8346 248.771 73.9346C249.371 75.0346 250.871 76.3346 253.371 73.9346C255.771 71.5346 254.571 67.5346 254.571 67.5346C256.471 66.9346 256.971 62.5346 256.371 61.3346ZM252.371 73.5346C251.271 74.7346 250.071 73.0346 248.371 70.7346C246.771 68.3346 243.171 63.9346 242.671 62.9346C242.171 61.9346 243.271 60.4346 244.771 60.4346C246.271 60.4346 248.271 61.5346 248.271 61.5346C248.271 61.5346 250.671 64.5346 252.571 66.6346C254.571 68.7346 253.471 72.3346 252.371 73.5346ZM254.771 66.1346C254.171 66.3346 253.671 66.4346 253.671 66.4346C253.671 66.4346 252.271 63.3346 249.271 60.9346C249.271 60.9346 247.471 59.6346 249.671 58.6346C251.871 57.6346 255.171 61.1346 255.571 61.8346C255.971 62.5346 255.471 65.9346 254.771 66.1346Z" fill="#663613"/>
<path d="M244.171 65.7344C244.271 65.6344 243.471 63.4344 245.271 61.9344C247.071 60.4344 248.171 60.6344 248.171 60.6344L248.971 61.6344C248.971 61.6344 246.871 61.3344 245.771 62.8344C244.671 64.3344 244.971 66.5344 244.971 66.5344L244.171 65.7344Z" fill="#663613"/>
<path d="M250.371 63.1343C250.371 63.1343 250.071 66.3343 245.771 67.8343L246.271 68.9343C246.271 68.9343 250.671 67.2343 251.171 64.1343L250.371 63.1343Z" fill="#663613"/>
<path d="M251.071 68.3345C251.071 68.3345 249.571 70.4345 247.771 70.9345L248.571 72.1345C248.571 72.1345 250.771 70.7345 251.571 68.9345C252.271 67.3345 251.871 67.4345 251.071 68.3345Z" fill="#663613"/>
<path d="M254.871 60.5347C254.871 60.5347 253.771 63.4347 252.471 64.6347L252.871 65.2347C252.871 65.2347 255.271 62.7347 255.571 61.1347L254.871 60.5347Z" fill="#663613"/>
<path d="M252.772 58.8345C252.772 58.8345 250.172 59.4345 250.172 62.2345L250.572 62.8345C250.572 62.8345 251.172 59.7345 253.372 59.3345L252.772 58.8345Z" fill="#663613"/>
<path d="M241.172 120.035C241.172 120.035 243.672 118.235 246.172 119.535C248.672 120.835 257.172 127.535 258.472 127.835C259.672 128.135 261.672 128.635 261.672 128.635L261.472 129.635C261.472 129.635 257.772 129.035 255.272 127.135C252.772 125.235 248.072 120.935 245.572 120.935C243.072 120.835 241.772 121.535 241.772 121.535L241.172 120.035Z" fill="#2E526B"/>
<path d="M250.371 145.834C250.371 145.834 253.371 149.434 256.871 149.334L256.671 150.434C256.671 150.434 253.171 150.734 250.071 146.334L250.371 145.834Z" fill="#2E526B"/>
<path d="M262.971 127.834C262.971 127.834 261.371 127.534 261.171 128.134C260.771 129.234 259.971 132.734 259.671 134.734C259.371 136.734 256.671 146.934 256.371 148.134C256.071 149.234 255.771 151.434 257.671 151.534C259.671 151.634 261.371 150.434 261.671 148.534C261.971 146.634 265.471 132.034 265.771 130.734C266.071 129.534 266.671 127.934 262.971 127.834ZM264.671 132.034C264.671 132.034 261.071 148.234 259.971 149.534C258.871 150.834 257.571 149.834 257.271 149.134C256.971 148.434 260.771 135.134 261.071 133.434C261.471 131.734 261.571 129.234 262.171 128.934C262.771 128.734 264.671 129.534 264.671 129.534C265.171 130.034 264.671 132.034 264.671 132.034Z" fill="#2E526B"/>
<path d="M265.071 131.734C265.071 131.734 271.771 133.534 276.171 132.534C280.471 131.534 283.071 129.534 284.171 126.834C285.271 124.134 286.971 116.134 287.371 112.134C287.771 108.134 287.371 105.934 288.771 103.834C290.171 101.734 291.071 100.934 291.271 99.3343C291.471 97.7343 291.671 95.6343 292.471 95.5343C293.371 95.4343 295.171 97.8343 294.171 101.334L293.371 102.334C293.371 102.334 293.671 99.1343 293.571 98.0343C293.471 96.8343 292.671 95.9343 292.371 97.1343C292.071 98.3343 292.471 100.834 291.571 101.834C290.571 102.834 288.971 104.934 288.771 106.334C288.571 107.734 287.971 116.834 287.471 119.334C286.971 121.834 286.371 130.134 280.571 132.434C274.771 134.734 264.871 133.234 264.871 133.234L265.071 131.734Z" fill="#2E526B"/>
<path d="M261.771 146.834C261.771 146.834 267.971 147.634 272.971 146.834C277.971 146.034 280.571 145.634 281.071 145.734C281.571 145.834 281.971 147.534 282.571 147.134C283.171 146.834 282.571 145.634 282.871 144.834C283.271 144.034 285.871 142.534 288.171 138.234C290.471 133.934 291.771 129.234 291.671 121.934C291.671 114.634 290.571 111.934 291.271 111.234C291.971 110.534 295.871 108.534 296.771 107.934C297.771 107.334 298.771 106.634 297.971 107.434C297.171 108.234 294.371 111.034 293.371 111.634C292.371 112.234 291.871 112.134 292.171 115.134C292.471 118.134 292.971 124.634 292.371 128.834C291.771 133.034 289.571 140.034 286.371 142.634C283.271 145.234 283.871 145.334 283.871 146.334C283.871 147.334 283.271 148.834 282.371 148.434C281.371 148.034 281.171 147.034 280.171 146.834C279.171 146.634 272.671 147.934 269.471 148.234C266.271 148.534 261.071 147.834 261.071 147.834L261.771 146.834Z" fill="#2E526B"/>
<path d="M297.271 105.435C297.271 105.435 298.471 103.135 296.171 103.035C296.171 103.035 296.271 100.635 294.271 101.335C294.171 101.335 293.971 101.435 293.871 101.535C293.871 101.535 293.771 101.635 293.571 101.835C293.071 102.335 291.971 103.335 291.471 104.335C290.771 105.635 291.171 106.435 291.971 106.035C291.971 106.035 291.371 106.535 291.571 107.035C291.771 107.535 292.271 107.735 292.871 107.535C292.671 107.635 292.071 107.835 292.171 108.535C292.271 109.235 293.471 109.735 294.871 109.235C296.071 108.835 296.771 108.735 297.571 108.035C297.671 107.935 297.771 107.835 297.871 107.735C297.971 107.735 297.971 107.635 298.071 107.535C298.171 107.435 298.271 107.335 298.271 107.135C298.771 106.135 297.971 105.435 297.271 105.435ZM291.771 104.735C291.971 104.035 293.171 102.935 293.171 102.935C293.171 102.935 293.871 101.935 294.671 101.735C295.571 101.535 295.771 102.535 295.271 102.935C294.871 103.335 292.971 104.835 292.171 105.335C291.371 105.835 291.571 105.435 291.771 104.735ZM292.471 106.035C292.971 105.435 295.671 103.735 295.671 103.735C296.971 103.135 297.271 104.235 296.771 104.835C296.371 105.435 293.871 106.535 292.971 106.935C291.971 107.435 291.971 106.635 292.471 106.035ZM293.871 108.935C292.971 109.135 292.471 108.435 293.271 107.935C294.071 107.435 296.671 106.135 296.671 106.135C297.771 105.635 297.871 106.535 297.571 107.035C297.271 107.535 294.771 108.735 293.871 108.935Z" fill="#2E526B"/>
<path d="M159.771 134.534C159.771 134.534 158.171 138.134 158.571 139.634C159.071 141.534 159.571 144.534 166.571 149.534C166.571 149.534 169.571 147.534 170.971 147.234C170.971 147.234 173.471 146.734 171.871 148.234C170.271 149.834 169.271 150.134 169.971 150.634C170.671 151.134 173.071 150.934 174.071 150.934C175.071 150.934 175.871 151.834 174.271 152.234C172.671 152.634 171.471 153.034 171.471 153.034C171.471 153.034 173.471 153.034 174.471 153.534C175.471 154.034 175.271 154.734 173.771 154.734C172.271 154.734 171.171 154.134 171.171 154.134C171.171 154.134 174.471 155.234 174.171 156.334C173.871 157.334 170.571 157.434 168.471 155.434C168.471 155.434 158.971 154.834 154.171 150.934C149.371 146.934 144.871 142.934 144.171 136.034C143.471 129.134 144.871 124.534 149.171 121.834C153.471 119.134 155.671 118.334 155.671 118.334L156.071 120.234C156.071 120.234 150.071 122.634 147.571 126.234C145.071 129.834 145.571 138.234 147.471 141.634C149.371 145.134 152.871 148.734 155.871 151.134C158.871 153.534 167.971 154.734 168.471 154.834C168.971 154.934 169.971 156.234 171.571 156.634C173.271 157.034 173.871 156.534 172.371 155.634C170.871 154.734 170.071 154.334 170.071 153.934C170.071 153.534 171.671 154.034 171.971 154.234C172.271 154.434 174.071 154.834 174.371 154.434C174.671 154.034 171.371 153.534 170.971 153.434C170.571 153.334 170.471 152.934 171.071 152.734C171.671 152.534 174.371 152.234 174.571 151.834C174.771 151.434 171.271 151.634 170.271 151.634C169.271 151.634 168.671 151.334 168.971 150.534C169.271 149.734 171.471 148.134 171.671 148.034C171.871 147.934 171.571 147.534 170.971 147.834C170.371 148.134 166.971 150.134 166.471 150.334C165.971 150.534 164.571 149.434 163.771 148.834C162.971 148.234 158.171 144.134 157.571 140.834C156.971 137.534 157.571 134.934 159.171 133.234L159.771 134.534Z" fill="#2E526B"/>
<path d="M243.471 167.334L242.371 176.034L242.871 175.734L244.371 167.334H243.471Z" fill="#2E526B"/>
<path d="M240.071 177.034C240.071 177.034 242.371 175.634 243.371 175.234C244.371 174.834 246.171 175.834 246.371 176.734C246.571 177.634 245.771 179.934 241.871 181.334L241.571 180.534C241.571 180.534 245.471 178.734 245.371 177.134C245.271 175.534 244.171 175.834 243.371 176.134C242.571 176.434 240.271 177.634 240.271 177.634L240.071 177.034Z" fill="#2E526B"/>
<path d="M238.871 177.435C238.871 177.435 235.471 179.035 232.571 178.935C229.671 178.935 229.071 178.535 229.071 178.535L228.771 179.035C228.771 179.035 230.171 179.335 231.171 179.235C231.171 179.235 231.371 178.835 232.371 179.235C232.371 179.235 234.971 179.635 238.971 177.935L238.871 177.435Z" fill="#2E526B"/>
<path d="M263.772 179.734C263.772 179.734 250.072 186.534 240.972 190.934C231.872 195.334 219.072 201.334 214.772 203.734C210.472 206.134 209.672 206.234 209.672 206.234L210.172 207.034C210.172 207.034 219.672 202.734 222.672 201.334C225.672 199.934 237.472 194.434 241.372 192.734C245.272 191.034 262.672 180.734 264.372 180.334C266.072 179.934 265.372 178.934 263.772 179.734Z" fill="#2E526B"/>
<path d="M223.271 199.934C223.271 199.934 203.371 193.534 200.171 193.234C196.971 192.934 194.571 193.234 194.571 193.234L193.471 194.234C193.471 194.234 197.071 193.934 201.471 195.034C205.871 196.134 222.071 200.834 222.071 200.834L223.271 199.934Z" fill="#2E526B"/>
<path d="M216.771 198.135C216.771 198.135 220.071 196.435 222.371 195.335C224.671 194.235 227.471 193.835 230.471 196.135L228.971 197.335C228.971 197.335 227.971 195.135 225.771 195.535C223.571 195.935 218.571 198.835 218.571 198.835L216.771 198.135Z" fill="#2E526B"/>
<path d="M212.871 212.334C212.571 211.234 210.871 208.134 210.471 206.934C210.371 206.334 210.071 205.134 209.371 205.134C208.271 205.134 206.971 206.434 207.371 207.834C207.771 209.234 208.371 212.834 209.471 213.934L209.571 214.034C209.671 214.134 209.671 214.234 209.871 214.334L209.971 214.434C210.871 215.134 211.171 215.434 212.071 215.234C212.871 214.834 213.171 213.434 212.871 212.334ZM211.871 214.434C211.271 214.634 210.971 214.734 210.571 214.334C210.471 214.234 210.371 214.134 210.271 213.934C210.171 213.834 210.171 213.734 210.071 213.734C209.271 212.634 208.271 209.234 208.171 208.634C208.071 207.934 208.071 206.434 208.971 205.934C209.571 205.634 210.071 206.934 210.071 206.934C210.071 206.934 210.071 206.934 210.071 207.034C210.071 207.034 210.871 209.634 211.471 210.734C212.371 212.634 212.571 214.134 211.871 214.434Z" fill="#2E526B"/>
<path d="M210.472 214.335C210.372 214.235 210.272 214.135 210.172 213.935C210.372 214.035 210.472 214.235 210.472 214.335Z" fill="#2E526B"/>
<path d="M207.771 207.234L203.871 208.534L203.271 208.734L203.071 209.334L207.771 208.334V207.234Z" fill="#2E526B"/>
<path d="M193.772 223.834C193.772 223.834 191.572 224.934 190.872 223.334C190.172 221.734 191.372 220.134 192.072 219.434C192.772 218.734 197.872 212.734 200.072 211.434C202.272 210.134 204.372 209.334 203.872 208.534C203.272 207.734 200.472 205.934 199.172 206.934C197.872 207.934 191.272 215.134 189.972 216.234C188.672 217.334 185.472 219.934 184.972 222.434C184.472 224.934 184.572 227.334 185.372 228.134C186.172 228.934 186.272 228.734 185.772 227.334C185.272 225.934 185.372 222.234 186.372 221.234C187.372 220.234 192.672 215.034 193.472 214.034C194.272 213.034 198.172 209.034 199.072 208.234C199.972 207.534 201.772 207.734 202.472 208.234C203.172 208.734 200.472 209.934 199.672 210.634C198.772 211.334 192.272 217.234 190.872 219.634C189.472 222.034 189.372 223.434 190.472 224.134C191.472 224.934 192.572 225.234 193.772 224.334C194.972 223.534 194.972 222.734 193.772 223.834Z" fill="#2E526B"/>
<path d="M212.672 212.334C212.672 212.334 230.272 209.534 234.272 209.334C238.272 209.134 247.372 208.834 250.772 208.334C254.172 207.834 262.472 206.634 267.672 203.734C272.872 200.834 276.472 198.634 277.772 195.034C279.172 191.434 279.472 193.434 278.372 195.634C277.272 197.834 273.672 203.234 267.672 205.434C261.672 207.634 253.472 209.734 247.472 210.134C241.472 210.534 239.372 209.834 233.672 210.934C227.972 212.034 212.772 213.334 212.772 213.334C212.772 213.334 212.872 213.234 212.672 212.334Z" fill="#2E526B"/>
<path d="M236.171 210.135C236.171 210.135 234.071 213.235 233.971 213.835C233.871 214.435 234.371 215.535 235.471 215.735C236.571 215.935 238.371 215.235 239.071 214.235C239.771 213.135 241.971 209.935 241.971 209.935H240.671C240.671 209.935 238.871 213.735 237.971 214.435C237.071 215.135 234.971 215.335 234.871 214.535C234.771 213.735 237.671 209.935 237.671 209.935L236.171 210.135Z" fill="#2E526B"/>
<path d="M234.771 213.335L226.871 211.435L223.571 211.935C223.571 211.935 230.771 213.935 232.371 213.935C233.971 213.935 234.471 213.935 234.471 213.935L234.771 213.335Z" fill="#2E526B"/>
<path d="M239.272 213.334C239.472 213.234 245.072 213.334 246.372 213.334C247.672 213.334 247.972 214.034 249.272 215.234C250.572 216.434 255.672 221.134 256.472 221.534C257.272 221.934 257.772 222.834 256.272 222.034C254.772 221.234 250.572 217.034 248.872 215.834C247.172 214.634 247.772 214.334 245.372 214.134C242.972 213.934 238.672 214.234 238.672 214.234L239.272 213.334Z" fill="#2E526B"/>
<path d="M250.871 209.235C250.971 209.235 256.371 213.235 257.671 217.035C258.971 220.835 258.171 221.635 257.371 221.635C256.571 221.635 255.071 221.335 255.571 221.635C256.071 221.935 256.471 222.435 257.371 222.635C258.271 222.835 259.871 222.335 259.571 219.835C259.271 217.335 255.271 211.535 253.671 210.035C252.071 208.635 252.171 208.835 252.171 208.835L250.871 209.235Z" fill="#2E526B"/>
</svg>
