<svg width="250" height="210" viewBox="0 0 501 356" fill="none" xmlns="http://www.w3.org/2000/svg">
<rect width="501" height="356" fill="none"/>
<path d="M66.2824 168.197C65.456 140.121 65.7784 104.981 64.9167 94.4368C64.0551 83.893 62.8418 71.8002 63.0177 65.0643C63.1935 58.3285 66.47 55.2129 75.4379 53.658C84.4057 52.1031 99.6042 52.4493 118.419 51.5868C133.649 50.8012 148.908 50.8012 164.138 51.5868C177.619 52.2791 208.157 54.3503 232.669 54.1743C257.181 53.9983 292.05 55.2129 302.583 55.9052C313.116 56.5976 319.499 59.191 320.706 74.3936C320.706 86.1285 319.153 212.461 317.254 221.08C315.355 229.699 308.462 237.509 305.531 240.443C302.6 243.376 295.866 245.453 281.365 245.283C266.864 245.113 249.086 247.525 229.926 247.701C210.765 247.877 185.215 248.217 160.363 247.701C135.511 247.184 105.987 248.563 95.4544 248.909C84.9215 249.255 72.8413 251.503 71.288 242.514C69.7348 233.525 68.0115 207.784 67.3199 191.883C66.6282 175.983 66.2824 168.197 66.2824 168.197Z" fill="#CAE4F8"/>
<path d="M342.651 123.446C342.651 123.545 341.479 130.17 336.157 129.982C336.743 131.155 334.984 149.556 317.5 151.222C300.016 152.889 298.626 143.829 298.679 143.665C298.732 143.501 298.017 129.982 298.017 129.982L303.292 117.602L327.447 106.876L342.651 123.446Z" fill="#FACCD4"/>
<path d="M337.141 284.883C342.932 284.812 349.45 284.812 365.317 285.546C381.184 286.279 395.427 286.907 402.619 288.227C409.81 289.548 420.337 290.879 428.467 293.285C436.597 295.691 439.188 297.152 439.018 299.153C438.848 301.153 434.328 306.551 423.966 309.485C413.603 312.419 401.153 315.223 394.882 316.221C388.61 317.218 383.358 318.087 378.358 318.286C373.359 318.486 369.033 319.888 368.98 315.552C366.249 315.552 342.018 317.899 332.874 319.02C323.731 320.14 310.759 321.889 295.643 323.954C280.527 326.02 272.127 326.354 255.405 327.023C238.682 327.692 227.763 328.824 220.366 328.783C212.969 328.742 200.519 329.957 190.062 327.316C179.606 324.676 177.068 321.449 177.8 318.779C178.533 316.109 182.8 309.526 189.658 306.95C196.073 304.523 202.769 302.918 209.587 302.174C216.186 301.441 220.647 301.042 221.046 299.909C221.444 298.777 221.444 298.108 219.979 296.905C218.513 295.702 215.319 293.708 220.981 291.572C226.643 289.436 230.236 288.838 250.223 287.84C270.211 286.843 286.447 286.15 298.304 285.757C310.162 285.364 337.141 284.883 337.141 284.883Z" fill="#CAE4F8"/>
<path d="M312.571 292.123C312.494 289.841 313.837 289.324 317.031 289.283C320.225 289.242 321.134 288.849 322.377 288.11C323.619 287.37 324.487 282.242 324.487 282.242H330.348C330.348 282.242 331.081 285.733 330.565 288.315C330.136 290.137 329.455 291.891 328.543 293.525H325.788C325.788 293.525 326.474 290.903 326.216 290.468C325.958 290.034 325.313 290.122 324.756 290.903C324.199 291.683 324.498 293.701 320.407 294.001C316.316 294.3 314.944 294.218 313.913 293.783C312.881 293.349 312.612 293.414 312.571 292.123Z" fill="#2E526B"/>
<path d="M317.031 258.696C317.031 258.696 320.419 268.331 320.735 272.637C321.052 276.944 321.703 282.553 321.703 282.553H331.702C331.702 282.553 336.286 272.074 337.405 266.928C338.525 261.783 339.163 256.167 339.163 256.167L317.031 258.696Z" fill="#95B8D1"/>
<path d="M336.532 291.865C336.157 290.503 336.614 289.066 338.941 288.808C341.268 288.55 343.372 288.72 344.878 287.259C346.385 285.798 347.071 280.881 347.071 280.881H352.346C353.135 282.604 353.547 284.477 353.553 286.373C353.512 289.365 351.314 293.414 351.314 293.414L349.339 293.203C349.851 291.904 350.295 290.581 350.669 289.236C350.845 288.291 349.497 288.115 349.034 289.107C348.571 290.099 348.389 292.469 345.634 293.115C342.88 293.76 340.945 294.235 339.187 293.889C337.429 293.543 336.854 293.115 336.532 291.865Z" fill="#2E526B"/>
<path d="M343.946 259.817L345.347 281.245H354.602L362.363 259.817H343.946Z" fill="#95B8D1"/>
<path d="M188.222 137.134H233.009C233.009 137.134 236.133 136.706 236.338 138.061C236.543 139.417 237.692 165.896 237.692 165.896H188.222L187.595 138.577L188.222 137.134Z" fill="#457AA0"/>
<path d="M194.845 184.696C198.116 184.696 223.736 183.921 226.714 183.745C229.691 183.569 232.575 183.446 233.683 183.745C234.79 184.044 236.42 183.686 236.543 186.309C236.666 188.932 236.719 194.119 237.129 200.919C237.539 207.72 237.844 210.219 237.844 210.219C237.844 210.219 238.501 212.126 236.537 212.425C234.574 212.724 227.423 213.382 219.381 213.857C211.339 214.332 188.644 214.69 188.644 214.69C188.644 214.69 187.032 204.674 186.798 199.364C186.563 194.054 186.798 186.25 186.798 186.25C186.798 186.25 186.733 184.819 187.97 184.819C189.207 184.819 194.845 184.696 194.845 184.696Z" fill="#457AA0"/>
<path d="M278.651 167.739L284.934 164.805L295.426 193.432C295.426 193.432 297.231 196.912 293.082 198.05C288.932 199.188 288.299 196.413 287.73 195.005C287.162 193.597 278.651 167.739 278.651 167.739Z" fill="#457AA0"/>
<path d="M247.826 151.908C246.302 147.367 242.492 129.501 258.904 120.559C275.316 111.617 288.768 118.716 294.57 125.253C300.373 131.789 302.19 146.082 296.387 154.003C290.585 161.924 279.389 172.926 264.935 167.821C250.481 162.716 248.465 153.809 247.826 151.908Z" fill="#457AA0"/>
<path d="M281.289 163.168C277.315 165.515 259.367 170.455 251.015 151.433C242.662 132.411 260.07 122.424 265.346 120.881C270.621 119.338 286.71 116.363 293.685 129.982C300.66 143.6 293.293 156.086 281.289 163.168Z" fill="#FACCD4"/>
<path d="M77.3838 61.1859C81.5747 61.6846 83.2452 63.9905 83.4913 65.651C83.7375 67.3115 83.7492 70.4917 78.8022 70.8731C73.8553 71.2544 72.9409 68.6786 72.5599 66.0148C72.495 65.3646 72.5753 64.7081 72.7947 64.0927C73.0142 63.4773 73.3675 62.9184 73.8291 62.4564C74.2906 61.9944 74.849 61.6407 75.4637 61.421C76.0785 61.2013 76.7343 61.121 77.3838 61.1859Z" fill="#F48498"/>
<path d="M95.9525 60.7809C99.6393 60.4992 101.814 63.8437 101.937 65.7565C102.06 67.6693 102.195 70.9257 96.7203 71.2719C91.2458 71.6181 91.2458 69.2065 90.7359 66.396C90.226 63.5855 92.6643 61.0332 95.9525 60.7809Z" fill="#FFD266"/>
<path d="M112.476 61.6848C116.291 61.5968 118.079 64.9119 118.97 66.5607C119.861 68.2094 120.113 71.9118 113.619 72.2932C107.124 72.6746 106.743 68.4793 106.872 66.5607C107.001 64.642 108.402 61.7846 112.476 61.6848Z" fill="#309C7D"/>
<path d="M106.855 89.3731C115.811 89.3086 170.474 90.7872 186.223 90.9632C201.973 91.1392 255.751 92.9171 260.885 92.9171C266.02 92.9171 273.094 93.9791 274.683 95.2171C276.271 96.4552 276.441 101.085 276.441 102.299C276.441 103.514 277.15 107.263 269.191 107.791C261.231 108.319 198.063 107.967 182.495 107.791C166.928 107.615 119.861 106.729 112.077 106.553C104.293 106.377 93.3208 107.263 90.4956 103.361C87.6704 99.4593 88.3679 93.4452 90.4956 91.4972C92.6233 89.5492 101.263 89.4083 106.855 89.3731Z" fill="#FFE9B3"/>
<path d="M266.606 104.629C265.527 103.678 265.158 102.775 264.636 102.868C264.115 102.962 261.512 104.488 259.49 102.516C257.468 100.545 258.793 98.3505 260.24 97.136C261.688 95.9214 264.402 96.0329 265.445 97.4821C266.068 98.3446 266.393 99.3869 266.371 100.451C266.371 100.451 265.908 101.478 266.606 102.053L269.9 104.834C269.9 104.834 270.134 105.474 269.9 105.702C269.665 105.931 268.569 106.365 266.606 104.629Z" fill="#457AA0"/>
<path d="M260.703 98.7198C261.028 98.3335 261.459 98.0508 261.942 97.9069C262.425 97.763 262.94 97.7641 263.423 97.9101C264.232 98.1976 265.328 100.257 264.519 101.131C263.71 102.006 262.726 102.023 261.512 101.671C260.299 101.319 259.432 100.11 260.703 98.7198Z" fill="#FFE9B3"/>
<path d="M213.004 160.375C211.638 160.252 211.755 157.166 211.462 154.672C211.169 152.178 209.704 148.67 206.298 144.697C202.893 140.725 201.844 138.161 202.442 134.001C203.039 129.841 205.466 124.854 212.992 124.854C220.518 124.854 223.378 132.399 223.32 136.201C223.261 140.003 221.561 143.447 218.332 147.25C215.102 151.052 215.401 152.953 214.95 155.57C214.498 158.187 215.02 160.551 213.004 160.375Z" fill="#F48498"/>
<path d="M209.563 137.205C209.376 135.134 210.864 134.471 212.172 134.471C212.495 134.465 212.817 134.524 213.118 134.644C213.419 134.763 213.693 134.942 213.924 135.168C214.156 135.394 214.34 135.665 214.467 135.963C214.594 136.261 214.66 136.581 214.663 136.906C214.786 138.455 214.129 139.522 212.529 139.757C210.929 139.992 209.739 139.223 209.563 137.205Z" fill="#457AA0"/>
<path d="M210.149 174.862C215.454 174.827 221.11 176.235 220.876 183.569C220.641 190.904 218.074 189.953 215.929 195.257C214.563 198.843 213.663 202.59 213.25 206.405C213.25 206.405 213.01 207.896 212.078 208.013C211.146 208.13 210.706 207.426 210.647 206.523C210.589 205.619 209.809 198.414 208.801 196.982C207.793 195.551 202.664 193.227 201.293 188.275C199.921 183.323 201.158 174.921 210.149 174.862Z" fill="#F48498"/>
<path d="M209.792 183.264C211.814 183.1 212.834 184.162 213.133 185.652C213.432 187.143 212.06 188.633 210.272 188.633C209.586 188.684 208.908 188.462 208.384 188.016C207.86 187.571 207.532 186.937 207.471 186.251C207.412 185.113 207.588 183.446 209.792 183.264Z" fill="#457AA0"/>
<path d="M129.626 136.77C129.072 136.544 128.55 136.246 128.073 135.884C127.797 135.55 127.487 134.159 128.354 134.271C129.222 134.382 131.015 134.605 131.015 134.605L132.129 132.047C132.129 132.047 132.404 131.102 132.85 131.548C133.301 132.003 133.642 132.555 133.846 133.162C134.128 133.884 134.239 134.605 134.79 134.605C135.751 134.523 136.718 134.523 137.68 134.605C138.453 134.77 139.233 135.192 138.453 135.661C137.674 136.131 135.622 137.498 135.622 137.498L136.677 139.44C136.677 139.44 137.568 141.329 135.569 140.385C133.571 139.44 133.295 138.941 132.516 138.941C131.736 138.941 131.015 139.939 129.849 140.115C128.682 140.291 128.243 140.056 128.63 139.334C129.01 138.499 129.343 137.643 129.626 136.77Z" fill="#457AA0"/>
<path d="M142.175 136.829C141.396 136.049 140.235 134.605 141.343 134.382C142.153 134.257 142.977 134.257 143.787 134.382L145.176 131.449C145.176 131.449 145.839 130.328 146.349 131.449C146.858 132.569 147.738 134.969 147.738 134.969L150.739 135.022C150.739 135.022 152.233 135.339 151.401 136.072C150.569 136.806 148.963 138.302 148.963 138.302L149.461 140.678C149.461 140.678 149.795 142.749 148.681 141.916C147.568 141.083 145.85 140.08 145.85 140.08L142.685 141.418C142.685 141.418 140.106 142.474 140.897 141.024C141.689 139.575 143.019 137.58 143.019 137.58L142.175 136.829Z" fill="#457AA0"/>
<path d="M153.253 138.437L152.081 137.187C152.081 137.187 151.061 136.166 152.667 135.791C154.273 135.415 154.66 135.368 154.66 135.368C154.569 134.563 154.569 133.75 154.66 132.945C154.836 132.358 154.959 131.672 155.557 131.672C156.154 131.672 156.905 132.599 157.426 133.643C157.703 134.161 157.901 134.716 158.013 135.292C158.633 135.246 159.258 135.306 159.859 135.468C160.425 135.677 160.923 136.036 161.301 136.507C161.553 136.912 161.43 137.387 160.955 137.363C160.402 137.401 159.877 137.62 159.46 137.985C159.118 138.292 158.801 138.626 158.511 138.983C158.511 138.983 159.097 141.054 159.208 141.377C159.32 141.699 159.484 143.137 158.335 142.274C157.186 141.412 156.266 140.649 156.266 140.649C156.266 140.649 155.322 141.33 154.701 141.676C154.08 142.022 153.529 142.204 153.177 141.805C152.825 141.406 153.253 138.437 153.253 138.437Z" fill="#457AA0"/>
<path d="M163.645 135.491C162.872 135.491 162.074 135.368 161.887 135.638C161.699 135.908 164.179 138.783 164.179 138.783L162.584 141.629C162.584 141.629 162.086 142.303 162.584 142.55C163.083 142.796 165.55 140.878 165.55 140.878C165.55 140.878 166.002 140.291 166.47 140.455C166.939 140.619 168.194 141.629 168.815 141.928C169.436 142.227 170.286 142.474 170.134 141.775C169.981 141.077 169.548 139.428 169.46 139.023C169.372 138.619 169.26 138.284 169.46 138.161L170.409 137.574L171.728 136.718C171.728 136.718 172.9 135.826 171.728 135.732C170.556 135.638 168.065 135.462 168.065 135.462L167.174 133.479C167.174 133.479 166.986 132.61 166.541 132.61C166.095 132.61 166.048 132.775 165.908 133.268C165.767 133.76 165.368 135.38 165.368 135.38C164.797 135.451 164.221 135.489 163.645 135.491Z" fill="#457AA0"/>
<path d="M174.647 135.491C173.873 135.491 173.076 135.368 172.889 135.638C172.701 135.908 175.18 138.783 175.18 138.783L173.586 141.629C173.586 141.629 173.088 142.303 173.586 142.55C174.084 142.796 176.552 140.878 176.552 140.878C176.552 140.878 176.997 140.291 177.472 140.455C177.947 140.619 179.19 141.629 179.787 141.928C180.385 142.227 181.259 142.474 181.112 141.775C180.966 141.077 180.526 139.428 180.438 139.023C180.35 138.619 180.239 138.284 180.438 138.161L181.388 137.574L182.701 136.723C182.701 136.723 183.873 135.832 182.701 135.738C181.528 135.644 179.037 135.468 179.037 135.468L178.146 133.485C178.146 133.485 178.011 132.616 177.537 132.616C177.062 132.616 177.044 132.78 176.904 133.273C176.763 133.766 176.364 135.386 176.364 135.386C175.795 135.455 175.221 135.49 174.647 135.491Z" fill="#457AA0"/>
<path d="M94.1414 134.652C91.5858 134.963 89.2413 135.538 88.1452 135.239C87.0491 134.94 86.164 133.725 87.0491 133.097C87.9342 132.469 88.5613 132.37 91.0641 132.423C93.5669 132.475 97.2127 132.892 99.5631 132.681C102.63 132.395 105.711 132.305 108.789 132.411C111.497 132.575 114.469 132.681 117.335 132.681C120.201 132.681 121.766 132.211 122.545 132.892C123.325 133.573 124.421 135.292 121.819 134.975C119.216 134.658 116.133 134.769 113.062 134.717C109.99 134.664 107.066 134.664 104.094 134.611C101.122 134.558 99.5103 134.611 97.7344 134.611C95.9584 134.611 94.1414 134.652 94.1414 134.652Z" fill="#457AA0"/>
<path d="M90.1791 140.649C92.7991 140.52 95.7064 140.854 99.8211 140.649C103.936 140.443 107.329 140.332 110.612 140.702C113.348 140.965 116.099 141.053 118.847 140.966C121.502 140.966 123.425 140.602 123.454 141.488C123.483 142.374 124.04 143.207 119.351 143.107C114.662 143.007 111.01 143.436 107.628 143.107C104.929 142.81 102.214 142.684 99.4987 142.732C96.7849 142.785 93.9714 143.148 91.5741 142.996C89.1768 142.843 88.028 142.996 87.2484 142.08C86.4689 141.165 88.0925 140.754 90.1791 140.649Z" fill="#457AA0"/>
<path d="M89.6047 149.632C87.4184 149.79 85.5018 148.904 87.0609 148.382C88.62 147.86 89.4992 148.277 93.8777 148.118C98.2561 147.96 100.448 147.966 103.988 147.86C107.529 147.754 110.975 148.012 113.953 147.86C116.93 147.707 127.715 147.913 132.193 147.831C136.671 147.748 141.63 148.171 145.229 148.118C148.828 148.065 157.538 148.435 162.116 148.482C166.693 148.529 169.46 148.482 172.9 148.482C176.341 148.482 177.59 148.341 178.07 148.722C178.551 149.104 178.844 149.79 176.968 149.943C175.093 150.095 171.81 150.277 165.246 150.219C158.681 150.16 151.383 149.996 144.344 149.738C137.304 149.479 135.065 149.738 129.227 149.738C123.39 149.738 115.471 149.843 107.388 149.738C99.3053 149.632 89.6047 149.632 89.6047 149.632Z" fill="#457AA0"/>
<path d="M89.0302 157.348C87.518 157.295 85.9061 157.242 86.0116 156.62C86.1171 155.998 86.7384 155.887 90.1146 155.834C93.4907 155.781 99.0825 155.834 105.753 155.834C112.423 155.834 118.835 155.893 127.539 155.834C136.243 155.775 142.292 155.599 148.054 155.335C153.816 155.071 157.016 155.183 163.376 155.024C169.735 154.866 173.123 155.183 174.688 155.024C176.253 154.866 177.982 154.813 178.029 155.388C178.076 155.963 177.138 156.069 173.85 156.145C170.562 156.221 164.782 156.538 156.025 156.644C147.269 156.749 141.9 157.371 136.378 157.371C130.857 157.371 123.296 157.219 117.247 157.371C111.198 157.524 105.049 157.318 100.096 157.371C95.1436 157.424 89.0302 157.348 89.0302 157.348Z" fill="#457AA0"/>
<path d="M87.3129 165.175C86 164.752 84.2767 164.078 86.0058 163.872C87.7349 163.667 90.2319 164.13 93.567 163.872C96.9021 163.614 104.827 163.872 111.028 163.814C117.229 163.755 127.34 164.183 130.47 164.025C133.6 163.866 140.739 163.995 147.62 163.749C154.502 163.503 159.865 163.297 163.411 163.244C166.957 163.192 169.735 163.555 172.203 163.456C174.671 163.356 176.681 162.828 177.15 163.608C177.619 164.389 176.734 164.811 174.594 164.811C172.455 164.811 165.679 165.644 160.105 165.175C154.531 164.705 150.41 165.175 145.352 165.321C140.294 165.468 134.561 165.908 131.595 165.908C128.63 165.908 121.631 165.398 116.321 165.451C111.01 165.503 106.626 165.656 103.76 165.451C100.894 165.245 100.788 165.398 95.9936 165.498C91.199 165.597 88.7724 165.644 87.3129 165.175Z" fill="#457AA0"/>
<path d="M89.7395 185.887C88.1921 185.887 85.7069 185.441 86.9202 184.942C88.1335 184.444 87.9693 184.391 92.3947 184.555C96.82 184.72 101.404 185.054 105.049 184.942C108.695 184.831 112.669 184.89 115.107 184.89C117.546 184.89 118.7 184.473 119.087 185.177C119.474 185.881 119.14 186.491 116.819 186.216C114.498 185.94 110.577 186.327 105.378 186.051C100.179 185.776 89.7395 185.887 89.7395 185.887Z" fill="#457AA0"/>
<path d="M90.2377 194.518C88.1393 194.735 86.4219 193.685 88.5789 193.297C90.7359 192.91 91.5096 192.746 96.2632 192.857C101.017 192.969 104.387 192.676 107.646 192.822C110.905 192.969 111.79 192.758 113.947 192.781C116.104 192.805 117.464 192.975 117.042 193.661C116.62 194.348 114.697 194.465 110.465 194.547C106.233 194.629 104.217 194.629 99.7976 194.547C95.3781 194.465 90.2377 194.518 90.2377 194.518Z" fill="#457AA0"/>
<path d="M90.5132 201.488C88.7548 201.705 86.6975 201.488 87.9167 200.767C89.1358 200.045 90.6246 200.18 94.3641 200.104C98.1037 200.027 102.875 199.881 105.747 199.828C108.619 199.775 113.542 200.415 115.641 200.268C117.739 200.121 128.536 200.327 134.432 200.104C140.329 199.881 144.49 199.552 150.293 199.382C156.096 199.212 160.685 199.2 165.937 199.13C171.189 199.059 173.34 199.312 174.835 199.13C176.329 198.948 177.765 199.053 177.595 199.552C177.425 200.051 176.71 200.285 174.946 200.303C173.182 200.321 164.396 200.432 160.246 200.544C156.096 200.655 148.634 200.819 138.852 201.265C129.069 201.711 123.653 201.43 117.751 201.57C111.849 201.711 108.461 201.207 103.766 201.207C99.0708 201.207 90.5132 201.488 90.5132 201.488Z" fill="#457AA0"/>
<path d="M89.6282 208.178C87.6412 208.178 86.0352 207.515 88.1921 207.127C90.3491 206.74 91.5097 206.852 97.4238 206.687C103.338 206.523 108.56 206.464 114.773 206.353C120.986 206.241 135.945 206.3 140.528 206.353C145.112 206.406 151.36 206.353 156.834 206.288C162.309 206.224 166.066 206.394 170.872 206.288C175.679 206.183 177.115 206.429 178.275 206.288C179.436 206.147 180.321 206.359 180.268 206.875C180.215 207.391 180.157 207.597 174.354 207.597C168.551 207.597 156.67 207.872 148.377 207.872C140.083 207.872 134.614 207.814 128.319 207.708C122.024 207.603 115.107 207.761 108.033 207.872C100.958 207.984 89.6282 208.178 89.6282 208.178Z" fill="#457AA0"/>
<path d="M90.4604 216.421C88.4148 216.591 85.5369 215.981 87.5825 215.594C89.6281 215.206 92.887 215.154 98.0275 215.042C103.168 214.931 106.485 215.154 114.334 215.042C122.182 214.931 127.434 214.819 133.348 214.655C139.262 214.491 147.714 214.32 153.904 214.379C160.093 214.438 162.801 214.684 167.502 214.379C172.203 214.074 175.901 213.722 177.337 213.669C178.773 213.616 180.21 213.945 179.272 214.391C178.334 214.837 175.954 215.605 170.761 215.717C165.568 215.828 162.69 215.658 157.057 215.881C151.424 216.104 143.347 215.881 131.801 216.045C120.254 216.21 113.173 216.603 104.938 216.462C96.7028 216.321 90.4604 216.421 90.4604 216.421Z" fill="#457AA0"/>
<path d="M129.034 183.563L126.209 184.473C126.209 184.473 125.037 185.177 126.209 185.376C126.955 185.493 127.714 185.493 128.46 185.376C128.029 186.363 127.663 187.376 127.364 188.41C127.299 188.997 127.879 189.249 128.46 188.926C129.04 188.603 131.285 187.254 131.285 187.254C131.285 187.254 132.727 188.885 133.225 189.067C133.723 189.249 134.397 189.067 134.051 188.41C133.727 187.612 133.451 186.795 133.225 185.963L135.464 184.162C135.464 184.162 136.947 183.135 135.464 183.135H132.586C132.375 182.183 132.069 181.256 131.672 180.366C131.22 179.591 130.646 179.591 130.324 180.366C130.001 181.14 129.034 183.563 129.034 183.563Z" fill="#457AA0"/>
<path d="M138.582 185.658C138.582 185.658 137.023 185.535 136.947 185.165C136.871 184.796 136.619 184.385 137.433 184.221C138.248 184.056 139.28 183.81 139.28 183.81C139.649 183.065 140.057 182.34 140.505 181.639C140.792 181.31 141.12 181.052 141.53 181.639C141.892 182.225 142.206 182.839 142.468 183.475C142.468 183.475 144.397 183.317 144.643 183.276C144.889 183.235 145.815 183.018 145.991 183.475C146.167 183.933 145.54 184.69 144.643 185.376L143.471 186.286C143.471 186.286 144.778 188.281 144.983 188.521C145.188 188.762 146.155 189.836 145.516 189.877C144.877 189.918 141.448 187.993 141.448 187.993C141.448 187.993 140.194 188.674 139.215 189.132C138.236 189.589 137.287 190.188 137.457 189.132C137.744 187.947 138.12 186.786 138.582 185.658Z" fill="#457AA0"/>
<path d="M149.39 185.94L147.913 184.919C147.913 184.919 147.38 184.385 148.16 184.262C148.744 184.192 149.334 184.192 149.918 184.262L150.205 182.05C150.205 182.05 150.492 180.941 151.19 181.721C151.874 182.592 152.502 183.505 153.071 184.455C153.592 184.308 154.13 184.23 154.672 184.221C155.691 184.18 156.676 184.056 156.143 184.672C155.418 185.385 154.653 186.055 153.851 186.679L155.158 189.132C155.158 189.132 155.281 190.164 154.097 189.466C153.455 189.113 152.875 188.657 152.38 188.117C151.605 188.665 150.766 189.118 149.883 189.466C148.898 189.754 148.283 190.053 148.711 188.563C149.138 187.072 149.39 185.94 149.39 185.94Z" fill="#457AA0"/>
<path d="M157.819 184.097H161.096C161.096 184.097 160.89 181.926 161.383 181.885C161.875 181.844 163.551 184.455 163.551 184.455H166.171C166.171 184.455 167.731 184.138 167.197 184.795C166.293 185.673 165.336 186.494 164.331 187.254L165.638 189.877C165.638 189.877 165.925 190.945 164.946 190.287C163.968 189.63 162.326 188.562 162.326 188.562L159.747 189.877C159.747 189.877 158.106 190.516 158.763 189.132C159.419 187.747 159.871 186.843 159.871 186.843L157.819 185.001C157.819 185.001 156.911 184.097 157.819 184.097Z" fill="#457AA0"/>
<path d="M170.673 186.433C170.005 186.214 169.36 185.927 168.751 185.576C168.258 185.206 167.443 184.837 168.381 184.672C169.225 184.583 170.076 184.583 170.919 184.672C171.147 183.833 171.435 183.012 171.781 182.214C171.851 182.104 171.948 182.013 172.063 181.95C172.178 181.887 172.307 181.854 172.437 181.854C172.568 181.854 172.697 181.887 172.811 181.95C172.926 182.013 173.023 182.104 173.094 182.214C173.562 182.826 173.985 183.471 174.36 184.144L177.226 183.974C177.226 183.974 178.293 183.833 177.812 184.455C177.332 185.077 175.438 186.433 175.561 186.433C175.685 186.433 177.238 189.302 177.238 189.302C177.238 189.302 177.32 190.317 176.376 189.707C175.432 189.097 173.346 187.946 173.346 187.946L169.542 190.117C169.542 190.117 168.598 190.117 169.132 189.126C169.665 188.134 170.673 186.433 170.673 186.433Z" fill="#457AA0"/>
<path d="M65.1746 78.9176C64.2309 79.029 63.5803 78.3719 63.6448 79.2579C63.7093 80.1439 63.5041 80.3081 65.1746 80.3081C66.8451 80.3081 69.8637 80.6954 76.7215 80.7541C83.5792 80.8127 90.2026 80.4724 95.5423 80.0324C100.882 79.5923 108.865 79.6393 112.142 79.475C115.418 79.3107 122.358 79.3107 129.685 79.1992C137.011 79.0877 143.898 78.8765 150.838 78.7885C157.778 78.7005 172.045 78.4306 177.15 78.7885C182.255 79.1464 195.531 78.9176 204.798 79.1405C214.065 79.3635 227.071 79.6158 238.055 79.6803C249.039 79.7449 256.096 79.6803 269.425 79.6803C282.754 79.6803 287.801 79.4163 292.243 79.4163C296.686 79.4163 302.454 80.0852 303.966 80.0852C305.478 80.0852 307.407 80.4196 308.022 79.9209C308.638 79.4222 310.126 79.0877 308.966 78.8648C307.805 78.6418 299.523 78.9058 293.416 78.6066C287.308 78.3073 281.429 77.9729 275.931 78.0198C270.433 78.0668 265.662 77.7851 257.831 78.0198C250.001 78.2545 242.287 78.0785 232.041 78.19C221.796 78.3015 217.435 77.8027 208.444 77.6913C199.452 77.5798 193.233 77.304 181.575 77.2453C169.917 77.1867 165.638 77.5798 157.866 77.2453C150.094 76.9109 143.43 77.4683 132.439 77.7441C121.449 78.0198 120.172 77.967 114.621 78.0785C109.07 78.19 106.456 78.1372 100.073 78.413C93.6901 78.6887 92.1896 79.0936 85.3025 78.9469C78.4154 78.8002 77.0321 78.7591 72.9233 78.9469C68.8145 79.1347 65.1746 78.9176 65.1746 78.9176Z" fill="#457AA0"/>
<path d="M327.441 108.929C327.441 108.929 313.614 115.97 303.679 118.71C293.744 121.45 279.061 126.549 275.544 121.057C272.028 115.565 279.647 112.385 283.703 110.384C287.76 108.384 294.693 104.552 296.253 101.941C297.812 99.3301 301.135 89.9891 303.081 85.9875C305.027 81.9859 310.173 74.7513 319.223 76.2886C328.273 77.8259 329.826 82.1561 331.157 86.0696C332.488 89.9832 335.377 103.854 335.377 103.854C335.377 103.854 339.48 107.633 342.927 111.135C346.373 114.638 348.536 118.176 345.857 121.251C343.179 124.325 340.699 123.527 337.698 120.306C334.697 117.085 327.441 108.929 327.441 108.929Z" fill="#DCA47D"/>
<path d="M298.902 132.939C298.961 132.769 305.009 117.602 305.009 117.602L289.688 121.767C289.688 121.767 292.46 123.528 293.849 125.605C295.239 127.682 298.902 132.939 298.902 132.939Z" fill="#F48498"/>
<path d="M307.454 141.054L310.841 139.165C311.34 138.883 312.113 139.217 311.428 140.109C310.742 141.001 306.041 143.776 304.429 144.334C302.817 144.891 301.932 145.39 302.266 142.609C302.6 139.828 304.376 121.715 304.54 120.899C304.705 120.084 305.009 119.849 306.938 119.344C308.866 118.84 317.424 116.681 318.532 116.569C319.639 116.458 320.923 115.9 321.14 116.287C321.357 116.675 321.585 118.012 319.381 118.458C317.178 118.904 310.56 120.882 308.72 121.433C306.879 121.985 305.941 122.02 305.496 123.493C305.05 124.965 303.831 138.443 303.779 139.828C303.726 141.212 303.556 142.72 303.556 142.72L307.454 141.054Z" fill="#2E526B"/>
<path d="M315.337 120.987C317.84 120.746 321.943 120.934 322.957 121.433C323.971 121.932 325.302 124.155 322.676 126.379C320.05 128.603 315.958 129.383 313.075 129.77C310.191 130.158 307.02 130.269 307.079 127.822C307.137 125.376 310.226 121.468 315.337 120.987Z" fill="#2E526B"/>
<path d="M311.762 123.768C314.171 122.876 315.953 122.213 318.057 122.325C320.161 122.436 322.611 122.378 322.834 123.269C323.057 124.161 323.42 125.382 319 126.714C314.581 128.046 312.172 128.603 310.841 128.38C309.511 128.157 307.119 128.327 308.497 126.549C308.828 126.129 309.192 125.736 309.587 125.376C310.248 124.758 310.977 124.218 311.762 123.768Z" fill="#CAE4F8"/>
<path d="M310.009 127.335C310.883 128.356 313.116 127.283 313.561 126.749C314.007 126.215 314.845 124.607 313.948 123.968C313.051 123.328 312.19 123.304 311.017 123.968C309.845 124.631 308.673 125.769 310.009 127.335Z" fill="#309C7D"/>
<path d="M324.61 135.497C323.185 135.274 321.609 135.55 322.265 134.271C322.922 132.992 329.299 119.714 329.299 119.714L318.614 112.432L327.605 108.073L338.267 120.101L326.89 135.497C326.89 135.497 326.737 135.82 324.61 135.497Z" fill="#F48498"/>
<path d="M295.016 168.672C292.789 166.219 294.019 160.668 294.019 160.668C294.019 160.668 297.185 160.504 298.961 159.724C299.646 160.947 300.168 162.255 300.514 163.614C300.848 165.063 300.901 165.896 301.903 165.838C302.905 165.779 303.62 165.063 303.843 162.118C304.066 159.172 302.811 155.611 303.843 152.835C304.875 150.06 305.678 148.053 307.788 146.446C309.898 144.838 310.783 144.774 311.228 145.331C311.674 145.888 311.228 146.334 309.786 147.091C308.345 147.848 306.785 148.758 306.34 153.651C305.895 158.544 308.175 160.211 307.061 165.046C305.947 169.88 303.509 170.714 301.288 170.989C299.066 171.265 297.237 171.118 295.016 168.672Z" fill="#663613"/>
<path d="M325.993 161.226C325.993 161.226 322.054 156.28 321.556 152.947C321.058 149.615 320.278 145.443 326.937 141.441C333.595 137.44 337.376 135.233 339.709 135.638C342.042 136.043 342.317 136.16 344.204 137.399C346.092 138.637 350.593 144.78 350.593 144.78C350.593 144.78 344.703 151.345 339.152 154.625C333.601 157.905 325.993 161.226 325.993 161.226Z" fill="#A16A45"/>
<path d="M349.866 144.768C349.866 144.768 357.527 145.742 363.418 151.427C369.309 157.113 373.517 160.058 377.016 171.676C380.515 183.293 381.512 198.408 381.623 208.523C381.735 218.639 381.184 236.863 380.627 242.032C380.07 247.202 377.11 260.597 377.11 260.597L343.19 261.594C343.19 261.594 341.801 262.152 341.854 259.095C341.907 256.038 341.192 257.593 341.192 257.593C341.192 257.593 315.654 259.817 312.764 260.315C309.874 260.814 307.659 261.154 307.659 261.154C307.659 261.154 307.993 236.423 308.433 230.139C308.872 223.855 309.822 217.36 310.097 212.132C310.373 206.904 311.932 198.519 311.856 190.457C311.781 184.215 312.5 177.989 313.995 171.928C314.634 169.203 315.767 166.618 317.336 164.3L324.997 161.243L349.866 144.768Z" fill="#DCA47D"/>
<path d="M325.266 172.855C324.457 173.6 322.576 174.117 323.584 173.078C324.592 172.04 325.342 171.717 325.624 169.476C325.805 168.311 325.848 167.13 325.753 165.955C325.753 165.955 325.688 165.468 325.167 166.084C324.645 166.7 323.901 168.132 323.092 168.713C322.283 169.294 321.157 169.886 320.747 168.126C320.337 166.366 320.53 164.101 323.602 161.766C324.678 160.952 325.909 160.365 327.218 160.041C328.528 159.718 329.89 159.663 331.221 159.882C332.681 160.076 333.818 161.015 333.748 161.766C333.677 162.517 333.361 163.127 331.989 163.45C330.618 163.772 326.157 162.511 326.157 162.511C326.157 162.511 326.028 162.769 326.415 163.191C327.381 164.169 328.075 165.383 328.425 166.712C329.043 168.991 329.419 171.33 329.545 173.688C329.481 174.111 328.578 174.727 328.478 174.011C328.379 173.295 328.22 169.857 327.828 167.944C327.646 166.88 327.214 165.874 326.567 165.01C326.567 165.01 326.984 168.032 326.567 169.751C326.307 170.85 325.867 171.899 325.266 172.855Z" fill="#663613"/>
<path d="M323.162 167.404C322.635 167.991 321.802 169.446 321.538 167.404C321.41 166.675 321.482 165.925 321.745 165.233C322.008 164.541 322.453 163.933 323.033 163.473C323.906 162.699 324.358 162.176 324.457 162.176C324.557 162.176 325.237 161.689 325.202 162.499C325.167 163.309 325.395 164.805 323.162 167.404Z" fill="#DCA47D"/>
<path d="M329.709 162.628C328.314 162.405 326.726 162.341 326.954 161.625C327.183 160.909 327.054 160.716 328.713 160.651C330.372 160.586 330.917 160.358 331.86 160.88C332.804 161.402 333.578 162.276 332.083 162.64C331.306 162.859 330.484 162.855 329.709 162.628Z" fill="#DCA47D"/>
<path d="M313.86 162.452C311.943 160.657 309.458 158.82 309.845 155.576C309.92 154.673 310.186 153.796 310.624 153.003C311.063 152.21 311.664 151.519 312.389 150.976C314.292 151.075 316.2 151.075 318.104 150.976C319.335 150.788 321.492 150.213 321.492 150.213C321.492 150.213 321.843 153.334 322.734 155.147C323.68 156.879 324.723 158.556 325.858 160.17L317.447 164.805C316.141 164.205 314.932 163.412 313.86 162.452Z" fill="#A16A45"/>
<path d="M339.445 188.797C339.445 188.797 334.17 195.187 325.788 196.783C317.406 198.379 312.307 197.674 307.676 194.764C304.631 192.783 301.853 190.416 299.412 187.723C299.318 187.582 298.708 186.074 297.653 186.262C296.598 186.45 294.043 189.038 294.043 189.038C294.043 189.038 295.496 194.06 295.543 195.193C295.59 196.325 294.043 197.07 294.043 197.07C294.043 197.07 297.425 205.243 302.512 208.858C307.6 212.472 311.732 216.092 321.21 216.89C330.688 217.688 334.867 216.139 336.649 215.576C338.431 215.013 341.532 213.816 341.532 213.816L339.445 188.797Z" fill="#663613"/>
<path d="M279.688 181.692C279.688 180.647 280.585 179.75 285.186 180.718C289.788 181.686 290.813 182.061 291.147 182.478C291.482 182.894 292.355 184.385 289.043 184.15C285.732 183.915 283.364 183.716 281.828 183.282C280.292 182.848 279.688 182.695 279.688 181.692Z" fill="#FACCD4"/>
<path d="M296.833 184.285C296.868 182.525 295.52 179.873 295.285 178.6C295.051 177.327 295.661 173.953 294.066 173.624C292.472 173.296 291.81 174.211 291.136 175.22C290.462 176.229 290.714 179.327 290.714 179.327C290.87 179.388 291.007 179.489 291.11 179.622C291.214 179.754 291.279 179.912 291.3 180.078C291.318 180.503 291.286 180.928 291.206 181.346L294.066 189.032C294.066 189.032 296.739 188.944 296.833 184.285Z" fill="#FACCD4"/>
<path d="M280.386 178.383C280.538 177.274 282.396 177.25 285.233 177.749C288.07 178.248 290.901 179.269 291.341 180.067C291.78 180.864 290.983 181.398 289.711 181.299C287.286 181.08 284.876 180.709 282.496 180.19C281.089 179.75 280.222 179.615 280.386 178.383Z" fill="#FACCD4"/>
<path d="M280.368 185.001C280.444 183.757 281.845 183.305 284.747 183.769C286.159 184.065 287.601 184.187 289.043 184.133C290.25 184.133 291.388 183.933 291.886 185.001C292.384 186.069 292.419 187.448 289.576 187.583C287.48 187.74 285.372 187.569 283.328 187.078C281.494 186.644 280.28 186.444 280.368 185.001Z" fill="#FACCD4"/>
<path d="M282.127 188.615C282.068 187.659 282.502 186.732 284.671 187.354C286.34 187.809 287.978 188.369 289.576 189.032C290.315 189.384 291.616 190.692 288.475 191.091C285.333 191.49 284.331 190.857 283.563 190.358C282.795 189.859 282.191 189.689 282.127 188.615Z" fill="#FACCD4"/>
<path d="M270.152 135.016C274.87 133.174 281.693 132.669 284.805 132.939C287.918 133.209 290.028 134.605 288.111 137.51C286.195 140.414 283.703 144.363 273.845 147.555C263.986 150.747 260.276 149.004 259.232 147.901C258.189 146.798 257.087 144.885 260.856 141.447C264.625 138.008 264.355 137.275 270.152 135.016Z" fill="#2E526B"/>
<path d="M266.266 138.325C268.933 136.43 273.522 135.016 278.651 134.605C283.78 134.195 286.042 134.377 286.681 135.192C287.32 136.008 288.363 138.713 283.258 141.13C278.153 143.547 274.466 145.877 267.661 146.458C260.856 147.039 257.744 147.907 259.772 144.774C261.8 141.64 263.077 140.584 266.266 138.325Z" fill="#CAE4F8"/>
<path d="M272.965 139.863C273.464 141.288 274.138 143.829 270.322 145.014C266.506 146.2 265.439 145.155 264.777 143.547C264.115 141.94 264.906 139.481 267.426 138.267C269.947 137.052 272.25 137.897 272.965 139.863Z" fill="#309C7D"/>
<path d="M95.8295 97.5407C95.6595 95.9506 95.3019 94.0202 95.8295 93.8442C96.357 93.6682 96.4156 95.8039 96.6559 97.8047C96.8962 99.8055 97.412 101.648 96.9197 101.759C96.4273 101.871 96.1049 100.093 95.8295 97.5407Z" fill="#457AA0"/>
<path d="M319.147 75.2796C319.147 75.2796 323.074 72.8975 323.953 71.8648C324.833 70.8321 325.764 69.4357 325.764 69.4357C325.764 69.4357 326.485 68.139 327.312 68.6553C328.138 69.1716 328.865 70.5211 329.328 71.2428C329.791 71.9645 329.744 73.1087 328.396 73.9829C327.048 74.8572 321.474 77.1455 321.474 77.1455L316.621 76.4707C316.621 76.4707 313.467 74.5403 312.483 72.8447C311.906 71.8545 311.455 70.796 311.14 69.6938C311.14 69.6938 310.677 68.5555 311.504 67.9336C312.611 67.2758 313.767 66.7049 314.962 66.2262C314.962 66.2262 316.463 65.6394 316.515 66.4843C316.654 68.2007 316.894 69.9073 317.236 71.5949C317.652 73.5194 318.186 75.8781 319.147 75.2796Z" fill="#2E526B"/>
<path d="M322.201 74.6047C323.256 73.9358 324.264 73.1085 324.991 72.5393C325.718 71.9702 325.864 70.6207 326.697 70.5737C327.529 70.5268 329.381 71.6064 328.138 72.5863C326.816 73.6413 325.357 74.5118 323.801 75.1738C322.459 75.6902 321.527 76.5938 321.011 76.0892C320.495 75.5846 321.439 75.1152 322.201 74.6047Z" fill="#DCA47D"/>
<path d="M312.899 70.5678C312.535 69.7464 311.815 68.7078 312.588 68.3499C313.362 67.992 314.499 67.5226 314.499 67.5226C314.499 67.5226 315.12 67.1588 315.325 68.2971C315.531 69.4354 315.636 71.6592 316 72.6918C316.363 73.7245 317.289 75.6256 317.289 75.6256C316.176 74.8039 315.155 73.8656 314.241 72.8268C313.645 72.1732 313.188 71.4045 312.899 70.5678Z" fill="#DCA47D"/>
<path d="M297.349 99.6705C297.478 99.383 302.419 98.8256 306.264 98.72C310.109 98.6144 316.023 99.3067 317.834 99.1952C319.645 99.0838 325.987 99.2833 327.429 99.1952L334.275 98.7259" stroke="#FFD266" stroke-width="1.3" stroke-miterlimit="10"/>
<path d="M296.669 101.132C296.669 101.132 301.551 101.132 304.435 101.132C307.319 101.132 312.301 100.762 314.769 101.132C317.236 101.501 323.707 101.061 325.858 101.132C328.009 101.202 334.275 100.956 334.275 100.956" stroke="#FFD266" stroke-width="1.3" stroke-miterlimit="10"/>
<path d="M309.382 108.724C309.441 105.356 309.153 97.0715 308.86 93.991C308.567 90.9106 309.054 88.1236 308.86 86.5746C308.667 85.0256 308.954 78.8647 308.954 78.8647" stroke="#FFD266" stroke-width="1.3" stroke-miterlimit="10"/>
<path d="M310.842 78.1016C310.689 79.7386 311.234 88.4048 311.011 90.3293C310.789 92.2539 311.598 101.12 311.392 103.525C311.272 105.706 311.272 107.892 311.392 110.073" stroke="#FFD266" stroke-width="1.3" stroke-miterlimit="10"/>
<path d="M323.473 110.074C323.473 110.074 323.912 103.989 324.182 100.961C324.452 97.9338 324.006 90.6229 324.182 88.8862C324.358 87.1494 323.871 77.5737 323.871 77.5737" stroke="#FFD266" stroke-width="1.3" stroke-miterlimit="10"/>
<path d="M325.858 78.9526C325.794 80.9886 325.923 87.7538 325.858 90.9105C325.794 94.0672 326.269 99.3831 325.858 102.757C325.448 106.131 325.272 109.211 325.272 109.211" stroke="#FFD266" stroke-width="1.3" stroke-miterlimit="10"/>
<path d="M301.821 88.7808C303.186 88.7808 307.864 88.4874 311.392 88.7808C314.921 89.0742 319.399 89.08 321.298 89.3675C323.197 89.655 327.083 88.8923 328.554 89.3675C329.568 89.6468 330.635 89.671 331.661 89.4379" stroke="#FFD266" stroke-width="1.3" stroke-miterlimit="10"/>
<path d="M303.069 85.9761C305.689 85.9761 308.983 85.9761 312.242 85.9761C315.501 85.9761 320.888 87.0557 322.207 87.0557H331.444" stroke="#FFD266" stroke-width="1.3" stroke-miterlimit="10"/>
<path d="M280.245 112.08C283.962 111.497 287.707 111.105 291.464 110.907C295.303 110.766 298.152 110.907 301.821 110.907C305.49 110.907 314.769 110.848 314.769 110.848" stroke="#FFD266" stroke-width="1.3" stroke-miterlimit="10"/>
<path d="M277.285 113.964H286.3C288.674 113.964 295.848 113.811 298.023 113.465C300.197 113.119 304.517 112.767 307.794 112.626C311.07 112.485 314.775 112.503 314.775 112.503" stroke="#FFD266" stroke-width="1.3" stroke-miterlimit="10"/>
<path d="M282.467 123.445C282.467 123.445 282.537 118.211 282.467 116.815C282.396 115.419 282.467 111.452 282.467 111.452" stroke="#FFD266" stroke-width="1.3" stroke-miterlimit="10"/>
<path d="M284.348 123.029C284.348 121.216 283.58 118.558 283.651 116.745C283.721 114.932 283.692 110.373 283.692 110.373" stroke="#FFD266" stroke-width="1.3" stroke-miterlimit="10"/>
<path d="M298.017 119.051C297.812 117.02 297.431 112.133 297.349 110.073C297.267 108.014 296.669 102.569 296.669 102.569" stroke="#FFD266" stroke-width="1.3" stroke-miterlimit="10"/>
<path d="M299.558 118.423C299.347 116.604 298.861 111.998 298.72 109.763C298.58 107.527 298.72 104.523 298.72 104.523" stroke="#FFD266" stroke-width="1.3" stroke-miterlimit="10"/>
<path d="M318.614 112.432C317.283 112.286 310.044 110.531 307.061 109.628C304.077 108.724 299.658 105.843 298.415 105.209C297.173 104.576 295.807 102.722 296.241 101.93C296.827 100.791 298.744 103.044 301.17 105.209C302.218 106.195 303.386 107.045 304.646 107.738C308.626 109.763 317.981 111.3 321.298 110.807" fill="#2E526B"/>
<path d="M334.404 116.704C334.719 114.763 334.893 112.802 334.926 110.836C334.856 108.882 334.926 104.552 334.926 104.552" stroke="#FFD266" stroke-width="1.3" stroke-miterlimit="10"/>
<path d="M336.596 118.218C336.596 116.258 336.391 112.667 336.596 110.373C336.801 108.079 336.813 105.209 336.813 105.209" stroke="#FFD266" stroke-width="1.3" stroke-miterlimit="10"/>
<path d="M331.661 112.667C334.698 112.458 337.745 112.458 340.781 112.667C343.712 112.919 344.48 113.254 344.48 113.254" stroke="#FFD266" stroke-width="1.3" stroke-miterlimit="10"/>
<path d="M333.636 114.879C336.04 114.791 339.041 114.509 341.203 114.58C342.868 114.679 344.523 114.896 346.156 115.231" stroke="#FFD266" stroke-width="1.3" stroke-miterlimit="10"/>
<path d="M335.061 172.468C336.596 172.609 347.756 172.257 352.92 172.468C358.084 172.679 362.966 172.82 366.243 172.397C369.519 171.975 377.016 171.676 377.016 171.676" stroke="#FFD266" stroke-width="1.3" stroke-miterlimit="10"/>
<path d="M336.321 175.889C338.484 176.03 347.141 174.915 350.593 175.05C354.046 175.185 360.452 175.378 364.361 175.05C368.271 174.721 377.679 174.035 377.679 174.035" stroke="#FFD266" stroke-width="1.3" stroke-miterlimit="10"/>
<path d="M341.203 203.683C343.155 203.613 351.385 202.996 355.781 203.202C360.177 203.407 368.547 203.137 370.639 203.202C372.732 203.266 381.471 202.697 381.471 202.697" stroke="#FFD266" stroke-width="1.3" stroke-miterlimit="10"/>
<path d="M341.203 206.758C343.501 206.546 351.109 206.171 354.737 206.059C358.365 205.948 364.573 205.989 368.265 206.059C371.958 206.13 375.651 206.177 377.679 205.977C378.94 205.858 380.21 205.858 381.471 205.977" stroke="#FFD266" stroke-width="1.3" stroke-miterlimit="10"/>
<path d="M342.176 239.439C343.935 239.439 352.012 239.017 356.132 238.806C360.253 238.594 366.038 238.037 369.66 238.219L373.288 238.43L380.908 238.172" stroke="#FFD266" stroke-width="1.3" stroke-miterlimit="10"/>
<path d="M342.176 241.393C343.993 241.252 351.947 240.695 354.802 240.695H365.686C368.828 240.695 370.961 241.041 374.267 240.695C377.573 240.349 380.779 240.284 380.779 240.284" stroke="#FFD266" stroke-width="1.3" stroke-miterlimit="10"/>
<path d="M308.72 231.336C308.72 231.336 316.269 230.709 320.759 230.709C325.249 230.709 332.089 230.984 334.949 230.709C337.81 230.433 341.578 230.286 341.578 230.286" stroke="#FFD266" stroke-width="1.3" stroke-miterlimit="10"/>
<path d="M308.72 234.34C311.012 234.065 316.392 233.431 320.366 233.29C324.34 233.149 327.693 233.079 330.067 232.944C332.441 232.809 335.782 232.592 337.687 232.592H341.543" stroke="#FFD266" stroke-width="1.3" stroke-miterlimit="10"/>
<path d="M312.53 182.941C312.53 182.941 313.508 182.871 315.32 182.941C317.131 183.012 320.272 183.223 321.878 182.941C324.24 182.673 326.617 182.557 328.994 182.595C331.227 182.595 337.851 182.231 337.851 182.231" stroke="#FFD266" stroke-width="1.3" stroke-miterlimit="10"/>
<path d="M312.237 186.245C313.884 186.103 315.542 186.103 317.189 186.245C319.394 186.458 321.617 186.419 323.813 186.128C326.743 185.664 328.215 185.476 329.92 185.605C331.626 185.711 333.337 185.711 335.043 185.605C336.221 185.488 337.387 185.274 338.531 184.966" stroke="#FFD266" stroke-width="1.3" stroke-miterlimit="10"/>
<path d="M317.512 197.258C317.582 195.498 318.139 184.133 317.863 181.897C317.496 178.932 317.379 175.94 317.512 172.955C317.723 170.373 317.476 164.805 317.476 164.805" stroke="#FFD266" stroke-width="1.3" stroke-miterlimit="10"/>
<path d="M319.927 196.912C319.927 194.676 319.997 187.483 319.927 184.966C319.856 182.449 319.792 178.429 319.505 175.901C319.217 173.372 319.434 163.714 319.434 163.714" stroke="#FFD266" stroke-width="1.3" stroke-miterlimit="10"/>
<path d="M331.643 193.696C331.784 191.602 331.057 186.35 331.016 184.156C330.975 181.962 330.53 179.104 331.016 176.528C331.503 173.952 331.438 169.129 331.438 169.129" stroke="#FFD266" stroke-width="1.3" stroke-miterlimit="10"/>
<path d="M333.765 192.787C333.666 189.994 333.056 186.479 332.945 183.593C332.806 181.353 332.806 179.108 332.945 176.868C333.109 174.633 333.302 171.676 333.302 171.676" stroke="#FFD266" stroke-width="1.3" stroke-miterlimit="10"/>
<path d="M315.531 259.817C315.671 257.593 316.117 251.45 316.369 247.818C316.621 244.186 316.955 238.829 317.031 236.153C317.107 233.478 316.996 229.382 317.031 226.66C317.066 223.937 317.031 216.292 317.031 216.292" stroke="#FFD266" stroke-width="1.3" stroke-miterlimit="10"/>
<path d="M317.91 259.735C317.975 256.267 318.321 252.148 318.672 248.862C319.059 246.02 319.198 243.15 319.088 240.284C318.948 236.763 319.317 232.175 319.129 227.775C318.942 223.374 319.358 216.685 319.358 216.685" stroke="#FFD266" stroke-width="1.3" stroke-miterlimit="10"/>
<path d="M331.04 258.496C331.227 255.217 331.714 249.003 331.626 244.532C331.538 240.061 331.362 232.592 331.626 228.96C331.89 225.328 331.626 217.113 331.626 217.113" stroke="#FFD266" stroke-width="1.3" stroke-miterlimit="10"/>
<path d="M333.613 258.268C333.666 255.217 334.088 251.168 334.293 246.768C334.498 242.367 334.158 238.46 334.293 235.807C334.428 233.155 333.964 230.151 333.988 226.519C334.011 222.887 334.574 216.545 334.363 216.685" stroke="#FFD266" stroke-width="1.3" stroke-miterlimit="10"/>
<path d="M345.599 261.114C345.459 258.878 345.388 251.409 345.599 246.938C345.81 242.467 346.086 235.972 346.086 231.782C346.086 227.593 346.361 221.808 346.086 217.536C345.81 213.265 345.541 199.593 345.464 194.653C345.388 189.713 345.33 184.15 345.464 180.36C345.599 176.569 345.664 166.026 345.382 162.077C345.101 158.128 345.06 150.219 345.06 150.219" stroke="#FFD266" stroke-width="1.3" stroke-miterlimit="10"/>
<path d="M348.038 261.113C348.038 258.109 348.665 250.083 348.454 245.823C348.243 241.563 348.178 234.229 348.038 228.291C347.897 222.353 348.389 214.045 348.038 209.439C347.686 204.833 347.551 195.398 347.405 191.39C347.258 187.383 347.405 174.375 347.405 169.681C347.405 164.987 347.487 158.58 347.34 154.807C347.253 152.501 347.322 150.192 347.545 147.895" stroke="#FFD266" stroke-width="1.3" stroke-miterlimit="10"/>
<path d="M359.755 260.597C359.966 258.503 360.663 250.188 360.874 246.909C361.085 243.629 361.46 235.109 361.548 231.823C361.636 228.538 362.058 219.953 362.058 215.066C362.058 210.178 361.917 204.1 362.058 199.142C362.199 194.184 362.48 184.661 362.41 180.313C362.339 175.965 362.058 169.546 361.824 165.245C361.589 160.944 360.856 157.107 361.062 153.962C361.1 152.581 361.263 151.207 361.548 149.855" stroke="#FFD266" stroke-width="1.3" stroke-miterlimit="10"/>
<path d="M363.664 260.597C363.453 258.221 363.734 251.309 363.664 246.281C363.594 241.252 363.476 233.014 363.664 227.986C363.852 222.957 364.631 212.273 364.561 208.43C364.49 204.586 364.637 196.002 364.561 192.089C364.485 188.175 364.819 177.42 364.561 173.096C364.303 168.772 364.743 164.717 364.397 161.226C364.146 159.491 364.042 157.739 364.086 155.986C364.111 154.789 364.221 153.595 364.414 152.413" stroke="#FFD266" stroke-width="1.3" stroke-miterlimit="10"/>
<path d="M334.252 173.554C333.302 171.676 331.081 169.751 330.301 168.461C329.522 167.17 329.785 165.492 330.301 166.114C330.817 166.736 333.666 170.192 334.639 171.653C335.612 173.114 337.446 175.637 337.851 177.901C338.255 180.166 340.266 186.843 340.459 189.495C340.652 192.148 341.291 201.154 341.555 204.845C341.819 208.535 342.464 216.31 342.528 220.452C342.592 224.595 342.399 231.917 342.528 236.124C342.657 240.331 342.622 247.137 342.528 250.048C342.434 252.958 342.616 258.145 342.598 259.183C342.581 260.222 342.446 261.061 344.011 261.061C345.576 261.061 355.259 260.732 356.683 260.574C358.108 260.415 364.303 260.151 366.19 260.087C368.078 260.022 375.246 259.694 375.897 259.793C376.547 259.893 377.192 258.338 377.257 257.951C377.321 257.564 379.132 248.235 379.39 245.582C379.648 242.93 380.492 237.485 380.228 235.221C379.964 232.956 380.07 217.536 380.281 214.098C380.492 210.659 380.65 201.189 380.281 198.038C379.912 194.888 378.036 178.253 376.999 174.287C375.846 169.395 373.863 164.737 371.137 160.516C367.867 155.652 360.821 149.556 357.938 147.86C355.054 146.164 349.878 144.739 349.878 144.739C349.878 144.739 349.292 143.635 351.05 144.152C352.809 144.668 360.95 146.029 369.297 156.262C377.643 166.495 379.261 173.865 380.943 189.12C382.155 200.329 382.699 211.601 382.573 222.875C382.573 230.063 381.535 243.588 380.369 249.42C379.203 255.252 378.3 259.207 378.3 259.207C378.3 259.207 378.493 261.084 375.779 261.084C373.066 261.084 357.82 261.155 353.149 261.636C348.477 262.117 342.129 262.316 341.543 261.114C340.957 259.911 341.666 257.552 341.543 255.217C341.42 252.882 341.221 240.578 341.192 237.503C341.162 234.428 341.602 229.377 341.543 226.355C341.485 223.333 340.576 205.561 339.996 200.966C339.416 196.372 339.674 189.102 338.765 186.298C337.857 183.493 337.341 183.258 337.147 181.457C336.954 179.656 335.195 175.449 334.252 173.554Z" fill="#2E526B"/>
<path d="M326.134 259.817C321.449 260.178 316.787 260.785 312.166 261.636C309.159 262.176 307.331 263.032 306.785 262.011C306.24 260.99 306.604 250.2 306.785 245.723C306.967 241.246 307.108 229.459 307.676 225.621C308.245 221.784 309.247 215.301 309.247 214.661C309.247 214.022 310.888 213.81 310.525 216.292C310.162 218.774 309.704 222.793 309.353 225.803C309.001 228.813 308.268 236.952 308.356 240.842C308.444 244.732 308.356 254.184 308.356 256.167C308.356 258.151 308.063 259.383 308.708 259.817C309.353 260.251 311.516 259.612 312.576 259.43C313.637 259.248 318.842 258.755 321.216 258.497C323.59 258.239 335.365 257.241 337.1 257.147C338.835 257.053 342.03 257.998 337.1 258.532C332.171 259.066 326.134 259.817 326.134 259.817Z" fill="#2E526B"/>
<path d="M337.851 153.698C335.283 155.459 330.266 158.017 329.41 158.926C328.554 159.836 322.963 161.825 325.858 159.431C328.754 157.037 335.055 153.006 337.851 151.428C340.646 149.849 344.298 147.238 346.209 146.147C348.12 145.056 349.825 144.387 348.501 143.102C347.176 141.817 345.664 138.273 344.204 137.387C342.387 136.396 340.334 135.919 338.267 136.008C336.508 136.19 332.88 138.525 330.782 139.833C328.683 141.142 325.184 143.53 324.182 144.768C323.18 146.006 322.16 146.147 322.16 147.889C322.067 149.716 322.335 151.542 322.951 153.264C323.754 155.611 325.348 156.82 324.551 157.506C323.754 158.193 323.912 157.354 322.734 155.159C321.556 152.965 319.962 149.644 320.735 147.467C321.509 145.29 322.236 143.765 325.858 141.441C329.481 139.118 332.528 136.7 334.269 136.02C336.01 135.339 338.255 134.259 339.849 134.4C341.444 134.541 342.604 134.482 344.058 135.574C345.511 136.665 346.988 138.947 347.903 140.18C348.817 141.412 349.995 142.286 350.294 143.518C350.593 144.75 349.708 145.19 347.311 146.927C344.914 148.664 337.851 153.698 337.851 153.698Z" fill="#2E526B"/>
<path d="M275.802 120.576C274.929 119.544 275.064 117.824 275.345 116.704C275.626 115.583 277.596 113.87 279.712 112.861C281.828 111.851 287.472 108.841 288.861 108.073C290.25 107.304 293.257 105.726 294.559 104.552C295.86 103.379 296.78 102.475 297.349 100.991C297.917 99.5063 299.693 95.6455 300.625 93.146C301.557 90.6464 303.398 85.9407 304.535 84.2392C305.672 82.5376 308.72 78.7648 312.236 77.3449C315.753 75.925 320.735 76.8344 321.984 77.3449C323.232 77.8554 327.798 80.0146 328.431 81.147C329.064 82.2794 331.034 86.4805 331.468 88.4637C331.901 90.4469 332.523 94.1434 333.091 96.3261C333.66 98.5088 333.877 102.023 334.398 103.273C334.714 104.226 335.332 105.05 336.157 105.62C337.877 107.003 339.505 108.499 341.027 110.097C342.616 111.857 344.937 114.245 345.845 116.375C346.754 118.505 346.754 119.632 345.845 120.6C344.937 121.568 343.407 123.041 341.936 122.524C340.465 122.008 337.247 118.552 335.442 116.727C333.636 114.902 331.063 111.57 329.815 110.097C328.566 108.624 328.678 107.492 327.88 107.551C327.083 107.609 320.173 111.018 316.89 112.884C313.608 114.75 304.933 117.414 301.475 118.241C298.017 119.068 288.779 122.031 286.968 122.348C285.157 122.665 282.033 123.029 279.77 122.642C277.508 122.254 276.986 121.703 276.711 121.891C276.435 122.078 276.394 122.225 277.297 122.806C278.2 123.387 281.804 123.903 284.36 123.733C286.915 123.563 294.324 121.679 296.669 120.917C299.013 120.154 306.826 118.106 308.767 117.484C310.707 116.862 315.695 115.46 317.283 114.603C318.871 113.747 324.006 111.294 325.266 110.649C326.526 110.003 327.025 109.035 327.88 109.774C328.736 110.514 332.083 114.826 333.636 116.387C335.19 117.948 337.575 121.022 339.556 122.348C341.537 123.674 342.727 124.249 343.976 123.481C345.224 122.712 347.492 121.187 347.545 119.086C347.598 116.985 347.604 115.97 346.637 114.603C345.494 112.796 344.158 111.12 342.651 109.604C340.746 107.791 336.649 104.576 335.916 103.737C335.184 102.898 334.158 94.0965 333.636 92.1074C333.115 90.1184 331.679 83.5996 329.92 81.2702C328.162 78.9408 324.903 76.6349 323.473 76.5763C322.042 76.5176 320.055 76.189 317.963 76.0775C315.87 75.9661 311.785 76.0306 310.373 77.1337C308.96 78.2368 305.496 80.5661 303.737 83.5879C301.979 86.6096 300.473 91.2156 299.558 93.4041C298.644 95.5927 297.384 99.518 296.042 101.284C294.699 103.05 293.345 104.464 288.873 107.245C284.401 110.027 281.025 110.836 278.645 112.526C276.265 114.216 274.401 115.718 274.284 117.625C274.167 119.532 274.179 120.371 274.624 120.653C275.07 120.934 276.851 121.826 275.802 120.576Z" fill="#2E526B"/>
</svg>
