<svg width="250" height="210" viewBox="20 0 360 280" fill="none" xmlns="http://www.w3.org/2000/svg">
<rect width="460" height="281" fill="none"/>
<path d="M257.555 90.7002C257.555 90.7002 252.955 99.1002 253.455 103.4C253.955 107.8 252.255 108.3 251.955 110.7C251.655 113.1 250.755 120.9 259.955 127.7C259.955 127.7 264.655 131.6 255.855 135C247.055 138.4 241.955 134 232.255 136C222.555 137.9 210.855 133.1 201.855 133.1C192.855 133.1 190.355 133.1 190.355 133.1C190.355 133.1 190.855 128.5 186.155 127.7C181.455 126.9 178.455 128.9 178.455 128.9C178.455 128.9 175.655 129.2 176.155 130.7C176.655 132.2 176.655 132.2 176.655 132.2C176.655 132.2 175.355 133.4 176.455 134.4C176.455 134.4 175.555 136.4 178.255 137.2C180.955 138 189.655 137.6 189.655 137.6C189.655 137.6 196.755 140.2 199.855 142.2C202.955 144.2 224.155 151.4 232.255 151.9C240.455 152.4 276.355 151.7 290.955 148.1C305.555 144.5 324.955 139.1 328.655 130.4C332.355 121.7 324.855 121.2 319.455 120.2C314.055 119.1 300.655 121.4 298.155 122C295.655 122.7 291.055 123.2 288.355 122.2C285.555 121.1 280.355 123.1 280.255 124.1C280.155 125.1 281.555 125.3 281.555 125.3C281.555 125.3 280.555 127.1 281.855 127.7C281.855 127.7 282.255 129 284.055 129C285.855 129 291.155 127.8 293.555 127.7C295.955 127.6 300.355 129.6 305.755 130.2C305.755 130.2 296.555 132.7 292.555 133.8C288.555 134.9 269.655 134.6 269.355 133C269.055 131.4 269.455 128.2 269.455 128.2C269.455 128.2 278.255 126.8 280.755 122.2C283.355 117.6 287.355 116.4 287.055 112.4C286.755 108.4 290.055 91.1002 275.855 89.7002C261.955 88.4002 260.055 85.5002 257.555 90.7002Z" fill="#DCA47D"/>
<path d="M256.055 90.6998C256.055 90.6998 257.855 82.0998 267.755 82.2998C277.655 82.4998 278.555 84.3998 281.655 83.6998C284.655 82.9998 286.955 83.4998 287.555 84.2998C287.555 84.2998 292.755 81.3998 295.355 86.4998C297.955 91.5998 293.055 93.4998 293.055 93.4998C293.055 93.4998 298.255 94.4998 297.555 100.1C296.955 105.6 294.255 104.8 294.255 104.8C294.255 104.8 299.055 107.4 297.555 110.3C296.155 113.2 293.555 113.6 293.555 113.6C293.555 113.6 297.455 115.7 297.755 118.9C298.055 122.1 293.255 124.7 293.255 124.7C293.255 124.7 298.655 128.4 293.855 131.9L292.455 145.6C292.455 145.6 296.955 150.5 292.555 153.2C292.555 153.2 299.955 158 292.855 165.1C292.855 165.1 297.755 170.8 292.455 174.6C292.455 174.6 295.355 180.8 290.855 182.5C290.855 182.5 293.755 184.8 292.255 189.4C290.755 194.1 295.555 193.3 295.555 193.3C295.555 193.3 290.255 196.3 287.355 191.9C284.455 187.5 287.955 182.7 287.955 182.7C287.955 182.7 283.755 177.3 288.055 174.4C288.055 174.4 283.055 169.1 287.255 165.1L288.355 132.2C288.355 132.2 284.655 129.6 287.055 125.8L290.255 123.9C290.255 123.9 286.455 123.4 286.755 118C286.755 118 287.455 119.3 280.655 122.3C280.655 122.3 279.855 119.9 281.155 118.1C282.455 116.3 282.055 116 282.055 116C282.055 116 286.155 114.9 285.855 112.4C285.555 109.9 281.355 110.9 280.955 113C280.555 115.1 280.855 114.8 279.155 115.7C279.155 115.7 279.055 113.1 279.955 109.8C280.855 106.5 278.455 104.9 278.255 103.4C278.055 102 279.455 96.6998 279.055 94.7998C278.655 92.8998 276.655 91.1998 276.655 91.1998C276.655 91.1998 279.455 95.5998 274.955 97.9998C274.955 97.9998 276.555 92.8998 273.855 91.1998C273.855 91.1998 268.255 92.5998 265.255 92.4998C262.255 92.3998 260.355 89.7998 260.355 89.7998C260.355 89.7998 254.655 94.6998 253.855 98.7998C253.855 98.7998 253.055 96.3998 254.455 93.5998C254.455 93.5998 250.055 95.3998 250.055 99.2998C250.255 99.1998 248.255 90.9998 256.055 90.6998Z" fill="#2E526B"/>
<path d="M181.055 109.1C181.055 109.3 180.455 116.6 183.455 116.9C186.455 117.2 186.155 117 186.255 119.7C186.355 122.4 186.055 128.4 186.055 128.4L183.155 131.5L178.655 129C178.655 129 176.955 113.1 178.655 111.1C180.255 109.1 181.055 109.1 181.055 109.1Z" fill="#2E526B"/>
<path d="M178.355 137.2C178.355 137.2 177.355 140.3 179.155 140.5C180.955 140.7 186.155 140.7 186.255 139.5C186.355 138.3 186.255 137.4 186.255 137.4C186.255 137.4 180.155 137.2 178.355 137.2Z" fill="#2E526B"/>
<path d="M275.655 132.7C275.655 132.7 272.055 142.2 264.255 140.6C256.455 139 256.155 133.5 256.155 133.5C256.155 133.5 251.955 135.5 249.255 134.9C246.555 134.3 244.755 132 237.455 133.5C230.155 135 228.955 135 228.955 135C228.955 135 232.455 148.1 230.455 153.5C230.455 153.5 235.255 153 239.355 152C239.355 152 237.155 166.4 243.355 169C249.555 171.6 247.855 194.2 247.855 194.2C247.855 194.2 269.755 195.4 278.455 194.2C278.455 194.2 281.855 178 282.555 173.8C283.255 169.6 288.755 169 289.555 162.4C290.355 155.8 289.555 150.3 289.555 150.3C289.555 150.3 295.755 149.2 298.555 148.9C298.555 148.9 295.455 137.3 296.355 131.5C296.355 131.7 280.855 130.4 275.655 132.7Z" fill="#FFE9B3"/>
<path d="M234.755 16V21.8C234.755 21.8 237.155 22.2 237.455 24.6C237.755 27 234.955 27.7 233.655 27.9C232.355 28.1 231.055 40.8 229.755 45.7C228.455 50.6 226.055 55.3 209.155 59C192.255 62.7 183.155 68.7 182.055 87.8C180.955 106.9 180.855 111.1 181.355 114.2C181.755 117.4 185.455 117.2 185.455 117.2C185.455 117.2 185.655 85.1 188.155 80.2C190.655 75.3 195.355 65.1 210.855 63.7C226.355 62.3 232.255 55.9 233.355 46.6C234.455 37.3 235.055 30.7 237.555 29.5C240.055 28.3 243.755 21.2 234.755 16Z" fill="#95B8D1"/>
<path d="M180.555 140.7C180.555 140.7 180.355 176.1 194.655 184.9C209.055 193.7 223.455 192 225.755 202.9C227.955 213.7 226.755 223.6 226.755 223.6C226.755 223.6 229.655 223.7 229.655 226.5C229.655 229.3 226.555 230.1 226.555 230.1L226.355 231.2C226.355 231.2 233.155 232.2 233.355 226.3C233.555 220.4 229.855 220.4 229.855 220.4C229.855 220.4 233.455 199.4 226.755 193C220.055 186.6 202.955 187 196.655 174.4C190.355 161.8 186.255 144.2 185.255 140.3C185.155 140.3 181.955 140.8 180.555 140.7Z" fill="#95B8D1"/>
<path d="M230.955 151.8L229.055 151.5C229.055 151.5 228.955 152.8 230.555 153.6C230.555 153.6 230.855 152.7 230.955 151.8Z" fill="#F48498"/>
<path d="M229.055 135.1C229.055 135.1 228.755 135.8 228.455 136.5C228.455 136.5 228.355 136.7 229.355 136.5L229.055 135.1Z" fill="#F48498"/>
<path d="M297.955 146.4C297.955 146.4 298.355 148.3 298.655 149C298.655 149 299.155 148.7 299.555 145.9C299.555 146 298.955 146.2 297.955 146.4Z" fill="#F48498"/>
<path d="M296.255 132.9L296.955 132.7C296.955 132.7 296.855 132.1 296.355 131.7L296.255 132.9Z" fill="#F48498"/>
<path d="M153.155 71.1999C153.155 71.1999 150.955 67.1999 147.955 69.5999C144.955 71.9999 144.655 79.5999 144.655 79.5999C144.655 79.5999 145.255 80.1999 145.255 80.0999C145.255 79.9999 153.755 79.1999 155.155 76.3999C156.555 73.5999 153.155 71.1999 153.155 71.1999Z" fill="#457AA0"/>
<path d="M103.455 60.1998C103.455 60.1998 100.455 58.8998 98.755 61.0998C97.055 63.2998 101.055 72.7998 101.055 72.7998H101.855C101.855 72.7998 106.855 65.4998 107.655 62.9998C108.555 60.4998 104.655 60.1998 103.455 60.1998Z" fill="#457AA0"/>
<path d="M276.055 107.6C276.055 107.6 271.355 106.2 268.755 106.5C266.155 106.8 266.655 108.6 267.955 108.3C269.255 108 274.455 107.8 275.355 108.1C276.255 108.4 276.855 107.8 276.055 107.6Z" fill="#2E526B"/>
<path d="M253.355 105.2C253.355 105.2 256.955 104.5 258.455 105.2C259.955 105.9 260.555 107.1 259.955 107.4C259.355 107.7 258.255 106.8 257.155 106.5C256.055 106.1 254.255 105.9 253.455 105.9C252.755 105.9 253.355 105.2 253.355 105.2Z" fill="#2E526B"/>
<path d="M261.255 104.7C261.255 104.7 262.555 107.4 261.255 110.6C259.955 113.8 259.755 113.5 259.755 113.5C259.755 113.5 257.755 113.3 257.855 114.6C257.855 115.9 259.455 116 260.255 115.9C261.055 115.8 261.155 116.7 261.655 116.9C262.155 117.2 263.655 117 264.055 116.3C264.455 115.6 265.455 116.4 266.155 116.1C266.955 115.8 267.355 113.6 265.955 113.6C264.555 113.6 264.655 114.2 264.955 114.3C265.255 114.4 266.155 114.1 266.255 114.7C266.355 115.3 265.855 115.8 265.355 115.7C264.855 115.5 264.055 115.4 263.655 115.8C263.255 116.2 262.155 116.7 261.755 116.2C261.355 115.7 260.855 115.3 260.255 115.4C259.655 115.5 258.355 115.2 258.455 114.6C258.555 114 260.155 114.5 260.555 114.1C260.955 113.7 262.155 111.4 262.355 109.5C262.555 107.6 262.255 105.7 261.755 104.7C261.255 103.7 260.955 104.1 261.255 104.7Z" fill="#2E526B"/>
<path d="M254.155 97.1999C254.155 97.1999 252.355 101.4 252.955 104.4C253.555 107.3 252.455 107.8 251.855 109.4C251.255 111 251.055 117.6 253.555 121.2C256.055 124.8 260.355 128.4 262.355 129.4C264.355 130.4 270.755 128.2 270.755 128.2C270.755 128.2 272.155 127.2 269.555 127.8C266.955 128.4 264.355 129.6 262.655 128.6C260.955 127.6 256.055 123.4 254.655 121.1C253.255 118.8 251.955 113.5 252.655 110.7C253.355 107.9 254.555 106.6 254.355 104.2C254.155 101.8 254.655 99.0999 255.155 97.1999C255.655 95.2999 256.855 93.9999 258.755 91.5999C260.655 89.0999 254.955 93.1999 254.155 97.1999Z" fill="#2E526B"/>
<path d="M109.855 127.8C105.555 114.5 85.555 90.0998 74.855 97.8998C74.855 97.8998 58.355 114.4 68.055 139.7C77.855 165.1 89.655 170.3 104.055 167.9C118.555 165.5 114.155 141.1 109.855 127.8ZM100.955 164.5C87.655 166 81.755 153.2 76.055 140.7C71.355 130.4 73.255 117.7 74.055 113.4C74.255 112.4 74.355 111.9 74.355 111.9C79.055 99.8998 87.055 104.3 87.055 104.3C97.855 108.2 105.055 127.1 107.755 134.3C110.455 141.5 114.355 163 100.955 164.5Z" fill="#F48498"/>
<path d="M105.155 140.7C103.555 131.9 99.055 122.4 92.355 118.6C85.755 114.9 81.555 119.6 81.855 124.2C81.855 124.2 82.255 146.4 91.655 152.7C101.155 159 106.755 149.5 105.155 140.7ZM96.655 144.2C90.555 145 89.555 135.1 89.555 135.1C88.655 125.9 93.255 127.7 96.655 130.7C100.055 133.7 101.055 143.7 96.655 144.2Z" fill="#F48498"/>
<path d="M102.655 58.6001C102.655 58.6001 94.155 118.2 93.655 124.1C93.155 130 93.055 134 93.055 134L94.155 134.2C94.155 134.2 95.555 118.4 96.155 114.1C96.755 109.8 100.955 81.8001 102.255 73.7001C103.555 65.3001 104.655 62.5001 104.655 57.6001C104.555 56.2001 102.655 58.6001 102.655 58.6001Z" fill="#663613"/>
<path d="M95.255 134.1L95.955 134.9C95.955 134.9 110.255 119.2 113.155 116.2C116.155 113.2 126.655 101.5 128.355 99.5998C129.955 97.6998 144.355 82.1998 146.155 79.9998C148.055 77.6998 153.655 72.3998 154.355 71.6998C154.955 70.9998 155.455 70.3998 154.955 69.7998C154.455 69.2998 153.655 69.3998 152.955 70.1998C152.255 70.9998 145.155 77.7998 143.555 79.4998C141.955 81.0998 128.855 95.3998 126.655 97.8998C124.355 100.3 113.755 112.6 110.155 116.5C106.555 120.4 97.155 130.9 95.255 134.1Z" fill="#663613"/>
<path d="M263.455 126C263.455 126 269.255 121.8 273.555 121.8C277.855 121.8 277.055 126.4 277.055 126.4C277.055 126.4 278.955 132.3 274.155 131.4C269.355 130.5 263.355 126.9 263.355 126.9V126H263.455Z" fill="#457AA0"/>
<path d="M281.755 125.4C281.755 125.4 258.055 125 251.455 125.1C244.855 125.2 215.555 124.7 211.355 124.7C207.155 124.8 175.855 124.1 168.355 124.2C160.955 124.3 150.355 124.4 148.055 124.8C145.655 125.2 146.155 125.6 146.755 125.9C147.355 126.2 151.855 127.3 160.355 127.2C168.855 127.1 186.555 127.2 190.255 127.2C193.955 127.2 223.455 127.9 231.455 127.8C239.455 127.7 271.855 127.3 275.955 127.4C280.055 127.5 281.755 127.6 281.755 127.6C281.755 127.6 281.155 126.3 281.755 125.4Z" fill="#663613"/>
<path d="M266.555 122C266.555 122 263.755 120.2 262.955 119.5C262.255 118.8 261.855 118.3 261.255 119.1C261.255 119.1 261.055 118.6 260.455 118.7C259.855 118.8 259.255 120.6 257.455 120.6C257.455 120.6 258.555 121.2 259.455 122.2C260.355 123.2 263.055 123.1 264.355 122.6C265.755 122.2 266.555 122 266.555 122Z" fill="#FACCD4"/>
<path d="M190.455 131.3C190.455 131.3 190.955 127.6 186.055 127.4L186.155 128.4C186.155 128.4 188.455 128.5 188.555 129.9C188.655 131.4 184.755 133.5 183.855 132.4C183.855 132.5 184.255 133.3 183.455 133.5C183.455 133.5 184.455 134.9 183.455 135.2C183.455 135.2 184.555 136.8 183.155 137.4C183.155 137.4 187.255 138.7 189.155 138.1L191.755 139C191.755 139 192.255 139.1 192.755 138.2C193.255 137.4 193.955 134.2 194.355 133.5C194.655 132.7 191.755 132 190.455 131.3ZM188.955 137.2C188.955 137.2 187.355 137.4 186.355 136.9V133.5C186.355 133.5 187.055 134 189.355 133.5C189.255 133.6 190.055 136.3 188.955 137.2Z" fill="#457AA0"/>
<path d="M201.055 133.2C201.055 133.2 200.255 141.2 200.055 142.3C199.855 143.4 201.755 144.7 202.855 144.4C203.955 144.1 203.555 142.6 204.355 142.1C205.155 141.6 211.155 143.8 211.255 145C211.355 146.2 211.055 147.6 212.455 147.9C213.855 148.2 214.855 147.2 215.655 146.2C216.555 145.2 219.455 146.5 219.055 148C218.555 149.5 219.655 150.5 220.655 150.7C221.655 150.9 222.955 149.3 223.455 145.9C224.055 142.5 224.155 136 223.655 135.5C223.155 135 221.455 134.3 220.055 134.7C218.655 135.1 217.655 135.3 216.755 134.9C215.755 134.5 215.255 132.9 212.955 132.7C210.655 132.4 210.255 134.2 208.755 134C207.255 133.8 206.555 131.6 204.355 131.6C201.955 131.4 201.155 132.2 201.055 133.2Z" fill="#457AA0"/>
<path d="M296.955 127.9C296.955 129.1 296.155 128.7 295.055 128.3C294.755 128.2 294.355 128 293.855 127.9C292.155 127.5 291.055 127.8 289.655 128.7C288.155 129.5 286.855 129.2 286.255 129.1C285.655 129 285.755 128.9 285.855 128.1C285.955 127.3 285.355 126.6 284.755 126.3C284.155 126 284.155 126 284.255 125.6C284.355 125.2 284.055 124.8 283.755 124.5C283.455 124.2 283.455 124.1 283.555 123.8C283.555 123.6 283.655 123.2 283.355 122.7C283.055 122.2 283.155 122.2 283.955 121.8C284.855 121.5 288.155 121.8 289.355 122C290.655 122.3 294.455 122 294.455 122C295.255 121.9 295.755 121.9 296.155 122C297.055 122.2 296.955 122.8 296.855 123.1C296.955 123.8 297.055 126.3 296.955 127.9Z" fill="#457AA0"/>
<path d="M238.555 28.7002L281.755 125.4" stroke="#2E526B" stroke-width="0.75" stroke-miterlimit="10"/>
<path d="M282.055 127.8L232.155 221.6" stroke="#2E526B" stroke-width="0.75" stroke-miterlimit="10"/>
<path d="M183.655 133.7C183.655 133.7 184.555 133.4 183.855 132.1C183.155 130.9 181.255 129 178.955 128.7C178.955 128.7 177.455 128.8 176.655 129.3C175.855 129.8 175.855 131 176.455 132.1C176.455 132.1 175.155 133 176.355 134.5C176.355 134.5 176.255 136.3 177.055 136.8C177.855 137.4 182.155 137.4 182.655 137.4C183.155 137.4 184.655 136.3 183.655 135.1C183.655 135.3 184.255 134.5 183.655 133.7ZM182.855 137C182.455 137.3 178.355 136.9 177.855 136.7C177.355 136.5 176.755 135.5 176.855 135.2C176.955 134.9 178.055 134.9 179.255 134.8C180.455 134.7 182.855 135.8 182.855 135.8C183.555 136.1 183.255 136.7 182.855 137ZM183.355 135.2C183.155 135.6 181.555 135 180.055 134.5C178.655 134 176.855 134.5 176.855 134.5C176.455 134.1 176.255 133.2 176.755 132.9C177.255 132.6 177.855 132.8 179.555 132.8C181.255 132.8 183.155 134.1 183.155 134.1C183.155 134.1 183.455 134.8 183.355 135.2ZM183.355 133.2C183.155 133.6 182.255 133.2 180.755 132.6C179.255 132 177.055 132.3 177.055 132.3C177.055 132.3 176.655 131.1 176.655 130.6C176.655 130.1 176.655 129.6 178.655 129.4C180.655 129.2 183.155 132.2 183.155 132.2C183.155 132.2 183.555 132.8 183.355 133.2Z" fill="#2E526B"/>
<path d="M185.855 128.2C185.855 128.2 188.255 128.2 188.555 129.6C188.855 131 186.655 132.5 185.655 132.8C184.555 133.1 183.855 132.8 183.855 132.8L183.755 132.4C183.755 132.4 185.255 132.6 186.355 131.9C187.455 131.3 188.455 130.2 188.055 129.5C187.655 128.9 185.455 128.7 185.455 128.7L185.855 128.2Z" fill="#2E526B"/>
<path d="M186.055 128.4L186.155 127.5C186.155 127.5 188.455 127.6 189.255 128.7C190.055 129.8 190.055 131.2 190.555 131.6C191.055 132 194.155 132.4 193.855 133.7C193.555 134.9 192.555 138.6 191.755 138.5C190.955 138.4 189.255 137.5 188.555 137.9C187.855 138.3 182.855 137.3 182.855 137.3V137.8C182.855 137.8 186.955 138.7 187.855 138.5C188.655 138.4 189.455 138.2 190.055 138.6C190.655 139 192.055 139.4 192.555 138.7C193.055 137.9 193.955 134.6 194.355 133.7C194.755 132.8 193.955 132.2 193.155 131.9C192.355 131.7 191.055 131.6 190.755 130.8C190.555 130 190.155 128.2 188.655 127.6C187.155 127 185.655 127.1 185.655 127.1L186.055 128.4Z" fill="#2E526B"/>
<path d="M183.855 132.8C184.055 132.9 186.555 134.3 188.255 134C189.955 133.7 190.655 133 190.155 133.1C189.655 133.2 187.455 133.6 186.855 133.4C186.255 133.2 185.255 132.7 185.255 132.7L183.855 132.8Z" fill="#2E526B"/>
<path d="M185.955 133.6C185.855 133.7 185.955 137.1 185.955 137.1C185.955 137.1 187.755 138 188.955 137.5C190.155 137 189.555 134 189.355 133.6C189.355 133.6 188.855 133.3 188.955 133.9C189.055 134.4 189.555 136.8 188.655 137C187.855 137.3 186.255 136.8 186.255 136.8L186.455 133.8L185.955 133.6Z" fill="#2E526B"/>
<path d="M202.755 131.5C202.755 131.5 201.255 131.6 201.055 133.2C200.855 134.8 199.655 142.4 200.055 143.2C200.455 144 202.255 145.1 203.255 144.5C204.255 144 203.855 142.4 204.755 142.4C205.655 142.4 210.855 144.1 210.955 145.3C211.055 146.6 211.155 148.2 212.455 148.3C213.755 148.4 214.855 147.2 215.755 146.5C216.655 145.8 218.955 146.6 218.655 147.7C218.355 148.8 219.055 150.5 220.055 150.7C221.055 150.9 223.055 150.4 223.455 146.5C223.855 142.6 223.155 145.3 223.055 146.1C222.955 146.9 221.655 150.3 220.455 150C219.255 149.7 219.255 148.2 219.355 147.4C219.455 146.6 218.455 145 216.955 145.2C215.455 145.4 213.255 148.1 212.555 147.5C211.855 146.9 212.355 145.3 211.755 144.3C211.155 143.3 206.755 141.7 205.855 141.6C204.855 141.5 203.855 141.3 203.455 142.7C203.055 144.1 201.655 143.7 201.355 143.3C201.055 142.9 200.455 142.1 200.955 140.6C201.355 139 201.555 133.2 201.955 132.6C202.355 132 202.455 131.7 203.155 131.6C203.755 131.7 203.855 131.4 202.755 131.5Z" fill="#2E526B"/>
<path d="M223.755 136L223.855 136.8C223.855 136.8 227.455 137.6 229.355 137C231.355 136.4 229.355 137 229.355 137L229.255 136.1C229.255 136.1 226.855 136.5 223.755 136Z" fill="#2E526B"/>
<path d="M266.555 121.9C266.555 121.9 263.755 120.1 263.055 119.4C262.355 118.7 261.755 118.2 261.255 119C261.255 119 260.855 118.2 260.255 118.8C259.655 119.4 259.155 120.6 257.555 120.5C257.555 120.5 257.155 120.7 257.655 120.9C258.155 121.1 259.055 122 259.655 122.6C260.255 123.2 263.055 123.7 264.255 123C265.455 122.3 266.055 122.2 266.455 122.2C266.955 122.2 266.855 122 266.555 121.9ZM263.655 122.8C262.555 123.5 260.355 122.7 259.955 122.2C259.555 121.7 258.855 120.9 258.155 120.7C258.155 120.7 259.455 120.5 260.055 119.7C260.555 118.9 261.155 118.7 261.255 119.2C261.355 119.7 261.555 119.3 261.655 119.2C261.755 119 262.355 118.8 262.955 119.7C263.555 120.6 265.255 121.7 266.155 122C265.955 121.9 264.755 122.1 263.655 122.8Z" fill="#F48498"/>
<path d="M265.855 121.6C265.855 121.6 263.955 121.1 263.055 120.9C262.155 120.7 261.955 120.9 261.455 120.9C260.955 120.9 261.055 120.5 260.355 120.5C259.655 120.5 257.855 120.5 257.855 120.5V120.8C257.855 120.8 260.055 120.7 260.355 120.9C260.655 121.1 261.055 121.3 261.455 121.4C261.855 121.5 262.055 121.2 262.755 121.2C263.455 121.2 265.955 122.1 265.955 122.1L266.255 121.9L265.855 121.6Z" fill="#F48498"/>
<path d="M288.855 131.1C288.855 131.1 279.155 131 276.955 131.9C274.755 132.8 274.355 134.5 273.455 135.8C272.555 137.1 269.555 141.3 265.355 140.5C261.155 139.7 257.955 138.1 257.255 136.1C256.555 134.1 256.755 133.3 256.055 133.3C255.355 133.3 252.655 134.9 250.255 134.7C247.855 134.5 245.455 132.5 242.555 132.7C239.655 132.9 230.555 134.4 229.555 134.6C228.555 134.8 228.155 135.8 228.055 136.5H228.555C228.555 136.5 228.455 135.4 229.555 135C230.655 134.6 241.155 133.2 241.955 133.2C242.755 133.2 245.555 133.6 246.855 134.4C248.155 135.2 249.155 135.6 251.955 135.1C254.755 134.5 255.755 133.7 255.855 134.3C255.955 134.9 256.355 137.3 259.155 139.1C261.955 140.9 264.955 141.6 267.955 140.9C270.955 140.2 274.155 136.4 274.755 135C275.355 133.6 276.255 132 280.155 131.9C284.055 131.8 288.055 131.4 289.855 131.4C291.655 131.4 296.055 131.5 296.455 131.9C296.855 132.3 296.855 132.6 296.855 132.6L297.355 132.5C297.355 132.5 297.055 131.3 296.255 131.2C295.455 131.3 292.055 130.7 288.855 131.1Z" fill="#2E526B"/>
<path d="M228.455 151.4C228.455 151.4 228.855 153.3 230.555 153.9C232.155 154.5 231.755 147.8 231.355 144.9C230.955 142 229.455 134.9 229.455 134.9L228.955 135.3C228.955 135.3 229.455 137.9 229.655 139.4C229.855 140.9 231.255 145.9 231.155 149.1C230.955 152.4 230.855 153.3 230.355 153.1C229.755 152.9 229.355 152.5 229.355 151.4H228.455Z" fill="#2E526B"/>
<path d="M231.155 153.2C231.155 153.2 233.155 152.9 234.955 152.6C236.755 152.3 238.555 151.9 239.155 151.8C239.755 151.7 239.855 151.7 239.755 152.8C239.655 153.8 239.355 158.2 239.555 160.7C239.755 163.2 240.855 167.2 242.955 168.5C245.055 169.7 245.955 170.6 247.055 173.8C248.155 177 248.355 182.8 248.355 184.1C248.355 185.4 248.355 188 248.355 189.4C248.355 190.8 247.855 193.6 248.455 193.9C249.055 194.2 256.055 194.2 258.955 194.4C261.755 194.6 269.955 194.3 272.455 194.4C274.855 194.5 277.755 194.6 278.155 193.5C278.555 192.5 279.155 189.5 279.755 186.6C280.355 183.7 281.055 180.8 281.555 178.6C282.055 176.4 281.955 173.4 283.555 171.4C285.255 169.5 287.255 168.4 288.255 166.9C289.255 165.4 288.655 167.4 288.155 168C287.655 168.6 284.955 170.6 284.255 171.5C283.655 172.4 283.055 173.4 282.755 175.5C282.355 177.6 280.855 185.3 280.655 186.4C280.455 187.6 279.255 193 279.155 193.8C278.955 194.6 279.155 194.8 277.255 195C275.355 195.2 270.255 195.3 268.255 195.3C266.255 195.3 260.055 195.2 257.655 195.2C255.255 195.2 250.955 195.1 249.555 195C248.155 194.9 247.355 195 247.455 192.9C247.655 190.9 247.855 187 247.855 184.9C247.755 182.8 247.355 175.9 246.355 173.9C245.355 171.9 244.555 170.8 242.655 169.5C240.755 168.1 239.255 165.6 239.055 162.4C238.855 159.2 239.055 154.9 239.155 154C239.255 153.1 239.455 152.5 238.555 152.8C237.655 153.1 231.355 154.5 230.855 154.2L231.155 153.2Z" fill="#2E526B"/>
<path d="M321.655 129.6C321.655 129.6 308.155 130.4 304.555 129.6C301.055 128.8 296.955 127.6 296.955 127.6L296.855 128.4C296.855 128.4 302.355 130.4 305.555 130.7C308.755 131 319.855 130.5 321.555 130.1C323.355 129.7 321.655 129.6 321.655 129.6Z" fill="#2E526B"/>
<path d="M296.255 132.8L304.755 130.3L306.055 130.6L296.255 133.6V132.8Z" fill="#2E526B"/>
<path d="M285.855 126.6C285.155 126 284.955 126 284.955 126C284.955 126 285.155 124.9 284.455 124.4C284.455 124.4 284.555 122.2 283.455 122.2C283.455 122.2 280.855 122.8 280.355 123.6C279.855 124.4 280.355 125.3 281.255 125.6C281.255 125.6 280.555 127.5 282.055 128C282.055 128 282.255 128.8 283.255 129.1C284.255 129.4 286.055 128.9 286.055 128.9C286.055 128.9 286.555 127.2 285.855 126.6ZM280.755 123.9C280.955 123.4 283.155 123 283.155 123C283.955 123.1 283.755 124.2 283.755 124.2C282.855 124.2 281.355 125.2 281.355 125.2C280.655 125 280.555 124.3 280.755 123.9ZM282.155 127.5C281.455 127.4 281.255 126.2 281.555 125.9C281.755 125.6 283.755 124.8 283.755 124.8C284.255 124.6 284.355 126.4 284.355 126.4C283.755 126.3 282.155 127.5 282.155 127.5ZM285.355 128.5C283.055 128.7 282.655 128.1 282.655 128.1C283.455 127.3 284.855 126.8 284.855 126.8C286.055 127.3 285.355 128.5 285.355 128.5Z" fill="#2E526B"/>
<path d="M296.255 131.7C296.255 131.7 295.755 134.9 296.455 139.9C297.155 144.9 298.355 149.5 298.655 149.5C298.955 149.5 299.955 147.9 299.955 145.9L299.055 146.2C299.055 146.2 298.955 147.4 298.855 148C298.755 148.6 298.255 147 297.955 145.7C297.655 144.4 295.755 135.3 296.555 131.8H296.255V131.7Z" fill="#2E526B"/>
<path d="M298.755 148.4L289.655 150.4L290.155 150.7L298.655 149.4L298.755 148.4Z" fill="#2E526B"/>
<path d="M297.955 146.1C297.955 146.1 307.555 143.2 309.755 142.4C311.955 141.6 320.055 138.5 322.755 136.5C325.455 134.5 328.655 131.4 329.155 128.3C329.655 125.2 328.455 123.1 325.555 121.8C322.655 120.6 317.855 120 313.655 120.3C309.455 120.6 297.055 122.6 297.055 122.6L296.755 122.2C296.755 122.2 305.755 119.7 313.555 119.6C321.355 119.4 327.355 120.4 329.555 123.9C331.755 127.4 328.355 133.7 324.355 136.2C320.455 138.7 311.155 142.9 303.455 145.1C295.755 147.3 298.055 146.6 298.055 146.6L297.955 146.1Z" fill="#2E526B"/>
<path d="M296.755 129.2C296.055 129.2 295.055 128.8 295.055 128.8V128.4C296.155 128.8 296.955 129.2 296.955 128C297.055 126.4 296.855 123.8 296.955 123.3C297.055 122.9 297.155 122.4 296.255 122.2L296.355 121.6C296.455 121.6 297.255 122 297.355 123C297.355 124.1 297.355 126.2 297.355 126.9C297.455 127.6 297.455 129.2 296.755 129.2Z" fill="#2E526B"/>
</svg>
