<svg width="250" height="210" viewBox="0 0 200 200" fill="none" xmlns="http://www.w3.org/2000/svg">
<g id="analyze/data">
<path id="Path" d="M96.4319 79.6338C96.338 79.7277 95.6807 80.2911 95.6807 80.2911C95.4929 80.4789 95.3051 80.6667 95.1174 80.8544C94.8357 81.23 94.4601 81.5117 94.0845 81.8873C93.2394 82.7324 92.3944 83.5775 91.6432 84.5164C91.3615 84.7981 90.9859 86.3005 90.9859 86.4882C90.9859 86.8638 91.0798 86.8638 91.3615 86.8638C91.6432 86.8638 92.5821 86.2066 92.8638 86.0188C93.0516 85.9249 95.7746 82.8263 96.0563 82.6385C96.1502 82.5446 97.277 81.23 97.3709 81.1361C97.4648 80.9483 97.6526 80.8544 97.7465 80.6667C97.1831 80.385 96.8075 80.0094 96.4319 79.6338Z" fill="#2E526B"/>
<path id="Path_2" d="M79.4366 69.3991C79.1549 69.5869 78.7793 69.7747 78.4976 69.8686C77.3709 70.338 76.2441 70.8075 75.1173 71.277C74.8356 71.3709 74.7418 71.5587 74.7418 71.8404C74.7418 72.216 74.8356 72.5916 74.8356 72.9671C75.0234 74 75.1173 75.0329 75.3051 75.9718C75.5868 77.5681 75.9624 79.2582 76.2441 80.8545C76.6197 83.108 77.4648 85.1737 77.9342 87.3333C78.0281 87.8028 78.3098 88.2723 78.4976 88.7418C78.5915 88.9296 78.6854 89.2113 78.6854 89.3991C78.6854 89.5869 78.7793 89.7747 78.4976 89.8686C78.2159 89.9625 78.122 89.8686 78.0281 89.5869C77.9342 89.3052 77.8403 88.9296 77.6525 88.6479C77.6525 88.554 77.0892 87.0517 76.8075 86.3944C76.6197 85.7371 74.9295 78.8826 74.8356 78.3193C74.6479 77.5681 74.554 76.723 74.3662 75.8779C74.2723 75.4085 74.0845 73.8122 73.9906 73.6244C73.8967 73.2488 73.7089 71.6526 73.615 71.277C73.615 70.9953 73.7089 70.8075 73.9906 70.6197C74.6479 70.338 75.3051 70.1502 75.9624 69.8686C76.5258 69.6808 76.9953 69.3991 77.5587 69.2113C77.9342 69.0235 78.3098 68.9296 78.7793 68.8357C79.1549 68.8357 79.2488 68.9296 79.4366 69.3991Z" fill="#2E526B"/>
<path id="Path_3" d="M91.7371 64.986C91.1737 65.1738 90.7042 65.3616 90.1408 65.5493C89.4835 65.7371 88.9202 66.0188 88.2629 66.2066C87.8873 66.3005 87.6056 66.3005 87.6056 66.0188C87.5117 65.831 87.6995 65.6432 87.9812 65.4555C89.3896 64.986 90.7042 64.5165 92.1126 64.047C92.5821 63.8592 92.7699 63.9531 92.7699 64.5165C92.9577 65.831 93.1455 67.0517 93.2394 68.3663C93.3333 69.1174 93.5211 69.7747 93.615 70.432C93.7089 71.1832 93.8028 71.9343 93.8967 72.6855C93.8967 72.8733 93.8967 73.0611 93.8967 73.2489C93.8028 73.3428 93.615 73.5306 93.5211 73.5306C93.3333 73.6245 93.2394 73.4367 93.1455 73.2489C93.0516 72.8733 93.0516 72.4977 92.9577 72.1221C92.8638 71.4648 92.676 70.9015 92.5821 70.2442C92.4882 69.3991 92.3943 68.6479 92.2065 67.8029C92.1126 67.1456 91.9249 66.5822 91.831 65.9249C91.9249 65.831 91.831 65.4555 91.7371 64.986Z" fill="#2E526B"/>
<path id="Path_4" d="M90.7981 72.3099C90.6103 72.4038 90.5164 72.4977 90.4225 72.4977C89.2019 72.8732 87.9812 73.2488 86.7606 73.5305C86.1033 73.7183 85.446 73.8122 84.7887 74C83.7559 74.2817 82.8169 74.5634 81.784 74.8451C81.0329 75.0329 80.1878 75.3146 79.4366 75.5962C79.3427 75.5962 79.3427 75.5962 79.2488 75.5962C79.061 75.5962 78.7793 75.6901 78.6854 75.4085C78.5915 75.2207 78.7793 75.1268 78.9671 74.939C79.061 74.8451 79.1549 74.7512 79.2488 74.7512C79.9061 74.5634 80.5634 74.2817 81.1268 74.0939C81.3145 74 81.5023 74 81.6901 73.9061C83.0047 73.2488 84.4131 72.9671 85.8216 72.5916C87.1361 72.216 88.4507 71.9343 89.7652 71.6526C90.2347 71.7465 90.5164 71.8404 90.7981 72.3099Z" fill="#2E526B"/>
<path id="Path_5" d="M95.6807 80.6666C96.0563 80.8544 96.2441 81.0422 96.2441 81.4178C96.5258 82.6385 96.8075 83.8591 97.0892 85.0798C97.277 85.8309 97.4648 86.5821 97.6526 87.3333C97.7465 87.7089 97.8404 88.0845 97.8404 88.3662C98.0282 89.2112 98.2159 90.0563 98.3098 90.9953C98.3098 91.1831 98.2159 91.4647 98.1221 91.7464C98.0282 91.9342 97.7465 91.9342 97.5587 91.7464C97.4648 91.5586 97.3709 91.3709 97.277 91.1831C97.0892 90.2441 96.8075 89.3051 96.6197 88.3662C96.4319 87.0516 96.0563 85.737 95.8685 84.4225C95.6807 83.5774 95.4929 82.6385 95.399 81.7934C95.4929 81.23 95.4929 80.9483 95.6807 80.6666Z" fill="#2E526B"/>
<path id="Path_6" d="M90.7042 75.5962C90.7042 75.784 90.6103 75.9718 90.3287 76.0657C89.0141 76.3474 87.7934 76.6291 86.4789 76.9108C84.8826 77.2864 83.1925 77.6619 81.5963 78.0375C81.3146 78.1314 81.0329 78.2253 80.6573 78.3192C80.5634 78.3192 80.3756 78.3192 80.2817 78.2253C80.0939 78.1314 80 77.9436 80.1878 77.7558C80.3756 77.568 80.5634 77.4742 80.8451 77.3803C81.9719 77.0047 83.1925 76.6291 84.4132 76.3474C85.0704 76.1596 85.6338 76.0657 86.2911 75.9718C86.9484 75.784 87.5118 75.6901 88.169 75.5023C88.8263 75.3145 89.5775 75.2206 90.2348 75.0328C90.5165 75.1267 90.7042 75.3145 90.7042 75.5962Z" fill="#2E526B"/>
<path id="Path_7" d="M89.0141 78.9765C88.7324 79.0704 88.3568 79.1643 88.0751 79.2582C87.6056 79.446 87.0423 79.6338 86.5728 79.8216C86.2911 79.9154 85.9155 79.9154 85.6338 80.0093C84.6948 80.291 83.662 80.4788 82.723 80.7605C82.2535 80.8544 81.6902 81.0422 81.1268 81.1361C80.8451 81.23 80.4695 81.1361 80.1878 80.9483C80.4695 80.7605 80.6573 80.5727 80.939 80.4788C81.9718 80.1032 83.0986 79.7277 84.1315 79.446C85.1643 79.2582 86.1972 78.9765 87.2301 78.6948C87.6056 78.6009 87.9812 78.6009 88.3568 78.507C88.8263 78.4131 88.8263 78.4131 89.0141 78.9765Z" fill="#2E526B"/>
<path id="Path_8" d="M86.0094 83.953C85.8216 83.953 85.6338 83.8591 85.6338 83.5774C85.6338 83.2958 85.7277 83.2019 85.9155 83.2019C87.4178 82.9202 88.8263 82.2629 90.3286 82.0751C90.6103 82.0751 90.892 81.9812 91.1737 81.9812C91.3615 81.9812 91.5493 82.0751 91.5493 82.2629C91.5493 82.3568 91.4554 82.5446 91.2676 82.5446C90.3286 82.9202 89.3897 83.2958 88.3568 83.3897C87.6995 83.4835 87.0422 83.6713 86.2911 83.8591C86.2911 83.8591 86.1033 83.8591 86.0094 83.953Z" fill="#2E526B"/>
<path id="Path_9" d="M108.545 85.7371C108.451 85.9249 108.451 86.0188 108.357 86.1127C107.981 86.676 107.418 87.1455 106.854 87.7089C106.197 88.2723 105.352 88.6479 104.507 89.1173C104.038 89.3051 103.568 89.4929 103.099 89.5868C102.817 89.6807 102.629 89.5868 102.441 89.2112C101.69 87.8028 100.939 86.3943 100 85.0798C99.9061 84.9859 99.9061 84.892 99.8122 84.7981C99.6244 84.3286 99.3427 84.0469 98.8733 83.8591C98.0282 83.4835 97.1831 83.3896 96.2441 83.2957C95.493 83.2019 94.8357 83.108 94.3662 82.5446C93.8967 81.9812 93.4272 81.4178 93.2395 80.6666C93.1456 80.1972 93.1456 79.6338 93.1456 79.1643C93.1456 78.8826 93.1456 78.6009 92.9578 78.3192C92.77 78.1314 92.6761 77.9436 92.6761 77.7558C92.5822 77.5681 92.5822 77.2864 92.6761 77.0986C92.77 76.6291 92.8639 76.1596 93.1456 75.784C93.615 75.0328 94.2723 74.4695 95.2113 74.4695C95.3991 74.4695 95.493 74.3756 95.6808 74.3756C96.0564 74.2817 96.4319 74.0939 96.8075 74.0939C97.0892 74.0939 97.3709 74.1878 97.6526 74.2817C98.216 74.3756 98.6855 74.6573 99.0611 75.0328C99.7183 75.5962 100.47 76.1596 100.939 76.9108C101.502 77.7558 102.066 78.6009 102.441 79.5399C102.629 80.0094 102.723 80.385 102.723 80.8544C102.723 81.4178 103.005 81.8873 103.474 82.2629C104.319 82.8263 105.258 83.4835 106.103 84.0469C106.667 84.4225 107.23 84.7042 107.793 84.9859C107.981 85.0798 108.169 85.2676 108.357 85.4554C108.451 85.4554 108.451 85.6432 108.545 85.7371Z" fill="#A16A45"/>
<path id="Path_10" d="M54.6479 151.465C54.554 152.31 54.4601 153.061 54.3662 153.906C54.2723 154.657 54.0845 155.315 53.8967 155.972C53.8028 156.347 53.7089 156.817 53.615 157.192C53.5211 157.662 53.4272 157.662 52.9577 157.662C52.4883 157.662 51.9249 157.568 51.4554 157.474C51.1737 157.474 50.892 157.474 50.5164 157.38C49.8591 157.192 49.2019 157.192 48.4507 157.099C48.169 157.099 48.169 156.911 48.169 156.629C48.3568 155.784 48.4507 154.939 48.6385 154.188C48.8263 153.155 49.0141 152.122 49.2019 151.183C49.2019 150.901 49.3897 150.714 49.4836 150.526C49.5775 150.338 49.7653 150.338 49.953 150.338C51.3615 150.432 52.7699 150.526 54.0845 150.526C54.3662 150.526 54.554 150.807 54.554 151.089C54.7418 151.183 54.6479 151.371 54.6479 151.465Z" fill="#A16A45"/>
<path id="Path_11" d="M81.784 174.282C81.2207 174.188 80.7512 174.188 80.1878 174.094C79.8122 174.094 79.3427 174.094 78.9671 174.094C77.8404 174.094 76.6197 174 75.493 173.906C75.1174 173.906 74.6479 173.906 74.2723 173.906C73.8028 173.906 73.3333 173.906 72.8638 173.906C72.2066 173.906 71.5493 173.812 70.7981 173.812C69.953 173.812 69.2019 173.812 68.3568 173.812C67.5117 173.812 66.7606 173.718 65.9155 173.718C64.4131 173.624 62.9108 173.624 61.4084 173.53C58.8732 173.343 56.2441 173.249 53.7089 173.061C52.0188 172.967 50.3286 172.967 48.6385 172.967C47.5117 172.967 46.385 172.779 45.2582 172.685C44.2253 172.591 43.0986 172.591 42.0657 172.498C41.3146 172.404 40.4695 172.31 39.7183 172.31C38.4976 172.216 37.277 172.216 36.0563 172.122C35.1174 172.122 34.2723 172.028 33.3333 172.028C32.3944 172.028 31.4554 172.028 30.5164 172.028C29.3897 172.028 28.2629 171.934 27.1361 171.84C26.1972 171.746 25.2582 171.653 24.2253 171.465C23.0047 171.277 21.784 170.995 20.4695 170.714C19.3427 170.432 18.3099 170.056 17.3709 169.587C16.6197 169.117 15.8685 168.648 15.3052 167.991C14.8357 167.333 14.2723 166.676 13.8967 166.019C13.8028 165.831 13.7089 165.643 13.615 165.455C13.3333 164.61 13.4272 163.765 13.8028 163.014C14.2723 161.981 15.1174 161.418 15.9624 160.761C16.7136 160.197 17.7465 160.009 18.5915 159.822C19.4366 159.634 20.2817 159.446 21.1268 159.446C21.8779 159.352 22.6291 159.164 23.3803 159.07C24.6948 158.883 25.9155 158.695 27.23 158.695C28.169 158.695 29.108 158.507 30.0469 158.413C30.7042 158.319 31.3615 158.319 31.9249 158.225C32.6761 158.131 33.4272 158.038 34.0845 158.038C35.0235 157.944 35.9624 157.85 36.9014 157.756C37.6526 157.662 38.3099 157.662 39.061 157.568C40.1878 157.38 41.3146 157.38 42.5352 157.38C43.4742 157.38 44.4131 157.286 45.3521 157.286C46.385 157.286 47.5117 157.286 48.5446 157.286C49.108 157.286 49.6714 157.192 50.1408 157.192C51.0798 157.192 52.1127 157.192 53.0516 157.192C53.8028 157.192 54.4601 157.192 55.2113 157.192C55.8685 157.192 56.6197 157.192 57.277 157.099C58.216 157.099 59.1549 157.005 60.0939 157.005C61.1268 157.005 62.0657 157.005 63.0986 157.005C65.5399 157.099 67.8873 157.286 70.3286 157.286C72.3005 157.286 74.1784 157.286 76.1502 157.286C77.1831 157.286 78.216 157.192 79.3427 157.099C80.1878 157.099 81.1268 157.005 81.9718 157.005C83.3803 157.005 84.8826 157.005 86.2911 157.005C88.169 157.005 90.1408 157.099 92.0188 157.099C92.5822 157.099 93.1455 157.192 93.615 157.192C95.0235 157.192 96.4319 157.286 97.7465 157.286C99.5305 157.286 101.221 157.286 103.005 157.38C104.131 157.38 105.352 157.568 106.479 157.662C107.7 157.756 109.014 157.85 110.235 157.85C111.737 157.944 113.239 157.944 114.648 158.038C115.869 158.131 117.183 158.319 118.404 158.413C119.812 158.507 121.221 158.601 122.629 158.695C123.944 158.789 125.352 158.695 126.667 158.789C127.324 158.789 127.981 158.883 128.545 158.883C129.014 158.883 129.577 158.883 130.047 158.883C131.361 158.883 132.77 158.883 134.085 158.883C134.836 158.883 135.587 158.976 136.338 158.976C136.901 158.976 137.559 158.976 138.122 158.976C139.343 159.07 140.563 159.164 141.784 159.164C143.568 159.164 145.258 159.164 147.042 159.164C148.451 159.164 149.953 159.164 151.361 159.258C152.488 159.258 153.521 159.352 154.648 159.352C155.681 159.352 156.714 159.446 157.746 159.446C160.376 159.634 162.911 159.728 165.54 159.915C166.573 160.009 167.512 160.009 168.545 160.103C170.047 160.197 171.455 160.385 172.958 160.479C174.178 160.573 175.305 160.667 176.526 160.948C178.404 161.324 180.376 161.418 182.254 161.512C183.286 161.606 184.319 161.793 185.352 161.887C186.009 161.981 186.667 161.981 187.23 162.075C188.263 162.263 189.39 162.357 190.423 162.545C191.643 162.826 192.77 163.108 193.897 163.484C195.117 163.953 196.338 164.516 197.371 165.455C197.84 165.831 198.31 166.3 198.592 166.77C199.061 167.521 199.249 168.272 199.437 169.023C199.624 169.681 199.718 170.338 199.531 170.995C199.343 171.746 199.155 172.404 198.592 172.873C198.216 173.249 197.84 173.624 197.465 174C197.277 174.188 196.995 174.376 196.714 174.563C196.056 174.939 195.399 175.314 194.742 175.596C194.272 175.784 193.803 175.972 193.333 176.066C192.3 176.441 191.174 176.723 190.141 177.005C188.732 177.474 187.324 177.85 185.822 178.319C184.413 178.695 182.911 179.07 181.502 179.446C179.624 179.822 177.746 180.197 175.869 180.573C174.836 180.761 173.803 181.042 172.676 181.23C170.61 181.606 168.451 181.981 166.385 182.357C164.883 182.638 163.286 182.826 161.784 183.108C160.188 183.39 158.592 183.577 156.995 183.859C156.15 183.953 155.305 184.141 154.46 184.235C153.239 184.422 151.925 184.61 150.704 184.704C149.671 184.798 148.639 184.892 147.606 184.986C145.728 185.08 143.85 185.268 141.972 185.361C140.657 185.455 139.249 185.455 137.934 185.455C137.183 185.455 136.432 185.549 135.587 185.549C134.742 185.549 133.897 185.549 133.052 185.549C132.207 185.549 131.268 185.643 130.423 185.643C129.484 185.643 128.545 185.737 127.7 185.737C126.197 185.737 124.789 185.737 123.286 185.737C122.16 185.737 120.939 185.737 119.812 185.737C118.967 185.737 118.028 185.831 117.183 185.831C116.62 185.831 116.056 185.831 115.493 185.831C113.897 185.831 112.3 185.925 110.61 185.925C109.953 185.925 109.296 185.925 108.638 185.925C107.418 185.925 106.197 185.925 104.977 185.831C103.85 185.831 102.629 185.737 101.502 185.643C100.845 185.549 100.188 185.455 99.5305 185.361C98.4037 185.268 97.3709 185.268 96.2441 185.174C95.3052 185.08 94.2723 184.892 93.3333 184.798C92.5822 184.704 91.831 184.704 91.0798 184.61C90.0469 184.516 89.108 184.329 88.0751 184.141C87.3239 183.953 86.4789 183.953 85.7277 183.765C84.7887 183.577 83.8498 183.39 83.0047 183.296C81.6901 183.108 80.4695 182.732 79.2488 182.357C78.6854 182.169 78.1221 181.887 77.5587 181.606C77.0892 181.324 76.5258 180.948 76.0563 180.667C75.2113 180.103 74.8357 179.258 74.6479 178.319C74.554 177.756 74.7418 177.286 75.2113 176.817C75.7746 176.253 76.5258 175.972 77.277 175.69C77.8404 175.502 78.4977 175.408 79.061 175.314C79.6244 175.221 80.0939 175.033 80.6573 174.845C80.8451 174.751 80.939 174.563 81.1268 174.376C81.784 174.376 81.784 174.376 81.784 174.282Z" fill="#CAE4F8"/>
<path id="Path_12" d="M91.1737 140.948C91.7371 140.948 92.3005 140.948 92.8638 140.948C93.8967 140.948 94.9296 140.948 95.9624 140.948C96.9014 140.948 97.8404 140.948 98.7793 141.042C99.5305 141.042 100.188 141.136 100.939 141.136C101.878 141.136 102.723 141.136 103.662 141.136C104.413 141.136 105.164 141.136 105.822 141.23C107.418 141.23 109.014 141.23 110.516 141.23C111.455 141.23 112.394 141.324 113.333 141.324C113.709 141.324 114.085 141.324 114.46 141.324C115.775 141.324 117.089 141.418 118.404 141.418C119.718 141.512 120.939 141.512 122.254 141.606C122.535 141.606 122.817 141.512 123.099 141.512C123.192 141.512 123.38 141.512 123.474 141.512C123.756 141.7 124.038 141.7 124.319 141.7C126.385 141.7 128.451 141.7 130.423 141.7C131.268 141.7 132.113 141.793 132.958 141.793C133.897 141.793 134.836 141.793 135.775 141.793C137.089 141.793 138.498 141.793 139.812 141.887C140.657 141.887 141.408 142.075 142.254 142.075C143.38 142.075 144.413 142.357 145.54 142.732C146.761 143.108 147.7 143.859 148.638 144.704C149.296 145.268 149.953 145.925 150.516 146.582C150.61 146.77 150.704 146.958 150.798 147.146C151.174 147.991 151.643 148.742 151.925 149.587C152.3 150.714 152.77 151.934 153.239 153.061C153.427 153.531 153.521 154 153.709 154.469C153.991 155.315 154.272 156.16 154.46 157.005C154.836 158.507 155.493 159.822 155.775 161.324C155.869 161.981 156.15 162.545 156.338 163.202C156.432 163.484 156.432 163.765 156.432 163.953C156.432 164.047 156.244 164.235 156.15 164.235C155.962 164.329 155.775 164.329 155.493 164.329C154.272 164.329 153.052 164.329 151.831 164.329C151.08 164.329 150.986 164.235 150.798 163.577C150.329 161.981 149.953 160.291 149.484 158.695C149.014 157.192 148.638 155.69 147.793 154.376C147.7 154.282 147.7 154.094 147.606 153.906C147.418 153.155 147.042 152.498 146.573 151.84C146.009 151.089 145.446 150.432 144.883 149.775C144.225 149.023 143.286 148.554 142.347 148.272C140.939 147.803 139.531 147.709 138.122 147.615C137.277 147.615 136.338 147.521 135.493 147.427C134.93 147.333 134.272 147.333 133.709 147.333C132.394 147.239 131.174 147.146 129.859 147.052C129.108 147.052 128.357 147.052 127.512 147.052C127.324 147.052 127.042 147.052 126.854 147.052C125.822 146.864 124.695 146.958 123.662 146.958C123.005 146.958 122.441 146.864 121.784 146.77C121.315 146.77 120.939 146.77 120.469 146.77C120 146.77 119.437 146.77 118.967 146.77C117.183 146.77 115.305 146.77 113.521 146.77C112.113 146.77 110.61 146.676 109.202 146.676C108.638 146.676 107.981 146.582 107.418 146.488C106.385 146.394 105.352 146.207 104.319 146.207C102.347 146.113 100.376 146.019 98.4977 145.925C96.1502 145.831 93.8967 145.737 91.5493 145.737C89.953 145.737 88.3568 145.737 86.6667 145.831C85.1643 145.925 83.7559 146.019 82.2535 146.113C80.6573 146.207 79.061 146.394 77.5587 146.676C76.6197 146.864 75.5869 147.052 74.6479 147.239C73.3333 147.521 72.2066 147.991 70.9859 148.648C69.3897 149.587 68.0751 150.807 66.8545 152.216C66.1033 153.061 65.5399 154.094 65.0704 155.127C64.9765 155.221 64.9765 155.315 64.8826 155.502C64.3192 156.347 63.9437 157.192 63.5681 158.131C63.1925 158.977 62.6291 159.822 62.2535 160.761C61.9718 161.324 61.784 161.887 61.5023 162.451C61.3146 162.826 61.1268 163.108 60.6573 163.108C59.6244 163.202 58.5915 163.202 57.5587 163.296C57.1831 163.296 57.0892 163.202 57.1831 162.826C57.277 162.263 57.4648 161.606 57.6526 161.042C58.0282 159.915 58.4038 158.883 58.8732 157.85C59.061 157.286 59.3427 156.723 59.6244 156.16C59.7183 155.878 59.9061 155.596 60 155.315C60.3756 154.376 60.939 153.437 61.5023 152.498C61.784 152.028 62.0657 151.559 62.2535 151.089C62.723 150.056 63.4742 149.117 64.0376 148.178C64.4131 147.521 64.8826 146.958 65.3521 146.394C65.5399 146.207 65.7277 146.019 65.8216 145.737C66.385 144.892 67.0423 144.235 67.7934 143.577C68.0751 143.296 68.3568 143.108 68.7324 142.92C70.1408 142.075 71.6432 141.606 73.2394 141.324C73.8967 141.23 74.4601 141.042 75.1174 141.042C76.338 140.948 77.4648 140.854 78.6854 140.761C79.9061 140.667 81.1268 140.667 82.3474 140.573C82.8169 140.573 83.2864 140.573 83.7559 140.573C84.9765 140.667 86.2911 140.667 87.5117 140.761C88.5446 140.761 89.4836 140.854 90.5164 140.854C90.892 140.854 91.0798 140.854 91.1737 140.948Z" fill="#2E526B"/>
<path id="Path_13" d="M50.3287 161.324C49.6714 161.887 47.5118 163.39 46.9484 163.39C45.5399 163.577 36.7136 164.516 35.9625 161.512C36.0564 160.667 35.7747 160.197 36.6197 159.915C37.5587 159.634 41.4085 158.131 42.2535 157.756C43.3803 157.286 46.0094 155.408 46.2911 155.127C46.385 155.033 46.6667 154.939 46.7606 154.939C47.1362 155.033 47.5118 155.127 47.7934 155.221C48.2629 155.408 52.6761 157.192 53.615 157.005C53.8028 157.005 55.3991 157.005 55.5869 156.911C55.9625 156.911 56.8075 160.667 56.5258 161.418C56.4319 161.606 56.4319 161.793 56.3381 162.075C56.2442 162.545 55.9625 162.732 55.493 162.732C55.1174 162.732 52.77 162.92 52.0188 162.92C51.5493 162.92 51.0798 163.014 50.6104 163.014C50.1409 163.014 50.047 162.92 50.047 162.451C50.2348 162.451 50.3287 161.606 50.3287 161.324Z" fill="#7FD8BE"/>
<path id="Path_14" d="M84.4131 63.6714C84.9765 63.5775 85.6338 63.3897 86.1972 63.2019C86.7606 63.0141 87.23 62.9202 87.7934 62.7324C87.9812 62.6385 88.0751 62.8263 88.169 63.0141C88.2629 63.2958 88.3568 63.5775 88.4507 63.9531C88.6385 64.8921 88.7324 65.831 88.9202 66.6761C89.0141 67.1456 89.0141 67.2395 88.5446 67.4273C88.2629 67.5212 80.1878 70.3381 78.8732 70.8076C78.7793 70.8076 78.5915 70.9014 78.4976 70.9014C78.0282 70.9953 77.8404 70.9014 77.7465 70.432C77.3709 69.3991 76.9953 68.4601 76.6197 67.4273C76.5258 67.2395 76.5258 67.0517 76.5258 66.8639C76.5258 66.5822 76.6197 66.3944 76.9014 66.3005C77.6526 65.9249 78.4038 65.4554 79.2488 65.0799C79.5305 64.8921 79.6244 64.8921 79.4366 64.5165C79.4366 64.4226 79.3427 64.3287 79.3427 64.2348C78.9671 63.2958 78.8732 62.3568 79.1549 61.4179C79.4366 60.6667 79.9061 60.1033 80.7512 59.8216C81.4084 59.6338 81.8779 59.7277 82.3474 60.1972C83.0047 60.8545 83.662 61.6057 84.1315 62.4507C84.0376 62.9202 84.2253 63.2958 84.4131 63.6714Z" fill="#7FD8BE"/>
<path id="Path_15" d="M80.8451 61.1361C80.0939 61.8873 80.0939 62.3568 80.6573 63.2018C81.2206 64.1408 81.5023 64.2347 82.4413 63.953C82.1596 62.8262 82.1596 61.6995 80.8451 61.1361Z" fill="#7FD8BE"/>
<path id="Path_16" d="M54.2723 113.812C54.0845 113.343 53.8028 113.061 53.7089 112.685C53.4273 111.746 53.1456 110.808 52.8639 109.962C52.77 109.681 52.6761 109.305 52.5822 109.023C52.3005 107.709 51.9249 106.488 51.6432 105.174C51.4554 104.141 51.4554 103.014 51.3615 101.981C51.2676 100.948 51.4554 99.9155 51.6432 98.9765C51.831 97.8498 52.2066 96.8169 52.9578 95.8779C53.3334 95.3145 53.8028 94.8451 54.1784 94.2817C54.8357 93.3427 55.8686 92.7793 56.7136 92.0282C57.4648 91.4648 58.4038 91.1831 59.3427 90.9953C61.0329 90.7136 62.8169 90.8075 64.601 90.8075C65.0704 90.8075 65.6338 90.8075 66.1033 90.8075C67.7934 90.8075 69.4836 91.1831 71.1737 91.6526C71.3615 91.6526 71.4554 91.7465 71.6432 91.7465C72.9578 91.9343 74.2723 92.3099 75.493 92.7793C76.4319 93.061 77.3709 93.3427 78.3099 93.6244C80 94.0939 81.6902 94.6573 83.2864 95.1268C84.9765 95.5962 86.4789 96.5352 88.0751 97.2864C89.9531 98.2253 91.9249 99.1643 93.8967 100.009C94.6479 100.385 95.0235 100.948 95.493 101.512C96.4319 102.92 97.4648 104.329 98.7794 105.455C99.5305 106.113 100.376 106.676 101.127 107.239C102.254 108.178 103.662 108.742 104.977 109.493C106.103 110.056 107.23 110.526 108.357 110.995C108.92 111.277 109.296 111.653 109.484 112.216C109.953 113.624 110.141 115.033 109.859 116.535C109.577 117.756 109.014 118.789 108.451 119.822C108.075 120.385 107.7 120.948 107.23 121.512C106.479 122.451 105.54 123.108 104.413 123.577C103.85 123.765 103.286 124.141 102.723 124.329C101.596 124.798 100.376 124.986 99.2488 125.268C97.1831 125.737 95.1174 125.737 92.9578 125.549C91.831 125.455 90.6104 125.361 89.4836 125.268C88.9202 125.174 88.3568 125.08 87.8873 125.08C87.1362 124.986 86.385 124.892 85.7277 124.704C84.1315 124.329 82.4413 123.765 80.939 123.014C80.0939 122.545 79.3427 121.981 78.4977 121.512C77.7465 121.042 77.1831 120.479 76.6197 119.915C75.8686 119.258 75.3052 118.413 74.6479 117.662C73.8028 116.441 73.0517 115.127 72.1127 113.906C71.0798 112.498 69.8592 111.277 68.2629 110.432C67.5118 110.056 66.7606 109.869 66.0094 109.775C65.0704 109.681 64.2254 109.681 63.2864 109.587C62.6291 109.587 62.0657 109.775 61.5024 109.962C61.2207 110.056 60.939 110.15 60.6573 110.244C60 110.432 59.3427 110.62 58.6855 110.901C57.9343 111.277 57.1831 111.746 56.5258 112.31C55.9625 112.685 55.493 113.155 55.0235 113.624C54.7418 113.531 54.554 113.624 54.2723 113.812Z" fill="#457AA0"/>
<path id="Path_17" d="M117.183 76.2535C116.808 76.3474 116.432 76.4413 115.962 76.5352C115.023 76.7229 113.991 76.9107 113.052 77.0985C112.394 77.1924 111.831 77.2863 111.174 77.2863C110.798 77.2863 110.423 77.1924 110.047 76.9107C109.765 76.629 109.484 76.4413 109.296 76.1596C109.014 75.784 108.639 75.5023 108.357 75.1267C108.075 74.845 107.981 74.4694 108.075 73.9999C108.075 73.906 108.075 73.7183 108.169 73.6244C108.357 73.2488 108.263 73.061 107.887 72.7793C107.324 72.4976 107.418 71.8403 107.512 71.3708C107.7 70.8075 107.887 70.338 108.075 69.7746C108.169 69.5868 108.075 69.399 107.887 69.3051C107.136 68.9295 106.479 68.5539 105.728 68.1783C105.54 68.0844 105.352 67.8967 105.258 67.615C105.728 67.1455 106.197 66.7699 106.667 66.3004C107.324 65.737 107.887 65.0798 108.451 64.5164C108.639 64.3286 108.732 64.1408 108.826 63.953C109.296 63.1079 109.671 62.169 109.859 61.1361C110.047 60.291 110.235 59.446 110.423 58.507C110.61 57.8497 110.704 57.1924 110.892 56.4413C111.08 55.784 111.362 55.1267 111.643 54.5633C111.925 53.9999 112.394 53.6244 112.958 53.3427C113.803 52.9671 114.648 52.8732 115.493 52.7793C116.244 52.6854 116.995 52.6854 117.747 52.7793C118.592 52.8732 119.437 52.9671 120.282 53.2488C121.127 53.5305 122.066 53.906 122.817 54.4694C123.474 54.9389 124.038 55.4084 124.601 55.9718C124.883 56.2535 125.164 56.6291 125.446 56.9107C125.822 57.3802 126.103 57.9436 126.479 58.507C126.573 58.6009 126.667 58.6948 126.573 58.8826L126.667 59.0704C126.761 59.2582 126.948 59.3521 126.948 59.5398C127.512 60.7605 127.887 62.0751 128.169 63.3896C128.357 64.4225 128.451 65.3614 128.545 66.3943C128.545 66.5821 128.639 66.676 128.639 66.8638C128.639 67.4272 128.732 67.8967 128.732 68.46C128.92 69.7746 129.014 71.0891 129.39 72.4037C129.671 73.2488 129.859 74.1877 130.047 75.0328C130.235 75.9718 130.704 76.7229 131.08 77.568C131.549 78.507 132.019 79.5398 132.582 80.3849C132.676 80.5727 132.864 80.7605 133.052 80.9483C133.333 81.23 133.333 81.3239 132.958 81.6056C132.394 81.9812 131.831 82.3567 131.268 82.7323C131.08 82.8262 130.798 82.9201 130.61 83.014C130.235 83.2018 129.765 83.3896 129.39 83.5774C128.639 83.953 127.887 84.0469 127.136 84.1408C126.479 84.1408 125.822 84.1408 125.07 84.0469C123.474 83.953 121.972 83.4835 120.47 82.9201C119.812 82.6384 119.155 82.3568 118.498 82.0751C118.31 81.9812 118.216 81.7934 118.122 81.6056C118.028 80.8544 117.84 80.1032 117.747 79.3521C117.653 78.7887 117.465 78.2253 117.277 77.568C117.371 77.1924 117.277 76.8168 117.183 76.2535Z" fill="#A16A45"/>
<path id="Path_18" d="M78.9671 90.1502C79.061 89.9624 79.2488 89.6807 79.3427 89.493C79.8122 88.554 80.1878 87.5211 80.7512 86.5822C80.9389 86.2066 81.2206 86.1127 81.5023 86.1127C82.4413 86.1127 83.1925 88.4601 83.2864 88.9296C83.3803 89.3991 83.4742 89.8685 83.5681 90.4319C83.5681 90.6197 83.662 91.6526 83.662 91.9343C83.662 92.7793 83.2864 93.5305 82.8169 94.1878C82.8169 94.2817 82.723 94.2817 82.6291 94.3756C82.1596 94.5634 81.9718 95.0329 81.6901 95.4084C81.5962 95.5023 81.5962 95.6901 81.5962 95.784C81.8779 96.0657 82.0657 96.3474 82.2535 96.5352C82.3474 96.723 82.5352 96.8169 82.723 96.9108C83.0986 97.2864 83.3803 97.7559 83.8497 98.1315C84.507 98.7887 84.9765 99.446 85.6338 100.103C86.1972 100.667 86.7605 101.136 87.4178 101.606C87.5117 101.7 87.6995 101.793 87.7934 101.887C88.5446 102.451 89.2958 103.014 90.2347 103.296C90.6103 103.39 90.892 103.296 91.2676 103.202C91.7371 103.108 93.2394 102.075 93.615 101.793C94.2723 101.324 94.8357 100.948 95.399 100.385C96.1502 99.6338 96.9014 98.7887 97.6526 98.0376C97.9343 97.662 98.4037 97.5681 98.7793 97.7559C98.9671 97.8498 99.061 97.8498 99.1549 97.9437C100.376 98.7887 101.408 99.7277 102.254 100.854C102.817 101.606 104.695 104.235 105.07 104.892C105.446 105.549 105.915 106.3 106.291 107.052C106.573 107.615 106.479 108.085 105.915 108.46C104.977 109.117 103.944 109.869 103.005 110.432C102.347 110.901 99.5305 112.216 98.8732 112.592C98.122 112.967 95.4929 113.812 95.0235 114C93.7089 114.376 92.3943 114.657 90.9859 114.376C90.1408 114.188 86.385 111.371 85.3521 110.338C84.6948 109.681 84.1314 108.836 83.4742 108.085C83.0047 107.521 80.6573 104.798 79.9061 103.953C79.4366 103.39 78.9671 102.826 78.4976 102.263C77.9343 101.418 76.0563 98.6948 75.6807 98.2253C74.8357 97.0986 74.3662 95.784 73.7089 94.5634C73.2394 93.6244 72.9577 92.6854 72.8638 91.6526C72.8638 91.5587 73.9906 88.6479 74.4601 88.1784C74.6479 87.9906 76.0563 87.2394 76.6197 87.1455C76.9014 87.0516 77.1831 86.9577 77.4648 86.8638C78.0281 86.6761 78.6854 87.1455 78.7793 87.7089C78.9671 88.554 79.2488 89.3991 79.061 90.2441C78.8732 90.1502 78.8732 90.1502 78.9671 90.1502Z" fill="#A16A45"/>
<path id="Path_19" d="M112.3 61.8873C112.3 62.0751 112.3 62.169 112.3 62.2629C112.3 63.0141 112.113 63.8592 111.831 64.5164C111.643 64.892 111.455 65.3615 111.174 65.6432C110.704 66.2066 110.047 66.2066 109.39 66.0188C108.826 65.831 108.451 65.3615 108.075 64.7981C107.7 64.2348 107.512 63.6714 107.418 63.108C107.324 62.5446 107.23 61.9812 107.23 61.324C107.23 60.8545 107.23 60.4789 107.324 60.0094C107.512 59.1643 107.887 58.3193 108.638 57.7559C108.92 57.5681 109.108 57.2864 109.39 57.2864C109.484 57.2864 109.577 57.1925 109.765 57.1925C110.329 57.1925 110.798 57.3803 111.268 57.662C111.831 58.0376 112.113 58.5071 112.3 59.1643C112.394 59.6338 112.488 60.1033 112.582 60.6667C112.77 60.6667 113.052 60.6667 113.239 60.6667C114.366 60.5728 115.587 60.5728 116.714 60.4789C117.371 60.4789 118.122 60.385 118.779 60.385C118.967 60.385 119.155 60.4789 119.343 60.5728C119.624 60.7606 119.624 60.8545 119.624 61.1362C119.531 61.4179 119.437 61.5118 119.155 61.5118C118.779 61.5118 118.498 61.6057 118.122 61.6057C117.653 61.6057 117.277 61.6057 116.808 61.6057C116.15 61.6057 115.493 61.6995 114.742 61.6995C114.648 61.6995 114.46 61.6995 114.366 61.6995C113.521 61.7934 112.864 61.8873 112.3 61.8873Z" fill="#2E526B"/>
<path id="Path_20" d="M125.446 69.2113C125.352 68.4601 125.352 67.615 125.258 66.8638C125.258 66.3944 124.977 66.1127 124.601 65.831C123.756 65.2676 123.38 64.4225 123.099 63.4836C122.911 63.0141 122.911 62.5446 122.911 62.169C122.817 61.6995 122.817 61.23 122.629 60.6667C122.535 60.2911 122.347 59.9155 121.972 59.6338C121.596 59.3521 121.315 58.9765 120.939 58.6009C120 57.662 118.685 57.2864 117.371 57.1925C116.901 57.1925 116.338 57.0986 115.869 57.0986C114.742 57.0986 113.803 56.723 112.958 56.0657C112.207 55.4084 111.455 54.6573 110.986 53.7183C110.516 52.6854 110.141 51.6526 109.953 50.5258C109.671 49.0235 110.141 47.7089 111.362 46.676C111.925 46.2066 112.488 45.9249 113.146 45.831C113.709 45.7371 114.272 45.6432 114.93 45.5493C115.681 45.4554 116.432 45.5493 117.089 45.7371C117.559 45.831 118.028 46.1127 118.498 46.3005C119.155 46.676 119.718 47.0516 120.376 47.3333C121.033 47.615 121.69 47.8028 122.441 47.8028C123.099 47.8028 123.85 47.8028 124.507 47.8028C125.07 47.8028 125.634 47.615 126.197 47.615C127.042 47.5211 127.981 47.5211 128.826 47.615C129.577 47.7089 130.329 47.7089 131.08 47.8967C131.831 48.0845 132.582 48.2723 133.239 48.554C134.554 49.1174 135.587 49.9624 136.338 51.277C136.901 52.3099 137.371 53.3427 137.653 54.4695C138.028 55.784 138.404 57.0986 138.498 58.507C138.592 59.446 138.592 60.4789 138.31 61.4178C138.122 61.8873 138.122 62.4507 138.028 62.9202C137.84 63.953 137.277 64.7981 136.901 65.7371C136.714 66.1127 136.526 66.4883 136.244 66.8638C135.775 67.615 135.681 68.4601 135.869 69.3991C136.056 70.2441 136.338 71.1831 136.432 72.0282C136.62 73.2488 136.15 74.1878 135.117 74.8451C134.836 75.0329 134.46 75.1268 134.178 75.1268C132.958 75.2206 131.737 75.3145 130.516 75.4084C129.953 75.4084 129.39 75.3145 128.826 75.3145C128.545 75.3145 128.263 75.3145 127.981 75.3145C126.761 75.1268 126.103 74.3756 125.728 73.3427C125.446 72.0282 125.352 70.6197 125.446 69.2113Z" fill="#2E526B"/>
<path id="Path_21" d="M80.0939 121.042C80 121.23 75.9624 121.981 72.4882 125.925C71.9249 126.676 71.1737 125.455 69.7652 125.643C68.3568 125.831 66.6666 127.709 65.3521 129.211C64.4131 130.244 63.7558 131.465 63.2864 132.779C63.0047 133.624 62.8169 134.469 62.5352 135.315C62.2535 136.254 61.9718 137.286 61.5962 138.225C61.2206 139.352 60.845 140.573 60.4695 141.7C60.0939 142.92 59.6244 144.235 59.1549 145.455C58.4976 147.146 57.8404 148.742 57.1831 150.432C56.8075 151.371 56.1502 152.592 55.6807 153.531C55.5868 153.718 54.554 153.624 54.2723 153.624C52.7699 153.624 51.7371 153.531 50.2347 153.531C49.6713 153.531 48.8263 153.061 48.2629 153.155C47.8873 153.155 47.9812 152.873 47.7934 152.498C47.5117 151.746 47.5117 151.746 47.1361 150.995C46.6666 149.962 46.385 148.93 46.1972 147.803C45.8216 146.488 45.5399 145.174 45.2582 143.859C44.9765 142.263 44.6948 140.573 44.6009 138.977C44.507 137.756 44.507 136.441 44.507 135.221C44.507 134.563 44.507 133.906 44.507 133.249C44.6009 132.122 44.7887 131.089 44.9765 129.962C45.0704 129.305 45.1643 128.648 45.3521 127.991C45.6338 126.676 46.0094 125.361 46.385 124.047C46.5727 123.296 46.7605 122.638 47.0422 121.887C47.3239 121.042 48.3568 119.164 48.3568 119.07C48.6385 118.601 48.8263 118.131 49.108 117.756C49.4835 117.099 49.953 116.441 50.4225 115.784C50.892 115.221 51.4554 114.657 52.0188 114.188C53.0516 113.343 54.1784 112.592 55.3051 111.84C56.9014 110.807 58.5915 110.15 60.4695 109.681C60.845 109.587 61.2206 109.493 61.5962 109.493C62.9108 109.399 64.2253 109.305 65.5399 109.493C66.2911 109.587 66.9483 109.775 67.6056 110.056C68.4507 110.432 69.2019 110.901 69.953 111.465C70.2347 111.653 70.6103 111.84 70.892 112.028C71.0798 112.216 71.2676 112.31 71.3615 112.685C71.4554 112.967 71.7371 113.061 71.9249 113.343C72.3943 113.812 72.8638 114.188 73.2394 114.657C73.9906 115.502 74.6479 116.347 75.3051 117.192C75.6807 117.662 76.1502 118.131 76.6197 118.507C77.4648 119.07 78.6854 120.103 80.0939 121.042Z" fill="#2E526B"/>
<path id="Path_22" d="M118.028 81.7935C119.343 80.385 121.033 80.1033 122.817 80.6667C123.662 80.9484 127.887 82.169 129.202 82.3568C130.141 82.4507 131.08 82.0751 131.831 81.6057C132.3 81.324 133.239 80.385 133.427 80.2911C133.615 80.0094 133.709 79.9155 134.085 80.1033C134.272 80.1972 134.46 80.385 134.648 80.4789C135.023 80.8545 135.399 81.324 135.775 81.6996C136.901 83.0141 137.84 84.5165 138.122 86.3005C138.31 87.3334 138.122 88.2723 137.653 89.2113C137.559 89.3991 137.465 89.493 137.277 89.5869C136.901 89.7747 134.836 90.7136 133.991 90.9953C133.239 91.277 122.629 96.1597 122.629 96.1597C121.596 96.8169 118.873 100.761 118.216 101.793C117.934 102.169 117.84 102.639 117.559 103.014C117.089 103.671 116.62 104.329 116.056 104.986C115.211 105.831 110.423 108.178 109.577 108.46C109.39 108.554 108.451 111.089 107.793 111.277C107.23 111.371 104.789 109.869 104.507 109.869C104.038 109.962 104.319 109.211 104.225 108.836C101.972 100.573 97.1831 98.3193 97.1831 98.2254C97.7465 97.2864 106.009 85.9249 113.709 82.6385C114.554 82.4507 117.559 82.3568 118.028 81.7935Z" fill="#FFD266"/>
<path id="Path_23" d="M127.981 45.9249C128.169 45.9249 128.357 45.9249 128.451 45.9249C128.732 45.9249 128.92 46.1127 128.826 46.4883C128.826 46.6761 128.732 46.8639 128.639 46.9578C127.418 48.9296 126.854 51.1831 126.385 53.4367C126.197 54.5634 125.916 55.6902 125.728 56.8169C125.634 57.2864 125.634 57.7559 125.54 58.2254C125.446 59.6338 125.446 61.0423 125.352 62.4507C125.352 63.108 125.258 63.2019 124.601 63.2019C123.662 63.2958 122.723 63.3897 121.784 63.4836C121.502 63.4836 121.127 63.4836 120.751 63.4836C120.563 63.4836 120.47 63.2958 120.47 63.108C120.47 62.263 120.47 61.4179 120.47 60.5728C120.47 59.8216 120.376 59.1644 120.282 58.4132C120.282 57.8498 120.188 57.3803 120.282 56.8169C120.376 55.5963 120.563 54.3756 120.657 53.155C120.751 51.9343 121.221 50.8076 121.502 49.6808C121.784 48.7418 122.16 47.8029 122.441 46.9578C122.535 46.77 122.629 46.5822 122.911 46.5822C123.193 46.4883 123.568 46.3944 123.85 46.3944C125.258 46.1127 126.573 46.0188 127.981 45.9249Z" fill="#FFD266"/>
<path id="Path_24" d="M117.371 66.676C117.371 65.8309 117.465 64.9859 117.84 64.1408C118.31 63.1079 119.061 62.3568 119.906 61.6995C120.47 61.23 121.127 61.0422 121.878 60.9483C122.441 60.8544 123.005 60.6666 123.568 60.6666C124.319 60.7605 125.07 60.7605 125.728 60.9483C126.573 61.1361 127.418 61.6056 127.981 62.3568C129.296 63.8591 129.671 65.6432 129.484 67.5211C129.39 68.7417 128.92 69.8685 128.169 70.9014C128.075 70.9953 127.981 71.0892 127.887 71.1831C127.042 71.9342 126.009 72.4976 124.883 72.8732C124.507 72.9671 124.131 72.9671 123.756 72.9671C123.756 72.9671 122.347 72.8732 122.16 72.8732C120.751 72.6854 119.624 72.0281 118.685 70.9953C118.122 70.338 117.746 69.4929 117.559 68.6478C117.465 68.0845 117.371 67.4272 117.371 66.676Z" fill="#309C7D"/>
<path id="Path_25" d="M120.282 67.0516C120.282 66.1127 120.469 65.3615 120.939 64.7042C121.315 64.1408 121.784 63.7652 122.441 63.5774C123.005 63.4836 123.568 63.2958 124.131 63.4836C125.164 63.8591 125.916 64.4225 126.291 65.5493C126.479 66.0188 126.573 66.5821 126.573 67.0516C126.667 68.1784 126.197 69.1174 125.164 69.7746C124.225 70.338 123.286 70.4319 122.347 70.0563C121.221 69.4929 120.188 68.554 120.282 67.0516Z" fill="#FFD266"/>
<path id="Path_26" d="M0.0938839 32.9671C0.0938839 31.5587 0.0938839 30.0563 0.0938839 28.6479C0.0938839 27.3333 0.187781 26.0188 0.0938839 24.7042C-1.27852e-05 23.5774 0.187781 22.3568 0.375574 21.23C0.469471 20.1033 0.657264 18.8826 0.751161 17.7558C0.751161 17.568 0.845058 17.2864 0.938954 17.0986C1.03285 16.8169 1.22064 16.723 1.50233 16.6291C4.03755 16.1596 6.57276 16.2535 9.10797 16.0657C10.2347 15.9718 11.2676 15.8779 12.3944 15.784C12.8638 15.784 13.4272 15.784 13.8967 15.784C15.6807 15.6901 17.3709 15.5962 19.1549 15.5023C20.0939 15.5023 21.1267 15.5023 22.0657 15.4084C22.723 15.4084 23.2864 15.3145 23.9436 15.3145C24.7887 15.2206 25.5399 15.1267 26.385 15.1267C27.9812 15.1267 29.5775 14.9389 31.0798 14.845C31.4554 14.845 31.9249 14.845 32.3005 14.7511C33.0516 14.6573 33.8028 14.5634 34.554 14.5634C34.9296 14.5634 35.0235 14.5634 35.1174 14.9389C35.2113 15.2206 35.2113 15.5023 35.2113 15.784C35.0235 17.568 35.0235 19.3521 35.0235 21.1361C35.0235 22.2629 35.1174 23.2957 35.1174 24.4225C35.1174 25.831 35.1174 27.1455 35.2113 28.554C35.3051 30.2441 35.3991 31.8403 35.4929 33.5305C35.5868 34.9389 35.5868 36.4413 35.6807 37.8497C35.7746 39.5399 35.7746 41.23 35.7746 43.0141C35.7746 44.7042 35.9624 46.3004 36.0563 47.9906C36.1502 48.7418 36.1502 49.4929 36.2441 50.2441C36.4319 51.277 36.6197 52.2159 36.8075 53.2488C36.9953 54.3756 37.1831 55.4084 37.4648 56.5352C37.6526 57.3803 37.8404 58.2253 38.0282 58.9765C38.0282 59.1643 38.1221 59.2582 38.1221 59.446C38.1221 59.9155 37.8404 60.2911 37.3709 60.2911C36.9953 60.2911 36.5258 60.385 36.1502 60.385C34.8357 60.385 33.5211 60.6666 32.3005 60.7605C31.4554 60.8544 30.6103 61.0422 29.7652 61.1361C28.4507 61.3239 27.1361 61.6056 25.8216 61.7934C24.2253 61.9812 22.6291 62.169 21.1267 62.4507C20.3756 62.5446 19.5305 62.6385 18.7793 62.8263C17.3709 63.108 15.9624 63.3896 14.554 63.5774C12.8638 63.7652 11.1737 64.2347 9.48355 64.5164C8.63848 64.7042 7.79341 64.7981 6.85445 64.892C6.38496 64.9859 5.91548 64.9859 5.446 64.9859C5.07041 64.9859 4.97651 64.892 4.88262 64.5164C4.50703 63.0141 4.22534 61.6056 3.84975 60.1033C3.66196 59.446 3.66196 58.7887 3.56806 58.1314C3.38027 56.9108 3.19248 55.5962 3.00468 54.3756C2.81689 53.4366 2.6291 52.5915 2.4413 51.6526C2.4413 51.4648 2.4413 51.277 2.3474 51.1831C2.15961 49.8685 1.97182 48.6479 1.78402 47.3333C1.69013 46.4882 1.59623 45.7371 1.50233 44.892C1.31454 43.3896 1.12675 41.7934 0.938954 40.2911C0.845058 39.2582 0.751161 38.1314 0.751161 37.0047C0.657264 36.2535 0.657264 35.5023 0.563368 34.6573C0.187781 34.0939 0.187781 33.5305 0.0938839 32.9671C0.187781 32.9671 0.187781 32.9671 0.0938839 32.9671Z" fill="#CAE4F8"/>
<path id="Path_27" d="M31.2676 41.5117C31.9249 41.4179 32.5822 41.324 33.2394 41.2301C34.2723 41.1362 35.3052 41.1362 36.338 41.0423C37.1831 40.9484 38.0282 40.8545 38.8732 40.8545C40.3756 40.7606 41.8779 40.7606 43.3803 40.6667C44.507 40.5728 45.7277 40.4789 46.8545 40.385C47.6995 40.2911 48.5446 40.2911 49.3897 40.1972C50.3286 40.1033 51.2676 40.0094 52.2066 39.9155C52.8638 39.8216 53.5211 39.9155 54.1784 39.8216C55.2113 39.7277 56.1502 39.6338 57.0892 39.5399C57.5587 39.5399 57.6526 39.5399 57.7465 40.1033C57.9343 42.169 58.0282 44.2348 58.216 46.2066C58.3099 47.0517 58.4038 47.8967 58.4976 48.7418C58.5915 49.3052 58.5915 49.8686 58.5915 50.338C58.6854 51.7465 58.7793 53.1549 58.8732 54.6573C58.9671 55.9718 59.1549 57.2864 59.2488 58.601C59.3427 59.446 59.2488 60.1972 59.3427 61.0423C59.4366 62.169 59.6244 63.2958 59.7183 64.4225C59.8122 65.3615 59.8122 66.2066 59.9061 67.1456C60 68.1784 60 69.2113 60.1878 70.2441C60.2817 70.9953 60.2817 71.7465 60.3756 72.4038C60.4695 73.2488 60.4695 74 60.5634 74.8451C60.7512 76.2535 60.8451 77.5681 61.0329 78.9765C61.1268 79.9155 61.3146 80.8545 61.4084 81.7934C61.5023 82.4507 61.5962 83.0141 61.6901 83.6714C61.784 84.1409 61.6901 84.2348 61.2207 84.3286C60.7512 84.4225 60.2817 84.5164 59.9061 84.6103C59.2488 84.7042 58.6854 84.892 58.0282 84.9859C56.9953 85.1737 55.9624 85.2676 55.0235 85.4554C53.9906 85.6432 53.0516 85.831 52.0188 85.9249C51.0798 86.1127 50.0469 86.2066 49.108 86.3944C49.0141 86.3944 48.9202 86.3944 48.8263 86.4883C47.9812 86.8639 47.0422 86.8639 46.1972 87.0517C45.2582 87.2394 44.3192 87.3333 43.3803 87.5211C42.1596 87.7089 40.939 87.8967 39.7183 88.0845C38.5915 88.2723 37.3709 88.554 36.2441 88.7418C35.2113 88.9296 34.0845 89.1174 33.0516 89.3991C32.2066 89.5869 31.4554 89.8686 30.6103 90.0564C30.4225 90.1502 30.2347 90.1502 30.0469 90.1502C29.5775 90.2441 29.4836 90.1502 29.3897 89.7747C29.108 88.9296 28.9202 88.0845 28.7324 87.1455C28.5446 86.2066 28.3568 85.3615 28.169 84.4225C27.9812 83.2958 27.6995 82.169 27.5117 80.9484C27.3239 79.8216 27.0422 78.601 26.8545 77.4742C26.6667 76.2535 26.4789 74.939 26.2911 73.7183C26.1972 72.7794 26.0094 71.8404 25.8216 70.9014C25.7277 70.1502 25.6338 69.493 25.5399 68.7418C25.446 68.0845 25.3521 67.4272 25.3521 66.77C25.2582 65.4554 25.1643 64.1409 25.0704 62.8263C24.9765 60.9484 24.8826 59.0704 24.7887 57.1925C24.6948 55.5024 24.6948 53.8122 24.8826 52.216C24.9765 50.4319 24.9765 48.6479 25.1643 46.8639C25.2582 45.4554 25.5399 43.9531 25.7277 42.5446C25.8216 42.0751 25.8216 41.9812 26.385 41.9812C27.7934 41.8873 29.2019 41.7934 30.7042 41.6056C30.7981 41.4179 31.0798 41.4179 31.2676 41.5117Z" fill="#FFE9B3"/>
<path id="Path_28" d="M33.7089 50.1502C34.2723 50.1502 34.8357 50.1502 35.399 50.1502C35.8685 50.1502 35.9624 50.2441 36.0563 50.7136C36.1502 51.4647 36.338 52.3098 36.4319 53.061C36.7136 54.845 36.9953 56.5352 37.1831 58.3192C37.3709 59.7276 37.5587 61.1361 37.7465 62.6384C37.9343 63.7652 38.122 64.892 38.2159 66.0187C38.3098 66.7699 38.4037 67.5211 38.4976 68.2722C38.5915 69.0234 38.6854 69.6807 38.8732 70.4319C38.9671 71.2769 39.2488 72.122 39.2488 72.9671C39.2488 73.4366 39.4366 73.9061 39.5305 74.2816C39.6244 75.0328 39.7183 75.6901 39.8122 76.4413C39.9061 76.9107 39.7183 77.0985 39.2488 77.1924C38.5915 77.2863 37.9343 77.2863 37.1831 77.3802C36.2441 77.4741 35.2112 77.6619 34.2723 77.7558C33.8967 77.8497 33.4272 77.8497 33.0516 77.8497C32.676 77.8497 32.3004 77.568 32.3004 77.1924C32.1127 76.3474 31.9249 75.5962 31.831 74.7511C31.6432 73.9061 31.5493 72.9671 31.4554 72.122C31.2676 70.7136 31.0798 69.399 30.7981 67.9906C30.7042 67.4272 30.6103 66.9577 30.5164 66.3943C30.4225 65.8309 30.4225 65.2676 30.3286 64.7981C30.2347 64.1408 30.0469 63.5774 29.8591 62.9201C29.6713 62.0751 29.5774 61.1361 29.3897 60.291C29.2958 59.8215 29.2019 59.2582 29.2019 58.7887C29.0141 57.7558 28.8263 56.8168 28.6385 55.784C28.4507 54.3755 28.169 52.9671 27.9812 51.4647C27.9812 51.3708 27.9812 51.2769 27.9812 51.183C27.9812 50.6197 27.9812 50.5258 28.6385 50.5258C29.7652 50.4319 30.892 50.2441 32.0188 50.2441C32.4882 50.0563 33.0516 50.1502 33.7089 50.1502Z" fill="#309C7D"/>
<path id="Path_29" d="M48.3568 75.9718C48.2629 75.6901 48.2629 75.4084 48.169 75.1267C47.9812 73.7183 47.6995 72.3098 47.6995 70.9014C47.6995 70.0563 47.5117 69.3051 47.4178 68.46C47.23 67.3333 47.1361 66.2065 46.9484 64.9859C46.8545 64.0469 46.7606 63.014 46.5728 62.0751C46.385 60.4788 46.1972 58.9765 46.1033 57.3802C46.0094 56.6291 46.1033 55.784 46.0094 55.0328C46.0094 54.3755 45.9155 53.8122 45.9155 53.1549C45.9155 52.5915 45.9155 51.9342 45.9155 51.3708C45.9155 50.1502 45.8216 48.9295 45.8216 47.7089C45.8216 47.1455 45.9155 47.1455 46.4789 47.0516C46.9484 46.9577 47.5117 46.8638 47.9812 46.7699C49.2019 46.676 50.3286 46.5821 51.5493 46.3943C51.9249 46.3943 52.2066 46.3943 52.5822 46.3004C52.8638 46.3004 53.0516 46.3943 53.1455 46.676C53.2394 47.1455 53.3333 47.615 53.3333 48.0845C53.4272 49.1173 53.4272 50.1502 53.5211 51.183C53.615 53.061 53.7089 54.845 53.8028 56.7229C53.8967 57.9436 53.8028 59.2582 53.8028 60.4788C53.8028 61.9812 53.8967 63.4835 53.9906 65.0798C54.0845 66.3943 54.2723 67.8028 54.3662 69.1173C54.4601 70.1502 54.4601 71.2769 54.554 72.4037C54.554 72.4976 54.554 72.5915 54.554 72.6854C54.7418 73.2488 54.6479 73.8122 54.7418 74.3755C54.8357 74.845 54.554 75.0328 54.0845 75.0328C53.4272 75.1267 52.8638 75.2206 52.2066 75.3145C51.2676 75.5023 50.2347 75.6901 49.2958 75.8779C49.108 76.1596 48.7324 76.1596 48.3568 75.9718Z" fill="#2E526B"/>
<path id="Path_30" d="M39.1549 77.3803C38.8732 76.1596 38.6854 75.1268 38.4037 74C38.1221 72.5916 37.8404 71.1831 37.5587 69.7747C37.277 68.6479 36.9953 67.5211 36.7136 66.3944C36.4319 65.2676 36.2441 64.1409 36.0563 62.9202C35.9624 62.2629 35.9624 61.6995 35.8685 61.0423C35.7746 60.2911 35.5868 59.5399 35.4929 58.7888C35.4929 58.6949 35.4929 58.601 35.399 58.5071C35.399 58.0376 35.399 57.9437 35.8685 57.8498C36.6197 57.662 37.4648 57.5681 38.2159 57.3803C38.8732 57.2864 39.6244 57.0986 40.2817 57.0047C40.939 56.9108 41.6901 56.8169 42.3474 56.723C42.723 56.723 43.0047 56.9108 43.0986 57.3803C43.1925 58.0376 43.2864 58.7888 43.3803 59.446C43.662 60.8545 43.8498 62.2629 44.0375 63.6714C44.1314 64.2348 44.2253 64.7981 44.3192 65.2676C44.507 66.0188 44.6009 66.77 44.7887 67.4272C45.1643 69.3991 45.6338 71.3709 46.0094 73.2488C46.1972 74.0939 46.2911 74.939 46.4789 75.7841C46.5728 76.0657 46.2911 76.5352 45.9155 76.5352C45.446 76.6291 44.9765 76.6291 44.4131 76.723C44.3192 76.723 44.2253 76.723 44.1314 76.723C42.8169 76.9108 41.5023 77.0047 40.1878 77.1925C40 77.1925 39.8122 77.2864 39.6244 77.2864C39.6244 77.3803 39.4366 77.3803 39.1549 77.3803Z" fill="#FFD266"/>
<path id="Path_31" d="M41.9718 63.3896C43.0047 63.014 44.0375 62.7324 45.0704 62.4507C45.6338 62.2629 46.2911 62.169 46.8544 62.0751C47.3239 61.9812 47.5117 62.0751 47.6056 62.5446C47.7934 63.6713 48.0751 64.7981 48.2629 65.9248C48.3568 66.5821 48.5446 67.2394 48.7324 67.8967C49.0141 68.554 49.108 69.3051 49.2957 70.0563C49.5774 71.5586 49.8591 73.061 50.2347 74.5633C50.3286 74.7511 50.3286 75.0328 50.3286 75.2206C50.3286 75.6901 50.2347 75.8779 49.7652 75.8779C49.2018 75.9718 48.6385 75.9718 48.169 76.0657C47.5117 76.1596 46.7605 76.2535 46.1033 76.4413C45.446 76.6291 45.0704 76.2535 44.8826 75.784C44.6009 74.7511 44.3192 73.6244 44.0375 72.5915C43.8497 71.9342 43.7558 71.277 43.6619 70.6197C43.568 70.1502 43.3803 69.7746 43.2864 69.399C42.723 67.8028 42.6291 66.2065 42.2535 64.6103C42.1596 64.2347 42.0657 63.8591 41.9718 63.3896Z" fill="#CAE4F8"/>
<path id="Path_32" d="M25.8216 31.7465C26.0094 31.3709 26.1972 30.9953 26.4789 30.6197C26.8544 29.9625 27.23 29.3052 27.6056 28.7418C27.7934 28.3662 28.0751 27.9906 28.2629 27.615C28.7324 26.77 29.2019 26.0188 29.5775 25.1737C29.7652 24.892 29.953 24.5165 30.1408 24.2348C30.2347 24.047 30.5164 23.8592 30.6103 23.9531C30.7981 24.047 30.7981 24.2348 30.7042 24.5165C30.7042 24.6104 30.7042 24.6104 30.6103 24.7042C30.1408 25.4554 29.8591 26.2066 29.4836 26.9578C29.2958 27.5212 28.9202 27.9906 28.6385 28.554C28.0751 29.493 27.4178 30.5258 26.8544 31.4648C26.5728 31.9343 26.2911 32.3099 26.0094 32.7794C25.8216 33.0611 25.7277 33.0611 25.446 32.7794C25.3521 32.6855 25.3521 32.5916 25.2582 32.5916C24.507 31.7465 23.8498 30.9953 23.0986 30.1503C23.0047 30.0564 23.0047 30.0564 22.8169 29.9625C22.6291 30.1503 22.4413 30.3381 22.2535 30.6197C21.784 31.277 21.3145 31.9343 20.8451 32.5916C20.5634 33.0611 20.2817 33.6244 19.9061 34.0939C19.1549 35.3146 18.5915 36.5352 17.6526 37.662C17.6526 37.662 17.5587 37.7559 17.5587 37.8498C17.0892 38.7888 16.4319 39.446 15.7746 40.1972C15.5868 40.4789 15.399 40.4789 15.2113 40.1972C14.9296 39.9155 14.554 39.5399 14.2723 39.2582C13.9906 38.9765 13.615 38.601 13.2394 38.3193C12.4883 37.662 11.6432 37.0047 10.892 36.3474C10.892 36.3474 10.7981 36.2535 10.7042 36.2535C10.5164 36.5352 10.2347 36.723 10.0469 37.0047C9.67135 37.7559 9.10797 38.3193 8.54459 38.9766C7.51173 40.1972 6.47886 41.4179 5.446 42.5446C5.3521 42.6385 5.2582 42.7324 5.16431 42.8263C4.88262 43.0141 4.69482 42.9202 4.69482 42.6385C4.69482 42.5446 4.69482 42.3568 4.78872 42.2629C5.07041 41.8873 5.3521 41.5118 5.63379 41.2301C6.29107 40.4789 6.85445 39.8216 7.51173 39.0704C7.88731 38.6949 8.169 38.2254 8.45069 37.7559C8.92018 37.1925 9.38966 36.6291 9.85914 36.0658C10.0469 35.878 10.2347 35.5963 10.4225 35.4085C10.7981 35.0329 10.9859 35.0329 11.3615 35.3146C11.831 35.6902 12.2066 36.0658 12.5821 36.4413C13.2394 37.0986 13.9906 37.7559 14.6479 38.3193C14.9296 38.601 15.2113 38.7888 15.4929 39.1643C15.5868 38.9766 15.6807 38.8827 15.7746 38.6949C16.338 37.7559 16.9014 36.9108 17.5587 35.9719C17.6526 35.7841 17.8404 35.5963 18.0282 35.4085C18.5915 34.4695 19.1549 33.6244 19.8122 32.6855C20.5634 31.5587 21.4084 30.4319 22.1596 29.2113C22.4413 28.8357 22.6291 28.8357 22.9108 29.1174C23.9437 29.7747 24.8826 30.7136 25.8216 31.7465Z" fill="#2E526B"/>
<path id="Path_33" d="M10.892 33.4366C11.7371 33.4366 12.4882 34 12.4882 34.8451C12.4882 35.878 11.7371 36.5352 10.9859 36.5352C9.85914 36.6291 9.48355 35.7841 9.48355 35.0329C9.38966 34.0939 10.0469 33.4366 10.892 33.4366Z" fill="#2E526B"/>
<path id="Path_34" d="M11.5493 35.5962C11.6432 35.5023 11.6432 35.4084 11.7371 35.3145C11.831 35.0328 11.831 34.845 11.6432 34.6572C11.3615 34.3755 10.9859 34.2816 10.6103 34.3755C10.4225 34.4694 10.1408 34.7511 10.2347 35.0328C10.2347 35.3145 10.4225 35.5023 10.7042 35.5023C10.9859 35.5962 11.2676 35.5962 11.5493 35.5962Z" fill="white"/>
<path id="Path_35" d="M27.0422 32.4037C27.0422 33.5305 25.9155 34.4694 24.8826 34.0939C23.8498 33.8122 23.662 33.061 24.0376 32.2159C24.1314 31.8403 24.4131 31.5586 24.7887 31.2769C25.2582 30.9953 25.7277 30.9014 26.1972 31.0892C26.6667 31.1831 27.0422 31.8403 27.0422 32.4037Z" fill="#2E526B"/>
<path id="Path_36" d="M26.4789 32.4977C26.4789 32.4038 26.4789 32.3099 26.385 32.1221C26.1972 31.8404 25.9155 31.6526 25.446 31.6526C25.0704 31.6526 24.7887 31.9343 24.6948 32.3099C24.6948 32.4038 24.6948 32.5916 24.6948 32.5916C24.8826 32.7793 25.1643 33.061 25.3521 33.1549C26.0094 33.6244 26.4789 33.2488 26.4789 32.4977Z" fill="white"/>
<path id="Path_37" d="M15.4929 41.3239C14.6479 41.3239 14.0845 40.5727 14.2723 39.7277C14.3662 39.1643 14.6479 38.7887 15.1173 38.507C15.2112 38.4131 15.399 38.4131 15.4929 38.4131C16.2441 38.3192 16.8075 38.6948 16.9953 39.446C17.277 40.291 16.9014 40.7605 16.2441 41.1361C15.9624 41.23 15.6807 41.23 15.4929 41.3239Z" fill="#2E526B"/>
<path id="Path_38" d="M15.0235 39.8216C15.0235 39.8216 15.1174 39.8216 15.0235 39.8216C15.1174 39.9155 15.1174 40.0094 15.1174 40.0094C15.2113 40.2911 15.3052 40.4789 15.5869 40.4789C15.8686 40.4789 16.3381 40.1972 16.4319 40.0094C16.5258 39.8216 16.2442 39.3521 16.0564 39.1643C15.7747 38.9765 15.5869 38.9765 15.3052 39.2582C15.2113 39.446 15.1174 39.6338 15.0235 39.8216Z" fill="white"/>
<path id="Path_39" d="M21.1268 28.8357C21.1268 27.9907 21.784 27.3334 22.6291 27.3334C23.3803 27.3334 24.0376 28.0845 24.0376 28.8357C24.0376 29.5869 23.2864 30.2442 22.4413 30.3381C21.6902 30.2442 21.1268 29.5869 21.1268 28.8357Z" fill="#2E526B"/>
<path id="Path_40" d="M22.4413 28.0845C22.0657 28.0845 21.784 28.3662 21.6901 28.7417C21.6901 29.1173 22.0657 29.4929 22.3474 29.4929C22.8169 29.4929 23.0986 29.2112 23.0986 28.8356C23.1925 28.3662 22.9108 28.0845 22.4413 28.0845Z" fill="white"/>
<path id="Path_41" d="M75.8686 96.1596C76.338 95.8779 76.8075 95.5962 77.277 95.3145C77.7465 95.0328 78.216 94.845 78.7794 94.7511C79.1549 94.6572 79.6244 94.6572 80 94.6572C80.1878 94.6572 80.3756 94.6572 80.5634 94.7511C80.8451 94.845 81.0329 94.845 81.2207 95.1267C81.4085 95.4084 81.5024 95.784 81.5024 96.1596C81.5024 96.4413 81.3146 96.6291 80.939 96.723C80.0939 96.9107 79.3427 97.1924 78.5916 97.568C78.3099 97.7558 78.0282 97.9436 77.7465 98.1314C77.4648 98.3192 77.277 98.6009 77.277 99.0704C77.277 100.009 76.8075 100.761 75.9625 101.23C75.2113 101.699 73.9906 101.699 73.1456 100.948C73.0517 100.854 72.9578 100.761 72.8639 100.667C71.9249 99.8215 71.7371 98.4131 72.1127 97.3802C72.3944 96.8169 72.77 96.2535 73.4273 95.9718C74.2723 95.5023 75.0235 95.5962 75.8686 96.1596Z" fill="#FFD266"/>
<path id="Path_42" d="M104.131 73.5305C104.038 73.3427 103.85 72.1221 103.099 72.216C103.005 72.216 102.723 72.216 102.629 72.3099C102.16 72.7793 101.69 73.1549 101.315 73.6244C100.845 74.0939 100.469 74.5634 100 75.0329C99.9061 75.1268 99.1549 75.8779 99.1549 75.9718C99.061 76.0657 98.9671 76.2535 98.8732 76.3474C98.8732 76.3474 97.7465 78.0376 97.1831 78.6948C97.1831 78.6948 97.277 78.6948 97.277 78.7887C97.7465 79.1643 98.216 79.3521 98.7793 79.5399L98.8732 79.446C99.061 79.2582 101.596 76.4413 101.596 76.4413C102.441 75.3145 103.286 74.3756 104.131 73.5305Z" fill="#2E526B"/>
<path id="Path_43" d="M98.216 97.7559C98.4977 98.0376 98.8733 98.3193 99.155 98.5071C100.282 99.3521 101.127 100.385 101.972 101.512C102.535 102.357 103.005 103.296 103.474 104.329C103.756 104.892 104.038 105.455 104.319 106.019C104.413 106.301 104.507 106.676 104.601 106.958C104.695 107.333 104.789 107.709 104.883 108.085C104.977 108.085 105.07 108.085 105.164 108.085C105.728 107.991 106.197 107.897 106.761 107.803C107.981 107.615 109.108 107.333 110.235 106.958C110.798 106.77 111.268 106.676 111.831 106.488C112.019 106.394 112.207 106.488 112.394 106.676C112.488 106.77 112.488 106.958 112.488 107.146C112.488 107.239 112.394 107.333 112.301 107.333C111.455 107.521 110.704 107.991 109.953 108.178C109.014 108.366 108.169 108.742 107.23 109.024C107.042 109.117 106.854 109.117 106.667 109.211C106.479 109.305 106.291 109.305 106.103 109.399C105.634 109.493 105.164 109.587 104.695 109.775C104.601 109.775 104.507 109.775 104.413 109.869C103.85 109.869 103.756 109.869 103.568 109.305C103.286 107.897 102.911 106.394 102.254 105.08C101.878 104.235 101.315 103.484 100.845 102.639C100.751 102.545 100.657 102.357 100.563 102.263C100.282 101.7 99.8122 101.23 99.4367 100.761C98.7794 100.009 98.1221 99.446 97.3709 98.8827C97.0892 98.6949 96.9014 98.4132 96.6198 98.2254C96.6198 97.7559 96.8075 97.3803 97.0892 97.0986C97.3709 96.6291 97.6526 96.0658 98.0282 95.5024C98.6855 94.3756 99.6244 93.3428 100.47 92.3099C100.845 91.9343 101.221 91.4648 101.596 91.0892C102.066 90.6198 102.629 90.1503 103.099 89.6808C103.286 89.493 103.474 89.3052 103.756 89.1174C104.977 87.9906 106.197 86.8639 107.418 85.7371C108.169 85.0798 108.826 84.5165 109.765 84.047C110.516 83.6714 111.268 83.2958 112.019 82.9202C113.239 82.3568 114.46 82.0752 115.775 81.8874C116.995 81.6996 118.216 81.8874 119.343 81.9813C119.812 81.9813 120.376 82.0752 120.845 82.169C121.221 82.2629 121.69 82.4507 122.066 82.5446C122.16 82.6385 122.347 82.6385 122.441 82.7324C122.629 82.8263 122.817 83.0141 122.817 83.2019C122.817 83.3897 122.629 83.6714 122.347 83.5775C121.972 83.5775 121.502 83.4836 121.127 83.3897C120.47 83.2019 119.812 83.108 119.155 83.0141C118.685 83.0141 118.122 82.9202 117.653 82.9202C117.559 82.9202 117.465 82.9202 117.277 82.9202C116.526 82.9202 115.681 82.9202 114.93 83.108C114.554 83.2019 114.178 83.2958 113.803 83.3897C113.146 83.5775 112.488 83.8592 111.925 84.1409C110.892 84.5165 110.047 85.0798 109.202 85.831C108.451 86.5822 107.606 87.1456 106.761 87.8967C105.352 89.1174 104.038 90.3381 102.723 91.7465C101.878 92.5916 101.127 93.5306 100.376 94.4695C99.9061 95.1268 99.4367 95.7841 98.9672 96.3475C98.8733 96.8169 98.5916 97.2864 98.216 97.7559Z" fill="#2E526B"/>
<path id="Shape" fill-rule="evenodd" clip-rule="evenodd" d="M56.2933 163.018C56.4818 162.993 56.6579 162.97 56.8075 162.92C57.0892 162.075 57.1831 161.324 56.9014 160.479C56.9014 160.291 56.9014 160.009 56.8075 159.728C56.6197 158.601 56.338 157.38 55.6807 156.441C55.5366 156.249 55.4908 156.155 55.4175 156.122C55.3476 156.09 55.2527 156.114 55.0235 156.16C54.9135 156.16 54.8357 156.192 54.7712 156.218C54.7257 156.237 54.6868 156.253 54.6479 156.253C54.0845 156.441 53.615 156.535 53.0516 156.441C52.723 156.394 52.3944 156.371 52.0657 156.347C51.7371 156.324 51.4084 156.3 51.0798 156.253C50.9483 156.235 50.8169 156.22 50.6854 156.205C50.1596 156.145 49.6338 156.084 49.108 155.784C48.8263 155.596 48.4507 155.408 48.0751 155.221C47.7934 155.033 47.4178 154.845 47.1361 154.751C46.8545 154.657 46.5728 154.657 46.2911 154.845C46.0094 155.127 45.6338 155.408 45.2582 155.596C44.8984 155.776 44.5577 155.975 44.2208 156.172C43.503 156.591 42.8026 157.001 41.9718 157.192C41.784 157.192 41.5962 157.276 41.4084 157.359C41.3145 157.401 41.2206 157.443 41.1268 157.474C39.8122 157.756 38.5915 158.131 37.4648 158.789C36.9953 159.07 36.6197 159.352 36.2441 159.728C35.8685 160.103 35.5868 160.573 35.4929 161.042C35.3052 161.887 35.6807 163.014 36.5258 163.39C36.7606 163.484 37.0188 163.577 37.277 163.671C37.5352 163.765 37.7934 163.859 38.0282 163.953C38.2786 164.078 38.5289 164.12 38.7793 164.162C38.9045 164.183 39.0297 164.203 39.1549 164.235C39.3897 164.235 39.6009 164.258 39.8122 164.282C40.0235 164.305 40.2347 164.329 40.4695 164.329C41.4084 164.329 42.4413 164.422 43.3803 164.516H43.8498C44.2253 164.516 44.6244 164.493 45.0235 164.469C45.4225 164.446 45.8216 164.422 46.1972 164.422C47.0422 164.516 47.6995 164.235 48.3568 163.765C48.8263 163.484 49.2019 163.108 49.5775 162.732V163.014C49.5775 163.39 49.6714 163.484 49.953 163.577H50.2347H50.2348C51.0798 163.577 51.9249 163.577 52.7699 163.484C53.8028 163.39 54.7418 163.296 55.7746 163.108C55.9507 163.064 56.1268 163.041 56.2933 163.018ZM43.3803 157.944C44.507 157.38 45.6338 156.817 46.7606 156.16C49.108 157.568 51.7371 158.038 54.3662 157.756C55.2113 158.507 55.3991 159.54 55.4929 160.573V161.606C55.4929 162.053 55.4077 162.074 55.0746 162.156C55.0582 162.16 55.0411 162.165 55.0235 162.169C54.7887 162.216 54.5305 162.239 54.2723 162.263C54.0141 162.286 53.7559 162.31 53.5211 162.357C52.8638 162.451 52.2066 162.545 51.5493 162.545C51.3615 162.545 51.1972 162.521 51.0329 162.498C50.8685 162.474 50.7042 162.451 50.5164 162.451C50.4695 162.216 50.4225 162.005 50.3756 161.793C50.3286 161.582 50.2817 161.371 50.2347 161.136C49.7652 160.761 49.2019 160.854 48.8263 161.418C48.4507 161.981 47.9812 162.451 47.4178 162.826C46.8 163.212 46.1186 163.281 45.4782 163.345C45.34 163.359 45.2037 163.373 45.0704 163.39C43.8498 163.577 42.6291 163.484 41.4085 163.39H41.4084C40.3756 163.39 39.3427 163.296 38.4037 162.92C37.9343 162.732 37.4648 162.545 37.0892 162.169C36.5258 161.699 36.5258 161.042 37.0892 160.573C37.6526 160.103 38.3099 159.728 38.9671 159.54C39.7183 159.352 40.3756 159.07 41.0329 158.789C41.2487 158.717 41.4585 158.651 41.6636 158.587C42.2617 158.399 42.821 158.223 43.3803 157.944Z" fill="#2E526B"/>
<path id="Path_44" d="M121.127 79.0705C121.784 79.0705 122.441 79.2583 123.099 79.4461C124.413 79.9156 125.822 80.385 127.136 80.8545C127.793 81.0423 128.357 81.324 129.014 81.5118C129.577 81.6996 130.141 81.6057 130.704 81.5118C131.268 81.4179 131.831 81.1362 132.3 80.8545C132.77 80.5728 133.239 80.1972 133.709 79.9156C133.991 79.7278 134.178 79.6339 134.554 79.54C134.742 79.54 134.93 79.6339 135.024 79.7278C135.117 79.9156 135.024 80.0094 134.93 80.1033C134.272 80.9484 133.521 81.6057 132.582 82.0752C131.362 82.7325 130.047 83.0141 128.732 82.5447C128.357 82.4508 127.981 82.4508 127.7 82.263C126.854 81.9813 126.103 81.6057 125.258 81.324C124.413 80.9484 123.568 80.5728 122.723 80.2911C121.972 80.0094 121.127 80.0094 120.376 80.4789C120.094 80.6667 119.906 80.9484 119.718 81.1362C119.531 81.324 119.343 81.6057 119.155 81.7935C118.873 82.0752 118.592 81.8874 118.498 81.5118C118.498 81.4179 118.498 81.324 118.498 81.1362C118.779 80.2911 119.155 79.54 120 79.1644C120.188 79.1644 120.657 78.9766 121.127 79.0705Z" fill="#2E526B"/>
<path id="Path_45" d="M87.5117 97.3803C87.3239 96.8169 87.3239 96.723 87.7934 96.5352C88.169 96.4413 88.5446 96.3474 88.9202 96.1596C90.2347 95.6901 91.6432 95.4084 93.0516 95.2206C93.4272 95.1267 93.8967 95.2206 94.1784 95.5023C94.3662 95.6901 94.3662 95.8779 94.0845 96.0657C93.8967 96.1596 93.615 96.2535 93.3333 96.2535C92.3005 96.3474 91.3615 96.5352 90.3286 96.8169C89.6714 97.0047 89.0141 97.0986 88.4507 97.2864C88.0751 97.3803 87.7934 97.3803 87.5117 97.3803Z" fill="#2E526B"/>
<path id="Path_46" d="M161.596 105.362C161.502 106.676 161.502 108.085 161.408 109.399C161.315 110.432 161.033 111.465 160.751 112.404C160.376 114 160 115.502 159.718 117.099C159.53 118.319 159.155 119.446 158.685 120.667C158.498 121.324 158.31 121.981 158.122 122.639C157.934 123.296 157.653 124.047 157.371 124.704C156.901 125.737 156.432 126.77 155.962 127.897C155.775 128.366 155.493 128.93 155.211 129.399C154.648 130.338 154.178 131.371 153.615 132.31C153.052 133.249 152.488 134.094 151.925 134.939C151.08 136.254 150.141 137.568 149.014 138.789C148.263 139.634 147.418 140.197 146.479 140.761C145.446 141.324 144.413 141.7 143.286 141.981C142.535 142.169 141.69 142.263 140.845 142.357C140.563 142.451 140.188 142.451 139.906 142.451C138.404 142.545 136.901 142.732 135.493 142.732C134.742 142.732 133.897 142.732 133.146 142.826C130.986 142.826 128.826 142.92 126.667 142.92C124.131 142.92 121.596 142.826 119.061 142.826C117.653 142.826 116.338 142.826 114.93 142.732C113.803 142.639 112.676 142.545 111.549 142.451H111.455C110.329 142.451 109.296 142.357 108.169 142.357C107.418 142.357 106.667 142.263 106.009 142.169C105.634 142.169 105.164 142.169 104.789 142.075C103.286 141.981 101.784 141.981 100.282 141.981C98.8732 141.981 97.4648 141.887 96.0563 141.887C94.7418 141.887 93.4272 141.981 92.0188 141.981C91.4554 141.981 90.892 141.887 90.3286 141.887C89.2019 141.887 87.9812 141.887 86.8544 141.887C85.446 141.793 84.1314 141.7 82.723 141.606C82.2535 141.606 81.784 141.606 81.2206 141.606C80.2817 141.606 79.3427 141.512 78.4037 141.512C76.9953 141.512 75.5868 141.512 74.1784 141.512C73.1455 141.512 72.2066 141.606 71.1737 141.324C70.2347 141.136 69.4835 140.667 68.8263 139.916C68.0751 139.07 67.6995 138.038 67.23 137.005C67.1361 136.911 67.23 136.723 67.1361 136.629C66.9483 135.033 66.8544 133.531 66.9483 131.934C66.9483 131.465 67.1361 130.995 67.23 130.526C67.4178 129.775 67.6995 129.117 67.8873 128.366C68.2629 127.239 68.9202 126.3 69.6713 125.362C70.7042 124.141 72.0188 123.202 73.3333 122.357C73.8028 122.075 74.2723 121.887 74.7418 121.606C75.0235 121.418 75.3051 121.23 75.5868 121.136C76.2441 120.854 76.9014 120.573 77.5587 120.385C78.3098 120.103 79.1549 119.822 79.9061 119.634C81.2206 119.352 82.5352 119.07 83.8497 118.883C85.7277 118.601 87.5117 118.507 89.3897 118.413C90.7981 118.319 92.2066 118.225 93.7089 118.131C94.6479 118.038 95.5868 117.944 96.4319 117.85C97.6526 117.662 98.6854 117.286 99.7183 116.723C100.939 116.16 102.066 115.502 103.099 114.657C103.568 114.282 103.944 113.906 104.319 113.531C105.164 112.592 105.822 111.559 106.479 110.526C106.854 109.962 107.136 109.305 107.418 108.742C108.075 107.521 108.826 106.394 109.484 105.174C109.953 104.329 110.329 103.484 110.798 102.732C112.019 100.479 113.333 98.2254 114.742 96.0657C115.681 94.5634 116.901 93.3427 118.404 92.3099C119.249 91.6526 120.188 91.0892 121.127 90.5258C122.254 89.8686 123.38 89.493 124.601 89.1174C125.822 88.7418 127.136 88.554 128.357 88.4601C129.39 88.3662 130.423 88.1784 131.455 88.0845C132.113 87.9906 132.864 87.9906 133.521 87.9906C135.211 87.9906 136.807 87.8967 138.498 87.8967C140 87.8967 141.502 87.9906 143.005 88.0845C144.695 88.1784 146.479 88.3662 148.169 88.554C149.859 88.7418 151.549 89.0235 153.052 89.8686C153.803 90.338 154.648 90.8075 155.305 91.4648C156.432 92.4977 157.465 93.6244 158.216 94.939C158.779 95.8779 159.343 96.8169 159.812 97.7559C160.376 98.8826 160.751 100.103 160.939 101.324C161.596 102.732 161.596 104.047 161.596 105.362Z" fill="#7FD8BE"/>
<path id="Path_47" d="M176.62 147.709C174.836 147.803 173.146 147.897 171.361 148.085C170.141 148.178 168.92 148.272 167.7 148.366C166.479 148.46 165.258 148.554 164.131 148.554C163.286 148.554 162.441 148.648 161.596 148.554C161.315 148.554 161.033 148.366 160.751 148.272C160.094 147.803 160.094 147.239 160.845 146.864C161.221 146.676 161.69 146.488 162.16 146.394C163.756 146.113 165.258 145.737 166.854 145.455C167.981 145.268 169.014 145.174 170.141 144.986C172.3 144.704 174.366 144.423 176.526 144.235C178.122 144.047 179.812 144.047 181.408 144.047C182.441 144.047 183.474 144.141 184.601 144.235C185.54 144.329 186.385 144.516 187.324 144.704C187.793 144.798 188.169 144.986 188.263 145.549C188.357 145.925 188.357 146.113 187.981 146.207C187.512 146.394 186.948 146.676 186.385 146.77C184.789 146.958 183.192 147.146 181.596 147.333C179.906 147.427 178.216 147.615 176.62 147.709Z" fill="#457AA0"/>
<path id="Path_48" d="M173.897 141.793C173.897 141.512 173.897 141.23 173.991 141.042C174.272 139.446 174.554 137.944 174.742 136.347C174.836 135.596 174.93 134.751 175.023 134C175.305 132.685 175.587 131.371 175.775 129.962C175.775 129.775 175.869 129.493 175.869 129.211C176.056 128.272 176.338 127.333 176.62 126.394C176.901 125.549 177.183 124.704 177.371 123.859C177.653 123.014 177.934 122.169 178.216 121.324C178.498 120.385 178.779 119.54 179.061 118.601C179.531 117.286 180 116.066 180.469 114.751C180.563 114.563 180.657 114.469 180.751 114.376C180.845 114.282 181.033 114.282 181.033 114.282C181.127 114.282 181.221 114.469 181.221 114.563C181.221 114.845 181.221 115.127 181.127 115.315C180.939 116.16 180.657 117.099 180.376 117.944C179.812 119.822 179.249 121.793 178.873 123.765C178.498 125.549 178.216 127.427 178.028 129.211C177.934 130.056 177.746 130.808 177.653 131.559C177.559 132.404 177.371 133.155 177.371 134C177.277 135.127 177.277 136.16 177.183 137.286C177.183 137.568 177.183 137.85 177.183 138.131C177.183 140.573 177.277 142.92 177.277 145.362C177.277 145.737 177.371 146.113 177.371 146.488C177.371 146.958 177.465 147.427 177.465 147.897C177.465 148.366 177.559 148.836 177.559 149.305C177.559 149.493 177.559 149.681 177.559 149.775C177.559 150.056 177.371 150.244 177.089 150.244C176.62 150.244 176.056 150.338 175.587 150.338C174.742 150.432 173.897 150.526 173.052 150.526H172.958C172.3 150.62 172.113 150.526 172.113 149.869C172.019 149.211 172.019 148.46 171.925 147.803C171.831 146.958 171.643 146.113 171.549 145.268C171.362 143.953 171.268 142.639 171.08 141.324C170.892 140.103 170.704 138.977 170.61 137.756C170.423 135.878 170.141 134.094 169.859 132.216C169.577 130.338 169.202 128.554 168.92 126.676C168.639 125.268 168.357 123.953 168.075 122.545C167.7 120.761 167.23 118.977 166.761 117.192C166.385 115.596 166.103 114 165.728 112.404C165.352 110.901 165.07 109.399 164.695 107.897C164.225 106.3 163.756 104.704 163.286 103.202C163.193 103.014 163.193 102.826 163.193 102.639C163.193 102.545 163.286 102.357 163.38 102.357C163.474 102.357 163.662 102.357 163.756 102.451C163.85 102.545 163.944 102.732 164.038 102.826C164.789 104.61 165.634 106.488 166.197 108.366C166.667 109.869 167.23 111.371 167.7 112.873C168.075 114.188 168.451 115.502 168.826 116.911C169.296 118.601 169.765 120.385 170.141 122.075C170.423 123.202 170.61 124.329 170.798 125.455C170.986 126.77 171.174 128.085 171.455 129.399C171.549 130.15 171.831 130.995 171.925 131.746C172.113 132.685 172.207 133.624 172.394 134.657C172.488 135.127 172.582 135.596 172.676 136.066C172.958 137.568 173.239 139.164 173.427 140.667C173.521 141.042 173.521 141.324 173.521 141.7C173.803 141.793 173.897 141.793 173.897 141.793Z" fill="#A16A45"/>
<path id="Shape_2" fill-rule="evenodd" clip-rule="evenodd" d="M144.789 96.4413C144.601 96.6291 144.507 96.8169 144.507 97.0986C144.789 97.1925 144.977 97.0047 145.07 96.8169C145.728 96.4413 146.385 96.0657 147.136 95.784C147.944 95.4169 148.809 95.2794 149.642 95.1471C149.874 95.1103 150.104 95.0738 150.329 95.0329C151.549 94.7512 152.77 95.0329 153.991 95.3146C154.391 95.3813 154.744 95.5429 155.083 95.6983C155.221 95.7615 155.357 95.8236 155.493 95.8779C156.878 96.2626 158.074 97.0886 159.235 97.8909C159.491 98.0678 159.746 98.2435 160 98.4131C160.094 98.507 160.188 98.6009 160.282 98.7887C160 98.6948 159.906 98.6948 159.718 98.6948C159.484 98.6948 159.225 98.6714 158.967 98.6479C158.709 98.6244 158.451 98.6009 158.216 98.6009C157.048 98.6009 155.937 98.8279 154.794 99.0613C154.467 99.1281 154.137 99.1955 153.803 99.2582C152.394 99.5399 151.174 100.197 150.047 100.948C148.732 101.887 147.7 103.014 146.761 104.329C145.728 105.737 145.07 107.333 144.695 109.023C144.413 110.244 144.225 111.559 144.319 112.779C144.366 113.249 144.437 113.695 144.507 114.141C144.577 114.587 144.648 115.033 144.695 115.502C144.742 115.596 144.765 115.714 144.789 115.831C144.812 115.948 144.836 116.066 144.883 116.16C144.883 116.347 144.977 116.535 145.164 116.441C145.258 116.347 145.446 116.16 145.446 116.066C145.507 115.882 145.489 115.738 145.468 115.581C145.457 115.499 145.446 115.412 145.446 115.315C145.352 115.127 145.352 115.033 145.352 114.845V111.746C145.352 111.089 145.446 110.526 145.54 109.962C145.822 108.742 146.197 107.521 146.761 106.394C147.23 105.455 147.793 104.61 148.451 103.859C149.014 103.108 149.859 102.451 150.798 101.981C152.207 101.324 153.615 100.761 155.117 100.573C156.338 100.479 157.653 100.479 158.873 100.667C159.061 100.714 159.225 100.737 159.39 100.761C159.554 100.784 159.718 100.808 159.906 100.854L159.718 101.042L159.155 101.324C157.559 102.075 156.244 103.014 155.117 104.329C153.991 105.643 153.239 107.146 152.582 108.648C152.528 108.778 152.472 108.91 152.416 109.042C151.987 110.058 151.528 111.147 151.361 112.31C151.315 112.685 151.291 113.085 151.268 113.484C151.244 113.883 151.221 114.282 151.174 114.657L151.168 114.726C151.076 115.921 150.991 117.026 151.268 118.131C151.395 118.387 151.436 118.687 151.479 119C151.499 119.147 151.519 119.296 151.549 119.446C151.737 120.385 152.113 121.324 152.582 122.169C152.77 122.451 152.864 122.451 153.333 122.357C153.286 122.263 153.286 122.169 153.286 122.075C153.286 121.981 153.286 121.887 153.239 121.793C153.191 121.648 153.142 121.509 153.095 121.374C152.961 120.987 152.84 120.639 152.77 120.291C152.723 120.056 152.653 119.798 152.582 119.54C152.512 119.282 152.441 119.023 152.394 118.789C152.363 118.413 152.321 118.038 152.28 117.662C152.196 116.911 152.113 116.16 152.113 115.408C152.113 114.657 152.207 113.812 152.394 113.061C152.582 112.216 152.77 111.465 153.052 110.714C153.239 110.056 153.427 109.399 153.803 108.742C154.46 107.427 155.305 106.3 156.338 105.268C157.559 104.047 158.967 103.202 160.563 102.545C160.657 102.451 160.845 102.451 161.033 102.451C160.939 102.732 160.845 102.92 160.751 103.108C160.65 103.338 160.55 103.566 160.45 103.793C159.897 105.044 159.365 106.249 158.967 107.521C158.592 108.93 158.216 110.432 158.122 111.934C157.934 113.718 158.028 115.408 158.404 117.192C158.873 119.164 159.343 121.136 160.282 122.92C160.376 123.108 160.493 123.272 160.61 123.437C160.728 123.601 160.845 123.765 160.939 123.953C161.033 124.141 161.221 124.141 161.408 124.047C161.502 124.047 161.596 123.765 161.596 123.671C161.596 123.467 161.497 123.312 161.407 123.171C161.373 123.117 161.34 123.066 161.315 123.014C161.127 122.545 160.939 122.169 160.751 121.793C160.188 120.197 159.812 118.601 159.53 116.911C159.343 115.502 159.249 114.188 159.249 112.873C159.249 112.498 159.249 112.028 159.343 111.653C159.53 111.136 159.648 110.62 159.765 110.103C159.883 109.587 160 109.07 160.188 108.554C160.355 108.119 160.499 107.696 160.639 107.281C160.894 106.53 161.14 105.805 161.502 105.08C161.878 104.235 162.441 103.39 163.005 102.545C163.192 102.263 163.38 102.169 163.662 102.263L163.662 102.263C164.131 102.357 164.601 102.451 164.977 102.545C165.133 102.607 165.289 102.659 165.446 102.712C165.759 102.816 166.072 102.92 166.385 103.108C166.532 103.196 166.681 103.284 166.832 103.373C167.643 103.852 168.489 104.352 169.202 104.986C170.235 105.831 171.08 106.77 171.737 107.803C171.875 107.94 171.962 108.128 172.072 108.366C172.113 108.453 172.156 108.547 172.207 108.648C171.737 108.742 171.268 108.836 170.892 108.93C169.953 109.211 169.014 109.587 168.169 110.15C167.418 110.62 166.761 111.277 166.103 111.934C165.728 112.31 165.634 112.779 165.54 113.249C166.009 113.437 166.197 113.343 166.479 112.967C167.042 112.122 167.7 111.559 168.545 111.089C169.004 110.783 169.587 110.54 170.143 110.307C170.27 110.255 170.395 110.202 170.516 110.15C171.08 109.962 171.643 109.869 172.207 109.775C172.582 109.775 172.77 109.869 172.864 110.15C172.911 110.244 172.958 110.362 173.005 110.479C173.052 110.596 173.099 110.714 173.146 110.808C173.505 111.455 173.7 112.158 173.897 112.873C173.958 113.091 174.019 113.311 174.084 113.531C174.178 114 174.178 114.094 173.803 114.282C173.692 114.356 173.581 114.415 173.475 114.472C173.313 114.558 173.165 114.637 173.052 114.751C172.113 115.502 171.174 116.254 170.423 117.192C169.765 117.944 169.296 118.695 168.826 119.54C168.169 120.761 167.793 122.075 167.606 123.39C167.606 123.671 167.606 123.859 167.887 124.047C168.263 123.859 168.357 123.577 168.451 123.202C168.732 121.981 169.296 120.948 169.953 119.915C170.538 118.941 171.348 118.146 172.164 117.344C172.528 116.987 172.892 116.629 173.239 116.254C173.521 115.972 173.803 115.784 174.272 115.69C174.272 115.737 174.296 115.761 174.319 115.784C174.343 115.808 174.366 115.831 174.366 115.878V116.347V116.723C174.366 117.005 174.46 117.192 174.742 117.192C175.023 117.286 175.117 117.099 175.211 116.817V116.535C175.211 116.3 175.235 116.066 175.258 115.831C175.282 115.596 175.305 115.362 175.305 115.127C177.653 114.094 179.061 113.812 179.812 114.094C179.624 114.282 179.437 114.469 179.249 114.563C178.31 115.221 177.465 115.972 176.807 116.911C176.62 117.146 176.455 117.38 176.291 117.615C176.127 117.85 175.962 118.085 175.775 118.319C174.836 119.446 174.178 120.761 173.521 122.075C172.864 123.39 172.3 124.798 172.113 126.3C171.925 127.427 171.925 128.46 172.019 129.587C172.019 129.634 172.042 129.704 172.066 129.775C172.089 129.845 172.113 129.915 172.113 129.962H172.207C172.207 129.869 172.253 129.798 172.3 129.728C172.347 129.657 172.394 129.587 172.394 129.493C172.441 129.305 172.465 129.117 172.488 128.93C172.512 128.742 172.535 128.554 172.582 128.366C172.958 126.3 173.615 124.329 174.46 122.451C175.023 121.042 175.962 119.822 176.901 118.601C177.746 117.662 178.592 116.911 179.53 116.16C180.188 115.596 180.939 115.221 181.69 114.845C182.441 115.878 182.911 117.005 183.192 118.225C183.474 119.258 183.474 120.291 183.474 121.324C183.456 121.546 183.441 121.769 183.426 121.99C183.366 122.892 183.306 123.781 183.005 124.61C182.817 125.268 182.629 125.925 182.347 126.582C182.286 126.696 182.226 126.808 182.166 126.92C181.582 128.012 181.039 129.026 180.188 129.962C180.094 130.056 180 130.244 180.094 130.526C180.469 130.62 180.657 130.432 180.845 130.244C181.315 129.775 181.784 129.305 182.16 128.836C183.662 126.958 184.413 124.798 184.695 122.451C184.742 122.263 184.742 122.052 184.742 121.84C184.742 121.629 184.742 121.418 184.789 121.23C184.976 120.291 184.883 119.352 184.789 118.413V118.413C184.695 117.192 184.413 115.972 183.944 114.751C183.944 114.657 183.944 114.469 183.85 114.282L184.413 114.563C185.728 115.315 186.761 116.254 187.606 117.568C188.263 118.695 188.732 119.822 189.202 121.042C189.254 121.2 189.31 121.358 189.366 121.516C189.611 122.206 189.859 122.908 189.859 123.671C189.953 124.329 189.953 124.986 189.953 125.643C189.953 125.925 189.953 126.207 189.859 126.488C189.671 127.427 189.39 128.366 189.108 129.305L189.108 129.305C189.014 129.587 189.014 129.775 189.202 130.15C189.268 130.084 189.335 130.029 189.397 129.978C189.511 129.884 189.611 129.802 189.671 129.681L189.671 129.681C189.953 129.117 190.235 128.554 190.423 127.991C191.174 126.113 191.361 124.141 190.892 122.075C190.851 121.87 190.792 121.665 190.731 121.452C190.652 121.177 190.569 120.89 190.516 120.573C190.141 118.883 189.202 117.38 188.169 115.972C187.418 114.939 186.479 114.094 185.446 113.437L185.164 113.155C186.854 113.061 188.357 113.437 189.671 114.282C189.718 114.329 189.765 114.352 189.812 114.376C189.859 114.399 189.906 114.423 189.953 114.469C190.073 114.544 190.195 114.619 190.319 114.695C190.969 115.094 191.654 115.513 192.207 116.066C193.146 116.911 194.084 117.85 194.742 119.07C194.789 119.164 194.859 119.258 194.93 119.352C195 119.446 195.07 119.54 195.117 119.634C195.399 119.634 195.493 119.446 195.493 119.258C195.493 119.07 195.399 118.789 195.305 118.601C194.742 117.38 193.897 116.347 192.958 115.408C192.842 115.293 192.726 115.171 192.608 115.048C192.251 114.672 191.88 114.283 191.455 114C190.798 113.531 190.141 113.061 189.39 112.685C187.887 111.84 186.197 111.559 184.413 111.746C184.038 111.84 183.756 111.84 183.286 111.84C183.432 111.677 183.57 111.517 183.705 111.361C184.266 110.711 184.765 110.135 185.446 109.681C186.385 109.023 187.418 108.554 188.545 108.178C190.047 107.615 191.549 107.333 193.146 107.427C193.521 107.427 193.897 107.521 194.272 107.615C195.399 107.991 196.526 108.46 197.559 109.117C197.606 109.117 197.676 109.141 197.746 109.164C197.817 109.188 197.887 109.211 197.934 109.211C198.028 109.211 198.216 109.211 198.31 109.117C198.31 109.023 198.31 108.836 198.216 108.742C198.216 108.648 198.122 108.554 198.028 108.554C197.183 107.897 196.244 107.333 195.211 106.958C194.272 106.582 193.333 106.394 192.394 106.3C192.304 106.3 192.203 106.291 192.099 106.281C191.881 106.259 191.646 106.237 191.455 106.3C191.127 106.347 190.775 106.418 190.423 106.488C190.07 106.559 189.718 106.629 189.39 106.676C187.981 106.864 186.667 107.333 185.446 107.991C184.038 108.742 182.723 109.775 181.784 111.183L181.502 111.465C180.939 110.995 180.376 110.62 179.812 110.244C179.437 109.962 179.061 109.681 178.592 109.493C177.089 108.93 175.681 108.46 174.084 108.648C173.615 108.742 173.427 108.554 173.239 108.178C172.958 107.427 172.488 106.676 171.925 106.113C170.986 105.08 170.047 104.141 169.014 103.202C168.263 102.545 167.418 101.981 166.385 101.7C166.009 101.606 165.634 101.418 165.352 101.136C165.424 101.1 165.482 101.064 165.531 101.034C165.612 100.984 165.67 100.948 165.728 100.948C165.876 100.904 166.025 100.857 166.174 100.81C166.966 100.559 167.769 100.306 168.638 100.385L168.639 100.385C169.577 100.479 170.516 100.573 171.361 100.667C172.145 100.745 172.798 101.085 173.429 101.414C173.554 101.479 173.678 101.543 173.803 101.606C174.648 101.981 175.305 102.545 175.962 103.108C176.119 103.264 176.286 103.411 176.453 103.557C176.787 103.849 177.12 104.141 177.371 104.516C177.653 104.986 178.028 105.361 178.404 105.737L178.404 105.737C178.592 105.972 178.756 106.183 178.92 106.394C179.084 106.606 179.249 106.817 179.437 107.052C179.624 107.239 179.906 107.333 180.094 107.052C179.906 106.394 179.624 105.831 179.249 105.268C178.967 104.892 178.662 104.54 178.357 104.188C178.052 103.836 177.746 103.484 177.465 103.108C176.244 101.7 174.648 100.667 172.958 99.8216C172.596 99.6407 172.195 99.5372 171.806 99.4366C171.589 99.3806 171.375 99.3254 171.174 99.2582C169.859 98.9765 168.545 98.7887 167.136 98.9765H166.291L166.667 98.6009C166.743 98.54 166.822 98.4766 166.902 98.4115C167.319 98.0754 167.791 97.6949 168.263 97.3803C169.39 96.6291 170.516 96.1596 171.737 95.784C172.676 95.5023 173.615 95.2207 174.554 95.2207C176.056 95.1268 177.653 95.2207 179.061 95.8779C179.343 96.0188 179.601 96.1596 179.859 96.3005C180.117 96.4413 180.376 96.5822 180.657 96.723C180.845 96.8169 181.033 96.9343 181.221 97.0516C181.408 97.169 181.596 97.2864 181.784 97.3803C181.842 97.4383 181.936 97.4605 182.066 97.4911C182.146 97.51 182.24 97.5322 182.347 97.5681C182.253 97.1925 182.16 96.8169 181.878 96.6291C181.778 96.5495 181.679 96.4688 181.579 96.3878C180.737 95.7051 179.871 95.003 178.779 94.7512C178.463 94.6722 178.151 94.5849 177.841 94.498C176.676 94.1718 175.533 93.8517 174.272 94C174.014 94.0235 173.756 94.0411 173.498 94.0587C172.723 94.1115 171.948 94.1643 171.174 94.3756C170.141 94.6573 169.202 94.939 168.357 95.4085C167.7 95.784 167.042 96.1596 166.479 96.723L165.634 97.5681C165.493 97.7089 165.329 97.8498 165.164 97.9906C165 98.1315 164.836 98.2723 164.695 98.4131C164.601 98.4131 164.507 98.4131 164.319 98.507C164.225 98.3192 164.225 98.0376 164.225 97.8498C164.166 97.5534 164.116 97.2571 164.067 96.9637C163.96 96.3274 163.855 95.7051 163.662 95.1268C163.286 94 162.817 92.9671 162.347 91.9343C161.69 90.338 160.657 89.0235 159.249 87.9906C158.31 87.2394 157.277 86.77 156.056 86.5822C155.493 86.4883 155.211 86.5822 155.023 87.0516C155.023 87.0516 155.023 87.1455 155.117 87.1455C155.164 87.1455 155.211 87.169 155.258 87.1925C155.305 87.216 155.352 87.2394 155.399 87.2394C155.523 87.2766 155.647 87.3122 155.771 87.3476C156.583 87.5805 157.376 87.8081 158.028 88.4601C158.028 88.5181 158.064 88.5403 158.114 88.5709C158.144 88.5899 158.18 88.612 158.216 88.6479C159.061 89.2113 159.718 89.9624 160.282 90.7136C160.939 91.6526 161.408 92.6854 161.69 93.8122C161.773 94.1843 161.874 94.5564 161.977 94.9365C162.108 95.4197 162.242 95.9158 162.347 96.4413C162.441 97.0047 162.441 97.6619 162.441 98.2253V98.2254C162.441 98.3192 162.441 98.4131 162.347 98.507L161.596 97.7559C161.408 97.4742 161.221 97.2864 160.939 97.0986C160.094 96.6291 159.343 96.1596 158.592 95.6902L158.592 95.6901C157.653 95.1268 156.62 94.7512 155.587 94.4695C154.084 94.0939 152.582 93.9061 151.08 94C150.276 94 149.586 94.2273 148.877 94.4609C148.675 94.5276 148.471 94.5947 148.263 94.6573C146.948 95.0329 145.822 95.6901 144.789 96.4413ZM177.653 112.967C176.807 113.155 175.962 113.437 175.117 113.718C174.836 112.498 174.554 111.371 173.897 110.244C174.46 110.244 174.93 110.244 175.399 110.338C175.634 110.385 175.892 110.455 176.15 110.526C176.408 110.596 176.667 110.667 176.901 110.714C177.515 110.85 178.029 111.184 178.517 111.501C178.701 111.62 178.881 111.737 179.061 111.84C179.102 111.861 179.144 111.881 179.187 111.902C179.537 112.073 179.937 112.267 180.188 112.685C179.906 112.717 179.624 112.738 179.343 112.758C178.779 112.8 178.216 112.842 177.653 112.967Z" fill="#309C7D"/>
<path id="Path_49" d="M188.169 145.549C188.357 145.831 188.357 146.113 188.357 146.394C188.169 147.521 187.981 148.554 187.793 149.681C187.606 150.714 187.512 151.746 187.418 152.779C187.23 153.812 187.136 154.751 186.948 155.784C186.761 157.005 186.573 158.319 186.291 159.54C186.009 161.23 185.634 162.92 185.258 164.61C184.883 166.3 184.413 167.897 183.944 169.587C183.662 170.714 183.286 171.84 182.911 172.873C182.629 173.624 182.347 174.376 182.066 175.221C181.972 175.502 181.784 175.69 181.502 175.69C180.563 175.784 179.624 175.878 178.685 175.972C177.465 176.066 176.244 176.254 175.023 176.254C173.239 176.347 171.455 176.347 169.671 176.441C168.357 176.535 167.042 176.535 165.728 176.347C165.164 176.254 164.695 176.16 164.131 176.066C163.85 176.066 163.756 175.878 163.662 175.69C163.568 175.221 163.474 174.751 163.38 174.188C163.192 172.685 162.911 171.277 162.629 169.869C162.347 168.366 162.16 166.958 161.972 165.455C161.784 163.953 161.502 162.451 161.315 160.948C161.127 159.352 160.845 157.756 160.657 156.16C160.469 154.751 160.469 153.437 160.376 152.028C160.282 150.808 160.188 149.587 160.094 148.366C160.094 147.897 160.094 147.897 160.563 147.803C161.784 147.709 163.005 147.615 164.225 147.615C165.728 147.521 167.324 147.521 168.826 147.333C170.892 147.146 172.958 146.958 174.93 146.77C176.338 146.582 177.465 146.582 178.873 146.394C179.812 146.3 180.939 146.3 181.878 146.207C183.005 146.113 184.319 146.113 185.446 146.019C186.479 145.925 187.512 145.831 188.169 145.549Z" fill="#2E526B"/>
</g>
</svg>
