<svg width="173" height="43" viewBox="0 0 173 43" fill="none" xmlns="http://www.w3.org/2000/svg">
<path d="M106.394 26.4221V21.5625L104.47 21.4503V19.0579H111.368V21.3382C110.715 21.4503 109.735 21.3008 109.844 22.3101V28.179C88.8948 39.057 88.6769 1.26435 109.771 10.2733V15.1329L106.903 15.3572C106.758 14.6843 107.338 12.5162 106.358 12.3293C101.638 11.0957 97.6083 13.7498 97.8988 19.4317C97.5357 25.8613 101.747 28.6276 106.394 26.4221Z" fill="#4E6378"/>
<path d="M118.412 20.1046V27.3192L120.772 27.4314V29.7116H113.293V27.5061C114.055 27.394 115.108 27.5809 114.926 26.4221V17.5627C115.035 16.4786 113.874 16.7403 113.256 16.6655V14.3479H118.121V16.6655H118.158C118.739 14.3479 122.66 13.1516 125.092 14.5348V19.6186L122.115 19.8429C122.006 19.357 122.369 17.301 121.861 17.1141C120.046 16.4038 118.339 18.0112 118.412 20.1046Z" fill="#4E6378"/>
<path d="M132.425 14.251C141.334 13.0761 141.979 30.7372 131.932 30.1498C121.999 30.4802 123.515 13.1495 132.425 14.251ZM135.42 22.2555C136.102 15.3158 128.634 15.0955 128.975 21.7414C128.141 28.6443 135.61 29.8193 135.42 22.2555Z" fill="#4E6378"/>
<path d="M155.494 26.3883C155.381 27.555 156.281 27.3291 157.031 27.4797V29.7001H152.12V27.7055H152.045C149.533 31.8076 142.036 30.7162 142.673 24.8829V17.5067C142.786 16.4529 141.736 16.6411 141.062 16.5658V14.2325H146.31V24.055C146.31 26.0872 146.685 27.141 148.671 27.141C150.471 27.141 151.895 25.7109 151.895 23.7163V17.5067C152.008 16.4153 151.033 16.6034 150.321 16.5282V14.1949H155.494V26.3883Z" fill="#4E6378"/>
<path d="M159.618 16.948C159.729 15.8221 158.583 16.0848 157.918 16.0098V13.683H162.907V15.672C162.944 15.672 162.944 15.7095 162.981 15.7095C163.905 13.9457 165.716 13.3077 167.379 13.3077C176.767 13.5329 173.736 34.4364 163.166 28.6945V33.0478L165.605 33.1979V35.4872H157.955V33.273C158.694 33.1604 159.729 33.3856 159.618 32.1847C159.618 32.1096 159.618 16.948 159.618 16.948ZM163.166 25.7672C170.114 30.7586 171.223 16.1223 166.234 16.1598C161.429 16.2725 163.647 22.9901 163.166 25.7672Z" fill="#4E6378"/>
<path d="M32.8215 9.75897L37.7608 22.831H37.8351L42.923 9.75897H48.9393V11.9917L48.0851 12.0637C47.4909 12.1357 47.1938 12.3878 47.231 13L48.1223 26.8642L49.6821 26.9362V29.2409H42.9973V27.0082L43.9628 26.9362C44.557 26.9002 44.6685 26.6481 44.6313 25.8919L44.0371 14.8725L39.0978 27.0442H36.3125L31.5588 15.0166H31.4846L30.8161 26.9002L32.3759 26.9722V29.2769H25.7282V27.0442L26.6195 26.9722C27.1766 26.9002 27.3994 26.7201 27.4365 25.9639L28.4393 12.1717L26.8423 12.0997V9.79498L32.8215 9.75897Z" fill="#2C333E"/>
<path d="M56.9042 26.9395L58.5538 27.0491V29.2769H51.4948V27.1221L52.4922 27.0491C53.1061 26.976 53.2212 26.83 53.2212 26.063V17.4803C53.2212 16.8229 53.0294 16.6403 52.4539 16.6038L51.4564 16.5308V14.2664H56.9042V26.9395ZM54.8708 7.98462C56.1752 7.98462 57.1727 8.82462 57.1727 9.99333C57.1727 11.2351 56.2136 12.0751 54.8708 12.0751C53.5281 12.0751 52.6457 11.1986 52.6457 10.0298C52.6073 8.89767 53.5281 7.98462 54.8708 7.98462Z" fill="#2C333E"/>
<path d="M66.5122 16.7646C65.1464 16.7646 64.0841 17.3153 64.0841 18.5635C64.0841 19.9585 65.4499 20.3256 67.1571 20.8028C69.4335 21.4636 71.8615 22.1978 71.8615 25.2448C71.8615 28.402 69.4335 30.1641 65.6396 30.1641C63.6289 30.1641 61.3525 29.7236 60.3282 29.1729V25.2448L63.1357 25.0246V26.5664C63.1357 27.007 63.2495 27.1905 63.6289 27.3007C64.0841 27.4842 64.8429 27.5943 65.4499 27.5943C67.0433 27.5943 68.1436 27.007 68.1436 25.5752C68.1436 24.1435 67.0054 23.8498 65.1464 23.3726C62.8321 22.7852 60.5179 22.051 60.5179 18.9306C60.5179 15.7734 63.2115 14.1949 66.7019 14.1949C68.3712 14.1949 70.2302 14.562 71.4442 15.2595V18.8939L68.6747 19.1141V17.7925C68.6747 17.2786 68.5988 17.095 68.2194 16.9849C67.6883 16.8013 67.0433 16.7646 66.5122 16.7646Z" fill="#2C333E"/>
<path d="M79.8578 16.7646C78.492 16.7646 77.3918 17.3153 77.3918 18.5635C77.3918 19.9585 78.7576 20.3256 80.4648 20.8028C82.7412 21.4636 85.1692 22.1978 85.1692 25.2448C85.1692 28.402 82.7412 30.1641 78.9473 30.1641C76.9366 30.1641 74.6602 29.7236 73.6359 29.1729V25.2448L76.4434 25.0246V26.5664C76.4434 27.007 76.5572 27.1905 76.9366 27.3007C77.3918 27.4842 78.1506 27.5943 78.7576 27.5943C80.351 27.5943 81.4512 27.007 81.4512 25.5752C81.4512 24.1435 80.3131 23.8498 78.4541 23.3726C76.1398 22.7852 73.8256 22.051 73.8256 18.9306C73.8256 15.7734 76.5192 14.1949 80.0096 14.1949C81.6789 14.1949 83.5379 14.562 84.7519 15.2595V18.8939L81.9824 19.1141V17.7925C81.9824 17.2786 81.9065 17.095 81.5271 16.9849C81.0719 16.8013 80.389 16.7646 79.8578 16.7646Z" fill="#2C333E"/>
<path fill-rule="evenodd" clip-rule="evenodd" d="M26.3572 39.4166C26.2094 39.1958 26.0616 38.9383 25.9878 38.6439C25.9878 38.6071 25.9508 38.6071 25.9508 38.5703C25.9508 38.6071 25.9508 38.6071 25.9878 38.6071C25.7661 37.9448 25.84 37.2825 26.0986 36.6201C26.6158 36.8041 27.0592 37.0249 27.5026 37.3193C27.4656 37.5768 27.3917 37.7976 27.3548 38.0552C27.2809 38.5335 27.2809 39.0118 27.3548 39.4902C27.17 39.6374 26.9853 39.7845 26.8006 39.8949C26.6158 39.7478 26.4681 39.6006 26.3572 39.4166ZM14.1279 41.9187C14.3865 37.54 12.8347 34.7804 9.02923 34.0077C3.9306 33.5293 2.08326 32.4255 2.56357 30.8065C2.85914 29.1875 2.41578 27.9733 1.45517 27.0166C0.753184 25.9863 0.900971 25.2504 1.78769 24.6985C1.0857 24.2569 1.04876 23.8522 1.27044 23.4474C1.7138 22.6747 2.12021 21.4605 1.89853 21.1293C1.23349 20.7246 0.679291 20.283 0.198984 19.7679C-0.576896 18.4065 1.04876 16.9715 2.78525 15.5732C4.18922 14.0646 4.30006 12.0777 4.11533 9.98036C4.26312 5.67531 6.11045 2.47412 9.32481 0.119217C9.25091 0.192807 9.21397 0.266398 9.21397 0.376784C9.28786 0.266398 9.36176 0.156012 9.43565 0.0824215C9.3987 0.0824215 9.3987 0.119217 9.36176 0.119217C9.3987 0.0824215 9.43565 0.0824215 9.4726 0.0456262L9.43565 0.0824215C9.76817 -0.0647597 10.3593 0.00883087 10.6918 0.119217C12.5022 0.781532 13.7215 2.73168 14.4973 4.49786C15.7166 7.44148 14.0909 11.0474 15.2363 13.991C15.7166 15.2789 16.8619 16.2356 17.8964 17.229C17.8964 17.4866 17.9334 17.7442 17.9334 17.9649C18.0442 21.5709 17.7117 25.508 15.3102 28.4148C13.7954 30.2546 11.6894 31.5056 9.4726 32.3519C10.9135 32.4623 12.3914 32.4255 13.7954 32.1311C12.65 32.9406 11.3938 33.6029 10.0637 34.0813C11.5047 34.1917 12.9825 34.1549 14.3865 33.8605C14.5712 33.8237 14.756 33.7869 14.9038 33.7501C14.2757 34.0813 13.5737 34.3756 12.9086 34.6332C14.3496 34.7436 15.8274 34.7068 17.2314 34.4124C17.6748 34.3388 18.0812 34.2285 18.4876 34.0813C18.5615 34.1549 18.6354 34.1917 18.7093 34.2653C18.7462 34.4492 18.7462 34.6332 18.7832 34.8172C18.9679 35.7739 19.3374 36.6937 19.9285 37.4664C20.6305 38.4967 21.5911 39.2694 22.6256 39.8949C21.7758 38.5703 21.1108 36.9881 21.1108 35.3691V35.3323C21.628 35.4795 22.1822 35.5899 22.6995 35.7003C22.6626 35.8842 22.6256 36.0314 22.6256 36.2154C22.5517 36.8409 22.5517 37.5032 22.6995 38.1288C22.8103 38.6439 22.9951 39.1958 23.2168 39.6374C23.5123 40.2261 23.8818 40.7412 24.3252 41.146C21.1108 42.6914 17.2314 43.0593 14.1279 41.9187Z" fill="#4E6378"/>
</svg>
