<svg width="171" height="29" viewBox="0 0 171 29" fill="none" xmlns="http://www.w3.org/2000/svg">
<path d="M67.588 10.3896C68.4471 10.7671 69.1915 11.3772 69.7424 12.1553C70.1961 12.7652 70.4983 13.4805 70.6226 14.2386C70.7515 15.4001 70.8049 16.5693 70.7826 17.7382V28.3833H66.0983V17.3635C66.131 16.5497 65.9681 15.7403 65.6244 15.0071C65.2058 14.1624 64.3933 13.7368 63.2607 13.7368C62.2008 13.6702 61.1768 14.145 60.5215 15.0071C59.8349 16.0571 59.5058 17.3127 59.5858 18.5766V28.3833H55V4H59.5858V12.6316C60.1304 11.6865 60.9276 10.9235 61.8818 10.434C62.7423 10.0154 63.682 9.79846 64.6333 9.79889C65.647 9.78448 66.6528 9.98555 67.588 10.3896ZM89.7477 26.173C88.2704 28.053 86.0236 28.9952 83.0074 28.9994C79.9912 29.0036 77.7445 28.0615 76.2672 26.173C74.7702 24.2455 73.983 21.8334 74.0451 19.3642C73.9941 16.9045 74.7804 14.5042 76.2672 12.5808C77.7445 10.6669 79.9912 9.70997 83.0074 9.70997C86.0236 9.70997 88.2704 10.6669 89.7477 12.5808C91.2345 14.5042 92.0208 16.9045 91.9698 19.3642C92.0319 21.8334 91.2446 24.2455 89.7477 26.173ZM86.0544 23.5879C86.8442 22.348 87.2222 20.8768 87.1316 19.396C87.2309 17.9063 86.8523 16.4243 86.0544 15.1786C85.2802 14.2472 84.1504 13.7112 82.9613 13.7112C81.7721 13.7112 80.6423 14.2472 79.8681 15.1786C79.0742 16.4145 78.6937 17.8844 78.7848 19.3642C78.696 20.8458 79.0762 22.317 79.8681 23.5562C80.6355 24.4955 81.7636 25.0402 82.9542 25.0464C84.1447 25.0524 85.278 24.5193 86.0544 23.5879ZM98.7778 22.6098C98.801 23.2577 99.0158 23.8827 99.3933 24.4009C99.9658 25.0361 101.018 25.3473 102.563 25.3473C103.303 25.3802 104.039 25.239 104.718 24.9345C105.216 24.7251 105.535 24.2185 105.518 23.6642C105.542 23.1743 105.306 22.7095 104.902 22.451C104.492 22.1716 102.892 21.6952 100.101 21.0219C98.1232 20.5308 96.7239 19.9041 95.9032 19.1419C95.0477 18.2986 94.597 17.1083 94.6721 15.89C94.6643 14.235 95.3621 12.6602 96.5803 11.5837C97.8524 10.3811 99.6436 9.77984 101.954 9.77984C103.83 9.6943 105.69 10.1637 107.315 11.1327C108.7 12.0346 109.488 13.5971 109.698 15.8074H105.112C105.077 15.2887 104.904 14.7899 104.613 14.3656C104.102 13.7305 103.247 13.4002 102.028 13.4002C101.285 13.3349 100.54 13.5032 99.8919 13.8829C99.5178 14.1312 99.2873 14.5546 99.2764 15.0135C99.2515 15.5102 99.5186 15.9737 99.9535 16.1885C101.512 16.7633 103.113 17.2031 104.742 17.5032C106.252 17.7879 107.661 18.478 108.83 19.5039C109.726 20.3912 110.217 21.6273 110.184 22.9083C110.221 24.6071 109.494 26.2278 108.214 27.2972C106.921 28.432 104.921 28.9994 102.213 28.9994C99.5041 28.9994 97.4646 28.3981 96.094 27.1956C94.8011 26.051 94.0755 24.3671 94.1181 22.6098H98.7778ZM111.741 13.8257V10.4594H114.203V5.41003H118.74V10.4594H121.59V13.8257H118.74V23.3529C118.677 23.8356 118.774 24.3261 119.017 24.7439C119.195 24.9217 119.756 25.017 120.691 25.017H121.141H121.596V28.5484L119.423 28.631C117.257 28.7115 115.777 28.324 114.985 27.4687C114.416 26.7731 114.137 25.8734 114.21 24.9662V13.8257H111.741ZM138.659 11.3296C139.804 12.3077 140.376 13.9316 140.376 16.2012V28.3833H135.68V17.3762C135.715 16.6266 135.589 15.8783 135.311 15.1849C134.867 14.2576 134.012 13.794 132.756 13.794C131.38 13.6879 130.096 14.5124 129.58 15.8328C129.255 16.712 129.102 17.6489 129.13 18.5893V28.3833H124.551V10.3261H128.989V12.9619C129.432 12.2015 129.996 11.5231 130.657 10.9549C131.696 10.1907 132.952 9.80424 134.227 9.85606C135.827 9.79117 137.397 10.3132 138.659 11.3296ZM156.067 10.6563C157.304 11.2346 158.357 12.1642 159.101 13.3367C159.834 14.4563 160.31 15.7336 160.493 17.0713C160.638 18.2633 160.69 19.4656 160.646 20.6663H147.874C147.948 22.4828 148.563 23.7531 149.721 24.4771C150.484 24.9465 151.362 25.1822 152.25 25.1568C153.717 25.269 155.1 24.4455 155.741 23.0798H160.419C160.201 24.3366 159.594 25.4866 158.689 26.3572C157.121 28.1144 154.922 28.9952 152.09 28.9994C149.848 29.0251 147.669 28.2359 145.935 26.77C144.15 25.2922 143.257 22.8787 143.257 19.5293C143.257 16.3917 144.064 13.9887 145.676 12.3204C147.332 10.6302 149.591 9.72205 151.918 9.8116C153.344 9.78369 154.758 10.0718 156.067 10.6563ZM149.21 14.7467C148.52 15.5183 148.088 16.4978 147.979 17.5413H155.876C155.862 16.4549 155.417 15.4219 154.645 14.6832C153.887 14.0247 152.92 13.6786 151.93 13.7114C150.923 13.6502 149.937 14.0254 149.21 14.7467ZM161.151 13.8257V10.4594H163.613V5.41003H168.15V10.4594H171V13.8257H168.15V23.3529C168.087 23.8356 168.184 24.3261 168.427 24.7439C168.606 24.9217 169.166 25.017 170.101 25.017H170.538H171V28.5484L168.827 28.631C166.66 28.7115 165.181 28.324 164.389 27.4687C163.82 26.7731 163.541 25.8734 163.613 24.9662V13.8257H161.151Z" fill="#2C333E"/>
<path d="M28.0031 20.1121C28.0031 22.2051 28.8461 24.2124 30.3466 25.6918C31.847 27.1713 33.8819 28.0016 36.0031 28H43.9969V20.1121C44.0774 17.2409 42.571 14.5532 40.0637 13.0942C37.5563 11.6353 34.4437 11.6353 31.9363 13.0942C29.429 14.5532 27.9226 17.2409 28.0031 20.1121Z" fill="#BBC2CE"/>
<path d="M8.00308 14.1482C8.00308 21.7983 14.2683 28 21.9969 28H35.9969V14.1482C36.1031 9.12912 33.4588 4.44566 29.0845 1.90528C24.7101 -0.635094 19.2899 -0.635094 14.9155 1.90528C10.5412 4.44566 7.89685 9.12912 8.00308 14.1482Z" fill="#4E6378"/>
<path d="M0 17.7045C0.00329193 23.3823 4.6941 27.987 10.488 28H21V17.7045C20.6743 12.2554 16.07 8 10.5 8C4.92998 8 0.325728 12.2554 0 17.7045Z" fill="#2C333E"/>
</svg>
