<svg width="110" height="34" viewBox="0 0 110 34" fill="none" xmlns="http://www.w3.org/2000/svg">
<path d="M25 22.0105C25 15.0781 30.1984 10 37.5755 10C44.9525 10 50 15.0781 50 22.0105V23.949H32.377C32.9379 26.625 35.0302 27.8261 37.5755 27.8261C39.6031 27.8261 41.113 27.4046 42.019 26.1615H49.3529C47.843 30.8603 43.3995 33.9999 37.5971 33.9999C30.1984 34.0209 25 28.9428 25 22.0105ZM42.7308 19.5662C41.9327 17.2063 40.0345 16.1949 37.5755 16.1949C35.1165 16.1949 33.2183 17.2484 32.528 19.5662H42.7308Z" fill="#4F6479"/>
<path d="M77 22.0105C77 15.0781 82.1984 10 89.5755 10C96.9525 10 102 15.0781 102 22.0105V23.949H84.3771C84.9379 26.625 87.0302 27.8261 89.5755 27.8261C91.6031 27.8261 93.113 27.4046 94.019 26.1615H101.353C99.843 30.8603 95.3995 33.9999 89.5971 33.9999C82.1984 34.0209 77 28.9428 77 22.0105ZM94.7092 19.5662C93.9111 17.2063 92.0129 16.1949 89.5539 16.1949C87.0949 16.1949 85.1967 17.2484 84.5065 19.5662H94.7092Z" fill="#4F6479"/>
<path d="M64.6951 9.55177C62.4556 9.55177 60.087 10.2386 58.0844 11.6553V0H51V21.529C51 29.3422 56.2756 34 63.4031 34C70.8105 34 76 28.9773 76 21.4861C76 13.3939 69.9707 9.55177 64.6951 9.55177ZM63.4677 27.4104C60.2593 27.4104 58.0844 25.1136 58.0844 21.7652C58.0844 18.4167 60.2593 16.1199 63.4677 16.1199C66.6761 16.1199 68.851 18.4167 68.851 21.7652C68.8295 25.1136 66.6761 27.4104 63.4677 27.4104Z" fill="#4F6479"/>
<path d="M0 0H13.2773C21.9521 0 25.8123 4.74175 25.8123 11.299C25.8123 15.934 23.861 19.7359 19.6402 21.4874L27 33H17.3708L11.5593 22.6408H8.12333V33H0V0ZM13.4046 15.101C16.6709 15.101 17.6253 13.4777 17.6253 11.3204C17.6253 9.16311 16.6709 7.58252 13.4046 7.58252H8.12333V15.101H13.4046Z" fill="#4F6479"/>
<path d="M110 0H103V33H110V0Z" fill="#4F6479"/>
</svg>
