<svg width="169" height="45" viewBox="0 0 169 45" fill="none" xmlns="http://www.w3.org/2000/svg">
<path fill-rule="evenodd" clip-rule="evenodd" d="M94.1141 19.9624C94.8875 19.2982 95.9052 18.9195 97.1371 18.9195C98.474 18.9258 99.4596 19.3362 100.171 20.0196C100.809 20.6288 101.216 21.4666 101.426 22.4334H92.6765C92.9272 21.4074 93.4178 20.559 94.1141 19.9624ZM97.1371 16C94.8832 16 92.85 16.861 91.3803 18.2954C89.9063 19.7276 89 21.7374 89 24.0264C89 26.2816 89.8591 28.2893 91.3503 29.7194C92.8393 31.1516 94.9625 32 97.4521 32C100.458 32.0063 102.605 30.9824 104.021 29.3069L104.199 29.0974L102.054 27.0348L101.844 27.2632C100.886 28.3295 99.646 29.0805 97.4071 29.0847C96.0145 29.0847 94.894 28.6976 94.067 27.9952C93.3128 27.3521 92.8115 26.4445 92.5758 25.3042H104.991L104.996 25.0123L105 24.7796C105 22.2642 104.257 20.0703 102.9 18.4985C101.54 16.9308 99.5538 16 97.1371 16Z" fill="#4E6378"/>
<path fill-rule="evenodd" clip-rule="evenodd" d="M123.447 27.307C122.516 28.2845 121.181 29.0399 119.183 29.0399C117.787 29.0399 116.652 28.5025 115.85 27.6117C115.047 26.7167 114.581 25.462 114.581 24.0275C114.581 22.5654 115.047 21.3023 115.85 20.3988C116.652 19.5038 117.787 18.9643 119.183 18.9643C120.866 18.9643 122.163 19.5567 123.077 20.5194L123.278 20.7374L125.638 18.685L125.428 18.4671C123.944 16.8908 121.933 16 119.183 16C116.877 16 114.831 16.859 113.36 18.2978C111.892 19.726 111 21.736 111 24.0254C111 26.2914 111.892 28.2888 113.36 29.7191C114.828 31.1388 116.877 32 119.183 32C122.123 32.0084 124.315 31.0309 125.807 29.3065L126 29.0801L123.651 27.0933L123.447 27.307Z" fill="#4E6378"/>
<path fill-rule="evenodd" clip-rule="evenodd" d="M129.699 20.3644C130.508 19.4632 131.645 18.9195 133.022 18.9195C134.401 18.9195 135.538 19.4632 136.346 20.3644C137.155 21.2699 137.627 22.5519 137.627 24.0264C137.615 26.9353 135.768 29.0784 133.022 29.0848C130.278 29.0784 128.427 26.9353 128.416 24.0264C128.416 22.5519 128.891 21.2699 129.699 20.3644ZM133.022 16C130.786 16 128.778 16.861 127.33 18.2954C125.886 19.7276 125 21.7374 125 24.0264C125 26.2964 125.89 28.2935 127.33 29.7194C128.778 31.1474 130.786 32 133.022 32C135.241 32 137.235 31.1474 138.674 29.7194C140.114 28.2956 141 26.2964 141 24.0264C141 21.7374 140.116 19.7276 138.678 18.2954C137.235 16.861 135.241 16 133.022 16Z" fill="#4E6378"/>
<path fill-rule="evenodd" clip-rule="evenodd" d="M58.6953 20.3644C59.504 19.4632 60.6428 18.9195 62.0178 18.9195C63.4011 18.9195 64.5378 19.4632 65.3465 20.3644C66.151 21.2699 66.6274 22.5519 66.6274 24.0264C66.6149 26.9353 64.7635 29.0784 62.0178 29.0848C59.2762 29.0784 57.4248 26.9353 57.4102 24.0264C57.4102 22.5519 57.8887 21.2699 58.6953 20.3644ZM62.0178 16C59.7798 16 57.7759 16.861 56.3299 18.2954C54.8818 19.7276 54 21.7374 54 24.0264C54 26.2964 54.8839 28.2935 56.3299 29.7194C57.7759 31.1474 59.7798 32 62.0178 32C64.2348 32 66.2325 31.1474 67.6722 29.7194C69.1161 28.2956 70 26.2964 70 24.0264C70 21.7374 69.1161 19.7276 67.6722 18.2954C66.2325 16.861 64.2348 16 62.0178 16Z" fill="#4E6378"/>
<path fill-rule="evenodd" clip-rule="evenodd" d="M85.6782 18.2957C84.2382 16.859 82.2382 16 80.0209 16C77.7827 16 75.7764 16.859 74.3281 18.2957C72.8819 19.7281 72 21.7382 72 24.0254V32H75.4148V24.0254C75.4148 22.5528 75.8892 21.2684 76.6959 20.365C77.5026 19.4636 78.6437 18.9177 80.0209 18.9177C81.4044 18.9177 82.5392 19.4615 83.3501 20.365C84.1526 21.2684 84.6291 22.5528 84.6291 24.0254V32H88V24.0254C88 21.736 87.1181 19.7281 85.6782 18.2957Z" fill="#4E6378"/>
<path fill-rule="evenodd" clip-rule="evenodd" d="M166.965 18.0841C165.503 16.6474 163.902 16 161.634 16C159.369 16 157.767 16.6474 156.306 18.0841C156.198 18.1878 156.098 18.2978 155.997 18.4121C155.902 18.2978 155.802 18.1878 155.694 18.0841C154.233 16.6474 152.631 16 150.364 16C148.1 16 146.497 16.6474 145.033 18.0841C143.569 19.5186 143 21.7382 143 24.0275V32H146.454V24.0275C146.454 21.7741 146.63 21.2113 147.396 20.255C147.918 19.6012 148.97 18.9199 150.364 18.9199C151.758 18.9199 152.811 19.599 153.334 20.255C154.099 21.2113 154.273 21.7741 154.273 24.0275V32H157.727V24.0275C157.727 21.7741 157.903 21.2113 158.666 20.255C159.193 19.6012 160.242 18.9199 161.636 18.9199C163.033 18.9199 164.086 19.599 164.608 20.255C165.372 21.2113 165.548 21.7741 165.548 24.0275V32H169V24.0275C169 21.7382 168.433 19.5186 166.965 18.0841Z" fill="#4E6378"/>
<path fill-rule="evenodd" clip-rule="evenodd" d="M108 28C109.103 28 110 28.8952 110 30C110 31.1048 109.103 32 108 32C106.897 32 106 31.1048 106 30C106 28.8952 106.897 28 108 28Z" fill="#4E6378"/>
<path fill-rule="evenodd" clip-rule="evenodd" d="M1.23252 23.0271C1.23252 20.7285 1.67706 18.4676 2.55563 16.3093C3.8661 13.0959 6.05302 10.3933 8.88465 8.48829C11.396 6.80099 14.2993 5.82755 17.2826 5.68311L18.0348 5.67055C19.381 5.67055 20.7337 5.8443 22.0673 6.18553C29.218 8.03402 34.4536 14.6283 34.7928 22.2316L34.8117 23.0313C34.8117 25.445 34.3272 27.7771 33.4233 29.9102C34.8981 28.1371 35.8041 25.9286 35.9874 23.5818C35.9916 23.4834 36 22.914 36 22.914L35.9853 22.1583C35.96 21.6915 35.9178 21.1932 35.8525 20.6427C34.8307 12.0973 28.5017 5.32723 20.4598 4.17585C19.6486 4.05652 18.8312 4 18.0284 4L17.2384 4.02093C13.5071 4.19887 9.97601 5.56378 7.02639 7.96494C5.24399 9.41777 3.75233 11.1825 2.59355 13.2048C0.895418 16.1628 0 19.5583 0 23.0082L0.0189618 23.9147C0.18119 27.6891 1.39685 31.2752 3.52057 34.3085H3.52268C3.93984 34.901 4.40124 35.4599 4.87529 36C2.68836 32.3323 1.43899 28.1643 1.24937 23.8226L1.23252 23.0271Z" fill="#4E6378"/>
<path fill-rule="evenodd" clip-rule="evenodd" d="M26.5673 42.7952C25.6702 42.7952 24.7625 42.723 23.8142 42.5788L23.3828 42.5066L23.1265 42.4663C23.0688 42.4514 22.9685 42.4323 22.9685 42.4323L22.9193 42.4217C22.1782 42.2689 21.42 42.0758 20.6682 41.8233C18.7802 41.1909 17.0267 40.2785 15.4376 39.1071C14.9315 38.7357 14.421 38.3177 13.9212 37.8615C12.5928 36.6561 11.433 35.2789 10.4634 33.7595C8.34039 30.4216 7.21909 26.5361 7.21909 22.5127C7.21909 20.6814 7.61208 18.8989 8.38737 17.2246C9.40188 15.0156 11.0101 13.2055 13.0306 11.9768C13.6585 11.5991 14.3185 11.3041 14.9977 11.0537C13.823 12.3227 12.8426 13.7805 12.0973 15.3869C11.055 17.6448 10.5274 20.0448 10.5274 22.5106C10.5274 24.9849 11.0571 27.3786 12.0973 29.6343C13.4855 32.6412 15.6918 35.1155 18.4747 36.7983C18.7951 36.9914 19.1347 37.1739 19.4807 37.35C19.6836 37.4519 19.8844 37.5538 20.0937 37.6493C20.2176 37.7087 20.3478 37.7554 20.4738 37.8063C20.9822 38.0227 21.4969 38.2201 22.0308 38.3814L22.3491 38.4726C22.8168 38.6042 23.2931 38.7188 23.7566 38.8015C24.6878 38.9776 25.6339 39.0647 26.5673 39.0647C34.6 39.0647 41.3983 32.8216 42.3786 24.5435C42.4704 23.7838 42.511 23.1409 42.511 22.5127C42.511 21.9122 42.4704 21.2926 42.3893 20.5711C41.898 14.0267 38.9421 8.16137 34.4633 4.02339C41.127 7.21494 45.7809 14.2919 45.7809 22.5127C45.7809 33.6938 37.1587 42.7952 26.5673 42.7952ZM26.5673 0C26.217 0 25.871 0.0169763 25.5271 0.0360747C25.384 0.0445629 25.2409 0.053051 25.1 0.0636612C24.2841 0.123078 23.4789 0.227058 22.6951 0.377723C32.146 2.2048 39.412 10.5614 40.1744 20.7514C40.2449 21.3286 40.294 21.9143 40.294 22.5127C40.294 23.1133 40.2449 23.7011 40.1744 24.2761C39.3329 31.3765 33.5108 36.8599 26.5673 36.8599C25.7471 36.8599 24.9441 36.7813 24.1666 36.637C23.7544 36.5606 23.355 36.463 22.9599 36.3506C22.8595 36.3293 22.7677 36.2975 22.6716 36.2699C22.3256 36.1638 21.9839 36.0386 21.6485 35.9028C21.4371 35.8179 21.2278 35.733 21.0185 35.6376C20.5401 35.4232 20.0723 35.1813 19.6259 34.9161C17.2403 33.4731 15.3159 31.315 14.1156 28.7176C13.2484 26.8417 12.7465 24.7388 12.7465 22.5106C12.7465 20.291 13.2484 18.188 14.1156 16.3058C15.3159 13.7063 17.2403 11.5418 19.6238 10.0967C19.9527 9.89932 20.2944 9.71895 20.6447 9.54918C20.7216 9.51099 20.7964 9.47067 20.8711 9.43672C21.3858 9.19268 21.9176 8.98048 22.4623 8.80647L22.6716 8.73432C21.4456 8.35235 20.1535 8.14227 18.8207 8.14227H18.6755C16.1937 8.16774 13.8742 8.88286 11.8773 10.0967C9.48731 11.5418 7.56723 13.7063 6.36691 16.3036C5.50191 18.188 5 20.291 5 22.5106C5 27.0942 6.31992 31.3659 8.58814 34.933C9.66458 36.6264 10.9567 38.1522 12.4219 39.4806C12.9665 39.975 13.5282 40.4355 14.1113 40.8726C15.4077 41.8275 16.8131 42.6339 18.306 43.2748C18.8464 43.5061 19.3995 43.7183 19.9613 43.905C20.7835 44.1809 21.6208 44.4101 22.4815 44.5777L22.6951 44.6286C22.8595 44.6584 23.0347 44.6817 23.2055 44.7093L23.4576 44.7538C24.4742 44.9088 25.5079 45 26.5673 45C38.4167 45 48 34.8715 48 22.5106C48 10.1603 38.4167 0 26.5673 0Z" fill="#4E6378"/>
</svg>
