<?xml version="1.0" encoding="UTF-8"?>
<!DOCTYPE svg PUBLIC "-//W3C//DTD SVG 1.1//EN" "http://www.w3.org/Graphics/SVG/1.1/DTD/svg11.dtd">
<!-- Creator: CorelDRAW -->
<svg xmlns="http://www.w3.org/2000/svg" xml:space="preserve" width="4857px" height="942px" version="1.1" style="shape-rendering:geometricPrecision; text-rendering:geometricPrecision; image-rendering:optimizeQuality; fill-rule:evenodd; clip-rule:evenodd"
viewBox="0 0 4390.65 851.51"
 xmlns:xlink="http://www.w3.org/1999/xlink"
 xmlns:xodm="http://www.corel.com/coreldraw/odm/2003">
 <defs>
  <style type="text/css">
   <![CDATA[
    .fil0 {fill:white}
    .fil1 {fill:black;fill-rule:nonzero}
    .fil2 {fill:url(#id0)}
    .fil3 {fill:url(#id1)}
   ]]>
  </style>
  <linearGradient id="id0" gradientUnits="userSpaceOnUse" x1="0.09" y1="621.03" x2="775.14" y2="621.03">
   <stop offset="0" style="stop-opacity:1; stop-color:#CC9933"/>
   <stop offset="1" style="stop-opacity:1; stop-color:#7A5100"/>
  </linearGradient>
  <linearGradient id="id1" gradientUnits="userSpaceOnUse" x1="76.36" y1="273.63" x2="775.14" y2="273.63">
   <stop offset="0" style="stop-opacity:1; stop-color:#333333"/>
   <stop offset="1" style="stop-opacity:1; stop-color:black"/>
  </linearGradient>
 </defs>
 <g id="Layer_x0020_1">
  <metadata id="CorelCorpID_0Corel-Layer"/>
  <path class="fil0" d="M87.07 627.07c-55.29,-46 -87.07,-129.07 -87.07,-201.01l0 -243.62c283.95,0 567.9,0 851.84,0l0 486.63c-116.26,0 -232.53,0 -348.8,0l-8.24 9.04 -407.73 0 0 -51.04z"/>
  <path class="fil1" d="M1118.64 182.44c44.07,0 84.77,10.81 122.11,32.44 37.34,21.63 66.93,51.21 88.76,88.76 21.83,37.54 32.75,78.25 32.75,122.11 0,43.87 -10.92,84.58 -32.75,122.12 -21.83,37.54 -51.42,67.13 -88.76,88.76 -37.34,21.63 -78.04,32.44 -122.11,32.44l-121.81 0 -121.82 0 0 -121.2 0 -244.23 0 -121.2 243.63 0zm-121.81 365.43l121.81 0c33.46,0 62.02,-11.83 85.69,-35.5 23.67,-23.67 35.5,-52.44 35.5,-86.31 0,-33.87 -11.83,-62.74 -35.5,-86.61 -23.67,-23.88 -52.23,-35.81 -85.69,-35.81l-121.81 0 0 244.23z"/>
  <path id="_1" class="fil1" d="M1502.27 215.19c37.54,-21.84 78.25,-32.75 122.12,-32.75 43.87,0 84.47,10.91 121.81,32.75 37.34,21.83 66.92,51.41 88.76,88.75 21.83,37.34 32.74,78.05 32.74,122.12 0,43.66 -10.91,84.27 -32.74,121.81 -21.84,37.54 -51.42,67.13 -88.76,88.76 -37.34,21.63 -78.05,32.44 -122.12,32.44 -44.07,0 -84.78,-10.81 -122.11,-32.44 -37.34,-21.63 -66.83,-51.22 -88.46,-88.76 -21.62,-37.54 -32.44,-78.15 -32.44,-121.81 0,-44.07 10.82,-84.78 32.44,-122.12 21.63,-37.34 51.22,-66.92 88.76,-88.75zm208.12 124.56c-23.67,-23.67 -52.34,-35.5 -86,-35.5 -33.67,0 -62.34,11.83 -86,35.5 -23.67,23.67 -35.51,52.34 -35.51,86 0,33.67 11.84,62.34 35.51,86.01 23.66,23.66 52.33,35.5 86,35.5 33.66,0 62.33,-11.84 86,-35.5 23.67,-23.67 35.5,-52.34 35.5,-86.01 0,-33.66 -11.83,-62.33 -35.5,-86z"/>
  <polygon id="_2" class="fil1" points="2126.47,340.36 2283.17,182.44 2369.48,182.44 2369.48,268.75 2369.48,669.07 2247.67,669.07 2247.67,390.56 2126.47,511.76 2040.16,426.06 2004.66,390.56 2004.66,669.07 1882.85,669.07 1882.85,268.75 1882.85,182.44 1968.54,182.44 "/>
  <path id="_3" class="fil1" d="M2389.52 426.06c0,-44.07 10.91,-84.78 32.74,-122.12 21.84,-37.34 51.42,-66.92 88.76,-88.75 37.34,-21.84 78.05,-32.75 122.12,-32.75 43.66,0 84.27,10.91 121.81,32.75 37.54,21.83 67.13,51.41 88.76,88.75 21.62,37.34 32.44,78.05 32.44,122.12l0 243.62 -120.59 0 0 -183.02 -244.84 0 0 183.02 -121.2 0 0 -243.62zm349.51 -61.21c-10.61,-18.36 -25.3,-32.95 -44.07,-43.77 -18.77,-10.81 -39.38,-16.22 -61.82,-16.22 -22.45,0 -43.05,5.41 -61.83,16.22 -18.77,10.82 -33.46,25.41 -44.07,43.77l211.79 0z"/>
  <polygon id="_4" class="fil1" points="3196.74,304.25 3196.74,547.26 3379.76,547.26 3379.76,669.07 3196.74,669.07 3074.92,669.07 2893.74,669.07 2893.74,547.26 3074.92,547.26 3074.92,304.25 2893.74,304.25 2893.74,182.44 3074.92,182.44 3196.74,182.44 3379.76,182.44 3379.76,304.25 "/>
  <polygon id="_5" class="fil1" points="3522.22,390.56 3522.22,669.07 3400.41,669.07 3400.41,182.44 3486.72,182.44 3765.23,461.56 3765.23,182.44 3887.04,182.44 3887.04,669.07 3801.34,669.07 "/>
  <path id="_6" class="fil1" d="M4205.18 364.85l33.66 0c42.04,0 77.84,14.89 107.43,44.68 29.59,29.79 44.38,65.7 44.38,107.74 0,42.03 -14.79,77.84 -44.38,107.42 -29.59,29.59 -65.39,44.38 -107.43,44.38l-334.82 0 0 -121.81 186.08 0 148.74 0c8.57,0 15.72,-2.86 21.43,-8.57 5.71,-5.71 8.57,-12.85 8.57,-21.42 0,-8.57 -2.86,-15.72 -8.57,-21.43 -5.71,-5.71 -12.86,-8.57 -21.43,-8.57l0 -0.61 -148.74 0 -34.28 0c-42.03,0 -77.84,-14.79 -107.42,-44.38 -29.59,-29.58 -44.38,-65.39 -44.38,-107.43 0,-42.03 14.79,-77.84 44.38,-107.42 29.58,-29.59 65.39,-44.58 107.42,-44.99l0.61 0 334.22 0 0 121.81 -185.47 0 -148.75 0 0 0.61c-8.57,0 -15.71,2.86 -21.42,8.57 -5.71,5.71 -8.57,12.86 -8.57,21.42 0,8.57 2.86,15.72 8.57,21.43 5.71,5.71 12.85,8.57 21.42,8.57l148.75 0z"/>
  <path class="fil2" d="M775.14 669.07c-76.95,110.27 -204.73,182.44 -349.39,182.44 -232.77,0 -421.88,-186.81 -425.67,-418.67 1.08,41.09 11.97,79.44 32.66,115.03 21.84,37.55 51.52,67.13 89.06,88.75 37.55,21.64 78.35,32.45 122.42,32.45 43.67,0 84.17,-10.81 121.51,-32.45 37.33,-21.62 66.81,-51.2 88.45,-88.75 21.63,-37.54 32.43,-78.15 32.43,-121.81l0.08 -35.5 279.11 278.51 9.34 0zm-288.45 -122.28l0 122.28 -121.81 0c5.04,-2.52 10.05,-5.22 14.99,-8.09 41.66,-24.11 74.55,-57.12 98.67,-99 2.89,-5.01 5.6,-10.08 8.15,-15.19z"/>
  <path class="fil3" d="M425.75 0c144.66,0 272.44,72.16 349.39,182.44l-45.45 0 0 279.13 -243.08 -243.62 0 -0.01 -35.43 -35.5 -85.15 0 0 243.62c0,33.46 -11.93,62.02 -35.8,85.69 -23.88,23.67 -52.75,35.51 -86.62,35.51 -33.86,0 -62.74,-11.84 -86.61,-35.51 -23.87,-23.67 -35.81,-52.23 -35.81,-85.69l0 -243.62 -44.83 0c76.94,-110.28 204.73,-182.44 349.39,-182.44z"/>
 </g>
</svg>
