<?xml version="1.0" encoding="UTF-8"?>
<!DOCTYPE svg PUBLIC "-//W3C//DTD SVG 1.1//EN" "http://www.w3.org/Graphics/SVG/1.1/DTD/svg11.dtd">
<svg xmlns="http://www.w3.org/2000/svg" xml:space="preserve" width="942px" height="942px" version="1.1" style="shape-rendering:geometricPrecision; text-rendering:geometricPrecision; image-rendering:optimizeQuality; fill-rule:evenodd; clip-rule:evenodd"
viewBox="0 0 165.21 165.15"
 xmlns:xlink="http://www.w3.org/1999/xlink">
 <defs>
  <style type="text/css">
   <![CDATA[
    .fil0 {fill:#1a1a1a}
    .fil1 {fill:#2a2a2a}
    .fil2 {fill:#0d0d0d}
   ]]>
  </style>
 </defs>
 <g id="Layer_x0020_1">
  <metadata id="CorelCorpID_0Corel-Layer"/>
  <path class="fil0" d="M16.89 121.62c-10.73,-8.92 -16.89,-25.03 -16.89,-38.99l0 -47.25c55.07,0 110.14,0 165.21,0l0 94.38c-22.55,0 -45.1,0 -67.65,0l-1.6 1.76 -79.07 0 0 -9.9z"/>
  <path class="fil1" d="M150.34 129.76c-14.93,21.39 -39.71,35.39 -67.77,35.39 -45.14,0 -81.82,-36.23 -82.55,-81.2 0.2,7.97 2.32,15.41 6.33,22.31 4.24,7.28 9.99,13.02 17.27,17.21 7.28,4.2 15.2,6.29 23.75,6.29 8.47,0 16.32,-2.09 23.56,-6.29 7.24,-4.19 12.96,-9.93 17.16,-17.21 4.19,-7.28 6.29,-15.16 6.29,-23.63l0.01 -6.88 54.14 54.01 1.81 0zm-55.95 -23.71l0 23.71 -23.62 0c0.98,-0.49 1.95,-1.01 2.9,-1.56 8.08,-4.68 14.46,-11.08 19.14,-19.21 0.56,-0.97 1.09,-1.95 1.58,-2.94z"/>
  <path class="fil2" d="M82.57 0c28.06,0 52.84,14 67.77,35.38l-8.82 0 0 54.14 -47.14 -47.25 0 0 -6.87 -6.89 -16.52 0 0 47.25c0,6.49 -2.31,12.03 -6.94,16.62 -4.63,4.59 -10.23,6.89 -16.8,6.89 -6.57,0 -12.17,-2.3 -16.8,-6.89 -4.63,-4.59 -6.95,-10.13 -6.95,-16.62l0 -47.25 -8.69 0c14.92,-21.38 39.71,-35.38 67.76,-35.38z"/>
 </g>
</svg>
